<?xml version="1.0" encoding="utf-8" standalone="no"?>
<!DOCTYPE svg PUBLIC "-//W3C//DTD SVG 1.1//EN"
  "http://www.w3.org/Graphics/SVG/1.1/DTD/svg11.dtd">
<!-- Created with matplotlib (http://matplotlib.org/) -->
<svg height="345pt" version="1.1" viewBox="0 0 460 345" width="460pt" xmlns="http://www.w3.org/2000/svg" xmlns:xlink="http://www.w3.org/1999/xlink">
 <defs>
  <style type="text/css">
*{stroke-linecap:butt;stroke-linejoin:round;}
  </style>
 </defs>
 <g id="figure_1">
  <g id="patch_1">
   <path d="M 0 345.6 
L 460.8 345.6 
L 460.8 0 
L 0 0 
z
" style="fill:#ffffff;"/>
  </g>
  <g id="axes_1">
   <g id="patch_2">
    <path d="M 57.6 307.584 
L 414.72 307.584 
L 414.72 41.472 
L 57.6 41.472 
z
" style="fill:#ffffff;"/>
   </g>
   <g id="matplotlib.axis_1">
    <g id="xtick_1">
     <g id="line2d_1">
      <path clip-path="url(#peea171a283)" d="M 73.83244 307.584 
L 73.83244 41.472 
" style="fill:none;stroke:#b0b0b0;stroke-linecap:square;stroke-width:0.8;"/>
     </g>
     <g id="line2d_2">
      <defs>
       <path d="M 0 0 
L 0 3.5 
" id="m460874c543" style="stroke:#000000;stroke-width:0.8;"/>
      </defs>
      <g>
       <use style="stroke:#000000;stroke-width:0.8;" x="73.83244" xlink:href="#m460874c543" y="307.584"/>
      </g>
     </g>
     <g id="text_1">
      <!-- −0.4 -->
      <defs>
       <path d="M 10.59375 35.5 
L 73.1875 35.5 
L 73.1875 27.203125 
L 10.59375 27.203125 
z
" id="DejaVuSans-2212"/>
       <path d="M 31.78125 66.40625 
Q 24.171875 66.40625 20.328125 58.90625 
Q 16.5 51.421875 16.5 36.375 
Q 16.5 21.390625 20.328125 13.890625 
Q 24.171875 6.390625 31.78125 6.390625 
Q 39.453125 6.390625 43.28125 13.890625 
Q 47.125 21.390625 47.125 36.375 
Q 47.125 51.421875 43.28125 58.90625 
Q 39.453125 66.40625 31.78125 66.40625 
z
M 31.78125 74.21875 
Q 44.046875 74.21875 50.515625 64.515625 
Q 56.984375 54.828125 56.984375 36.375 
Q 56.984375 17.96875 50.515625 8.265625 
Q 44.046875 -1.421875 31.78125 -1.421875 
Q 19.53125 -1.421875 13.0625 8.265625 
Q 6.59375 17.96875 6.59375 36.375 
Q 6.59375 54.828125 13.0625 64.515625 
Q 19.53125 74.21875 31.78125 74.21875 
z
" id="DejaVuSans-30"/>
       <path d="M 10.6875 12.40625 
L 21 12.40625 
L 21 0 
L 10.6875 0 
z
" id="DejaVuSans-2e"/>
       <path d="M 37.796875 64.3125 
L 12.890625 25.390625 
L 37.796875 25.390625 
z
M 35.203125 72.90625 
L 47.609375 72.90625 
L 47.609375 25.390625 
L 58.015625 25.390625 
L 58.015625 17.1875 
L 47.609375 17.1875 
L 47.609375 0 
L 37.796875 0 
L 37.796875 17.1875 
L 4.890625 17.1875 
L 4.890625 26.703125 
z
" id="DejaVuSans-34"/>
      </defs>
      <g transform="translate(61.691034 322.182437)scale(0.1 -0.1)">
       <use xlink:href="#DejaVuSans-2212"/>
       <use x="83.789062" xlink:href="#DejaVuSans-30"/>
       <use x="147.412109" xlink:href="#DejaVuSans-2e"/>
       <use x="179.199219" xlink:href="#DejaVuSans-34"/>
      </g>
     </g>
    </g>
    <g id="xtick_2">
     <g id="line2d_3">
      <path clip-path="url(#peea171a283)" d="M 114.41431 307.584 
L 114.41431 41.472 
" style="fill:none;stroke:#b0b0b0;stroke-linecap:square;stroke-width:0.8;"/>
     </g>
     <g id="line2d_4">
      <g>
       <use style="stroke:#000000;stroke-width:0.8;" x="114.41431" xlink:href="#m460874c543" y="307.584"/>
      </g>
     </g>
     <g id="text_2">
      <!-- −0.3 -->
      <defs>
       <path d="M 40.578125 39.3125 
Q 47.65625 37.796875 51.625 33 
Q 55.609375 28.21875 55.609375 21.1875 
Q 55.609375 10.40625 48.1875 4.484375 
Q 40.765625 -1.421875 27.09375 -1.421875 
Q 22.515625 -1.421875 17.65625 -0.515625 
Q 12.796875 0.390625 7.625 2.203125 
L 7.625 11.71875 
Q 11.71875 9.328125 16.59375 8.109375 
Q 21.484375 6.890625 26.8125 6.890625 
Q 36.078125 6.890625 40.9375 10.546875 
Q 45.796875 14.203125 45.796875 21.1875 
Q 45.796875 27.640625 41.28125 31.265625 
Q 36.765625 34.90625 28.71875 34.90625 
L 20.21875 34.90625 
L 20.21875 43.015625 
L 29.109375 43.015625 
Q 36.375 43.015625 40.234375 45.921875 
Q 44.09375 48.828125 44.09375 54.296875 
Q 44.09375 59.90625 40.109375 62.90625 
Q 36.140625 65.921875 28.71875 65.921875 
Q 24.65625 65.921875 20.015625 65.03125 
Q 15.375 64.15625 9.8125 62.3125 
L 9.8125 71.09375 
Q 15.4375 72.65625 20.34375 73.4375 
Q 25.25 74.21875 29.59375 74.21875 
Q 40.828125 74.21875 47.359375 69.109375 
Q 53.90625 64.015625 53.90625 55.328125 
Q 53.90625 49.265625 50.4375 45.09375 
Q 46.96875 40.921875 40.578125 39.3125 
z
" id="DejaVuSans-33"/>
      </defs>
      <g transform="translate(102.272904 322.182437)scale(0.1 -0.1)">
       <use xlink:href="#DejaVuSans-2212"/>
       <use x="83.789062" xlink:href="#DejaVuSans-30"/>
       <use x="147.412109" xlink:href="#DejaVuSans-2e"/>
       <use x="179.199219" xlink:href="#DejaVuSans-33"/>
      </g>
     </g>
    </g>
    <g id="xtick_3">
     <g id="line2d_5">
      <path clip-path="url(#peea171a283)" d="M 154.996181 307.584 
L 154.996181 41.472 
" style="fill:none;stroke:#b0b0b0;stroke-linecap:square;stroke-width:0.8;"/>
     </g>
     <g id="line2d_6">
      <g>
       <use style="stroke:#000000;stroke-width:0.8;" x="154.996181" xlink:href="#m460874c543" y="307.584"/>
      </g>
     </g>
     <g id="text_3">
      <!-- −0.2 -->
      <defs>
       <path d="M 19.1875 8.296875 
L 53.609375 8.296875 
L 53.609375 0 
L 7.328125 0 
L 7.328125 8.296875 
Q 12.9375 14.109375 22.625 23.890625 
Q 32.328125 33.6875 34.8125 36.53125 
Q 39.546875 41.84375 41.421875 45.53125 
Q 43.3125 49.21875 43.3125 52.78125 
Q 43.3125 58.59375 39.234375 62.25 
Q 35.15625 65.921875 28.609375 65.921875 
Q 23.96875 65.921875 18.8125 64.3125 
Q 13.671875 62.703125 7.8125 59.421875 
L 7.8125 69.390625 
Q 13.765625 71.78125 18.9375 73 
Q 24.125 74.21875 28.421875 74.21875 
Q 39.75 74.21875 46.484375 68.546875 
Q 53.21875 62.890625 53.21875 53.421875 
Q 53.21875 48.921875 51.53125 44.890625 
Q 49.859375 40.875 45.40625 35.40625 
Q 44.1875 33.984375 37.640625 27.21875 
Q 31.109375 20.453125 19.1875 8.296875 
z
" id="DejaVuSans-32"/>
      </defs>
      <g transform="translate(142.854775 322.182437)scale(0.1 -0.1)">
       <use xlink:href="#DejaVuSans-2212"/>
       <use x="83.789062" xlink:href="#DejaVuSans-30"/>
       <use x="147.412109" xlink:href="#DejaVuSans-2e"/>
       <use x="179.199219" xlink:href="#DejaVuSans-32"/>
      </g>
     </g>
    </g>
    <g id="xtick_4">
     <g id="line2d_7">
      <path clip-path="url(#peea171a283)" d="M 195.578052 307.584 
L 195.578052 41.472 
" style="fill:none;stroke:#b0b0b0;stroke-linecap:square;stroke-width:0.8;"/>
     </g>
     <g id="line2d_8">
      <g>
       <use style="stroke:#000000;stroke-width:0.8;" x="195.578052" xlink:href="#m460874c543" y="307.584"/>
      </g>
     </g>
     <g id="text_4">
      <!-- −0.1 -->
      <defs>
       <path d="M 12.40625 8.296875 
L 28.515625 8.296875 
L 28.515625 63.921875 
L 10.984375 60.40625 
L 10.984375 69.390625 
L 28.421875 72.90625 
L 38.28125 72.90625 
L 38.28125 8.296875 
L 54.390625 8.296875 
L 54.390625 0 
L 12.40625 0 
z
" id="DejaVuSans-31"/>
      </defs>
      <g transform="translate(183.436645 322.182437)scale(0.1 -0.1)">
       <use xlink:href="#DejaVuSans-2212"/>
       <use x="83.789062" xlink:href="#DejaVuSans-30"/>
       <use x="147.412109" xlink:href="#DejaVuSans-2e"/>
       <use x="179.199219" xlink:href="#DejaVuSans-31"/>
      </g>
     </g>
    </g>
    <g id="xtick_5">
     <g id="line2d_9">
      <path clip-path="url(#peea171a283)" d="M 236.159922 307.584 
L 236.159922 41.472 
" style="fill:none;stroke:#b0b0b0;stroke-linecap:square;stroke-width:0.8;"/>
     </g>
     <g id="line2d_10">
      <g>
       <use style="stroke:#000000;stroke-width:0.8;" x="236.159922" xlink:href="#m460874c543" y="307.584"/>
      </g>
     </g>
     <g id="text_5">
      <!-- 0.0 -->
      <g transform="translate(228.20836 322.182437)scale(0.1 -0.1)">
       <use xlink:href="#DejaVuSans-30"/>
       <use x="63.623047" xlink:href="#DejaVuSans-2e"/>
       <use x="95.410156" xlink:href="#DejaVuSans-30"/>
      </g>
     </g>
    </g>
    <g id="xtick_6">
     <g id="line2d_11">
      <path clip-path="url(#peea171a283)" d="M 276.741793 307.584 
L 276.741793 41.472 
" style="fill:none;stroke:#b0b0b0;stroke-linecap:square;stroke-width:0.8;"/>
     </g>
     <g id="line2d_12">
      <g>
       <use style="stroke:#000000;stroke-width:0.8;" x="276.741793" xlink:href="#m460874c543" y="307.584"/>
      </g>
     </g>
     <g id="text_6">
      <!-- 0.1 -->
      <g transform="translate(268.79023 322.182437)scale(0.1 -0.1)">
       <use xlink:href="#DejaVuSans-30"/>
       <use x="63.623047" xlink:href="#DejaVuSans-2e"/>
       <use x="95.410156" xlink:href="#DejaVuSans-31"/>
      </g>
     </g>
    </g>
    <g id="xtick_7">
     <g id="line2d_13">
      <path clip-path="url(#peea171a283)" d="M 317.323663 307.584 
L 317.323663 41.472 
" style="fill:none;stroke:#b0b0b0;stroke-linecap:square;stroke-width:0.8;"/>
     </g>
     <g id="line2d_14">
      <g>
       <use style="stroke:#000000;stroke-width:0.8;" x="317.323663" xlink:href="#m460874c543" y="307.584"/>
      </g>
     </g>
     <g id="text_7">
      <!-- 0.2 -->
      <g transform="translate(309.372101 322.182437)scale(0.1 -0.1)">
       <use xlink:href="#DejaVuSans-30"/>
       <use x="63.623047" xlink:href="#DejaVuSans-2e"/>
       <use x="95.410156" xlink:href="#DejaVuSans-32"/>
      </g>
     </g>
    </g>
    <g id="xtick_8">
     <g id="line2d_15">
      <path clip-path="url(#peea171a283)" d="M 357.905534 307.584 
L 357.905534 41.472 
" style="fill:none;stroke:#b0b0b0;stroke-linecap:square;stroke-width:0.8;"/>
     </g>
     <g id="line2d_16">
      <g>
       <use style="stroke:#000000;stroke-width:0.8;" x="357.905534" xlink:href="#m460874c543" y="307.584"/>
      </g>
     </g>
     <g id="text_8">
      <!-- 0.3 -->
      <g transform="translate(349.953972 322.182437)scale(0.1 -0.1)">
       <use xlink:href="#DejaVuSans-30"/>
       <use x="63.623047" xlink:href="#DejaVuSans-2e"/>
       <use x="95.410156" xlink:href="#DejaVuSans-33"/>
      </g>
     </g>
    </g>
    <g id="xtick_9">
     <g id="line2d_17">
      <path clip-path="url(#peea171a283)" d="M 398.487405 307.584 
L 398.487405 41.472 
" style="fill:none;stroke:#b0b0b0;stroke-linecap:square;stroke-width:0.8;"/>
     </g>
     <g id="line2d_18">
      <g>
       <use style="stroke:#000000;stroke-width:0.8;" x="398.487405" xlink:href="#m460874c543" y="307.584"/>
      </g>
     </g>
     <g id="text_9">
      <!-- 0.4 -->
      <g transform="translate(390.535842 322.182437)scale(0.1 -0.1)">
       <use xlink:href="#DejaVuSans-30"/>
       <use x="63.623047" xlink:href="#DejaVuSans-2e"/>
       <use x="95.410156" xlink:href="#DejaVuSans-34"/>
      </g>
     </g>
    </g>
   </g>
   <g id="matplotlib.axis_2">
    <g id="ytick_1">
     <g id="line2d_19">
      <path clip-path="url(#peea171a283)" d="M 57.6 307.584 
L 414.72 307.584 
" style="fill:none;stroke:#b0b0b0;stroke-linecap:square;stroke-width:0.8;"/>
     </g>
     <g id="line2d_20">
      <defs>
       <path d="M 0 0 
L -3.5 0 
" id="md63778cc41" style="stroke:#000000;stroke-width:0.8;"/>
      </defs>
      <g>
       <use style="stroke:#000000;stroke-width:0.8;" x="57.6" xlink:href="#md63778cc41" y="307.584"/>
      </g>
     </g>
     <g id="text_10">
      <!-- $\mathdefault{10^{-6}}$ -->
      <defs>
       <path d="M 33.015625 40.375 
Q 26.375 40.375 22.484375 35.828125 
Q 18.609375 31.296875 18.609375 23.390625 
Q 18.609375 15.53125 22.484375 10.953125 
Q 26.375 6.390625 33.015625 6.390625 
Q 39.65625 6.390625 43.53125 10.953125 
Q 47.40625 15.53125 47.40625 23.390625 
Q 47.40625 31.296875 43.53125 35.828125 
Q 39.65625 40.375 33.015625 40.375 
z
M 52.59375 71.296875 
L 52.59375 62.3125 
Q 48.875 64.0625 45.09375 64.984375 
Q 41.3125 65.921875 37.59375 65.921875 
Q 27.828125 65.921875 22.671875 59.328125 
Q 17.53125 52.734375 16.796875 39.40625 
Q 19.671875 43.65625 24.015625 45.921875 
Q 28.375 48.1875 33.59375 48.1875 
Q 44.578125 48.1875 50.953125 41.515625 
Q 57.328125 34.859375 57.328125 23.390625 
Q 57.328125 12.15625 50.6875 5.359375 
Q 44.046875 -1.421875 33.015625 -1.421875 
Q 20.359375 -1.421875 13.671875 8.265625 
Q 6.984375 17.96875 6.984375 36.375 
Q 6.984375 53.65625 15.1875 63.9375 
Q 23.390625 74.21875 37.203125 74.21875 
Q 40.921875 74.21875 44.703125 73.484375 
Q 48.484375 72.75 52.59375 71.296875 
z
" id="DejaVuSans-36"/>
      </defs>
      <g transform="translate(27.1 311.383219)scale(0.1 -0.1)">
       <use transform="translate(0 0.765625)" xlink:href="#DejaVuSans-31"/>
       <use transform="translate(63.623047 0.765625)" xlink:href="#DejaVuSans-30"/>
       <use transform="translate(128.203125 39.046875)scale(0.7)" xlink:href="#DejaVuSans-2212"/>
       <use transform="translate(186.855469 39.046875)scale(0.7)" xlink:href="#DejaVuSans-36"/>
      </g>
     </g>
    </g>
    <g id="ytick_2">
     <g id="line2d_21">
      <path clip-path="url(#peea171a283)" d="M 57.6 269.568 
L 414.72 269.568 
" style="fill:none;stroke:#b0b0b0;stroke-linecap:square;stroke-width:0.8;"/>
     </g>
     <g id="line2d_22">
      <g>
       <use style="stroke:#000000;stroke-width:0.8;" x="57.6" xlink:href="#md63778cc41" y="269.568"/>
      </g>
     </g>
     <g id="text_11">
      <!-- $\mathdefault{10^{-5}}$ -->
      <defs>
       <path d="M 10.796875 72.90625 
L 49.515625 72.90625 
L 49.515625 64.59375 
L 19.828125 64.59375 
L 19.828125 46.734375 
Q 21.96875 47.46875 24.109375 47.828125 
Q 26.265625 48.1875 28.421875 48.1875 
Q 40.625 48.1875 47.75 41.5 
Q 54.890625 34.8125 54.890625 23.390625 
Q 54.890625 11.625 47.5625 5.09375 
Q 40.234375 -1.421875 26.90625 -1.421875 
Q 22.3125 -1.421875 17.546875 -0.640625 
Q 12.796875 0.140625 7.71875 1.703125 
L 7.71875 11.625 
Q 12.109375 9.234375 16.796875 8.0625 
Q 21.484375 6.890625 26.703125 6.890625 
Q 35.15625 6.890625 40.078125 11.328125 
Q 45.015625 15.765625 45.015625 23.390625 
Q 45.015625 31 40.078125 35.4375 
Q 35.15625 39.890625 26.703125 39.890625 
Q 22.75 39.890625 18.8125 39.015625 
Q 14.890625 38.140625 10.796875 36.28125 
z
" id="DejaVuSans-35"/>
      </defs>
      <g transform="translate(27.1 273.367219)scale(0.1 -0.1)">
       <use transform="translate(0 0.684375)" xlink:href="#DejaVuSans-31"/>
       <use transform="translate(63.623047 0.684375)" xlink:href="#DejaVuSans-30"/>
       <use transform="translate(128.203125 38.965625)scale(0.7)" xlink:href="#DejaVuSans-2212"/>
       <use transform="translate(186.855469 38.965625)scale(0.7)" xlink:href="#DejaVuSans-35"/>
      </g>
     </g>
    </g>
    <g id="ytick_3">
     <g id="line2d_23">
      <path clip-path="url(#peea171a283)" d="M 57.6 231.552 
L 414.72 231.552 
" style="fill:none;stroke:#b0b0b0;stroke-linecap:square;stroke-width:0.8;"/>
     </g>
     <g id="line2d_24">
      <g>
       <use style="stroke:#000000;stroke-width:0.8;" x="57.6" xlink:href="#md63778cc41" y="231.552"/>
      </g>
     </g>
     <g id="text_12">
      <!-- $\mathdefault{10^{-4}}$ -->
      <g transform="translate(27.1 235.351219)scale(0.1 -0.1)">
       <use transform="translate(0 0.684375)" xlink:href="#DejaVuSans-31"/>
       <use transform="translate(63.623047 0.684375)" xlink:href="#DejaVuSans-30"/>
       <use transform="translate(128.203125 38.965625)scale(0.7)" xlink:href="#DejaVuSans-2212"/>
       <use transform="translate(186.855469 38.965625)scale(0.7)" xlink:href="#DejaVuSans-34"/>
      </g>
     </g>
    </g>
    <g id="ytick_4">
     <g id="line2d_25">
      <path clip-path="url(#peea171a283)" d="M 57.6 193.536 
L 414.72 193.536 
" style="fill:none;stroke:#b0b0b0;stroke-linecap:square;stroke-width:0.8;"/>
     </g>
     <g id="line2d_26">
      <g>
       <use style="stroke:#000000;stroke-width:0.8;" x="57.6" xlink:href="#md63778cc41" y="193.536"/>
      </g>
     </g>
     <g id="text_13">
      <!-- $\mathdefault{10^{-3}}$ -->
      <g transform="translate(27.1 197.335219)scale(0.1 -0.1)">
       <use transform="translate(0 0.765625)" xlink:href="#DejaVuSans-31"/>
       <use transform="translate(63.623047 0.765625)" xlink:href="#DejaVuSans-30"/>
       <use transform="translate(128.203125 39.046875)scale(0.7)" xlink:href="#DejaVuSans-2212"/>
       <use transform="translate(186.855469 39.046875)scale(0.7)" xlink:href="#DejaVuSans-33"/>
      </g>
     </g>
    </g>
    <g id="ytick_5">
     <g id="line2d_27">
      <path clip-path="url(#peea171a283)" d="M 57.6 155.52 
L 414.72 155.52 
" style="fill:none;stroke:#b0b0b0;stroke-linecap:square;stroke-width:0.8;"/>
     </g>
     <g id="line2d_28">
      <g>
       <use style="stroke:#000000;stroke-width:0.8;" x="57.6" xlink:href="#md63778cc41" y="155.52"/>
      </g>
     </g>
     <g id="text_14">
      <!-- $\mathdefault{10^{-2}}$ -->
      <g transform="translate(27.1 159.319219)scale(0.1 -0.1)">
       <use transform="translate(0 0.765625)" xlink:href="#DejaVuSans-31"/>
       <use transform="translate(63.623047 0.765625)" xlink:href="#DejaVuSans-30"/>
       <use transform="translate(128.203125 39.046875)scale(0.7)" xlink:href="#DejaVuSans-2212"/>
       <use transform="translate(186.855469 39.046875)scale(0.7)" xlink:href="#DejaVuSans-32"/>
      </g>
     </g>
    </g>
    <g id="ytick_6">
     <g id="line2d_29">
      <path clip-path="url(#peea171a283)" d="M 57.6 117.504 
L 414.72 117.504 
" style="fill:none;stroke:#b0b0b0;stroke-linecap:square;stroke-width:0.8;"/>
     </g>
     <g id="line2d_30">
      <g>
       <use style="stroke:#000000;stroke-width:0.8;" x="57.6" xlink:href="#md63778cc41" y="117.504"/>
      </g>
     </g>
     <g id="text_15">
      <!-- $\mathdefault{10^{-1}}$ -->
      <g transform="translate(27.1 121.303219)scale(0.1 -0.1)">
       <use transform="translate(0 0.684375)" xlink:href="#DejaVuSans-31"/>
       <use transform="translate(63.623047 0.684375)" xlink:href="#DejaVuSans-30"/>
       <use transform="translate(128.203125 38.965625)scale(0.7)" xlink:href="#DejaVuSans-2212"/>
       <use transform="translate(186.855469 38.965625)scale(0.7)" xlink:href="#DejaVuSans-31"/>
      </g>
     </g>
    </g>
    <g id="ytick_7">
     <g id="line2d_31">
      <path clip-path="url(#peea171a283)" d="M 57.6 79.488 
L 414.72 79.488 
" style="fill:none;stroke:#b0b0b0;stroke-linecap:square;stroke-width:0.8;"/>
     </g>
     <g id="line2d_32">
      <g>
       <use style="stroke:#000000;stroke-width:0.8;" x="57.6" xlink:href="#md63778cc41" y="79.488"/>
      </g>
     </g>
     <g id="text_16">
      <!-- $\mathdefault{10^{0}}$ -->
      <g transform="translate(33 83.287219)scale(0.1 -0.1)">
       <use transform="translate(0 0.765625)" xlink:href="#DejaVuSans-31"/>
       <use transform="translate(63.623047 0.765625)" xlink:href="#DejaVuSans-30"/>
       <use transform="translate(128.203125 39.046875)scale(0.7)" xlink:href="#DejaVuSans-30"/>
      </g>
     </g>
    </g>
    <g id="ytick_8">
     <g id="line2d_33">
      <path clip-path="url(#peea171a283)" d="M 57.6 41.472 
L 414.72 41.472 
" style="fill:none;stroke:#b0b0b0;stroke-linecap:square;stroke-width:0.8;"/>
     </g>
     <g id="line2d_34">
      <g>
       <use style="stroke:#000000;stroke-width:0.8;" x="57.6" xlink:href="#md63778cc41" y="41.472"/>
      </g>
     </g>
     <g id="text_17">
      <!-- $\mathdefault{10^{1}}$ -->
      <g transform="translate(33 45.271219)scale(0.1 -0.1)">
       <use transform="translate(0 0.684375)" xlink:href="#DejaVuSans-31"/>
       <use transform="translate(63.623047 0.684375)" xlink:href="#DejaVuSans-30"/>
       <use transform="translate(128.203125 38.965625)scale(0.7)" xlink:href="#DejaVuSans-31"/>
      </g>
     </g>
    </g>
    <g id="ytick_9">
     <g id="line2d_35">
      <defs>
       <path d="M 0 0 
L -2 0 
" id="m46e0c42c6e" style="stroke:#000000;stroke-width:0.6;"/>
      </defs>
      <g>
       <use style="stroke:#000000;stroke-width:0.6;" x="57.6" xlink:href="#m46e0c42c6e" y="296.140044"/>
      </g>
     </g>
    </g>
    <g id="ytick_10">
     <g id="line2d_36">
      <g>
       <use style="stroke:#000000;stroke-width:0.6;" x="57.6" xlink:href="#m46e0c42c6e" y="289.445758"/>
      </g>
     </g>
    </g>
    <g id="ytick_11">
     <g id="line2d_37">
      <g>
       <use style="stroke:#000000;stroke-width:0.6;" x="57.6" xlink:href="#m46e0c42c6e" y="284.696087"/>
      </g>
     </g>
    </g>
    <g id="ytick_12">
     <g id="line2d_38">
      <g>
       <use style="stroke:#000000;stroke-width:0.6;" x="57.6" xlink:href="#m46e0c42c6e" y="281.011956"/>
      </g>
     </g>
    </g>
    <g id="ytick_13">
     <g id="line2d_39">
      <g>
       <use style="stroke:#000000;stroke-width:0.6;" x="57.6" xlink:href="#m46e0c42c6e" y="278.001802"/>
      </g>
     </g>
    </g>
    <g id="ytick_14">
     <g id="line2d_40">
      <g>
       <use style="stroke:#000000;stroke-width:0.6;" x="57.6" xlink:href="#m46e0c42c6e" y="275.456753"/>
      </g>
     </g>
    </g>
    <g id="ytick_15">
     <g id="line2d_41">
      <g>
       <use style="stroke:#000000;stroke-width:0.6;" x="57.6" xlink:href="#m46e0c42c6e" y="273.252131"/>
      </g>
     </g>
    </g>
    <g id="ytick_16">
     <g id="line2d_42">
      <g>
       <use style="stroke:#000000;stroke-width:0.6;" x="57.6" xlink:href="#m46e0c42c6e" y="271.307517"/>
      </g>
     </g>
    </g>
    <g id="ytick_17">
     <g id="line2d_43">
      <g>
       <use style="stroke:#000000;stroke-width:0.6;" x="57.6" xlink:href="#m46e0c42c6e" y="258.124044"/>
      </g>
     </g>
    </g>
    <g id="ytick_18">
     <g id="line2d_44">
      <g>
       <use style="stroke:#000000;stroke-width:0.6;" x="57.6" xlink:href="#m46e0c42c6e" y="251.429758"/>
      </g>
     </g>
    </g>
    <g id="ytick_19">
     <g id="line2d_45">
      <g>
       <use style="stroke:#000000;stroke-width:0.6;" x="57.6" xlink:href="#m46e0c42c6e" y="246.680087"/>
      </g>
     </g>
    </g>
    <g id="ytick_20">
     <g id="line2d_46">
      <g>
       <use style="stroke:#000000;stroke-width:0.6;" x="57.6" xlink:href="#m46e0c42c6e" y="242.995956"/>
      </g>
     </g>
    </g>
    <g id="ytick_21">
     <g id="line2d_47">
      <g>
       <use style="stroke:#000000;stroke-width:0.6;" x="57.6" xlink:href="#m46e0c42c6e" y="239.985802"/>
      </g>
     </g>
    </g>
    <g id="ytick_22">
     <g id="line2d_48">
      <g>
       <use style="stroke:#000000;stroke-width:0.6;" x="57.6" xlink:href="#m46e0c42c6e" y="237.440753"/>
      </g>
     </g>
    </g>
    <g id="ytick_23">
     <g id="line2d_49">
      <g>
       <use style="stroke:#000000;stroke-width:0.6;" x="57.6" xlink:href="#m46e0c42c6e" y="235.236131"/>
      </g>
     </g>
    </g>
    <g id="ytick_24">
     <g id="line2d_50">
      <g>
       <use style="stroke:#000000;stroke-width:0.6;" x="57.6" xlink:href="#m46e0c42c6e" y="233.291517"/>
      </g>
     </g>
    </g>
    <g id="ytick_25">
     <g id="line2d_51">
      <g>
       <use style="stroke:#000000;stroke-width:0.6;" x="57.6" xlink:href="#m46e0c42c6e" y="220.108044"/>
      </g>
     </g>
    </g>
    <g id="ytick_26">
     <g id="line2d_52">
      <g>
       <use style="stroke:#000000;stroke-width:0.6;" x="57.6" xlink:href="#m46e0c42c6e" y="213.413758"/>
      </g>
     </g>
    </g>
    <g id="ytick_27">
     <g id="line2d_53">
      <g>
       <use style="stroke:#000000;stroke-width:0.6;" x="57.6" xlink:href="#m46e0c42c6e" y="208.664087"/>
      </g>
     </g>
    </g>
    <g id="ytick_28">
     <g id="line2d_54">
      <g>
       <use style="stroke:#000000;stroke-width:0.6;" x="57.6" xlink:href="#m46e0c42c6e" y="204.979956"/>
      </g>
     </g>
    </g>
    <g id="ytick_29">
     <g id="line2d_55">
      <g>
       <use style="stroke:#000000;stroke-width:0.6;" x="57.6" xlink:href="#m46e0c42c6e" y="201.969802"/>
      </g>
     </g>
    </g>
    <g id="ytick_30">
     <g id="line2d_56">
      <g>
       <use style="stroke:#000000;stroke-width:0.6;" x="57.6" xlink:href="#m46e0c42c6e" y="199.424753"/>
      </g>
     </g>
    </g>
    <g id="ytick_31">
     <g id="line2d_57">
      <g>
       <use style="stroke:#000000;stroke-width:0.6;" x="57.6" xlink:href="#m46e0c42c6e" y="197.220131"/>
      </g>
     </g>
    </g>
    <g id="ytick_32">
     <g id="line2d_58">
      <g>
       <use style="stroke:#000000;stroke-width:0.6;" x="57.6" xlink:href="#m46e0c42c6e" y="195.275517"/>
      </g>
     </g>
    </g>
    <g id="ytick_33">
     <g id="line2d_59">
      <g>
       <use style="stroke:#000000;stroke-width:0.6;" x="57.6" xlink:href="#m46e0c42c6e" y="182.092044"/>
      </g>
     </g>
    </g>
    <g id="ytick_34">
     <g id="line2d_60">
      <g>
       <use style="stroke:#000000;stroke-width:0.6;" x="57.6" xlink:href="#m46e0c42c6e" y="175.397758"/>
      </g>
     </g>
    </g>
    <g id="ytick_35">
     <g id="line2d_61">
      <g>
       <use style="stroke:#000000;stroke-width:0.6;" x="57.6" xlink:href="#m46e0c42c6e" y="170.648087"/>
      </g>
     </g>
    </g>
    <g id="ytick_36">
     <g id="line2d_62">
      <g>
       <use style="stroke:#000000;stroke-width:0.6;" x="57.6" xlink:href="#m46e0c42c6e" y="166.963956"/>
      </g>
     </g>
    </g>
    <g id="ytick_37">
     <g id="line2d_63">
      <g>
       <use style="stroke:#000000;stroke-width:0.6;" x="57.6" xlink:href="#m46e0c42c6e" y="163.953802"/>
      </g>
     </g>
    </g>
    <g id="ytick_38">
     <g id="line2d_64">
      <g>
       <use style="stroke:#000000;stroke-width:0.6;" x="57.6" xlink:href="#m46e0c42c6e" y="161.408753"/>
      </g>
     </g>
    </g>
    <g id="ytick_39">
     <g id="line2d_65">
      <g>
       <use style="stroke:#000000;stroke-width:0.6;" x="57.6" xlink:href="#m46e0c42c6e" y="159.204131"/>
      </g>
     </g>
    </g>
    <g id="ytick_40">
     <g id="line2d_66">
      <g>
       <use style="stroke:#000000;stroke-width:0.6;" x="57.6" xlink:href="#m46e0c42c6e" y="157.259517"/>
      </g>
     </g>
    </g>
    <g id="ytick_41">
     <g id="line2d_67">
      <g>
       <use style="stroke:#000000;stroke-width:0.6;" x="57.6" xlink:href="#m46e0c42c6e" y="144.076044"/>
      </g>
     </g>
    </g>
    <g id="ytick_42">
     <g id="line2d_68">
      <g>
       <use style="stroke:#000000;stroke-width:0.6;" x="57.6" xlink:href="#m46e0c42c6e" y="137.381758"/>
      </g>
     </g>
    </g>
    <g id="ytick_43">
     <g id="line2d_69">
      <g>
       <use style="stroke:#000000;stroke-width:0.6;" x="57.6" xlink:href="#m46e0c42c6e" y="132.632087"/>
      </g>
     </g>
    </g>
    <g id="ytick_44">
     <g id="line2d_70">
      <g>
       <use style="stroke:#000000;stroke-width:0.6;" x="57.6" xlink:href="#m46e0c42c6e" y="128.947956"/>
      </g>
     </g>
    </g>
    <g id="ytick_45">
     <g id="line2d_71">
      <g>
       <use style="stroke:#000000;stroke-width:0.6;" x="57.6" xlink:href="#m46e0c42c6e" y="125.937802"/>
      </g>
     </g>
    </g>
    <g id="ytick_46">
     <g id="line2d_72">
      <g>
       <use style="stroke:#000000;stroke-width:0.6;" x="57.6" xlink:href="#m46e0c42c6e" y="123.392753"/>
      </g>
     </g>
    </g>
    <g id="ytick_47">
     <g id="line2d_73">
      <g>
       <use style="stroke:#000000;stroke-width:0.6;" x="57.6" xlink:href="#m46e0c42c6e" y="121.188131"/>
      </g>
     </g>
    </g>
    <g id="ytick_48">
     <g id="line2d_74">
      <g>
       <use style="stroke:#000000;stroke-width:0.6;" x="57.6" xlink:href="#m46e0c42c6e" y="119.243517"/>
      </g>
     </g>
    </g>
    <g id="ytick_49">
     <g id="line2d_75">
      <g>
       <use style="stroke:#000000;stroke-width:0.6;" x="57.6" xlink:href="#m46e0c42c6e" y="106.060044"/>
      </g>
     </g>
    </g>
    <g id="ytick_50">
     <g id="line2d_76">
      <g>
       <use style="stroke:#000000;stroke-width:0.6;" x="57.6" xlink:href="#m46e0c42c6e" y="99.365758"/>
      </g>
     </g>
    </g>
    <g id="ytick_51">
     <g id="line2d_77">
      <g>
       <use style="stroke:#000000;stroke-width:0.6;" x="57.6" xlink:href="#m46e0c42c6e" y="94.616087"/>
      </g>
     </g>
    </g>
    <g id="ytick_52">
     <g id="line2d_78">
      <g>
       <use style="stroke:#000000;stroke-width:0.6;" x="57.6" xlink:href="#m46e0c42c6e" y="90.931956"/>
      </g>
     </g>
    </g>
    <g id="ytick_53">
     <g id="line2d_79">
      <g>
       <use style="stroke:#000000;stroke-width:0.6;" x="57.6" xlink:href="#m46e0c42c6e" y="87.921802"/>
      </g>
     </g>
    </g>
    <g id="ytick_54">
     <g id="line2d_80">
      <g>
       <use style="stroke:#000000;stroke-width:0.6;" x="57.6" xlink:href="#m46e0c42c6e" y="85.376753"/>
      </g>
     </g>
    </g>
    <g id="ytick_55">
     <g id="line2d_81">
      <g>
       <use style="stroke:#000000;stroke-width:0.6;" x="57.6" xlink:href="#m46e0c42c6e" y="83.172131"/>
      </g>
     </g>
    </g>
    <g id="ytick_56">
     <g id="line2d_82">
      <g>
       <use style="stroke:#000000;stroke-width:0.6;" x="57.6" xlink:href="#m46e0c42c6e" y="81.227517"/>
      </g>
     </g>
    </g>
    <g id="ytick_57">
     <g id="line2d_83">
      <g>
       <use style="stroke:#000000;stroke-width:0.6;" x="57.6" xlink:href="#m46e0c42c6e" y="68.044044"/>
      </g>
     </g>
    </g>
    <g id="ytick_58">
     <g id="line2d_84">
      <g>
       <use style="stroke:#000000;stroke-width:0.6;" x="57.6" xlink:href="#m46e0c42c6e" y="61.349758"/>
      </g>
     </g>
    </g>
    <g id="ytick_59">
     <g id="line2d_85">
      <g>
       <use style="stroke:#000000;stroke-width:0.6;" x="57.6" xlink:href="#m46e0c42c6e" y="56.600087"/>
      </g>
     </g>
    </g>
    <g id="ytick_60">
     <g id="line2d_86">
      <g>
       <use style="stroke:#000000;stroke-width:0.6;" x="57.6" xlink:href="#m46e0c42c6e" y="52.915956"/>
      </g>
     </g>
    </g>
    <g id="ytick_61">
     <g id="line2d_87">
      <g>
       <use style="stroke:#000000;stroke-width:0.6;" x="57.6" xlink:href="#m46e0c42c6e" y="49.905802"/>
      </g>
     </g>
    </g>
    <g id="ytick_62">
     <g id="line2d_88">
      <g>
       <use style="stroke:#000000;stroke-width:0.6;" x="57.6" xlink:href="#m46e0c42c6e" y="47.360753"/>
      </g>
     </g>
    </g>
    <g id="ytick_63">
     <g id="line2d_89">
      <g>
       <use style="stroke:#000000;stroke-width:0.6;" x="57.6" xlink:href="#m46e0c42c6e" y="45.156131"/>
      </g>
     </g>
    </g>
    <g id="ytick_64">
     <g id="line2d_90">
      <g>
       <use style="stroke:#000000;stroke-width:0.6;" x="57.6" xlink:href="#m46e0c42c6e" y="43.211517"/>
      </g>
     </g>
    </g>
   </g>
   <g id="line2d_91">
    <path clip-path="url(#peea171a283)" d="M 73.832727 147.52009 
L 75.132645 149.751089 
L 76.757543 152.437003 
L 77.407502 153.909964 
L 78.057461 155.929986 
L 78.70742 158.771088 
L 79.357379 162.78777 
L 80.007338 168.54495 
L 80.657297 177.302904 
L 80.982277 183.895223 
L 81.307256 194.041916 
L 81.632236 219.013038 
L 82.282195 192.318346 
L 82.607174 185.665758 
L 83.257133 178.520121 
L 83.907093 174.572201 
L 84.557052 171.914397 
L 85.85697 167.878945 
L 89.756724 156.686379 
L 90.406683 155.531852 
L 91.056642 154.91955 
L 91.381622 154.844237 
L 91.706601 154.930648 
L 92.031581 155.179769 
L 92.68154 156.148318 
L 93.331499 157.666815 
L 94.631417 161.64243 
L 95.931335 165.354379 
L 96.906274 167.413935 
L 98.531171 170.224352 
L 99.50611 171.598773 
L 101.131007 173.53524 
L 101.455987 174.267018 
L 101.780966 175.305422 
L 102.105946 176.760179 
L 102.430925 178.763951 
L 102.755905 181.491576 
L 103.080885 185.202552 
L 103.405864 190.345811 
L 103.730844 197.883854 
L 104.055823 210.848709 
L 104.380803 265.549439 
L 104.705782 213.657695 
L 105.030762 205.710765 
L 105.355741 203.42874 
L 105.680721 204.785774 
L 106.0057 210.612749 
L 106.33068 229.451676 
L 106.655659 220.29698 
L 106.980639 203.322403 
L 107.305618 194.808734 
L 107.955577 185.375372 
L 108.605536 180.29083 
L 109.255495 177.08188 
L 112.505291 164.084206 
L 113.15525 162.423428 
L 113.805209 161.411871 
L 114.455168 161.007163 
L 114.780147 161.016898 
L 115.105127 161.167766 
L 115.430106 161.46927 
L 115.755086 161.941539 
L 116.405045 163.545968 
L 117.055004 166.459964 
L 117.379984 168.680028 
L 117.704963 171.672258 
L 118.029943 175.819135 
L 118.354922 181.931568 
L 118.679902 192.413084 
L 119.004881 230.195633 
L 119.329861 196.602014 
L 119.65484 184.672437 
L 119.97982 178.421873 
L 120.304799 174.519272 
L 120.629779 171.986931 
L 120.954758 170.400175 
L 121.279738 169.533922 
L 121.604717 169.253269 
L 121.929697 169.471881 
L 122.254676 170.13599 
L 122.579656 171.221637 
L 123.229615 174.769114 
L 123.554595 177.476041 
L 123.879574 181.247125 
L 124.204554 187.01027 
L 124.529533 197.874491 
L 124.854513 240.2126 
L 125.179492 193.30965 
L 125.504472 181.258826 
L 126.154431 168.060607 
L 126.80439 159.915491 
L 127.454349 154.272156 
L 128.104308 150.32806 
L 128.754267 147.702716 
L 129.404226 146.169118 
L 129.729206 145.76281 
L 130.054185 145.577829 
L 130.379165 145.603619 
L 130.704144 145.832244 
L 131.029124 146.258067 
L 131.679083 147.687488 
L 132.329042 149.870914 
L 132.979001 152.768534 
L 134.278919 160.000863 
L 134.928878 163.397313 
L 135.578837 165.672061 
L 135.903817 166.239093 
L 136.228796 166.451502 
L 136.553776 166.398794 
L 137.528714 165.920532 
L 137.853694 166.074012 
L 138.178673 166.568358 
L 138.503653 167.507665 
L 138.828632 169.009016 
L 139.153612 171.225985 
L 139.478591 174.393393 
L 139.803571 178.932075 
L 140.12855 185.768335 
L 140.45353 197.856584 
L 140.778509 257.048386 
L 141.103489 198.938561 
L 141.428468 189.477043 
L 141.753448 185.28126 
L 142.078428 183.907822 
L 142.403407 184.995315 
L 142.728387 189.38065 
L 143.378346 210.847882 
L 143.703325 185.998568 
L 144.353284 167.872331 
L 145.003243 158.102456 
L 145.653202 151.652451 
L 146.303161 147.197931 
L 146.95312 144.187132 
L 147.603079 142.350256 
L 147.928059 141.827421 
L 148.253038 141.556424 
L 148.578018 141.534224 
L 148.902998 141.762067 
L 149.227977 142.245503 
L 149.552957 142.994701 
L 150.202916 145.358516 
L 150.852875 149.064205 
L 151.502834 154.502381 
L 152.152793 162.424381 
L 152.802752 174.465028 
L 153.127731 183.177183 
L 153.452711 195.078887 
L 154.10267 225.181385 
L 155.077609 182.175014 
L 155.727568 167.520169 
L 156.377527 158.564815 
L 157.027486 152.903336 
L 157.677445 149.524217 
L 158.002424 148.517976 
L 158.327404 147.906981 
L 158.652383 147.657564 
L 158.977363 147.742402 
L 159.302342 148.13929 
L 159.627322 148.83066 
L 160.277281 151.051779 
L 160.92724 154.385403 
L 161.577199 158.992665 
L 162.227158 165.434743 
L 162.877117 175.440851 
L 163.202097 183.551061 
L 163.527076 198.265733 
L 163.852056 218.169296 
L 164.177035 192.406101 
L 164.502015 184.208635 
L 164.826994 180.047599 
L 165.151974 178.013619 
L 165.476953 177.551207 
L 165.801933 178.573776 
L 166.126912 181.355393 
L 166.451892 186.836432 
L 166.776871 198.629203 
L 167.101851 223.498843 
L 167.42683 191.383484 
L 167.75181 180.996916 
L 168.401769 170.768334 
L 169.051728 166.064618 
L 169.376708 164.901957 
L 169.701687 164.343503 
L 170.026667 164.305769 
L 170.351646 164.72712 
L 170.676626 165.557701 
L 171.326585 168.263325 
L 173.276462 178.384048 
L 173.601441 178.476267 
L 173.926421 177.622622 
L 174.2514 175.916839 
L 175.226339 168.23147 
L 176.201278 161.168401 
L 176.851237 158.189277 
L 177.176216 157.357766 
L 177.501196 157.021108 
L 177.826175 157.235798 
L 178.151155 158.083479 
L 178.476134 159.691617 
L 178.801114 162.276256 
L 179.126093 166.247524 
L 179.451073 172.541553 
L 179.776052 184.252818 
L 180.101032 228.296609 
L 180.426011 182.394539 
L 180.750991 172.055316 
L 181.075971 166.437569 
L 181.40095 162.994317 
L 181.72593 160.905027 
L 182.050909 159.80103 
L 182.375889 159.482479 
L 182.700868 159.821618 
L 183.025848 160.717339 
L 183.675807 163.727038 
L 184.325766 167.123019 
L 184.650745 168.235302 
L 184.975725 168.526446 
L 185.300704 167.846299 
L 185.625684 166.292116 
L 187.575561 153.507253 
L 188.22552 151.407337 
L 188.5505 150.94016 
L 188.875479 150.868083 
L 189.200459 151.196515 
L 189.525438 151.933618 
L 189.850418 153.091302 
L 190.500377 156.735403 
L 191.150336 162.27197 
L 192.775233 179.709525 
L 193.100213 180.011266 
L 193.425192 178.038924 
L 194.075152 170.338797 
L 195.05009 158.762615 
L 195.700049 152.973054 
L 196.350008 148.586693 
L 196.999967 145.298483 
L 197.649926 142.84843 
L 198.299885 141.052186 
L 198.949844 139.809277 
L 199.599803 139.097188 
L 199.924783 138.949445 
L 200.249762 138.949993 
L 200.574742 139.107059 
L 200.899722 139.428902 
L 201.549681 140.597576 
L 202.19964 142.512215 
L 202.849599 145.230077 
L 203.499558 148.833917 
L 204.149517 153.462011 
L 204.799476 159.314834 
L 205.774414 170.573098 
L 206.424373 178.182587 
L 206.749353 180.504373 
L 207.074333 180.886578 
L 207.399312 179.267558 
L 208.049271 172.783559 
L 209.02421 163.544805 
L 209.674169 159.891151 
L 209.999148 158.907591 
L 210.324128 158.503822 
L 210.649107 158.708106 
L 210.974087 159.572516 
L 211.299066 161.188627 
L 211.624046 163.718656 
L 211.949025 167.468198 
L 212.274005 173.093692 
L 212.598984 182.430915 
L 212.923964 206.442262 
L 213.573923 179.872224 
L 213.898903 173.292121 
L 214.223882 169.454807 
L 214.548862 167.175429 
L 214.873841 165.985648 
L 215.198821 165.675366 
L 215.5238 166.168208 
L 215.84878 167.491173 
L 216.173759 169.797168 
L 216.498739 173.468242 
L 216.823718 179.47956 
L 217.148698 191.322911 
L 217.473677 219.575904 
L 217.798657 184.922539 
L 218.123636 173.998311 
L 218.773595 162.381965 
L 219.423554 155.72197 
L 220.073514 151.580578 
L 220.723473 149.226189 
L 221.048452 148.620241 
L 221.373432 148.366097 
L 221.698411 148.448228 
L 222.023391 148.851972 
L 222.34837 149.55993 
L 222.998329 151.775503 
L 224.298247 157.294836 
L 224.623227 158.017993 
L 224.948206 158.081901 
L 225.273186 157.384753 
L 225.598165 155.96308 
L 226.248124 151.629415 
L 227.548043 142.091022 
L 228.198002 138.443911 
L 228.847961 135.846247 
L 229.49792 134.308223 
L 229.822899 133.923809 
L 230.147879 133.784652 
L 230.472858 133.879906 
L 230.797838 134.196385 
L 231.447797 135.425115 
L 232.097756 137.293969 
L 234.047633 143.650957 
L 234.372613 144.280617 
L 234.697592 144.660939 
L 235.022572 144.771366 
L 235.347551 144.61158 
L 235.672531 144.201467 
L 236.32249 142.790882 
L 238.272367 137.691696 
L 238.922326 136.933291 
L 239.247305 136.867848 
L 239.572285 137.032686 
L 239.897265 137.436327 
L 240.547224 138.959113 
L 241.197183 141.337049 
L 242.82208 148.07645 
L 243.14706 148.773648 
L 243.472039 149.05582 
L 243.797019 148.931232 
L 244.121998 148.467958 
L 245.096937 146.141075 
L 245.746896 144.78848 
L 246.071876 144.357217 
L 246.396855 144.126391 
L 246.721835 144.107909 
L 247.046814 144.306029 
L 247.371794 144.721007 
L 248.021753 146.202874 
L 248.671712 148.606743 
L 249.321671 152.169101 
L 249.97163 157.561173 
L 250.296609 161.439292 
L 250.621589 166.744708 
L 250.946568 174.820533 
L 251.271548 191.248445 
L 251.596527 198.201383 
L 251.921507 178.169613 
L 252.246486 170.132082 
L 252.571466 165.539653 
L 252.896446 162.802048 
L 253.221425 161.3843 
L 253.546405 161.10759 
L 253.871384 161.996315 
L 254.196364 164.2916 
L 254.521343 168.657335 
L 254.846323 177.151566 
L 255.171302 205.020854 
L 255.496282 182.117054 
L 255.821261 168.038427 
L 256.47122 155.242068 
L 257.121179 148.799742 
L 257.771138 145.374427 
L 258.096118 144.444755 
L 258.421097 143.935654 
L 258.746077 143.791176 
L 259.071057 143.961488 
L 259.396036 144.397849 
L 260.045995 145.860325 
L 261.670893 150.270309 
L 262.645831 151.981239 
L 263.29579 153.038861 
L 263.945749 154.559245 
L 264.595708 156.981008 
L 265.245667 160.741543 
L 265.895627 166.545677 
L 266.220606 170.718084 
L 266.545586 176.452934 
L 266.870565 185.45134 
L 267.195545 207.001566 
L 267.520524 198.315961 
L 267.845504 182.639861 
L 268.495463 169.666421 
L 269.145422 163.07917 
L 269.795381 159.398503 
L 270.12036 158.385432 
L 270.44534 157.887305 
L 270.770319 157.909534 
L 271.095299 158.478401 
L 271.420278 159.642792 
L 271.745258 161.481503 
L 272.070238 164.119543 
L 272.395217 167.763351 
L 272.720197 172.784812 
L 273.045176 179.965342 
L 273.370156 191.518577 
L 273.695135 223.818325 
L 274.020115 202.930322 
L 274.345094 193.639534 
L 274.670074 192.128018 
L 274.995053 196.430834 
L 275.320033 216.235358 
L 276.294971 174.494042 
L 276.94493 163.187578 
L 277.594889 156.348977 
L 278.244848 151.892392 
L 278.894808 148.967975 
L 279.544767 147.151885 
L 280.194726 146.244112 
L 280.519705 146.110485 
L 280.844685 146.194336 
L 281.169664 146.506126 
L 281.494644 147.061382 
L 282.144603 148.987001 
L 282.794562 152.184289 
L 283.444521 156.939619 
L 284.09448 163.598471 
L 285.069419 177.209923 
L 285.394398 181.706069 
L 285.719378 184.647581 
L 286.044357 184.806526 
L 286.369337 182.135221 
L 288.319214 157.511458 
L 288.969173 152.359889 
L 289.619132 148.572767 
L 290.269091 145.950566 
L 290.91905 144.4204 
L 291.244029 144.070277 
L 291.569009 144.010071 
L 291.893989 144.255415 
L 292.218968 144.826537 
L 292.543948 145.748942 
L 293.193907 148.786416 
L 293.843866 153.775188 
L 294.493825 161.571419 
L 294.818804 167.151586 
L 295.143784 174.759558 
L 295.468763 186.744579 
L 295.793743 224.630097 
L 296.118722 194.688991 
L 296.443702 184.373241 
L 296.768681 179.876568 
L 297.093661 177.815669 
L 297.41864 177.226656 
L 297.74362 177.721374 
L 298.0686 179.132965 
L 298.393579 181.412919 
L 299.043538 188.848874 
L 299.368518 194.467026 
L 299.693497 202.168399 
L 300.018477 213.998573 
L 300.343456 243.967947 
L 300.668436 227.309121 
L 300.993415 217.029041 
L 301.318395 213.702848 
L 301.643374 213.30947 
L 301.968354 214.768057 
L 302.618313 221.215339 
L 302.943292 224.890165 
L 303.268272 227.193275 
L 303.593251 226.751336 
L 303.918231 223.584445 
L 305.543129 201.631531 
L 306.843047 188.729036 
L 308.142965 177.860994 
L 309.117903 171.614853 
L 310.092842 167.058445 
L 311.39276 162.486872 
L 312.692678 158.613627 
L 313.342637 157.158939 
L 313.992596 156.34515 
L 314.317576 156.258238 
L 314.642555 156.425226 
L 314.967535 156.876482 
L 315.292514 157.644304 
L 315.942473 160.285695 
L 316.592432 164.788931 
L 317.242391 172.090141 
L 317.567371 177.51645 
L 317.892351 185.266144 
L 318.21733 198.82184 
L 318.54231 229.15853 
L 318.867289 195.906929 
L 319.192269 186.533988 
L 319.842228 177.443813 
L 320.817166 169.484813 
L 323.092023 152.760579 
L 323.741982 149.254167 
L 324.391941 146.768292 
L 325.0419 145.325077 
L 325.36688 144.975004 
L 325.691859 144.852225 
L 326.016839 144.935421 
L 326.341818 145.198384 
L 326.991777 146.135083 
L 328.941654 149.595453 
L 329.916593 150.621338 
L 330.891532 151.549301 
L 331.541491 152.43281 
L 332.19145 153.685681 
L 332.841409 155.421323 
L 333.491368 157.833901 
L 334.141327 161.347106 
L 334.791286 166.932295 
L 335.116265 171.211398 
L 335.441245 177.498839 
L 335.766224 188.534452 
L 336.091204 252.484476 
L 336.416183 189.168643 
L 336.741163 177.756154 
L 337.391122 167.195856 
L 338.041081 162.279378 
L 338.366061 160.982157 
L 338.69104 160.288721 
L 339.01602 160.143994 
L 339.340999 160.527367 
L 339.665979 161.447773 
L 339.990958 162.946643 
L 340.315938 165.110477 
L 340.640917 168.101593 
L 340.965897 172.234551 
L 341.290876 178.200774 
L 341.615856 187.999026 
L 341.940835 215.232464 
L 342.590794 183.240384 
L 342.915774 176.377461 
L 343.565733 168.782943 
L 344.215692 164.652103 
L 344.865651 162.182881 
L 345.51561 160.678483 
L 346.165569 159.817287 
L 346.815528 159.451387 
L 347.465487 159.510859 
L 348.115446 159.947035 
L 348.765405 160.711115 
L 349.415364 161.771286 
L 350.065324 163.161368 
L 350.715283 165.043062 
L 351.365242 167.776783 
L 352.015201 172.07331 
L 352.34018 175.248586 
L 352.66516 179.62651 
L 352.990139 186.202069 
L 353.315119 198.342976 
L 353.640098 231.273966 
L 353.965078 193.972038 
L 354.290057 183.348316 
L 354.940016 172.545437 
L 355.589975 166.647007 
L 356.239934 163.131561 
L 356.889894 161.247806 
L 357.214873 160.824519 
L 357.539853 160.726511 
L 357.864832 160.949062 
L 358.189812 161.493408 
L 358.514791 162.365822 
L 359.16475 165.14629 
L 359.814709 169.47483 
L 360.464668 175.816568 
L 361.114627 185.647707 
L 361.439607 193.49104 
L 361.764586 207.50273 
L 362.089566 230.402758 
L 362.414545 201.817616 
L 362.739525 192.518921 
L 363.389484 183.528928 
L 363.714464 181.105387 
L 364.039443 179.571434 
L 364.364423 178.829725 
L 364.689402 178.882403 
L 365.014382 179.818046 
L 365.339361 181.842581 
L 365.664341 185.392807 
L 365.98932 191.535603 
L 366.3143 204.176259 
L 366.639279 225.33391 
L 366.964259 196.221888 
L 367.289238 186.277996 
L 367.939197 176.416631 
L 368.589156 171.690165 
L 369.239115 169.421569 
L 369.889075 168.393591 
L 370.864013 167.250007 
L 371.513972 165.926376 
L 372.488911 163.094159 
L 373.463849 160.407324 
L 374.113808 159.278725 
L 374.438788 158.993454 
L 374.763767 158.918744 
L 375.088747 159.072141 
L 375.413726 159.473684 
L 375.738706 160.148703 
L 376.063686 161.131164 
L 376.713645 164.227847 
L 377.363604 169.481052 
L 377.688583 173.419686 
L 378.013563 178.897701 
L 378.338542 187.384238 
L 378.663522 205.671612 
L 378.988501 206.132613 
L 379.313481 188.391099 
L 379.63846 180.498078 
L 380.288419 172.13514 
L 380.938378 167.568754 
L 381.588337 164.554589 
L 382.888256 159.932028 
L 384.188174 155.848028 
L 384.838133 154.371018 
L 385.163112 153.887335 
L 385.488092 153.616236 
L 385.813071 153.589143 
L 386.138051 153.838413 
L 386.46303 154.399307 
L 386.78801 155.312813 
L 387.112989 156.629808 
L 387.762948 160.771601 
L 388.412907 167.85297 
L 388.737887 173.275602 
L 389.062867 181.152949 
L 389.387846 195.135828 
L 389.712826 223.084022 
L 390.037805 192.524809 
L 390.362785 184.342264 
L 390.687764 180.615637 
L 391.012744 179.265532 
L 391.337723 179.788494 
L 391.662703 182.338205 
L 391.987682 187.972608 
L 392.312662 201.634516 
L 392.637641 210.087628 
L 392.962621 186.782206 
L 393.2876 176.717899 
L 393.937559 165.266662 
L 394.587518 158.316888 
L 395.237477 153.511628 
L 395.887437 149.963522 
L 396.862375 146.034193 
L 397.837314 143.033546 
L 398.487273 141.306058 
L 398.487273 141.306058 
" style="fill:none;stroke:#1f77b4;stroke-linecap:square;stroke-width:1.5;"/>
   </g>
   <g id="line2d_92">
    <path clip-path="url(#peea171a283)" d="M 73.832727 129.22844 
L 75.782604 131.740584 
L 77.732482 134.636324 
L 79.682359 137.995638 
L 81.307256 141.226025 
L 82.932154 144.939153 
L 84.557052 149.259423 
L 85.85697 153.279842 
L 87.156888 157.972355 
L 88.456806 163.616341 
L 89.431744 168.789652 
L 90.406683 175.288143 
L 91.056642 180.877838 
L 91.706601 188.389021 
L 92.031581 193.506713 
L 92.35656 200.475844 
L 92.68154 211.813114 
L 93.006519 256.19189 
L 93.331499 215.28717 
L 93.656478 203.68309 
L 94.306437 192.932476 
L 94.956396 187.164157 
L 95.606355 183.4083 
L 96.256314 180.750619 
L 96.906274 178.785275 
L 97.881212 176.684554 
L 98.856151 175.258035 
L 99.831089 174.277275 
L 100.806028 173.598635 
L 102.105946 172.996824 
L 103.730844 172.5101 
L 108.280557 171.288026 
L 110.230434 170.504081 
L 112.505291 169.328185 
L 114.780147 167.882806 
L 117.055004 166.184053 
L 119.65484 163.970925 
L 128.754267 155.912877 
L 131.029124 154.369482 
L 133.30398 153.095627 
L 135.903817 151.901344 
L 140.12855 150.252669 
L 147.928059 147.421474 
L 150.852875 146.635855 
L 153.452711 146.190504 
L 156.052547 145.995998 
L 158.977363 146.030024 
L 163.202097 146.350036 
L 176.201278 147.646004 
L 178.801114 148.242074 
L 181.40095 149.083933 
L 184.000786 150.164077 
L 187.575561 151.91981 
L 191.475315 153.809111 
L 193.425192 154.51829 
L 195.05009 154.870639 
L 196.350008 154.946109 
L 197.649926 154.809114 
L 198.949844 154.447735 
L 200.249762 153.868087 
L 201.87466 152.875763 
L 203.824537 151.402852 
L 209.349189 147.023727 
L 211.299066 145.855619 
L 212.923964 145.145853 
L 214.548862 144.706328 
L 215.84878 144.560293 
L 217.148698 144.600957 
L 218.448616 144.827908 
L 220.073514 145.366704 
L 221.698411 146.171918 
L 223.323309 147.213103 
L 225.598165 148.974217 
L 230.472858 152.939236 
L 232.097756 153.896427 
L 233.397674 154.389447 
L 234.697592 154.595847 
L 235.672531 154.553812 
L 236.972449 154.245823 
L 238.272367 153.684446 
L 239.897265 152.710838 
L 242.497101 150.814642 
L 246.071876 148.223528 
L 248.346732 146.867623 
L 250.296609 145.947484 
L 252.571466 145.138297 
L 255.171302 144.468093 
L 262.645831 142.698645 
L 266.545586 141.419685 
L 271.420278 139.850894 
L 274.020115 139.232885 
L 276.619951 138.848797 
L 278.894808 138.728779 
L 281.169664 138.821265 
L 283.444521 139.131455 
L 285.719378 139.660789 
L 287.994234 140.404509 
L 290.59407 141.49552 
L 293.843866 143.140358 
L 308.467944 151.185167 
L 310.092842 152.44986 
L 311.71774 154.01004 
L 313.017658 155.532675 
L 314.317576 157.35569 
L 315.617494 159.538529 
L 316.917412 162.151959 
L 318.21733 165.285319 
L 319.517248 169.059405 
L 320.817166 173.651301 
L 321.792105 177.797626 
L 322.767043 182.760815 
L 323.741982 188.891545 
L 324.716921 196.913871 
L 325.36688 204.162982 
L 326.016839 214.737201 
L 326.341818 222.975155 
L 326.666798 237.538058 
L 326.991777 259.153242 
L 327.316757 232.027798 
L 327.641736 223.215292 
L 327.966716 218.193367 
L 328.616675 212.632742 
L 329.266634 209.981149 
L 329.591613 209.320285 
L 329.916593 209.006145 
L 330.241572 209.002092 
L 330.566552 209.289466 
L 330.891532 209.864156 
L 331.216511 210.735882 
L 331.86647 213.491804 
L 332.516429 218.074199 
L 332.841409 221.445373 
L 333.166388 226.04885 
L 333.491368 232.920151 
L 333.816347 245.734239 
L 334.141327 271.189758 
L 334.466306 239.499432 
L 334.791286 229.184347 
L 335.441245 218.250061 
L 336.091204 211.769254 
L 336.741163 207.250427 
L 337.391122 203.868619 
L 338.366061 200.143016 
L 339.340999 197.491434 
L 340.315938 195.571084 
L 341.290876 194.169223 
L 342.265815 193.134387 
L 343.565733 192.122336 
L 346.165569 190.55202 
L 347.790467 189.441954 
L 349.415364 188.071498 
L 351.690221 185.798108 
L 354.940016 182.505215 
L 356.564914 181.124785 
L 358.189812 180.034491 
L 359.48973 179.404857 
L 360.789648 179.013799 
L 362.089566 178.886451 
L 363.064505 178.985832 
L 364.039443 179.277962 
L 365.014382 179.797456 
L 365.98932 180.595337 
L 366.964259 181.748511 
L 367.939197 183.37764 
L 368.589156 184.822541 
L 369.239115 186.661287 
L 369.889075 189.046406 
L 370.539034 192.243682 
L 371.188993 196.782798 
L 371.838952 203.991043 
L 372.163931 209.795933 
L 372.488911 219.477169 
L 372.81389 249.598147 
L 373.13887 224.908801 
L 373.463849 211.26977 
L 374.113808 198.205977 
L 374.763767 190.466644 
L 375.738706 182.454532 
L 376.713645 176.505171 
L 378.013563 170.252597 
L 379.313481 165.142801 
L 380.938378 159.764317 
L 382.563276 155.146855 
L 384.513153 150.317055 
L 386.46303 146.07158 
L 388.737887 141.699288 
L 391.012744 137.844761 
L 393.2876 134.43454 
L 395.562457 131.415766 
L 397.837314 128.745782 
L 398.487273 128.041696 
L 398.487273 128.041696 
" style="fill:none;stroke:#ff7f0e;stroke-linecap:square;stroke-width:1.5;"/>
   </g>
   <g id="patch_3">
    <path d="M 57.6 307.584 
L 57.6 41.472 
" style="fill:none;stroke:#000000;stroke-linecap:square;stroke-linejoin:miter;stroke-width:0.8;"/>
   </g>
   <g id="patch_4">
    <path d="M 414.72 307.584 
L 414.72 41.472 
" style="fill:none;stroke:#000000;stroke-linecap:square;stroke-linejoin:miter;stroke-width:0.8;"/>
   </g>
   <g id="patch_5">
    <path d="M 57.6 307.584 
L 414.72 307.584 
" style="fill:none;stroke:#000000;stroke-linecap:square;stroke-linejoin:miter;stroke-width:0.8;"/>
   </g>
   <g id="patch_6">
    <path d="M 57.6 41.472 
L 414.72 41.472 
" style="fill:none;stroke:#000000;stroke-linecap:square;stroke-linejoin:miter;stroke-width:0.8;"/>
   </g>
   <g id="text_18">
    <!-- PDF relative difference with respect to the true distribution -->
    <defs>
     <path d="M 19.671875 64.796875 
L 19.671875 37.40625 
L 32.078125 37.40625 
Q 38.96875 37.40625 42.71875 40.96875 
Q 46.484375 44.53125 46.484375 51.125 
Q 46.484375 57.671875 42.71875 61.234375 
Q 38.96875 64.796875 32.078125 64.796875 
z
M 9.8125 72.90625 
L 32.078125 72.90625 
Q 44.34375 72.90625 50.609375 67.359375 
Q 56.890625 61.8125 56.890625 51.125 
Q 56.890625 40.328125 50.609375 34.8125 
Q 44.34375 29.296875 32.078125 29.296875 
L 19.671875 29.296875 
L 19.671875 0 
L 9.8125 0 
z
" id="DejaVuSans-50"/>
     <path d="M 19.671875 64.796875 
L 19.671875 8.109375 
L 31.59375 8.109375 
Q 46.6875 8.109375 53.6875 14.9375 
Q 60.6875 21.78125 60.6875 36.53125 
Q 60.6875 51.171875 53.6875 57.984375 
Q 46.6875 64.796875 31.59375 64.796875 
z
M 9.8125 72.90625 
L 30.078125 72.90625 
Q 51.265625 72.90625 61.171875 64.09375 
Q 71.09375 55.28125 71.09375 36.53125 
Q 71.09375 17.671875 61.125 8.828125 
Q 51.171875 0 30.078125 0 
L 9.8125 0 
z
" id="DejaVuSans-44"/>
     <path d="M 9.8125 72.90625 
L 51.703125 72.90625 
L 51.703125 64.59375 
L 19.671875 64.59375 
L 19.671875 43.109375 
L 48.578125 43.109375 
L 48.578125 34.8125 
L 19.671875 34.8125 
L 19.671875 0 
L 9.8125 0 
z
" id="DejaVuSans-46"/>
     <path id="DejaVuSans-20"/>
     <path d="M 41.109375 46.296875 
Q 39.59375 47.171875 37.8125 47.578125 
Q 36.03125 48 33.890625 48 
Q 26.265625 48 22.1875 43.046875 
Q 18.109375 38.09375 18.109375 28.8125 
L 18.109375 0 
L 9.078125 0 
L 9.078125 54.6875 
L 18.109375 54.6875 
L 18.109375 46.1875 
Q 20.953125 51.171875 25.484375 53.578125 
Q 30.03125 56 36.53125 56 
Q 37.453125 56 38.578125 55.875 
Q 39.703125 55.765625 41.0625 55.515625 
z
" id="DejaVuSans-72"/>
     <path d="M 56.203125 29.59375 
L 56.203125 25.203125 
L 14.890625 25.203125 
Q 15.484375 15.921875 20.484375 11.0625 
Q 25.484375 6.203125 34.421875 6.203125 
Q 39.59375 6.203125 44.453125 7.46875 
Q 49.3125 8.734375 54.109375 11.28125 
L 54.109375 2.78125 
Q 49.265625 0.734375 44.1875 -0.34375 
Q 39.109375 -1.421875 33.890625 -1.421875 
Q 20.796875 -1.421875 13.15625 6.1875 
Q 5.515625 13.8125 5.515625 26.8125 
Q 5.515625 40.234375 12.765625 48.109375 
Q 20.015625 56 32.328125 56 
Q 43.359375 56 49.78125 48.890625 
Q 56.203125 41.796875 56.203125 29.59375 
z
M 47.21875 32.234375 
Q 47.125 39.59375 43.09375 43.984375 
Q 39.0625 48.390625 32.421875 48.390625 
Q 24.90625 48.390625 20.390625 44.140625 
Q 15.875 39.890625 15.1875 32.171875 
z
" id="DejaVuSans-65"/>
     <path d="M 9.421875 75.984375 
L 18.40625 75.984375 
L 18.40625 0 
L 9.421875 0 
z
" id="DejaVuSans-6c"/>
     <path d="M 34.28125 27.484375 
Q 23.390625 27.484375 19.1875 25 
Q 14.984375 22.515625 14.984375 16.5 
Q 14.984375 11.71875 18.140625 8.90625 
Q 21.296875 6.109375 26.703125 6.109375 
Q 34.1875 6.109375 38.703125 11.40625 
Q 43.21875 16.703125 43.21875 25.484375 
L 43.21875 27.484375 
z
M 52.203125 31.203125 
L 52.203125 0 
L 43.21875 0 
L 43.21875 8.296875 
Q 40.140625 3.328125 35.546875 0.953125 
Q 30.953125 -1.421875 24.3125 -1.421875 
Q 15.921875 -1.421875 10.953125 3.296875 
Q 6 8.015625 6 15.921875 
Q 6 25.140625 12.171875 29.828125 
Q 18.359375 34.515625 30.609375 34.515625 
L 43.21875 34.515625 
L 43.21875 35.40625 
Q 43.21875 41.609375 39.140625 45 
Q 35.0625 48.390625 27.6875 48.390625 
Q 23 48.390625 18.546875 47.265625 
Q 14.109375 46.140625 10.015625 43.890625 
L 10.015625 52.203125 
Q 14.9375 54.109375 19.578125 55.046875 
Q 24.21875 56 28.609375 56 
Q 40.484375 56 46.34375 49.84375 
Q 52.203125 43.703125 52.203125 31.203125 
z
" id="DejaVuSans-61"/>
     <path d="M 18.3125 70.21875 
L 18.3125 54.6875 
L 36.8125 54.6875 
L 36.8125 47.703125 
L 18.3125 47.703125 
L 18.3125 18.015625 
Q 18.3125 11.328125 20.140625 9.421875 
Q 21.96875 7.515625 27.59375 7.515625 
L 36.8125 7.515625 
L 36.8125 0 
L 27.59375 0 
Q 17.1875 0 13.234375 3.875 
Q 9.28125 7.765625 9.28125 18.015625 
L 9.28125 47.703125 
L 2.6875 47.703125 
L 2.6875 54.6875 
L 9.28125 54.6875 
L 9.28125 70.21875 
z
" id="DejaVuSans-74"/>
     <path d="M 9.421875 54.6875 
L 18.40625 54.6875 
L 18.40625 0 
L 9.421875 0 
z
M 9.421875 75.984375 
L 18.40625 75.984375 
L 18.40625 64.59375 
L 9.421875 64.59375 
z
" id="DejaVuSans-69"/>
     <path d="M 2.984375 54.6875 
L 12.5 54.6875 
L 29.59375 8.796875 
L 46.6875 54.6875 
L 56.203125 54.6875 
L 35.6875 0 
L 23.484375 0 
z
" id="DejaVuSans-76"/>
     <path d="M 45.40625 46.390625 
L 45.40625 75.984375 
L 54.390625 75.984375 
L 54.390625 0 
L 45.40625 0 
L 45.40625 8.203125 
Q 42.578125 3.328125 38.25 0.953125 
Q 33.9375 -1.421875 27.875 -1.421875 
Q 17.96875 -1.421875 11.734375 6.484375 
Q 5.515625 14.40625 5.515625 27.296875 
Q 5.515625 40.1875 11.734375 48.09375 
Q 17.96875 56 27.875 56 
Q 33.9375 56 38.25 53.625 
Q 42.578125 51.265625 45.40625 46.390625 
z
M 14.796875 27.296875 
Q 14.796875 17.390625 18.875 11.75 
Q 22.953125 6.109375 30.078125 6.109375 
Q 37.203125 6.109375 41.296875 11.75 
Q 45.40625 17.390625 45.40625 27.296875 
Q 45.40625 37.203125 41.296875 42.84375 
Q 37.203125 48.484375 30.078125 48.484375 
Q 22.953125 48.484375 18.875 42.84375 
Q 14.796875 37.203125 14.796875 27.296875 
z
" id="DejaVuSans-64"/>
     <path d="M 37.109375 75.984375 
L 37.109375 68.5 
L 28.515625 68.5 
Q 23.6875 68.5 21.796875 66.546875 
Q 19.921875 64.59375 19.921875 59.515625 
L 19.921875 54.6875 
L 34.71875 54.6875 
L 34.71875 47.703125 
L 19.921875 47.703125 
L 19.921875 0 
L 10.890625 0 
L 10.890625 47.703125 
L 2.296875 47.703125 
L 2.296875 54.6875 
L 10.890625 54.6875 
L 10.890625 58.5 
Q 10.890625 67.625 15.140625 71.796875 
Q 19.390625 75.984375 28.609375 75.984375 
z
" id="DejaVuSans-66"/>
     <path d="M 54.890625 33.015625 
L 54.890625 0 
L 45.90625 0 
L 45.90625 32.71875 
Q 45.90625 40.484375 42.875 44.328125 
Q 39.84375 48.1875 33.796875 48.1875 
Q 26.515625 48.1875 22.3125 43.546875 
Q 18.109375 38.921875 18.109375 30.90625 
L 18.109375 0 
L 9.078125 0 
L 9.078125 54.6875 
L 18.109375 54.6875 
L 18.109375 46.1875 
Q 21.34375 51.125 25.703125 53.5625 
Q 30.078125 56 35.796875 56 
Q 45.21875 56 50.046875 50.171875 
Q 54.890625 44.34375 54.890625 33.015625 
z
" id="DejaVuSans-6e"/>
     <path d="M 48.78125 52.59375 
L 48.78125 44.1875 
Q 44.96875 46.296875 41.140625 47.34375 
Q 37.3125 48.390625 33.40625 48.390625 
Q 24.65625 48.390625 19.8125 42.84375 
Q 14.984375 37.3125 14.984375 27.296875 
Q 14.984375 17.28125 19.8125 11.734375 
Q 24.65625 6.203125 33.40625 6.203125 
Q 37.3125 6.203125 41.140625 7.25 
Q 44.96875 8.296875 48.78125 10.40625 
L 48.78125 2.09375 
Q 45.015625 0.34375 40.984375 -0.53125 
Q 36.96875 -1.421875 32.421875 -1.421875 
Q 20.0625 -1.421875 12.78125 6.34375 
Q 5.515625 14.109375 5.515625 27.296875 
Q 5.515625 40.671875 12.859375 48.328125 
Q 20.21875 56 33.015625 56 
Q 37.15625 56 41.109375 55.140625 
Q 45.0625 54.296875 48.78125 52.59375 
z
" id="DejaVuSans-63"/>
     <path d="M 4.203125 54.6875 
L 13.1875 54.6875 
L 24.421875 12.015625 
L 35.59375 54.6875 
L 46.1875 54.6875 
L 57.421875 12.015625 
L 68.609375 54.6875 
L 77.59375 54.6875 
L 63.28125 0 
L 52.6875 0 
L 40.921875 44.828125 
L 29.109375 0 
L 18.5 0 
z
" id="DejaVuSans-77"/>
     <path d="M 54.890625 33.015625 
L 54.890625 0 
L 45.90625 0 
L 45.90625 32.71875 
Q 45.90625 40.484375 42.875 44.328125 
Q 39.84375 48.1875 33.796875 48.1875 
Q 26.515625 48.1875 22.3125 43.546875 
Q 18.109375 38.921875 18.109375 30.90625 
L 18.109375 0 
L 9.078125 0 
L 9.078125 75.984375 
L 18.109375 75.984375 
L 18.109375 46.1875 
Q 21.34375 51.125 25.703125 53.5625 
Q 30.078125 56 35.796875 56 
Q 45.21875 56 50.046875 50.171875 
Q 54.890625 44.34375 54.890625 33.015625 
z
" id="DejaVuSans-68"/>
     <path d="M 44.28125 53.078125 
L 44.28125 44.578125 
Q 40.484375 46.53125 36.375 47.5 
Q 32.28125 48.484375 27.875 48.484375 
Q 21.1875 48.484375 17.84375 46.4375 
Q 14.5 44.390625 14.5 40.28125 
Q 14.5 37.15625 16.890625 35.375 
Q 19.28125 33.59375 26.515625 31.984375 
L 29.59375 31.296875 
Q 39.15625 29.25 43.1875 25.515625 
Q 47.21875 21.78125 47.21875 15.09375 
Q 47.21875 7.46875 41.1875 3.015625 
Q 35.15625 -1.421875 24.609375 -1.421875 
Q 20.21875 -1.421875 15.453125 -0.5625 
Q 10.6875 0.296875 5.421875 2 
L 5.421875 11.28125 
Q 10.40625 8.6875 15.234375 7.390625 
Q 20.0625 6.109375 24.8125 6.109375 
Q 31.15625 6.109375 34.5625 8.28125 
Q 37.984375 10.453125 37.984375 14.40625 
Q 37.984375 18.0625 35.515625 20.015625 
Q 33.0625 21.96875 24.703125 23.78125 
L 21.578125 24.515625 
Q 13.234375 26.265625 9.515625 29.90625 
Q 5.8125 33.546875 5.8125 39.890625 
Q 5.8125 47.609375 11.28125 51.796875 
Q 16.75 56 26.8125 56 
Q 31.78125 56 36.171875 55.265625 
Q 40.578125 54.546875 44.28125 53.078125 
z
" id="DejaVuSans-73"/>
     <path d="M 18.109375 8.203125 
L 18.109375 -20.796875 
L 9.078125 -20.796875 
L 9.078125 54.6875 
L 18.109375 54.6875 
L 18.109375 46.390625 
Q 20.953125 51.265625 25.265625 53.625 
Q 29.59375 56 35.59375 56 
Q 45.5625 56 51.78125 48.09375 
Q 58.015625 40.1875 58.015625 27.296875 
Q 58.015625 14.40625 51.78125 6.484375 
Q 45.5625 -1.421875 35.59375 -1.421875 
Q 29.59375 -1.421875 25.265625 0.953125 
Q 20.953125 3.328125 18.109375 8.203125 
z
M 48.6875 27.296875 
Q 48.6875 37.203125 44.609375 42.84375 
Q 40.53125 48.484375 33.40625 48.484375 
Q 26.265625 48.484375 22.1875 42.84375 
Q 18.109375 37.203125 18.109375 27.296875 
Q 18.109375 17.390625 22.1875 11.75 
Q 26.265625 6.109375 33.40625 6.109375 
Q 40.53125 6.109375 44.609375 11.75 
Q 48.6875 17.390625 48.6875 27.296875 
z
" id="DejaVuSans-70"/>
     <path d="M 30.609375 48.390625 
Q 23.390625 48.390625 19.1875 42.75 
Q 14.984375 37.109375 14.984375 27.296875 
Q 14.984375 17.484375 19.15625 11.84375 
Q 23.34375 6.203125 30.609375 6.203125 
Q 37.796875 6.203125 41.984375 11.859375 
Q 46.1875 17.53125 46.1875 27.296875 
Q 46.1875 37.015625 41.984375 42.703125 
Q 37.796875 48.390625 30.609375 48.390625 
z
M 30.609375 56 
Q 42.328125 56 49.015625 48.375 
Q 55.71875 40.765625 55.71875 27.296875 
Q 55.71875 13.875 49.015625 6.21875 
Q 42.328125 -1.421875 30.609375 -1.421875 
Q 18.84375 -1.421875 12.171875 6.21875 
Q 5.515625 13.875 5.515625 27.296875 
Q 5.515625 40.765625 12.171875 48.375 
Q 18.84375 56 30.609375 56 
z
" id="DejaVuSans-6f"/>
     <path d="M 8.5 21.578125 
L 8.5 54.6875 
L 17.484375 54.6875 
L 17.484375 21.921875 
Q 17.484375 14.15625 20.5 10.265625 
Q 23.53125 6.390625 29.59375 6.390625 
Q 36.859375 6.390625 41.078125 11.03125 
Q 45.3125 15.671875 45.3125 23.6875 
L 45.3125 54.6875 
L 54.296875 54.6875 
L 54.296875 0 
L 45.3125 0 
L 45.3125 8.40625 
Q 42.046875 3.421875 37.71875 1 
Q 33.40625 -1.421875 27.6875 -1.421875 
Q 18.265625 -1.421875 13.375 4.4375 
Q 8.5 10.296875 8.5 21.578125 
z
M 31.109375 56 
z
" id="DejaVuSans-75"/>
     <path d="M 48.6875 27.296875 
Q 48.6875 37.203125 44.609375 42.84375 
Q 40.53125 48.484375 33.40625 48.484375 
Q 26.265625 48.484375 22.1875 42.84375 
Q 18.109375 37.203125 18.109375 27.296875 
Q 18.109375 17.390625 22.1875 11.75 
Q 26.265625 6.109375 33.40625 6.109375 
Q 40.53125 6.109375 44.609375 11.75 
Q 48.6875 17.390625 48.6875 27.296875 
z
M 18.109375 46.390625 
Q 20.953125 51.265625 25.265625 53.625 
Q 29.59375 56 35.59375 56 
Q 45.5625 56 51.78125 48.09375 
Q 58.015625 40.1875 58.015625 27.296875 
Q 58.015625 14.40625 51.78125 6.484375 
Q 45.5625 -1.421875 35.59375 -1.421875 
Q 29.59375 -1.421875 25.265625 0.953125 
Q 20.953125 3.328125 18.109375 8.203125 
L 18.109375 0 
L 9.078125 0 
L 9.078125 75.984375 
L 18.109375 75.984375 
z
" id="DejaVuSans-62"/>
    </defs>
    <g transform="translate(58.574062 35.472)scale(0.12 -0.12)">
     <use xlink:href="#DejaVuSans-50"/>
     <use x="60.302734" xlink:href="#DejaVuSans-44"/>
     <use x="137.304688" xlink:href="#DejaVuSans-46"/>
     <use x="194.824219" xlink:href="#DejaVuSans-20"/>
     <use x="226.611328" xlink:href="#DejaVuSans-72"/>
     <use x="267.693359" xlink:href="#DejaVuSans-65"/>
     <use x="329.216797" xlink:href="#DejaVuSans-6c"/>
     <use x="357" xlink:href="#DejaVuSans-61"/>
     <use x="418.279297" xlink:href="#DejaVuSans-74"/>
     <use x="457.488281" xlink:href="#DejaVuSans-69"/>
     <use x="485.271484" xlink:href="#DejaVuSans-76"/>
     <use x="544.451172" xlink:href="#DejaVuSans-65"/>
     <use x="605.974609" xlink:href="#DejaVuSans-20"/>
     <use x="637.761719" xlink:href="#DejaVuSans-64"/>
     <use x="701.238281" xlink:href="#DejaVuSans-69"/>
     <use x="729.021484" xlink:href="#DejaVuSans-66"/>
     <use x="764.226562" xlink:href="#DejaVuSans-66"/>
     <use x="799.431641" xlink:href="#DejaVuSans-65"/>
     <use x="860.955078" xlink:href="#DejaVuSans-72"/>
     <use x="902.037109" xlink:href="#DejaVuSans-65"/>
     <use x="963.560547" xlink:href="#DejaVuSans-6e"/>
     <use x="1026.939453" xlink:href="#DejaVuSans-63"/>
     <use x="1081.919922" xlink:href="#DejaVuSans-65"/>
     <use x="1143.443359" xlink:href="#DejaVuSans-20"/>
     <use x="1175.230469" xlink:href="#DejaVuSans-77"/>
     <use x="1257.017578" xlink:href="#DejaVuSans-69"/>
     <use x="1284.800781" xlink:href="#DejaVuSans-74"/>
     <use x="1324.009766" xlink:href="#DejaVuSans-68"/>
     <use x="1387.388672" xlink:href="#DejaVuSans-20"/>
     <use x="1419.175781" xlink:href="#DejaVuSans-72"/>
     <use x="1460.257812" xlink:href="#DejaVuSans-65"/>
     <use x="1521.78125" xlink:href="#DejaVuSans-73"/>
     <use x="1573.880859" xlink:href="#DejaVuSans-70"/>
     <use x="1637.357422" xlink:href="#DejaVuSans-65"/>
     <use x="1698.880859" xlink:href="#DejaVuSans-63"/>
     <use x="1753.861328" xlink:href="#DejaVuSans-74"/>
     <use x="1793.070312" xlink:href="#DejaVuSans-20"/>
     <use x="1824.857422" xlink:href="#DejaVuSans-74"/>
     <use x="1864.066406" xlink:href="#DejaVuSans-6f"/>
     <use x="1925.248047" xlink:href="#DejaVuSans-20"/>
     <use x="1957.035156" xlink:href="#DejaVuSans-74"/>
     <use x="1996.244141" xlink:href="#DejaVuSans-68"/>
     <use x="2059.623047" xlink:href="#DejaVuSans-65"/>
     <use x="2121.146484" xlink:href="#DejaVuSans-20"/>
     <use x="2152.933594" xlink:href="#DejaVuSans-74"/>
     <use x="2192.142578" xlink:href="#DejaVuSans-72"/>
     <use x="2233.255859" xlink:href="#DejaVuSans-75"/>
     <use x="2296.634766" xlink:href="#DejaVuSans-65"/>
     <use x="2358.158203" xlink:href="#DejaVuSans-20"/>
     <use x="2389.945312" xlink:href="#DejaVuSans-64"/>
     <use x="2453.421875" xlink:href="#DejaVuSans-69"/>
     <use x="2481.205078" xlink:href="#DejaVuSans-73"/>
     <use x="2533.304688" xlink:href="#DejaVuSans-74"/>
     <use x="2572.513672" xlink:href="#DejaVuSans-72"/>
     <use x="2613.626953" xlink:href="#DejaVuSans-69"/>
     <use x="2641.410156" xlink:href="#DejaVuSans-62"/>
     <use x="2704.886719" xlink:href="#DejaVuSans-75"/>
     <use x="2768.265625" xlink:href="#DejaVuSans-74"/>
     <use x="2807.474609" xlink:href="#DejaVuSans-69"/>
     <use x="2835.257812" xlink:href="#DejaVuSans-6f"/>
     <use x="2896.439453" xlink:href="#DejaVuSans-6e"/>
    </g>
   </g>
   <g id="legend_1">
    <g id="patch_7">
     <path d="M 335.079375 78.82825 
L 407.72 78.82825 
Q 409.72 78.82825 409.72 76.82825 
L 409.72 48.472 
Q 409.72 46.472 407.72 46.472 
L 335.079375 46.472 
Q 333.079375 46.472 333.079375 48.472 
L 333.079375 76.82825 
Q 333.079375 78.82825 335.079375 78.82825 
z
" style="fill:#ffffff;opacity:0.8;stroke:#cccccc;stroke-linejoin:miter;"/>
    </g>
    <g id="line2d_93">
     <path d="M 337.079375 54.570437 
L 357.079375 54.570437 
" style="fill:none;stroke:#1f77b4;stroke-linecap:square;stroke-width:1.5;"/>
    </g>
    <g id="line2d_94"/>
    <g id="text_19">
     <!-- auto-bw -->
     <defs>
      <path d="M 4.890625 31.390625 
L 31.203125 31.390625 
L 31.203125 23.390625 
L 4.890625 23.390625 
z
" id="DejaVuSans-2d"/>
     </defs>
     <g transform="translate(365.079375 58.070437)scale(0.1 -0.1)">
      <use xlink:href="#DejaVuSans-61"/>
      <use x="61.279297" xlink:href="#DejaVuSans-75"/>
      <use x="124.658203" xlink:href="#DejaVuSans-74"/>
      <use x="163.867188" xlink:href="#DejaVuSans-6f"/>
      <use x="225.064453" xlink:href="#DejaVuSans-2d"/>
      <use x="261.148438" xlink:href="#DejaVuSans-62"/>
      <use x="324.625" xlink:href="#DejaVuSans-77"/>
     </g>
    </g>
    <g id="line2d_95">
     <path d="M 337.079375 69.248562 
L 357.079375 69.248562 
" style="fill:none;stroke:#ff7f0e;stroke-linecap:square;stroke-width:1.5;"/>
    </g>
    <g id="line2d_96"/>
    <g id="text_20">
     <!-- RoT-bw -->
     <defs>
      <path d="M 44.390625 34.1875 
Q 47.5625 33.109375 50.5625 29.59375 
Q 53.5625 26.078125 56.59375 19.921875 
L 66.609375 0 
L 56 0 
L 46.6875 18.703125 
Q 43.0625 26.03125 39.671875 28.421875 
Q 36.28125 30.8125 30.421875 30.8125 
L 19.671875 30.8125 
L 19.671875 0 
L 9.8125 0 
L 9.8125 72.90625 
L 32.078125 72.90625 
Q 44.578125 72.90625 50.734375 67.671875 
Q 56.890625 62.453125 56.890625 51.90625 
Q 56.890625 45.015625 53.6875 40.46875 
Q 50.484375 35.9375 44.390625 34.1875 
z
M 19.671875 64.796875 
L 19.671875 38.921875 
L 32.078125 38.921875 
Q 39.203125 38.921875 42.84375 42.21875 
Q 46.484375 45.515625 46.484375 51.90625 
Q 46.484375 58.296875 42.84375 61.546875 
Q 39.203125 64.796875 32.078125 64.796875 
z
" id="DejaVuSans-52"/>
      <path d="M -0.296875 72.90625 
L 61.375 72.90625 
L 61.375 64.59375 
L 35.5 64.59375 
L 35.5 0 
L 25.59375 0 
L 25.59375 64.59375 
L -0.296875 64.59375 
z
" id="DejaVuSans-54"/>
     </defs>
     <g transform="translate(365.079375 72.748562)scale(0.1 -0.1)">
      <use xlink:href="#DejaVuSans-52"/>
      <use x="69.419922" xlink:href="#DejaVuSans-6f"/>
      <use x="130.601562" xlink:href="#DejaVuSans-54"/>
      <use x="191.544922" xlink:href="#DejaVuSans-2d"/>
      <use x="227.628906" xlink:href="#DejaVuSans-62"/>
      <use x="291.105469" xlink:href="#DejaVuSans-77"/>
     </g>
    </g>
   </g>
  </g>
 </g>
 <defs>
  <clipPath id="peea171a283">
   <rect height="266.112" width="357.12" x="57.6" y="41.472"/>
  </clipPath>
 </defs>
</svg>
