<?xml version="1.0" encoding="utf-8" standalone="no"?>
<!DOCTYPE svg PUBLIC "-//W3C//DTD SVG 1.1//EN"
  "http://www.w3.org/Graphics/SVG/1.1/DTD/svg11.dtd">
<!-- Created with matplotlib (http://matplotlib.org/) -->
<svg height="345pt" version="1.1" viewBox="0 0 460 345" width="460pt" xmlns="http://www.w3.org/2000/svg" xmlns:xlink="http://www.w3.org/1999/xlink">
 <defs>
  <style type="text/css">
*{stroke-linecap:butt;stroke-linejoin:round;}
  </style>
 </defs>
 <g id="figure_1">
  <g id="patch_1">
   <path d="M 0 345.6 
L 460.8 345.6 
L 460.8 0 
L 0 0 
z
" style="fill:#ffffff;"/>
  </g>
  <g id="axes_1">
   <g id="patch_2">
    <path d="M 57.6 307.584 
L 414.72 307.584 
L 414.72 41.472 
L 57.6 41.472 
z
" style="fill:#ffffff;"/>
   </g>
   <g id="matplotlib.axis_1">
    <g id="xtick_1">
     <g id="line2d_1">
      <defs>
       <path d="M 0 0 
L 0 3.5 
" id="m7c6fbde13c" style="stroke:#000000;stroke-width:0.8;"/>
      </defs>
      <g>
       <use style="stroke:#000000;stroke-width:0.8;" x="147.106987" xlink:href="#m7c6fbde13c" y="307.584"/>
      </g>
     </g>
     <g id="text_1">
      <!-- $\mathdefault{10^{1}}$ -->
      <defs>
       <path d="M 12.40625 8.296875 
L 28.515625 8.296875 
L 28.515625 63.921875 
L 10.984375 60.40625 
L 10.984375 69.390625 
L 28.421875 72.90625 
L 38.28125 72.90625 
L 38.28125 8.296875 
L 54.390625 8.296875 
L 54.390625 0 
L 12.40625 0 
z
" id="DejaVuSans-31"/>
       <path d="M 31.78125 66.40625 
Q 24.171875 66.40625 20.328125 58.90625 
Q 16.5 51.421875 16.5 36.375 
Q 16.5 21.390625 20.328125 13.890625 
Q 24.171875 6.390625 31.78125 6.390625 
Q 39.453125 6.390625 43.28125 13.890625 
Q 47.125 21.390625 47.125 36.375 
Q 47.125 51.421875 43.28125 58.90625 
Q 39.453125 66.40625 31.78125 66.40625 
z
M 31.78125 74.21875 
Q 44.046875 74.21875 50.515625 64.515625 
Q 56.984375 54.828125 56.984375 36.375 
Q 56.984375 17.96875 50.515625 8.265625 
Q 44.046875 -1.421875 31.78125 -1.421875 
Q 19.53125 -1.421875 13.0625 8.265625 
Q 6.59375 17.96875 6.59375 36.375 
Q 6.59375 54.828125 13.0625 64.515625 
Q 19.53125 74.21875 31.78125 74.21875 
z
" id="DejaVuSans-30"/>
      </defs>
      <g transform="translate(138.306987 322.182437)scale(0.1 -0.1)">
       <use transform="translate(0 0.684375)" xlink:href="#DejaVuSans-31"/>
       <use transform="translate(63.623047 0.684375)" xlink:href="#DejaVuSans-30"/>
       <use transform="translate(128.203125 38.965625)scale(0.7)" xlink:href="#DejaVuSans-31"/>
      </g>
     </g>
    </g>
    <g id="xtick_2">
     <g id="line2d_2">
      <g>
       <use style="stroke:#000000;stroke-width:0.8;" x="251.938753" xlink:href="#m7c6fbde13c" y="307.584"/>
      </g>
     </g>
     <g id="text_2">
      <!-- $\mathdefault{10^{2}}$ -->
      <defs>
       <path d="M 19.1875 8.296875 
L 53.609375 8.296875 
L 53.609375 0 
L 7.328125 0 
L 7.328125 8.296875 
Q 12.9375 14.109375 22.625 23.890625 
Q 32.328125 33.6875 34.8125 36.53125 
Q 39.546875 41.84375 41.421875 45.53125 
Q 43.3125 49.21875 43.3125 52.78125 
Q 43.3125 58.59375 39.234375 62.25 
Q 35.15625 65.921875 28.609375 65.921875 
Q 23.96875 65.921875 18.8125 64.3125 
Q 13.671875 62.703125 7.8125 59.421875 
L 7.8125 69.390625 
Q 13.765625 71.78125 18.9375 73 
Q 24.125 74.21875 28.421875 74.21875 
Q 39.75 74.21875 46.484375 68.546875 
Q 53.21875 62.890625 53.21875 53.421875 
Q 53.21875 48.921875 51.53125 44.890625 
Q 49.859375 40.875 45.40625 35.40625 
Q 44.1875 33.984375 37.640625 27.21875 
Q 31.109375 20.453125 19.1875 8.296875 
z
" id="DejaVuSans-32"/>
      </defs>
      <g transform="translate(243.138753 322.182437)scale(0.1 -0.1)">
       <use transform="translate(0 0.765625)" xlink:href="#DejaVuSans-31"/>
       <use transform="translate(63.623047 0.765625)" xlink:href="#DejaVuSans-30"/>
       <use transform="translate(128.203125 39.046875)scale(0.7)" xlink:href="#DejaVuSans-32"/>
      </g>
     </g>
    </g>
    <g id="xtick_3">
     <g id="line2d_3">
      <g>
       <use style="stroke:#000000;stroke-width:0.8;" x="356.770519" xlink:href="#m7c6fbde13c" y="307.584"/>
      </g>
     </g>
     <g id="text_3">
      <!-- $\mathdefault{10^{3}}$ -->
      <defs>
       <path d="M 40.578125 39.3125 
Q 47.65625 37.796875 51.625 33 
Q 55.609375 28.21875 55.609375 21.1875 
Q 55.609375 10.40625 48.1875 4.484375 
Q 40.765625 -1.421875 27.09375 -1.421875 
Q 22.515625 -1.421875 17.65625 -0.515625 
Q 12.796875 0.390625 7.625 2.203125 
L 7.625 11.71875 
Q 11.71875 9.328125 16.59375 8.109375 
Q 21.484375 6.890625 26.8125 6.890625 
Q 36.078125 6.890625 40.9375 10.546875 
Q 45.796875 14.203125 45.796875 21.1875 
Q 45.796875 27.640625 41.28125 31.265625 
Q 36.765625 34.90625 28.71875 34.90625 
L 20.21875 34.90625 
L 20.21875 43.015625 
L 29.109375 43.015625 
Q 36.375 43.015625 40.234375 45.921875 
Q 44.09375 48.828125 44.09375 54.296875 
Q 44.09375 59.90625 40.109375 62.90625 
Q 36.140625 65.921875 28.71875 65.921875 
Q 24.65625 65.921875 20.015625 65.03125 
Q 15.375 64.15625 9.8125 62.3125 
L 9.8125 71.09375 
Q 15.4375 72.65625 20.34375 73.4375 
Q 25.25 74.21875 29.59375 74.21875 
Q 40.828125 74.21875 47.359375 69.109375 
Q 53.90625 64.015625 53.90625 55.328125 
Q 53.90625 49.265625 50.4375 45.09375 
Q 46.96875 40.921875 40.578125 39.3125 
z
" id="DejaVuSans-33"/>
      </defs>
      <g transform="translate(347.970519 322.182437)scale(0.1 -0.1)">
       <use transform="translate(0 0.765625)" xlink:href="#DejaVuSans-31"/>
       <use transform="translate(63.623047 0.765625)" xlink:href="#DejaVuSans-30"/>
       <use transform="translate(128.203125 39.046875)scale(0.7)" xlink:href="#DejaVuSans-33"/>
      </g>
     </g>
    </g>
    <g id="xtick_4">
     <g id="line2d_4">
      <defs>
       <path d="M 0 0 
L 0 2 
" id="m905c59133d" style="stroke:#000000;stroke-width:0.6;"/>
      </defs>
      <g>
       <use style="stroke:#000000;stroke-width:0.6;" x="73.832727" xlink:href="#m905c59133d" y="307.584"/>
      </g>
     </g>
    </g>
    <g id="xtick_5">
     <g id="line2d_5">
      <g>
       <use style="stroke:#000000;stroke-width:0.6;" x="92.292685" xlink:href="#m905c59133d" y="307.584"/>
      </g>
     </g>
    </g>
    <g id="xtick_6">
     <g id="line2d_6">
      <g>
       <use style="stroke:#000000;stroke-width:0.6;" x="105.390233" xlink:href="#m905c59133d" y="307.584"/>
      </g>
     </g>
    </g>
    <g id="xtick_7">
     <g id="line2d_7">
      <g>
       <use style="stroke:#000000;stroke-width:0.6;" x="115.549481" xlink:href="#m905c59133d" y="307.584"/>
      </g>
     </g>
    </g>
    <g id="xtick_8">
     <g id="line2d_8">
      <g>
       <use style="stroke:#000000;stroke-width:0.6;" x="123.850191" xlink:href="#m905c59133d" y="307.584"/>
      </g>
     </g>
    </g>
    <g id="xtick_9">
     <g id="line2d_9">
      <g>
       <use style="stroke:#000000;stroke-width:0.6;" x="130.868341" xlink:href="#m905c59133d" y="307.584"/>
      </g>
     </g>
    </g>
    <g id="xtick_10">
     <g id="line2d_10">
      <g>
       <use style="stroke:#000000;stroke-width:0.6;" x="136.947739" xlink:href="#m905c59133d" y="307.584"/>
      </g>
     </g>
    </g>
    <g id="xtick_11">
     <g id="line2d_11">
      <g>
       <use style="stroke:#000000;stroke-width:0.6;" x="142.310149" xlink:href="#m905c59133d" y="307.584"/>
      </g>
     </g>
    </g>
    <g id="xtick_12">
     <g id="line2d_12">
      <g>
       <use style="stroke:#000000;stroke-width:0.6;" x="178.664493" xlink:href="#m905c59133d" y="307.584"/>
      </g>
     </g>
    </g>
    <g id="xtick_13">
     <g id="line2d_13">
      <g>
       <use style="stroke:#000000;stroke-width:0.6;" x="197.124451" xlink:href="#m905c59133d" y="307.584"/>
      </g>
     </g>
    </g>
    <g id="xtick_14">
     <g id="line2d_14">
      <g>
       <use style="stroke:#000000;stroke-width:0.6;" x="210.221999" xlink:href="#m905c59133d" y="307.584"/>
      </g>
     </g>
    </g>
    <g id="xtick_15">
     <g id="line2d_15">
      <g>
       <use style="stroke:#000000;stroke-width:0.6;" x="220.381247" xlink:href="#m905c59133d" y="307.584"/>
      </g>
     </g>
    </g>
    <g id="xtick_16">
     <g id="line2d_16">
      <g>
       <use style="stroke:#000000;stroke-width:0.6;" x="228.681957" xlink:href="#m905c59133d" y="307.584"/>
      </g>
     </g>
    </g>
    <g id="xtick_17">
     <g id="line2d_17">
      <g>
       <use style="stroke:#000000;stroke-width:0.6;" x="235.700107" xlink:href="#m905c59133d" y="307.584"/>
      </g>
     </g>
    </g>
    <g id="xtick_18">
     <g id="line2d_18">
      <g>
       <use style="stroke:#000000;stroke-width:0.6;" x="241.779505" xlink:href="#m905c59133d" y="307.584"/>
      </g>
     </g>
    </g>
    <g id="xtick_19">
     <g id="line2d_19">
      <g>
       <use style="stroke:#000000;stroke-width:0.6;" x="247.141914" xlink:href="#m905c59133d" y="307.584"/>
      </g>
     </g>
    </g>
    <g id="xtick_20">
     <g id="line2d_20">
      <g>
       <use style="stroke:#000000;stroke-width:0.6;" x="283.496259" xlink:href="#m905c59133d" y="307.584"/>
      </g>
     </g>
    </g>
    <g id="xtick_21">
     <g id="line2d_21">
      <g>
       <use style="stroke:#000000;stroke-width:0.6;" x="301.956217" xlink:href="#m905c59133d" y="307.584"/>
      </g>
     </g>
    </g>
    <g id="xtick_22">
     <g id="line2d_22">
      <g>
       <use style="stroke:#000000;stroke-width:0.6;" x="315.053765" xlink:href="#m905c59133d" y="307.584"/>
      </g>
     </g>
    </g>
    <g id="xtick_23">
     <g id="line2d_23">
      <g>
       <use style="stroke:#000000;stroke-width:0.6;" x="325.213013" xlink:href="#m905c59133d" y="307.584"/>
      </g>
     </g>
    </g>
    <g id="xtick_24">
     <g id="line2d_24">
      <g>
       <use style="stroke:#000000;stroke-width:0.6;" x="333.513723" xlink:href="#m905c59133d" y="307.584"/>
      </g>
     </g>
    </g>
    <g id="xtick_25">
     <g id="line2d_25">
      <g>
       <use style="stroke:#000000;stroke-width:0.6;" x="340.531873" xlink:href="#m905c59133d" y="307.584"/>
      </g>
     </g>
    </g>
    <g id="xtick_26">
     <g id="line2d_26">
      <g>
       <use style="stroke:#000000;stroke-width:0.6;" x="346.611271" xlink:href="#m905c59133d" y="307.584"/>
      </g>
     </g>
    </g>
    <g id="xtick_27">
     <g id="line2d_27">
      <g>
       <use style="stroke:#000000;stroke-width:0.6;" x="351.97368" xlink:href="#m905c59133d" y="307.584"/>
      </g>
     </g>
    </g>
    <g id="xtick_28">
     <g id="line2d_28">
      <g>
       <use style="stroke:#000000;stroke-width:0.6;" x="388.328025" xlink:href="#m905c59133d" y="307.584"/>
      </g>
     </g>
    </g>
    <g id="xtick_29">
     <g id="line2d_29">
      <g>
       <use style="stroke:#000000;stroke-width:0.6;" x="406.787983" xlink:href="#m905c59133d" y="307.584"/>
      </g>
     </g>
    </g>
    <g id="text_4">
     <!-- $\ell$ -->
     <defs>
      <path d="M 14.84375 13.09375 
Q 16.84375 3.328125 21.09375 3.328125 
Q 23.921875 3.328125 27.59375 8.9375 
L 34.078125 8.9375 
Q 31.15625 3.953125 27.734375 1.375 
Q 24.03125 -1.421875 20.609375 -1.421875 
Q 12.984375 -1.421875 9.90625 5.375 
L 6.25 0 
L -1.375 0 
Q 3.90625 7.171875 7.8125 13.875 
Q 7.328125 17.671875 7.328125 21.828125 
Q 7.328125 29.25 8.84375 36.671875 
Q 14.546875 64.546875 19.625 70.265625 
Q 23.140625 74.21875 29.15625 74.21875 
Q 35.25 74.21875 35.25 65.765625 
Q 35.203125 61.96875 34.328125 57.421875 
Q 30.8125 38.8125 14.84375 13.09375 
z
M 14.796875 25.875 
Q 23.921875 42.875 26.703125 56.453125 
Q 28.171875 63.625 28.171875 65.484375 
Q 28.171875 68.84375 26.953125 68.84375 
Q 21.625 64.59375 16.890625 39.3125 
Q 15.578125 32.234375 14.796875 25.875 
z
" id="DejaVuSans-Oblique-2113"/>
     </defs>
     <g transform="translate(234.06 335.860562)scale(0.1 -0.1)">
      <use transform="translate(0 0.78125)" xlink:href="#DejaVuSans-Oblique-2113"/>
     </g>
    </g>
   </g>
   <g id="matplotlib.axis_2">
    <g id="ytick_1">
     <g id="line2d_30">
      <defs>
       <path d="M 0 0 
L -3.5 0 
" id="m1f3b06c62d" style="stroke:#000000;stroke-width:0.8;"/>
      </defs>
      <g>
       <use style="stroke:#000000;stroke-width:0.8;" x="57.6" xlink:href="#m1f3b06c62d" y="297.979888"/>
      </g>
     </g>
     <g id="text_5">
      <!-- 0 -->
      <g transform="translate(44.2375 301.779107)scale(0.1 -0.1)">
       <use xlink:href="#DejaVuSans-30"/>
      </g>
     </g>
    </g>
    <g id="ytick_2">
     <g id="line2d_31">
      <g>
       <use style="stroke:#000000;stroke-width:0.8;" x="57.6" xlink:href="#m1f3b06c62d" y="261.323259"/>
      </g>
     </g>
     <g id="text_6">
      <!-- 2500 -->
      <defs>
       <path d="M 10.796875 72.90625 
L 49.515625 72.90625 
L 49.515625 64.59375 
L 19.828125 64.59375 
L 19.828125 46.734375 
Q 21.96875 47.46875 24.109375 47.828125 
Q 26.265625 48.1875 28.421875 48.1875 
Q 40.625 48.1875 47.75 41.5 
Q 54.890625 34.8125 54.890625 23.390625 
Q 54.890625 11.625 47.5625 5.09375 
Q 40.234375 -1.421875 26.90625 -1.421875 
Q 22.3125 -1.421875 17.546875 -0.640625 
Q 12.796875 0.140625 7.71875 1.703125 
L 7.71875 11.625 
Q 12.109375 9.234375 16.796875 8.0625 
Q 21.484375 6.890625 26.703125 6.890625 
Q 35.15625 6.890625 40.078125 11.328125 
Q 45.015625 15.765625 45.015625 23.390625 
Q 45.015625 31 40.078125 35.4375 
Q 35.15625 39.890625 26.703125 39.890625 
Q 22.75 39.890625 18.8125 39.015625 
Q 14.890625 38.140625 10.796875 36.28125 
z
" id="DejaVuSans-35"/>
      </defs>
      <g transform="translate(25.15 265.122478)scale(0.1 -0.1)">
       <use xlink:href="#DejaVuSans-32"/>
       <use x="63.623047" xlink:href="#DejaVuSans-35"/>
       <use x="127.246094" xlink:href="#DejaVuSans-30"/>
       <use x="190.869141" xlink:href="#DejaVuSans-30"/>
      </g>
     </g>
    </g>
    <g id="ytick_3">
     <g id="line2d_32">
      <g>
       <use style="stroke:#000000;stroke-width:0.8;" x="57.6" xlink:href="#m1f3b06c62d" y="224.66663"/>
      </g>
     </g>
     <g id="text_7">
      <!-- 5000 -->
      <g transform="translate(25.15 228.465848)scale(0.1 -0.1)">
       <use xlink:href="#DejaVuSans-35"/>
       <use x="63.623047" xlink:href="#DejaVuSans-30"/>
       <use x="127.246094" xlink:href="#DejaVuSans-30"/>
       <use x="190.869141" xlink:href="#DejaVuSans-30"/>
      </g>
     </g>
    </g>
    <g id="ytick_4">
     <g id="line2d_33">
      <g>
       <use style="stroke:#000000;stroke-width:0.8;" x="57.6" xlink:href="#m1f3b06c62d" y="188.010001"/>
      </g>
     </g>
     <g id="text_8">
      <!-- 7500 -->
      <defs>
       <path d="M 8.203125 72.90625 
L 55.078125 72.90625 
L 55.078125 68.703125 
L 28.609375 0 
L 18.3125 0 
L 43.21875 64.59375 
L 8.203125 64.59375 
z
" id="DejaVuSans-37"/>
      </defs>
      <g transform="translate(25.15 191.809219)scale(0.1 -0.1)">
       <use xlink:href="#DejaVuSans-37"/>
       <use x="63.623047" xlink:href="#DejaVuSans-35"/>
       <use x="127.246094" xlink:href="#DejaVuSans-30"/>
       <use x="190.869141" xlink:href="#DejaVuSans-30"/>
      </g>
     </g>
    </g>
    <g id="ytick_5">
     <g id="line2d_34">
      <g>
       <use style="stroke:#000000;stroke-width:0.8;" x="57.6" xlink:href="#m1f3b06c62d" y="151.353371"/>
      </g>
     </g>
     <g id="text_9">
      <!-- 10000 -->
      <g transform="translate(18.7875 155.15259)scale(0.1 -0.1)">
       <use xlink:href="#DejaVuSans-31"/>
       <use x="63.623047" xlink:href="#DejaVuSans-30"/>
       <use x="127.246094" xlink:href="#DejaVuSans-30"/>
       <use x="190.869141" xlink:href="#DejaVuSans-30"/>
       <use x="254.492188" xlink:href="#DejaVuSans-30"/>
      </g>
     </g>
    </g>
    <g id="ytick_6">
     <g id="line2d_35">
      <g>
       <use style="stroke:#000000;stroke-width:0.8;" x="57.6" xlink:href="#m1f3b06c62d" y="114.696742"/>
      </g>
     </g>
     <g id="text_10">
      <!-- 12500 -->
      <g transform="translate(18.7875 118.495961)scale(0.1 -0.1)">
       <use xlink:href="#DejaVuSans-31"/>
       <use x="63.623047" xlink:href="#DejaVuSans-32"/>
       <use x="127.246094" xlink:href="#DejaVuSans-35"/>
       <use x="190.869141" xlink:href="#DejaVuSans-30"/>
       <use x="254.492188" xlink:href="#DejaVuSans-30"/>
      </g>
     </g>
    </g>
    <g id="ytick_7">
     <g id="line2d_36">
      <g>
       <use style="stroke:#000000;stroke-width:0.8;" x="57.6" xlink:href="#m1f3b06c62d" y="78.040113"/>
      </g>
     </g>
     <g id="text_11">
      <!-- 15000 -->
      <g transform="translate(18.7875 81.839332)scale(0.1 -0.1)">
       <use xlink:href="#DejaVuSans-31"/>
       <use x="63.623047" xlink:href="#DejaVuSans-35"/>
       <use x="127.246094" xlink:href="#DejaVuSans-30"/>
       <use x="190.869141" xlink:href="#DejaVuSans-30"/>
       <use x="254.492188" xlink:href="#DejaVuSans-30"/>
      </g>
     </g>
    </g>
    <g id="ytick_8">
     <g id="line2d_37">
      <g>
       <use style="stroke:#000000;stroke-width:0.8;" x="57.6" xlink:href="#m1f3b06c62d" y="41.383484"/>
      </g>
     </g>
     <g id="text_12">
      <!-- 17500 -->
      <g transform="translate(18.7875 45.182703)scale(0.1 -0.1)">
       <use xlink:href="#DejaVuSans-31"/>
       <use x="63.623047" xlink:href="#DejaVuSans-37"/>
       <use x="127.246094" xlink:href="#DejaVuSans-35"/>
       <use x="190.869141" xlink:href="#DejaVuSans-30"/>
       <use x="254.492188" xlink:href="#DejaVuSans-30"/>
      </g>
     </g>
    </g>
    <g id="text_13">
     <!-- $C_\ell$ -->
     <defs>
      <path d="M 69.484375 67.28125 
L 67.484375 56.890625 
Q 62.796875 61.625 57.546875 63.921875 
Q 52.296875 66.21875 46.1875 66.21875 
Q 37.84375 66.21875 31.515625 62.203125 
Q 25.203125 58.203125 20.609375 50 
Q 17.671875 44.734375 16.125 38.84375 
Q 14.59375 32.953125 14.59375 27 
Q 14.59375 17.046875 19.75 11.8125 
Q 24.90625 6.59375 34.71875 6.59375 
Q 41.5 6.59375 47.75 8.765625 
Q 54 10.9375 59.90625 15.28125 
L 57.625 3.609375 
Q 51.8125 1.125 45.875 -0.140625 
Q 39.9375 -1.421875 33.984375 -1.421875 
Q 19.96875 -1.421875 12.078125 6.1875 
Q 4.203125 13.8125 4.203125 27.390625 
Q 4.203125 36.078125 7.203125 44.46875 
Q 10.203125 52.875 15.828125 59.8125 
Q 21.78125 67.1875 29.421875 70.703125 
Q 37.0625 74.21875 47.21875 74.21875 
Q 53.46875 74.21875 59.0625 72.484375 
Q 64.65625 70.75 69.484375 67.28125 
z
" id="DejaVuSans-Oblique-43"/>
     </defs>
     <g transform="translate(12.707813 179.628)rotate(-90)scale(0.1 -0.1)">
      <use transform="translate(0 0.78125)" xlink:href="#DejaVuSans-Oblique-43"/>
      <use transform="translate(69.824219 -15.625)scale(0.7)" xlink:href="#DejaVuSans-Oblique-2113"/>
     </g>
    </g>
   </g>
   <g id="line2d_38">
    <path clip-path="url(#p91e9053e01)" d="M 73.832727 243.211645 
L 92.292685 247.202583 
L 105.390233 251.36174 
L 115.549481 254.774338 
L 123.850191 257.297645 
L 130.868341 259.027314 
L 136.947739 260.087282 
L 142.310149 260.599128 
L 147.106987 260.691491 
L 151.446255 260.468374 
L 155.407697 260.021988 
L 162.425847 258.826729 
L 173.867655 256.534547 
L 180.885805 255.389476 
L 185.027555 254.696966 
L 188.823741 253.85206 
L 192.327612 252.69057 
L 195.580986 251.195807 
L 198.617301 249.463784 
L 209.069334 243.032099 
L 212.443311 241.055882 
L 214.561267 239.64567 
L 216.585061 238.08251 
L 219.461461 235.506999 
L 227.916765 227.294156 
L 229.434501 225.651526 
L 230.903268 223.83235 
L 233.021225 220.75381 
L 235.045019 217.28109 
L 239.444231 209.19966 
L 243.455567 202.870374 
L 244.539614 200.527584 
L 246.118773 196.401592 
L 249.121698 188.101583 
L 253.284502 177.839154 
L 254.591612 173.41342 
L 256.278021 166.593893 
L 258.695998 156.707605 
L 259.858474 152.899269 
L 261.732313 147.705191 
L 263.177763 143.462365 
L 264.23251 139.525387 
L 265.601872 133.253655 
L 267.257613 124.397831 
L 270.398711 107.29454 
L 272.764326 95.644254 
L 275.558323 82.975182 
L 277.934228 73.144311 
L 279.946837 65.655306 
L 281.399977 60.955223 
L 282.576473 57.793571 
L 283.496259 55.851749 
L 284.39783 54.499154 
L 285.062482 53.878047 
L 285.717571 53.590543 
L 286.363367 53.631449 
L 287.00013 53.993642 
L 287.628111 54.668004 
L 288.247547 55.643345 
L 289.060566 57.388736 
L 289.859321 59.608686 
L 290.838452 62.984313 
L 291.986274 67.780524 
L 293.47303 75.086752 
L 295.265697 85.019206 
L 297.159378 96.742887 
L 299.139162 110.492541 
L 301.036431 125.33321 
L 302.857788 141.410474 
L 304.609075 158.948785 
L 308.713462 201.558784 
L 309.74823 209.524235 
L 310.634753 214.821307 
L 311.504343 218.718201 
L 312.236711 221.099013 
L 312.957483 222.763313 
L 313.667023 223.902713 
L 314.365674 224.670766 
L 314.939803 225.029404 
L 315.506782 225.118947 
L 315.955336 224.988848 
L 316.509885 224.564549 
L 317.05776 223.839494 
L 317.706624 222.558279 
L 318.452126 220.484034 
L 319.289443 217.433322 
L 320.416174 212.386335 
L 323.732302 196.797306 
L 324.663374 193.734989 
L 325.303978 192.280497 
L 325.845982 191.571845 
L 326.292776 191.369178 
L 326.64708 191.436469 
L 327.086117 191.77388 
L 327.607434 192.492313 
L 328.293366 193.844094 
L 329.717537 197.297715 
L 331.018421 200.874739 
L 331.970258 204.096625 
L 332.979442 208.381409 
L 335.153201 217.978136 
L 335.807244 219.823686 
L 336.38083 220.837742 
L 336.876859 221.2709 
L 337.297766 221.327721 
L 337.714818 221.116297 
L 338.196599 220.559022 
L 338.741034 219.519795 
L 339.345841 217.824021 
L 340.008558 215.268432 
L 340.791292 211.251012 
L 341.877622 204.244298 
L 343.551401 193.506218 
L 344.275997 190.226825 
L 344.811976 188.680412 
L 345.165821 188.165866 
L 345.458606 188.089843 
L 345.691485 188.26022 
L 346.038586 188.87016 
L 346.497309 190.268378 
L 347.1206 193.065614 
L 348.012239 198.273881 
L 349.102779 206.025772 
L 350.325433 216.423394 
L 353.221097 241.865162 
L 354.098535 247.418718 
L 354.817032 250.647213 
L 355.383776 252.291278 
L 355.850733 253.022718 
L 356.22088 253.219855 
L 356.542309 253.140103 
L 356.906898 252.795943 
L 357.403488 251.957563 
L 358.072045 250.320365 
L 360.400681 244.121003 
L 360.819139 243.67347 
L 361.151157 243.60809 
L 361.439701 243.769973 
L 361.808018 244.283364 
L 362.213795 245.263005 
L 362.735955 247.153537 
L 363.645356 251.466746 
L 365.071229 257.99381 
L 366.416978 263.25525 
L 367.002553 264.734413 
L 367.436844 265.3117 
L 367.795616 265.465022 
L 368.11611 265.367208 
L 368.504787 264.974914 
L 369.029509 264.071011 
L 371.136397 259.982061 
L 371.500225 259.848039 
L 371.795755 259.968266 
L 372.121887 260.370883 
L 372.510187 261.246695 
L 373.05467 263.108089 
L 373.843734 266.719789 
L 375.953156 276.79474 
L 376.693945 279.128784 
L 377.278018 280.28662 
L 377.768655 280.794449 
L 378.197223 280.932694 
L 378.649959 280.829602 
L 379.320731 280.402982 
L 380.227198 279.862362 
L 380.687216 279.853144 
L 381.115969 280.082758 
L 381.567138 280.601224 
L 382.170512 281.689884 
L 383.150198 284.01427 
L 384.358305 286.75412 
L 385.024037 287.735881 
L 385.559379 288.157374 
L 386.088499 288.289444 
L 386.800256 288.206613 
L 387.824444 288.096401 
L 388.350783 288.26767 
L 388.893596 288.693538 
L 389.540975 289.525278 
L 391.726386 292.592004 
L 392.41828 293.054787 
L 393.12031 293.254186 
L 395.592658 293.709409 
L 396.628735 294.33388 
L 397.974484 295.113771 
L 398.487273 295.269545 
L 398.487273 295.269545 
" style="fill:none;stroke:#ff0000;stroke-linecap:square;stroke-width:1.5;"/>
   </g>
   <g id="line2d_39">
    <path clip-path="url(#p91e9053e01)" d="M 73.832727 250.349495 
L 92.292685 253.284068 
L 123.850191 260.199325 
L 130.868341 261.458135 
L 136.947739 262.340379 
L 142.310149 262.916571 
L 147.106987 263.257773 
L 151.446255 263.413 
L 159.05187 263.316069 
L 165.566945 262.864283 
L 171.265355 262.180565 
L 176.329219 261.338671 
L 180.885805 260.392179 
L 186.965203 258.811956 
L 192.327612 257.125095 
L 197.124451 255.341618 
L 201.463719 253.481401 
L 205.425161 251.566861 
L 209.069334 249.601527 
L 212.443311 247.553014 
L 216.585061 244.725974 
L 220.381247 241.821311 
L 223.885118 238.796359 
L 227.138492 235.646633 
L 230.174807 232.374326 
L 233.021225 228.976428 
L 235.700107 225.43502 
L 238.230083 221.736156 
L 240.62684 217.881222 
L 243.455567 212.845563 
L 246.118773 207.581705 
L 248.634765 202.086251 
L 251.018967 196.36646 
L 253.724388 189.224779 
L 256.278021 181.829892 
L 259.086797 172.938515 
L 262.098001 162.548993 
L 265.263373 150.77229 
L 269.478925 134.12285 
L 275.286514 111.175459 
L 277.67628 102.615024 
L 279.451964 96.954353 
L 280.920732 92.884823 
L 282.343593 89.589897 
L 283.496259 87.469547 
L 284.39783 86.200105 
L 285.281894 85.317844 
L 285.933855 84.912831 
L 286.576612 84.729175 
L 287.210421 84.767488 
L 287.835527 85.027819 
L 288.452167 85.509634 
L 289.261572 86.494324 
L 290.056839 87.864963 
L 291.031777 90.108747 
L 291.986274 92.922567 
L 293.105868 97.014077 
L 294.198589 101.831773 
L 295.441142 108.289614 
L 296.82088 116.642055 
L 298.488753 128.253581 
L 300.412752 143.337565 
L 303.154387 166.881681 
L 306.84402 198.342303 
L 308.582446 211.339269 
L 310.003289 220.311389 
L 311.133694 226.132588 
L 312.115464 230.128024 
L 312.957483 232.714428 
L 313.667023 234.268676 
L 314.249974 235.110708 
L 314.825555 235.555262 
L 315.280837 235.636462 
L 315.731612 235.48558 
L 316.177967 235.115529 
L 316.729826 234.367515 
L 317.383348 233.095767 
L 318.240368 230.876271 
L 319.289443 227.458112 
L 320.618072 222.302901 
L 323.638139 210.287571 
L 324.755443 206.832212 
L 325.575787 204.941003 
L 326.203767 203.965018 
L 326.735227 203.480171 
L 327.173419 203.319086 
L 327.607434 203.373548 
L 328.037351 203.637471 
L 328.547949 204.220514 
L 329.136499 205.249348 
L 329.882195 207.071039 
L 330.77732 209.915978 
L 332.048686 214.811484 
L 334.637924 224.945387 
L 335.517717 227.469079 
L 336.166581 228.750187 
L 336.735687 229.418655 
L 337.157896 229.616828 
L 337.50677 229.576854 
L 337.92192 229.275932 
L 338.401526 228.576083 
L 338.943531 227.347959 
L 339.612087 225.242613 
L 340.466787 221.732382 
L 341.624337 215.936052 
L 343.854719 204.607328 
L 344.693413 201.561014 
L 345.283161 200.160079 
L 345.691485 199.639562 
L 346.038586 199.507194 
L 346.325829 199.618885 
L 346.668145 200.019698 
L 347.064288 200.855032 
L 347.568602 202.509168 
L 348.177494 205.386756 
L 348.940854 210.230236 
L 349.903876 217.929578 
L 351.567179 233.454342 
L 353.073199 246.63124 
L 353.953464 252.620806 
L 354.674237 256.148526 
L 355.24275 258.00005 
L 355.711148 258.890228 
L 356.082427 259.199318 
L 356.404831 259.207066 
L 356.770519 258.952305 
L 357.223536 258.303279 
L 357.850282 256.942427 
L 360.27439 251.145754 
L 360.735754 250.733134 
L 361.068379 250.690794 
L 361.398592 250.865901 
L 361.808018 251.382721 
L 362.294518 252.424473 
L 362.895422 254.313528 
L 363.723583 257.734132 
L 366.084251 267.932643 
L 366.710707 269.570813 
L 367.220217 270.336541 
L 367.616583 270.579696 
L 367.973947 270.55155 
L 368.363834 270.274525 
L 368.855272 269.62225 
L 369.685591 268.079651 
L 370.73615 266.238284 
L 371.235912 265.764303 
L 371.631809 265.674492 
L 371.991715 265.841605 
L 372.381121 266.317737 
L 372.863242 267.327364 
L 373.46669 269.173936 
L 374.310691 272.565933 
L 376.191522 280.309578 
L 376.869955 282.139355 
L 377.422872 283.047514 
L 377.883335 283.423431 
L 378.31083 283.507307 
L 378.818581 283.358992 
L 380.660285 282.57742 
L 381.115969 282.74082 
L 381.593538 283.156524 
L 382.196565 284.010405 
L 383.124685 285.784062 
L 384.33346 287.997086 
L 384.999553 288.764713 
L 385.559379 289.085479 
L 386.112404 289.147955 
L 386.941282 288.979597 
L 387.801421 288.869538 
L 388.350783 289.016055 
L 388.916073 289.406063 
L 389.585284 290.16064 
L 392.042187 293.221446 
L 392.708663 293.543477 
L 393.487637 293.65819 
L 394.987043 293.832319 
L 395.844247 294.215027 
L 398.194958 295.4263 
L 398.487273 295.488 
L 398.487273 295.488 
" style="fill:none;stroke:#0000ff;stroke-dasharray:5.55,2.4;stroke-dashoffset:0;stroke-width:1.5;"/>
   </g>
   <g id="patch_3">
    <path d="M 57.6 307.584 
L 57.6 41.472 
" style="fill:none;stroke:#000000;stroke-linecap:square;stroke-linejoin:miter;stroke-width:0.8;"/>
   </g>
   <g id="patch_4">
    <path d="M 414.72 307.584 
L 414.72 41.472 
" style="fill:none;stroke:#000000;stroke-linecap:square;stroke-linejoin:miter;stroke-width:0.8;"/>
   </g>
   <g id="patch_5">
    <path d="M 57.6 307.584 
L 414.72 307.584 
" style="fill:none;stroke:#000000;stroke-linecap:square;stroke-linejoin:miter;stroke-width:0.8;"/>
   </g>
   <g id="patch_6">
    <path d="M 57.6 41.472 
L 414.72 41.472 
" style="fill:none;stroke:#000000;stroke-linecap:square;stroke-linejoin:miter;stroke-width:0.8;"/>
   </g>
   <g id="text_14">
    <!-- Modified and non-modified $C_\ell$ -->
    <defs>
     <path d="M 9.8125 72.90625 
L 24.515625 72.90625 
L 43.109375 23.296875 
L 61.8125 72.90625 
L 76.515625 72.90625 
L 76.515625 0 
L 66.890625 0 
L 66.890625 64.015625 
L 48.09375 14.015625 
L 38.1875 14.015625 
L 19.390625 64.015625 
L 19.390625 0 
L 9.8125 0 
z
" id="DejaVuSans-4d"/>
     <path d="M 30.609375 48.390625 
Q 23.390625 48.390625 19.1875 42.75 
Q 14.984375 37.109375 14.984375 27.296875 
Q 14.984375 17.484375 19.15625 11.84375 
Q 23.34375 6.203125 30.609375 6.203125 
Q 37.796875 6.203125 41.984375 11.859375 
Q 46.1875 17.53125 46.1875 27.296875 
Q 46.1875 37.015625 41.984375 42.703125 
Q 37.796875 48.390625 30.609375 48.390625 
z
M 30.609375 56 
Q 42.328125 56 49.015625 48.375 
Q 55.71875 40.765625 55.71875 27.296875 
Q 55.71875 13.875 49.015625 6.21875 
Q 42.328125 -1.421875 30.609375 -1.421875 
Q 18.84375 -1.421875 12.171875 6.21875 
Q 5.515625 13.875 5.515625 27.296875 
Q 5.515625 40.765625 12.171875 48.375 
Q 18.84375 56 30.609375 56 
z
" id="DejaVuSans-6f"/>
     <path d="M 45.40625 46.390625 
L 45.40625 75.984375 
L 54.390625 75.984375 
L 54.390625 0 
L 45.40625 0 
L 45.40625 8.203125 
Q 42.578125 3.328125 38.25 0.953125 
Q 33.9375 -1.421875 27.875 -1.421875 
Q 17.96875 -1.421875 11.734375 6.484375 
Q 5.515625 14.40625 5.515625 27.296875 
Q 5.515625 40.1875 11.734375 48.09375 
Q 17.96875 56 27.875 56 
Q 33.9375 56 38.25 53.625 
Q 42.578125 51.265625 45.40625 46.390625 
z
M 14.796875 27.296875 
Q 14.796875 17.390625 18.875 11.75 
Q 22.953125 6.109375 30.078125 6.109375 
Q 37.203125 6.109375 41.296875 11.75 
Q 45.40625 17.390625 45.40625 27.296875 
Q 45.40625 37.203125 41.296875 42.84375 
Q 37.203125 48.484375 30.078125 48.484375 
Q 22.953125 48.484375 18.875 42.84375 
Q 14.796875 37.203125 14.796875 27.296875 
z
" id="DejaVuSans-64"/>
     <path d="M 9.421875 54.6875 
L 18.40625 54.6875 
L 18.40625 0 
L 9.421875 0 
z
M 9.421875 75.984375 
L 18.40625 75.984375 
L 18.40625 64.59375 
L 9.421875 64.59375 
z
" id="DejaVuSans-69"/>
     <path d="M 37.109375 75.984375 
L 37.109375 68.5 
L 28.515625 68.5 
Q 23.6875 68.5 21.796875 66.546875 
Q 19.921875 64.59375 19.921875 59.515625 
L 19.921875 54.6875 
L 34.71875 54.6875 
L 34.71875 47.703125 
L 19.921875 47.703125 
L 19.921875 0 
L 10.890625 0 
L 10.890625 47.703125 
L 2.296875 47.703125 
L 2.296875 54.6875 
L 10.890625 54.6875 
L 10.890625 58.5 
Q 10.890625 67.625 15.140625 71.796875 
Q 19.390625 75.984375 28.609375 75.984375 
z
" id="DejaVuSans-66"/>
     <path d="M 56.203125 29.59375 
L 56.203125 25.203125 
L 14.890625 25.203125 
Q 15.484375 15.921875 20.484375 11.0625 
Q 25.484375 6.203125 34.421875 6.203125 
Q 39.59375 6.203125 44.453125 7.46875 
Q 49.3125 8.734375 54.109375 11.28125 
L 54.109375 2.78125 
Q 49.265625 0.734375 44.1875 -0.34375 
Q 39.109375 -1.421875 33.890625 -1.421875 
Q 20.796875 -1.421875 13.15625 6.1875 
Q 5.515625 13.8125 5.515625 26.8125 
Q 5.515625 40.234375 12.765625 48.109375 
Q 20.015625 56 32.328125 56 
Q 43.359375 56 49.78125 48.890625 
Q 56.203125 41.796875 56.203125 29.59375 
z
M 47.21875 32.234375 
Q 47.125 39.59375 43.09375 43.984375 
Q 39.0625 48.390625 32.421875 48.390625 
Q 24.90625 48.390625 20.390625 44.140625 
Q 15.875 39.890625 15.1875 32.171875 
z
" id="DejaVuSans-65"/>
     <path id="DejaVuSans-20"/>
     <path d="M 34.28125 27.484375 
Q 23.390625 27.484375 19.1875 25 
Q 14.984375 22.515625 14.984375 16.5 
Q 14.984375 11.71875 18.140625 8.90625 
Q 21.296875 6.109375 26.703125 6.109375 
Q 34.1875 6.109375 38.703125 11.40625 
Q 43.21875 16.703125 43.21875 25.484375 
L 43.21875 27.484375 
z
M 52.203125 31.203125 
L 52.203125 0 
L 43.21875 0 
L 43.21875 8.296875 
Q 40.140625 3.328125 35.546875 0.953125 
Q 30.953125 -1.421875 24.3125 -1.421875 
Q 15.921875 -1.421875 10.953125 3.296875 
Q 6 8.015625 6 15.921875 
Q 6 25.140625 12.171875 29.828125 
Q 18.359375 34.515625 30.609375 34.515625 
L 43.21875 34.515625 
L 43.21875 35.40625 
Q 43.21875 41.609375 39.140625 45 
Q 35.0625 48.390625 27.6875 48.390625 
Q 23 48.390625 18.546875 47.265625 
Q 14.109375 46.140625 10.015625 43.890625 
L 10.015625 52.203125 
Q 14.9375 54.109375 19.578125 55.046875 
Q 24.21875 56 28.609375 56 
Q 40.484375 56 46.34375 49.84375 
Q 52.203125 43.703125 52.203125 31.203125 
z
" id="DejaVuSans-61"/>
     <path d="M 54.890625 33.015625 
L 54.890625 0 
L 45.90625 0 
L 45.90625 32.71875 
Q 45.90625 40.484375 42.875 44.328125 
Q 39.84375 48.1875 33.796875 48.1875 
Q 26.515625 48.1875 22.3125 43.546875 
Q 18.109375 38.921875 18.109375 30.90625 
L 18.109375 0 
L 9.078125 0 
L 9.078125 54.6875 
L 18.109375 54.6875 
L 18.109375 46.1875 
Q 21.34375 51.125 25.703125 53.5625 
Q 30.078125 56 35.796875 56 
Q 45.21875 56 50.046875 50.171875 
Q 54.890625 44.34375 54.890625 33.015625 
z
" id="DejaVuSans-6e"/>
     <path d="M 4.890625 31.390625 
L 31.203125 31.390625 
L 31.203125 23.390625 
L 4.890625 23.390625 
z
" id="DejaVuSans-2d"/>
     <path d="M 52 44.1875 
Q 55.375 50.25 60.0625 53.125 
Q 64.75 56 71.09375 56 
Q 79.640625 56 84.28125 50.015625 
Q 88.921875 44.046875 88.921875 33.015625 
L 88.921875 0 
L 79.890625 0 
L 79.890625 32.71875 
Q 79.890625 40.578125 77.09375 44.375 
Q 74.3125 48.1875 68.609375 48.1875 
Q 61.625 48.1875 57.5625 43.546875 
Q 53.515625 38.921875 53.515625 30.90625 
L 53.515625 0 
L 44.484375 0 
L 44.484375 32.71875 
Q 44.484375 40.625 41.703125 44.40625 
Q 38.921875 48.1875 33.109375 48.1875 
Q 26.21875 48.1875 22.15625 43.53125 
Q 18.109375 38.875 18.109375 30.90625 
L 18.109375 0 
L 9.078125 0 
L 9.078125 54.6875 
L 18.109375 54.6875 
L 18.109375 46.1875 
Q 21.1875 51.21875 25.484375 53.609375 
Q 29.78125 56 35.6875 56 
Q 41.65625 56 45.828125 52.96875 
Q 50 49.953125 52 44.1875 
z
" id="DejaVuSans-6d"/>
    </defs>
    <g transform="translate(147.72 35.472)scale(0.12 -0.12)">
     <use transform="translate(0 0.015625)" xlink:href="#DejaVuSans-4d"/>
     <use transform="translate(86.279297 0.015625)" xlink:href="#DejaVuSans-6f"/>
     <use transform="translate(147.460938 0.015625)" xlink:href="#DejaVuSans-64"/>
     <use transform="translate(210.9375 0.015625)" xlink:href="#DejaVuSans-69"/>
     <use transform="translate(238.720703 0.015625)" xlink:href="#DejaVuSans-66"/>
     <use transform="translate(273.925781 0.015625)" xlink:href="#DejaVuSans-69"/>
     <use transform="translate(301.708984 0.015625)" xlink:href="#DejaVuSans-65"/>
     <use transform="translate(363.232422 0.015625)" xlink:href="#DejaVuSans-64"/>
     <use transform="translate(426.708984 0.015625)" xlink:href="#DejaVuSans-20"/>
     <use transform="translate(458.496094 0.015625)" xlink:href="#DejaVuSans-61"/>
     <use transform="translate(519.775391 0.015625)" xlink:href="#DejaVuSans-6e"/>
     <use transform="translate(583.154297 0.015625)" xlink:href="#DejaVuSans-64"/>
     <use transform="translate(646.630859 0.015625)" xlink:href="#DejaVuSans-20"/>
     <use transform="translate(678.417969 0.015625)" xlink:href="#DejaVuSans-6e"/>
     <use transform="translate(741.796875 0.015625)" xlink:href="#DejaVuSans-6f"/>
     <use transform="translate(802.978516 0.015625)" xlink:href="#DejaVuSans-6e"/>
     <use transform="translate(866.357422 0.015625)" xlink:href="#DejaVuSans-2d"/>
     <use transform="translate(902.425781 0.015625)" xlink:href="#DejaVuSans-6d"/>
     <use transform="translate(999.837891 0.015625)" xlink:href="#DejaVuSans-6f"/>
     <use transform="translate(1061.019531 0.015625)" xlink:href="#DejaVuSans-64"/>
     <use transform="translate(1124.496094 0.015625)" xlink:href="#DejaVuSans-69"/>
     <use transform="translate(1152.279297 0.015625)" xlink:href="#DejaVuSans-66"/>
     <use transform="translate(1187.484375 0.015625)" xlink:href="#DejaVuSans-69"/>
     <use transform="translate(1215.267578 0.015625)" xlink:href="#DejaVuSans-65"/>
     <use transform="translate(1276.791016 0.015625)" xlink:href="#DejaVuSans-64"/>
     <use transform="translate(1340.267578 0.015625)" xlink:href="#DejaVuSans-20"/>
     <use transform="translate(1372.054688 0.015625)" xlink:href="#DejaVuSans-Oblique-43"/>
     <use transform="translate(1441.878906 -16.390625)scale(0.7)" xlink:href="#DejaVuSans-Oblique-2113"/>
    </g>
   </g>
   <g id="legend_1">
    <g id="patch_7">
     <path d="M 64.6 78.82825 
L 163.93125 78.82825 
Q 165.93125 78.82825 165.93125 76.82825 
L 165.93125 48.472 
Q 165.93125 46.472 163.93125 46.472 
L 64.6 46.472 
Q 62.6 46.472 62.6 48.472 
L 62.6 76.82825 
Q 62.6 78.82825 64.6 78.82825 
z
" style="fill:#ffffff;opacity:0.8;stroke:#cccccc;stroke-linejoin:miter;"/>
    </g>
    <g id="line2d_40">
     <path d="M 66.6 54.570437 
L 86.6 54.570437 
" style="fill:none;stroke:#ff0000;stroke-linecap:square;stroke-width:1.5;"/>
    </g>
    <g id="line2d_41"/>
    <g id="text_15">
     <!-- Modified -->
     <g transform="translate(94.6 58.070437)scale(0.1 -0.1)">
      <use xlink:href="#DejaVuSans-4d"/>
      <use x="86.279297" xlink:href="#DejaVuSans-6f"/>
      <use x="147.460938" xlink:href="#DejaVuSans-64"/>
      <use x="210.9375" xlink:href="#DejaVuSans-69"/>
      <use x="238.720703" xlink:href="#DejaVuSans-66"/>
      <use x="273.925781" xlink:href="#DejaVuSans-69"/>
      <use x="301.708984" xlink:href="#DejaVuSans-65"/>
      <use x="363.232422" xlink:href="#DejaVuSans-64"/>
     </g>
    </g>
    <g id="line2d_42">
     <path d="M 66.6 69.248562 
L 86.6 69.248562 
" style="fill:none;stroke:#0000ff;stroke-dasharray:5.55,2.4;stroke-dashoffset:0;stroke-width:1.5;"/>
    </g>
    <g id="line2d_43"/>
    <g id="text_16">
     <!-- Non-modified -->
     <defs>
      <path d="M 9.8125 72.90625 
L 23.09375 72.90625 
L 55.421875 11.921875 
L 55.421875 72.90625 
L 64.984375 72.90625 
L 64.984375 0 
L 51.703125 0 
L 19.390625 60.984375 
L 19.390625 0 
L 9.8125 0 
z
" id="DejaVuSans-4e"/>
     </defs>
     <g transform="translate(94.6 72.748562)scale(0.1 -0.1)">
      <use xlink:href="#DejaVuSans-4e"/>
      <use x="74.804688" xlink:href="#DejaVuSans-6f"/>
      <use x="135.986328" xlink:href="#DejaVuSans-6e"/>
      <use x="199.365234" xlink:href="#DejaVuSans-2d"/>
      <use x="235.449219" xlink:href="#DejaVuSans-6d"/>
      <use x="332.861328" xlink:href="#DejaVuSans-6f"/>
      <use x="394.042969" xlink:href="#DejaVuSans-64"/>
      <use x="457.519531" xlink:href="#DejaVuSans-69"/>
      <use x="485.302734" xlink:href="#DejaVuSans-66"/>
      <use x="520.507812" xlink:href="#DejaVuSans-69"/>
      <use x="548.291016" xlink:href="#DejaVuSans-65"/>
      <use x="609.814453" xlink:href="#DejaVuSans-64"/>
     </g>
    </g>
   </g>
  </g>
 </g>
 <defs>
  <clipPath id="p91e9053e01">
   <rect height="266.112" width="357.12" x="57.6" y="41.472"/>
  </clipPath>
 </defs>
</svg>
