<?xml version="1.0" encoding="utf-8" standalone="no"?>
<!DOCTYPE svg PUBLIC "-//W3C//DTD SVG 1.1//EN"
  "http://www.w3.org/Graphics/SVG/1.1/DTD/svg11.dtd">
<!-- Created with matplotlib (http://matplotlib.org/) -->
<svg height="345pt" version="1.1" viewBox="0 0 460 345" width="460pt" xmlns="http://www.w3.org/2000/svg" xmlns:xlink="http://www.w3.org/1999/xlink">
 <defs>
  <style type="text/css">
*{stroke-linecap:butt;stroke-linejoin:round;}
  </style>
 </defs>
 <g id="figure_1">
  <g id="patch_1">
   <path d="M 0 345.6 
L 460.8 345.6 
L 460.8 0 
L 0 0 
z
" style="fill:#ffffff;"/>
  </g>
  <g id="axes_1">
   <g id="patch_2">
    <path d="M 57.6 307.584 
L 414.72 307.584 
L 414.72 41.472 
L 57.6 41.472 
z
" style="fill:#ffffff;"/>
   </g>
   <g id="matplotlib.axis_1">
    <g id="xtick_1">
     <g id="line2d_1">
      <defs>
       <path d="M 0 0 
L 0 3.5 
" id="md8574b7cdf" style="stroke:#000000;stroke-width:0.8;"/>
      </defs>
      <g>
       <use style="stroke:#000000;stroke-width:0.8;" x="147.106987" xlink:href="#md8574b7cdf" y="307.584"/>
      </g>
     </g>
     <g id="text_1">
      <!-- $\mathdefault{10^{1}}$ -->
      <defs>
       <path d="M 12.40625 8.296875 
L 28.515625 8.296875 
L 28.515625 63.921875 
L 10.984375 60.40625 
L 10.984375 69.390625 
L 28.421875 72.90625 
L 38.28125 72.90625 
L 38.28125 8.296875 
L 54.390625 8.296875 
L 54.390625 0 
L 12.40625 0 
z
" id="DejaVuSans-31"/>
       <path d="M 31.78125 66.40625 
Q 24.171875 66.40625 20.328125 58.90625 
Q 16.5 51.421875 16.5 36.375 
Q 16.5 21.390625 20.328125 13.890625 
Q 24.171875 6.390625 31.78125 6.390625 
Q 39.453125 6.390625 43.28125 13.890625 
Q 47.125 21.390625 47.125 36.375 
Q 47.125 51.421875 43.28125 58.90625 
Q 39.453125 66.40625 31.78125 66.40625 
z
M 31.78125 74.21875 
Q 44.046875 74.21875 50.515625 64.515625 
Q 56.984375 54.828125 56.984375 36.375 
Q 56.984375 17.96875 50.515625 8.265625 
Q 44.046875 -1.421875 31.78125 -1.421875 
Q 19.53125 -1.421875 13.0625 8.265625 
Q 6.59375 17.96875 6.59375 36.375 
Q 6.59375 54.828125 13.0625 64.515625 
Q 19.53125 74.21875 31.78125 74.21875 
z
" id="DejaVuSans-30"/>
      </defs>
      <g transform="translate(138.306987 322.182437)scale(0.1 -0.1)">
       <use transform="translate(0 0.684375)" xlink:href="#DejaVuSans-31"/>
       <use transform="translate(63.623047 0.684375)" xlink:href="#DejaVuSans-30"/>
       <use transform="translate(128.203125 38.965625)scale(0.7)" xlink:href="#DejaVuSans-31"/>
      </g>
     </g>
    </g>
    <g id="xtick_2">
     <g id="line2d_2">
      <g>
       <use style="stroke:#000000;stroke-width:0.8;" x="251.938753" xlink:href="#md8574b7cdf" y="307.584"/>
      </g>
     </g>
     <g id="text_2">
      <!-- $\mathdefault{10^{2}}$ -->
      <defs>
       <path d="M 19.1875 8.296875 
L 53.609375 8.296875 
L 53.609375 0 
L 7.328125 0 
L 7.328125 8.296875 
Q 12.9375 14.109375 22.625 23.890625 
Q 32.328125 33.6875 34.8125 36.53125 
Q 39.546875 41.84375 41.421875 45.53125 
Q 43.3125 49.21875 43.3125 52.78125 
Q 43.3125 58.59375 39.234375 62.25 
Q 35.15625 65.921875 28.609375 65.921875 
Q 23.96875 65.921875 18.8125 64.3125 
Q 13.671875 62.703125 7.8125 59.421875 
L 7.8125 69.390625 
Q 13.765625 71.78125 18.9375 73 
Q 24.125 74.21875 28.421875 74.21875 
Q 39.75 74.21875 46.484375 68.546875 
Q 53.21875 62.890625 53.21875 53.421875 
Q 53.21875 48.921875 51.53125 44.890625 
Q 49.859375 40.875 45.40625 35.40625 
Q 44.1875 33.984375 37.640625 27.21875 
Q 31.109375 20.453125 19.1875 8.296875 
z
" id="DejaVuSans-32"/>
      </defs>
      <g transform="translate(243.138753 322.182437)scale(0.1 -0.1)">
       <use transform="translate(0 0.765625)" xlink:href="#DejaVuSans-31"/>
       <use transform="translate(63.623047 0.765625)" xlink:href="#DejaVuSans-30"/>
       <use transform="translate(128.203125 39.046875)scale(0.7)" xlink:href="#DejaVuSans-32"/>
      </g>
     </g>
    </g>
    <g id="xtick_3">
     <g id="line2d_3">
      <g>
       <use style="stroke:#000000;stroke-width:0.8;" x="356.770519" xlink:href="#md8574b7cdf" y="307.584"/>
      </g>
     </g>
     <g id="text_3">
      <!-- $\mathdefault{10^{3}}$ -->
      <defs>
       <path d="M 40.578125 39.3125 
Q 47.65625 37.796875 51.625 33 
Q 55.609375 28.21875 55.609375 21.1875 
Q 55.609375 10.40625 48.1875 4.484375 
Q 40.765625 -1.421875 27.09375 -1.421875 
Q 22.515625 -1.421875 17.65625 -0.515625 
Q 12.796875 0.390625 7.625 2.203125 
L 7.625 11.71875 
Q 11.71875 9.328125 16.59375 8.109375 
Q 21.484375 6.890625 26.8125 6.890625 
Q 36.078125 6.890625 40.9375 10.546875 
Q 45.796875 14.203125 45.796875 21.1875 
Q 45.796875 27.640625 41.28125 31.265625 
Q 36.765625 34.90625 28.71875 34.90625 
L 20.21875 34.90625 
L 20.21875 43.015625 
L 29.109375 43.015625 
Q 36.375 43.015625 40.234375 45.921875 
Q 44.09375 48.828125 44.09375 54.296875 
Q 44.09375 59.90625 40.109375 62.90625 
Q 36.140625 65.921875 28.71875 65.921875 
Q 24.65625 65.921875 20.015625 65.03125 
Q 15.375 64.15625 9.8125 62.3125 
L 9.8125 71.09375 
Q 15.4375 72.65625 20.34375 73.4375 
Q 25.25 74.21875 29.59375 74.21875 
Q 40.828125 74.21875 47.359375 69.109375 
Q 53.90625 64.015625 53.90625 55.328125 
Q 53.90625 49.265625 50.4375 45.09375 
Q 46.96875 40.921875 40.578125 39.3125 
z
" id="DejaVuSans-33"/>
      </defs>
      <g transform="translate(347.970519 322.182437)scale(0.1 -0.1)">
       <use transform="translate(0 0.765625)" xlink:href="#DejaVuSans-31"/>
       <use transform="translate(63.623047 0.765625)" xlink:href="#DejaVuSans-30"/>
       <use transform="translate(128.203125 39.046875)scale(0.7)" xlink:href="#DejaVuSans-33"/>
      </g>
     </g>
    </g>
    <g id="xtick_4">
     <g id="line2d_4">
      <defs>
       <path d="M 0 0 
L 0 2 
" id="m97093e04d8" style="stroke:#000000;stroke-width:0.6;"/>
      </defs>
      <g>
       <use style="stroke:#000000;stroke-width:0.6;" x="73.832727" xlink:href="#m97093e04d8" y="307.584"/>
      </g>
     </g>
    </g>
    <g id="xtick_5">
     <g id="line2d_5">
      <g>
       <use style="stroke:#000000;stroke-width:0.6;" x="92.292685" xlink:href="#m97093e04d8" y="307.584"/>
      </g>
     </g>
    </g>
    <g id="xtick_6">
     <g id="line2d_6">
      <g>
       <use style="stroke:#000000;stroke-width:0.6;" x="105.390233" xlink:href="#m97093e04d8" y="307.584"/>
      </g>
     </g>
    </g>
    <g id="xtick_7">
     <g id="line2d_7">
      <g>
       <use style="stroke:#000000;stroke-width:0.6;" x="115.549481" xlink:href="#m97093e04d8" y="307.584"/>
      </g>
     </g>
    </g>
    <g id="xtick_8">
     <g id="line2d_8">
      <g>
       <use style="stroke:#000000;stroke-width:0.6;" x="123.850191" xlink:href="#m97093e04d8" y="307.584"/>
      </g>
     </g>
    </g>
    <g id="xtick_9">
     <g id="line2d_9">
      <g>
       <use style="stroke:#000000;stroke-width:0.6;" x="130.868341" xlink:href="#m97093e04d8" y="307.584"/>
      </g>
     </g>
    </g>
    <g id="xtick_10">
     <g id="line2d_10">
      <g>
       <use style="stroke:#000000;stroke-width:0.6;" x="136.947739" xlink:href="#m97093e04d8" y="307.584"/>
      </g>
     </g>
    </g>
    <g id="xtick_11">
     <g id="line2d_11">
      <g>
       <use style="stroke:#000000;stroke-width:0.6;" x="142.310149" xlink:href="#m97093e04d8" y="307.584"/>
      </g>
     </g>
    </g>
    <g id="xtick_12">
     <g id="line2d_12">
      <g>
       <use style="stroke:#000000;stroke-width:0.6;" x="178.664493" xlink:href="#m97093e04d8" y="307.584"/>
      </g>
     </g>
    </g>
    <g id="xtick_13">
     <g id="line2d_13">
      <g>
       <use style="stroke:#000000;stroke-width:0.6;" x="197.124451" xlink:href="#m97093e04d8" y="307.584"/>
      </g>
     </g>
    </g>
    <g id="xtick_14">
     <g id="line2d_14">
      <g>
       <use style="stroke:#000000;stroke-width:0.6;" x="210.221999" xlink:href="#m97093e04d8" y="307.584"/>
      </g>
     </g>
    </g>
    <g id="xtick_15">
     <g id="line2d_15">
      <g>
       <use style="stroke:#000000;stroke-width:0.6;" x="220.381247" xlink:href="#m97093e04d8" y="307.584"/>
      </g>
     </g>
    </g>
    <g id="xtick_16">
     <g id="line2d_16">
      <g>
       <use style="stroke:#000000;stroke-width:0.6;" x="228.681957" xlink:href="#m97093e04d8" y="307.584"/>
      </g>
     </g>
    </g>
    <g id="xtick_17">
     <g id="line2d_17">
      <g>
       <use style="stroke:#000000;stroke-width:0.6;" x="235.700107" xlink:href="#m97093e04d8" y="307.584"/>
      </g>
     </g>
    </g>
    <g id="xtick_18">
     <g id="line2d_18">
      <g>
       <use style="stroke:#000000;stroke-width:0.6;" x="241.779505" xlink:href="#m97093e04d8" y="307.584"/>
      </g>
     </g>
    </g>
    <g id="xtick_19">
     <g id="line2d_19">
      <g>
       <use style="stroke:#000000;stroke-width:0.6;" x="247.141914" xlink:href="#m97093e04d8" y="307.584"/>
      </g>
     </g>
    </g>
    <g id="xtick_20">
     <g id="line2d_20">
      <g>
       <use style="stroke:#000000;stroke-width:0.6;" x="283.496259" xlink:href="#m97093e04d8" y="307.584"/>
      </g>
     </g>
    </g>
    <g id="xtick_21">
     <g id="line2d_21">
      <g>
       <use style="stroke:#000000;stroke-width:0.6;" x="301.956217" xlink:href="#m97093e04d8" y="307.584"/>
      </g>
     </g>
    </g>
    <g id="xtick_22">
     <g id="line2d_22">
      <g>
       <use style="stroke:#000000;stroke-width:0.6;" x="315.053765" xlink:href="#m97093e04d8" y="307.584"/>
      </g>
     </g>
    </g>
    <g id="xtick_23">
     <g id="line2d_23">
      <g>
       <use style="stroke:#000000;stroke-width:0.6;" x="325.213013" xlink:href="#m97093e04d8" y="307.584"/>
      </g>
     </g>
    </g>
    <g id="xtick_24">
     <g id="line2d_24">
      <g>
       <use style="stroke:#000000;stroke-width:0.6;" x="333.513723" xlink:href="#m97093e04d8" y="307.584"/>
      </g>
     </g>
    </g>
    <g id="xtick_25">
     <g id="line2d_25">
      <g>
       <use style="stroke:#000000;stroke-width:0.6;" x="340.531873" xlink:href="#m97093e04d8" y="307.584"/>
      </g>
     </g>
    </g>
    <g id="xtick_26">
     <g id="line2d_26">
      <g>
       <use style="stroke:#000000;stroke-width:0.6;" x="346.611271" xlink:href="#m97093e04d8" y="307.584"/>
      </g>
     </g>
    </g>
    <g id="xtick_27">
     <g id="line2d_27">
      <g>
       <use style="stroke:#000000;stroke-width:0.6;" x="351.97368" xlink:href="#m97093e04d8" y="307.584"/>
      </g>
     </g>
    </g>
    <g id="xtick_28">
     <g id="line2d_28">
      <g>
       <use style="stroke:#000000;stroke-width:0.6;" x="388.328025" xlink:href="#m97093e04d8" y="307.584"/>
      </g>
     </g>
    </g>
    <g id="xtick_29">
     <g id="line2d_29">
      <g>
       <use style="stroke:#000000;stroke-width:0.6;" x="406.787983" xlink:href="#m97093e04d8" y="307.584"/>
      </g>
     </g>
    </g>
    <g id="text_4">
     <!-- $\ell$ -->
     <defs>
      <path d="M 14.84375 13.09375 
Q 16.84375 3.328125 21.09375 3.328125 
Q 23.921875 3.328125 27.59375 8.9375 
L 34.078125 8.9375 
Q 31.15625 3.953125 27.734375 1.375 
Q 24.03125 -1.421875 20.609375 -1.421875 
Q 12.984375 -1.421875 9.90625 5.375 
L 6.25 0 
L -1.375 0 
Q 3.90625 7.171875 7.8125 13.875 
Q 7.328125 17.671875 7.328125 21.828125 
Q 7.328125 29.25 8.84375 36.671875 
Q 14.546875 64.546875 19.625 70.265625 
Q 23.140625 74.21875 29.15625 74.21875 
Q 35.25 74.21875 35.25 65.765625 
Q 35.203125 61.96875 34.328125 57.421875 
Q 30.8125 38.8125 14.84375 13.09375 
z
M 14.796875 25.875 
Q 23.921875 42.875 26.703125 56.453125 
Q 28.171875 63.625 28.171875 65.484375 
Q 28.171875 68.84375 26.953125 68.84375 
Q 21.625 64.59375 16.890625 39.3125 
Q 15.578125 32.234375 14.796875 25.875 
z
" id="DejaVuSans-Oblique-2113"/>
     </defs>
     <g transform="translate(234.06 335.860562)scale(0.1 -0.1)">
      <use transform="translate(0 0.78125)" xlink:href="#DejaVuSans-Oblique-2113"/>
     </g>
    </g>
   </g>
   <g id="matplotlib.axis_2">
    <g id="ytick_1">
     <g id="line2d_30">
      <defs>
       <path d="M 0 0 
L -3.5 0 
" id="m4af8b05621" style="stroke:#000000;stroke-width:0.8;"/>
      </defs>
      <g>
       <use style="stroke:#000000;stroke-width:0.8;" x="57.6" xlink:href="#m4af8b05621" y="298.636715"/>
      </g>
     </g>
     <g id="text_5">
      <!-- 0 -->
      <g transform="translate(44.2375 302.435933)scale(0.1 -0.1)">
       <use xlink:href="#DejaVuSans-30"/>
      </g>
     </g>
    </g>
    <g id="ytick_2">
     <g id="line2d_31">
      <g>
       <use style="stroke:#000000;stroke-width:0.8;" x="57.6" xlink:href="#m4af8b05621" y="263.083311"/>
      </g>
     </g>
     <g id="text_6">
      <!-- 5000 -->
      <defs>
       <path d="M 10.796875 72.90625 
L 49.515625 72.90625 
L 49.515625 64.59375 
L 19.828125 64.59375 
L 19.828125 46.734375 
Q 21.96875 47.46875 24.109375 47.828125 
Q 26.265625 48.1875 28.421875 48.1875 
Q 40.625 48.1875 47.75 41.5 
Q 54.890625 34.8125 54.890625 23.390625 
Q 54.890625 11.625 47.5625 5.09375 
Q 40.234375 -1.421875 26.90625 -1.421875 
Q 22.3125 -1.421875 17.546875 -0.640625 
Q 12.796875 0.140625 7.71875 1.703125 
L 7.71875 11.625 
Q 12.109375 9.234375 16.796875 8.0625 
Q 21.484375 6.890625 26.703125 6.890625 
Q 35.15625 6.890625 40.078125 11.328125 
Q 45.015625 15.765625 45.015625 23.390625 
Q 45.015625 31 40.078125 35.4375 
Q 35.15625 39.890625 26.703125 39.890625 
Q 22.75 39.890625 18.8125 39.015625 
Q 14.890625 38.140625 10.796875 36.28125 
z
" id="DejaVuSans-35"/>
      </defs>
      <g transform="translate(25.15 266.882529)scale(0.1 -0.1)">
       <use xlink:href="#DejaVuSans-35"/>
       <use x="63.623047" xlink:href="#DejaVuSans-30"/>
       <use x="127.246094" xlink:href="#DejaVuSans-30"/>
       <use x="190.869141" xlink:href="#DejaVuSans-30"/>
      </g>
     </g>
    </g>
    <g id="ytick_3">
     <g id="line2d_32">
      <g>
       <use style="stroke:#000000;stroke-width:0.8;" x="57.6" xlink:href="#m4af8b05621" y="227.529907"/>
      </g>
     </g>
     <g id="text_7">
      <!-- 10000 -->
      <g transform="translate(18.7875 231.329126)scale(0.1 -0.1)">
       <use xlink:href="#DejaVuSans-31"/>
       <use x="63.623047" xlink:href="#DejaVuSans-30"/>
       <use x="127.246094" xlink:href="#DejaVuSans-30"/>
       <use x="190.869141" xlink:href="#DejaVuSans-30"/>
       <use x="254.492188" xlink:href="#DejaVuSans-30"/>
      </g>
     </g>
    </g>
    <g id="ytick_4">
     <g id="line2d_33">
      <g>
       <use style="stroke:#000000;stroke-width:0.8;" x="57.6" xlink:href="#m4af8b05621" y="191.976503"/>
      </g>
     </g>
     <g id="text_8">
      <!-- 15000 -->
      <g transform="translate(18.7875 195.775722)scale(0.1 -0.1)">
       <use xlink:href="#DejaVuSans-31"/>
       <use x="63.623047" xlink:href="#DejaVuSans-35"/>
       <use x="127.246094" xlink:href="#DejaVuSans-30"/>
       <use x="190.869141" xlink:href="#DejaVuSans-30"/>
       <use x="254.492188" xlink:href="#DejaVuSans-30"/>
      </g>
     </g>
    </g>
    <g id="ytick_5">
     <g id="line2d_34">
      <g>
       <use style="stroke:#000000;stroke-width:0.8;" x="57.6" xlink:href="#m4af8b05621" y="156.423099"/>
      </g>
     </g>
     <g id="text_9">
      <!-- 20000 -->
      <g transform="translate(18.7875 160.222318)scale(0.1 -0.1)">
       <use xlink:href="#DejaVuSans-32"/>
       <use x="63.623047" xlink:href="#DejaVuSans-30"/>
       <use x="127.246094" xlink:href="#DejaVuSans-30"/>
       <use x="190.869141" xlink:href="#DejaVuSans-30"/>
       <use x="254.492188" xlink:href="#DejaVuSans-30"/>
      </g>
     </g>
    </g>
    <g id="ytick_6">
     <g id="line2d_35">
      <g>
       <use style="stroke:#000000;stroke-width:0.8;" x="57.6" xlink:href="#m4af8b05621" y="120.869695"/>
      </g>
     </g>
     <g id="text_10">
      <!-- 25000 -->
      <g transform="translate(18.7875 124.668914)scale(0.1 -0.1)">
       <use xlink:href="#DejaVuSans-32"/>
       <use x="63.623047" xlink:href="#DejaVuSans-35"/>
       <use x="127.246094" xlink:href="#DejaVuSans-30"/>
       <use x="190.869141" xlink:href="#DejaVuSans-30"/>
       <use x="254.492188" xlink:href="#DejaVuSans-30"/>
      </g>
     </g>
    </g>
    <g id="ytick_7">
     <g id="line2d_36">
      <g>
       <use style="stroke:#000000;stroke-width:0.8;" x="57.6" xlink:href="#m4af8b05621" y="85.316292"/>
      </g>
     </g>
     <g id="text_11">
      <!-- 30000 -->
      <g transform="translate(18.7875 89.11551)scale(0.1 -0.1)">
       <use xlink:href="#DejaVuSans-33"/>
       <use x="63.623047" xlink:href="#DejaVuSans-30"/>
       <use x="127.246094" xlink:href="#DejaVuSans-30"/>
       <use x="190.869141" xlink:href="#DejaVuSans-30"/>
       <use x="254.492188" xlink:href="#DejaVuSans-30"/>
      </g>
     </g>
    </g>
    <g id="ytick_8">
     <g id="line2d_37">
      <g>
       <use style="stroke:#000000;stroke-width:0.8;" x="57.6" xlink:href="#m4af8b05621" y="49.762888"/>
      </g>
     </g>
     <g id="text_12">
      <!-- 35000 -->
      <g transform="translate(18.7875 53.562107)scale(0.1 -0.1)">
       <use xlink:href="#DejaVuSans-33"/>
       <use x="63.623047" xlink:href="#DejaVuSans-35"/>
       <use x="127.246094" xlink:href="#DejaVuSans-30"/>
       <use x="190.869141" xlink:href="#DejaVuSans-30"/>
       <use x="254.492188" xlink:href="#DejaVuSans-30"/>
      </g>
     </g>
    </g>
    <g id="text_13">
     <!-- $C_\ell$ -->
     <defs>
      <path d="M 69.484375 67.28125 
L 67.484375 56.890625 
Q 62.796875 61.625 57.546875 63.921875 
Q 52.296875 66.21875 46.1875 66.21875 
Q 37.84375 66.21875 31.515625 62.203125 
Q 25.203125 58.203125 20.609375 50 
Q 17.671875 44.734375 16.125 38.84375 
Q 14.59375 32.953125 14.59375 27 
Q 14.59375 17.046875 19.75 11.8125 
Q 24.90625 6.59375 34.71875 6.59375 
Q 41.5 6.59375 47.75 8.765625 
Q 54 10.9375 59.90625 15.28125 
L 57.625 3.609375 
Q 51.8125 1.125 45.875 -0.140625 
Q 39.9375 -1.421875 33.984375 -1.421875 
Q 19.96875 -1.421875 12.078125 6.1875 
Q 4.203125 13.8125 4.203125 27.390625 
Q 4.203125 36.078125 7.203125 44.46875 
Q 10.203125 52.875 15.828125 59.8125 
Q 21.78125 67.1875 29.421875 70.703125 
Q 37.0625 74.21875 47.21875 74.21875 
Q 53.46875 74.21875 59.0625 72.484375 
Q 64.65625 70.75 69.484375 67.28125 
z
" id="DejaVuSans-Oblique-43"/>
     </defs>
     <g transform="translate(12.707813 179.628)rotate(-90)scale(0.1 -0.1)">
      <use transform="translate(0 0.78125)" xlink:href="#DejaVuSans-Oblique-43"/>
      <use transform="translate(69.824219 -15.625)scale(0.7)" xlink:href="#DejaVuSans-Oblique-2113"/>
     </g>
    </g>
   </g>
   <g id="line2d_38">
    <path clip-path="url(#pcbe97cce70)" d="M 73.832727 241.758118 
L 92.292685 245.797938 
L 115.549481 251.678536 
L 123.850191 253.553349 
L 130.868341 254.895572 
L 136.947739 255.81547 
L 142.310149 256.394365 
L 147.106987 256.712562 
L 151.446255 256.825292 
L 155.407697 256.773681 
L 162.425847 256.345212 
L 168.505245 255.586162 
L 173.867655 254.661337 
L 178.664493 253.582187 
L 183.003761 252.412547 
L 188.823741 250.539806 
L 193.983353 248.567384 
L 198.617301 246.512937 
L 202.822861 244.394248 
L 206.672577 242.233145 
L 210.221999 240.013898 
L 213.514604 237.707528 
L 217.564192 234.560285 
L 221.282818 231.323244 
L 224.720515 227.953781 
L 227.916765 224.448733 
L 230.903268 220.811492 
L 233.705867 217.025535 
L 236.345903 213.072932 
L 238.841205 208.935441 
L 241.20682 204.617914 
L 243.455567 200.118021 
L 246.118773 194.249898 
L 248.634765 188.103446 
L 251.018967 181.685572 
L 253.284502 175.007464 
L 255.862239 166.701533 
L 258.301815 158.117302 
L 260.992007 147.844647 
L 263.883636 135.909261 
L 267.257613 121.02053 
L 276.893546 77.62617 
L 278.951653 69.69579 
L 280.679204 63.929135 
L 282.109517 59.934663 
L 283.268049 57.316921 
L 284.174106 55.709579 
L 285.062482 54.545687 
L 285.717571 53.967116 
L 286.363367 53.642649 
L 287.00013 53.573232 
L 287.628111 53.759162 
L 288.247547 54.200066 
L 288.858668 54.894851 
L 289.660942 56.212293 
L 290.449323 57.969373 
L 291.41598 60.767852 
L 292.36254 64.210505 
L 293.47303 69.144752 
L 294.735269 75.922101 
L 296.136237 84.87436 
L 297.662454 96.241684 
L 299.460915 111.50441 
L 301.651681 132.177261 
L 307.654626 190.250422 
L 309.233786 202.838428 
L 310.509159 211.282637 
L 311.627225 217.204852 
L 312.598523 221.11809 
L 313.431736 223.512044 
L 314.133979 224.821601 
L 314.711019 225.408689 
L 315.167443 225.561903 
L 315.619336 225.446884 
L 316.066788 225.077919 
L 316.619988 224.284865 
L 317.275077 222.896101 
L 318.02762 220.768831 
L 318.977251 217.410931 
L 320.213377 212.148525 
L 324.107019 194.805335 
L 325.121866 191.593843 
L 325.845982 189.958218 
L 326.470272 189.066881 
L 326.998648 188.698733 
L 327.434325 188.66417 
L 327.865871 188.870059 
L 328.378386 189.423355 
L 328.969117 190.47061 
L 329.634984 192.155605 
L 330.453852 194.879292 
L 331.576075 199.506262 
L 335.006573 214.328021 
L 335.735034 216.391441 
L 336.38083 217.603563 
L 336.876859 218.102869 
L 337.297766 218.210238 
L 337.645574 218.067166 
L 338.059467 217.609974 
L 338.537633 216.69229 
L 339.14513 214.956151 
L 339.876785 212.09893 
L 340.791292 207.562009 
L 342.317508 198.635489 
L 343.733634 190.812683 
L 344.574542 187.312758 
L 345.165821 185.653681 
L 345.633377 184.938889 
L 345.980919 184.781329 
L 346.268525 184.898447 
L 346.611271 185.337041 
L 347.007907 186.258811 
L 347.512842 188.089381 
L 348.122476 191.282354 
L 348.88675 196.670646 
L 349.850906 205.251778 
L 351.464984 222.056696 
L 353.023793 237.408135 
L 353.953464 244.525563 
L 354.674237 248.488295 
L 355.289808 250.727844 
L 355.757724 251.707504 
L 356.128625 252.057752 
L 356.450703 252.083315 
L 356.770519 251.878486 
L 357.178437 251.329344 
L 357.761273 250.108494 
L 358.81806 247.216892 
L 359.765694 244.898541 
L 360.358623 243.980543 
L 360.777466 243.703706 
L 361.109787 243.744205 
L 361.439701 244.014797 
L 361.848759 244.667037 
L 362.334826 245.891643 
L 362.974947 248.190323 
L 363.879634 252.381277 
L 365.898347 261.973647 
L 366.60078 264.177796 
L 367.111515 265.168253 
L 367.544773 265.587794 
L 367.902698 265.662739 
L 368.257831 265.51352 
L 368.715402 265.039865 
L 369.375993 263.982353 
L 370.73615 261.764131 
L 371.202764 261.408994 
L 371.566064 261.380044 
L 371.926488 261.591165 
L 372.316451 262.116366 
L 372.799254 263.196484 
L 373.403544 265.144898 
L 374.248706 268.708088 
L 376.221231 277.277345 
L 376.928474 279.297007 
L 377.480686 280.28512 
L 377.969156 280.760234 
L 378.424154 280.92139 
L 378.958623 280.868953 
L 380.49836 280.576997 
L 381.009159 280.803487 
L 381.514291 281.280219 
L 382.144444 282.2139 
L 383.124685 284.141557 
L 384.358305 286.461213 
L 385.048508 287.310369 
L 385.656041 287.721549 
L 386.303197 287.879308 
L 388.191236 288.140903 
L 388.803575 288.585137 
L 389.518804 289.398436 
L 392.146969 292.690373 
L 392.894365 293.099821 
L 393.932604 293.377051 
L 395.144104 293.756798 
L 396.247746 294.372895 
L 397.919198 295.297407 
L 398.487273 295.488 
L 398.487273 295.488 
" style="fill:none;stroke:#ff0000;stroke-linecap:square;stroke-width:1.5;"/>
   </g>
   <g id="line2d_39">
    <path clip-path="url(#pcbe97cce70)" d="M 73.832727 246.733501 
L 92.292685 249.785705 
L 123.850191 257.05623 
L 130.868341 258.365469 
L 136.947739 259.269723 
L 142.310149 259.843752 
L 147.106987 260.163858 
L 151.446255 260.282651 
L 155.407697 260.239417 
L 162.425847 259.829428 
L 168.505245 259.085401 
L 173.867655 258.168145 
L 178.664493 257.088378 
L 183.003761 255.909292 
L 188.823741 254.007497 
L 193.983353 251.989936 
L 198.617301 249.876849 
L 202.822861 247.687387 
L 206.672577 245.444818 
L 210.221999 243.134884 
L 213.514604 240.729456 
L 217.564192 237.439117 
L 221.282818 234.049131 
L 224.720515 230.518716 
L 227.916765 226.847192 
L 230.903268 223.040094 
L 233.705867 219.08331 
L 236.345903 214.960289 
L 238.841205 210.655339 
L 241.20682 206.174227 
L 244.000817 200.326132 
L 246.633218 194.217547 
L 249.121698 187.844078 
L 251.481183 181.214349 
L 254.160065 172.947824 
L 256.690041 164.396907 
L 259.474271 154.129461 
L 262.460775 142.149036 
L 265.601872 128.596326 
L 270.094175 108.062032 
L 275.286514 84.437439 
L 277.67628 74.538869 
L 279.451964 67.98137 
L 280.920732 63.256819 
L 282.343593 59.419963 
L 283.496259 56.939644 
L 284.39783 55.444939 
L 285.281894 54.39442 
L 285.933855 53.901066 
L 286.576612 53.661756 
L 287.210421 53.67723 
L 287.835527 53.947579 
L 288.452167 54.47222 
L 289.060566 55.24978 
L 289.859321 56.6755 
L 290.644303 58.53795 
L 291.606873 61.463174 
L 292.549513 65.025988 
L 293.655507 70.094119 
L 294.912766 77.013162 
L 296.308365 86.106306 
L 297.828918 97.599518 
L 299.620943 112.963401 
L 301.804204 133.691111 
L 307.520524 189.108114 
L 309.104261 201.906994 
L 310.383217 210.544139 
L 311.504343 216.644227 
L 312.478238 220.715032 
L 313.313635 223.243553 
L 314.017688 224.664281 
L 314.596195 225.340366 
L 315.053765 225.561732 
L 315.506782 225.511619 
L 315.955336 225.2038 
L 316.509885 224.481091 
L 317.166548 223.166407 
L 317.920873 221.108952 
L 318.872709 217.820211 
L 320.111639 212.617217 
L 324.200218 194.475462 
L 325.121866 191.594674 
L 325.845982 189.958166 
L 326.470272 189.066454 
L 326.998648 188.698232 
L 327.434325 188.66374 
L 327.865871 188.869783 
L 328.378386 189.423322 
L 328.969117 190.470849 
L 329.634984 192.156027 
L 330.453852 194.879759 
L 331.576075 199.506595 
L 335.006573 214.328241 
L 335.735034 216.391664 
L 336.38083 217.603768 
L 336.876859 218.103051 
L 337.297766 218.210397 
L 337.645574 218.067307 
L 338.059467 217.610096 
L 338.537633 216.692394 
L 339.14513 214.956239 
L 339.876785 212.099008 
L 340.791292 207.562086 
L 342.317508 198.63559 
L 343.733634 190.812819 
L 344.574542 187.312913 
L 345.165821 185.653844 
L 345.633377 184.939053 
L 345.980919 184.78149 
L 346.268525 184.898604 
L 346.611271 185.337191 
L 347.007907 186.25895 
L 347.512842 188.089502 
L 348.122476 191.282449 
L 348.88675 196.670709 
L 349.850906 205.251809 
L 351.464984 222.056724 
L 353.023793 237.40822 
L 353.953464 244.525682 
L 354.674237 248.488427 
L 355.289808 250.727975 
L 355.757724 251.707625 
L 356.128625 252.057859 
L 356.450703 252.083408 
L 356.770519 251.878562 
L 357.178437 251.329397 
L 357.761273 250.108517 
L 358.81806 247.216881 
L 359.765694 244.898542 
L 360.358623 243.980568 
L 360.777466 243.703753 
L 361.109787 243.744271 
L 361.439701 244.014882 
L 361.848759 244.66714 
L 362.334826 245.891761 
L 362.974947 248.19044 
L 363.879634 252.381357 
L 365.898347 261.973617 
L 366.60078 264.17777 
L 367.111515 265.168252 
L 367.544773 265.587822 
L 367.902698 265.662793 
L 368.257831 265.513598 
L 368.715402 265.039967 
L 369.375993 263.982465 
L 370.73615 261.764166 
L 371.202764 261.408992 
L 371.566064 261.380016 
L 371.926488 261.591121 
L 372.316451 262.116317 
L 372.799254 263.19645 
L 373.403544 265.144907 
L 374.248706 268.70817 
L 376.221231 277.277383 
L 376.928474 279.296976 
L 377.480686 280.285061 
L 377.969156 280.760179 
L 378.424154 280.921366 
L 378.958623 280.868984 
L 380.49836 280.577095 
L 381.009159 280.80354 
L 381.514291 281.280214 
L 382.144444 282.213837 
L 383.124685 284.141521 
L 384.358305 286.461313 
L 385.048508 287.310467 
L 385.656041 287.721582 
L 386.303197 287.879257 
L 388.191236 288.140965 
L 388.803575 288.585249 
L 389.518804 289.398499 
L 392.146969 292.690448 
L 392.894365 293.099928 
L 393.932604 293.377001 
L 395.144104 293.75677 
L 396.247746 294.373012 
L 397.919198 295.297305 
L 398.487273 295.487968 
L 398.487273 295.487968 
" style="fill:none;stroke:#0000ff;stroke-dasharray:5.55,2.4;stroke-dashoffset:0;stroke-width:1.5;"/>
   </g>
   <g id="patch_3">
    <path d="M 57.6 307.584 
L 57.6 41.472 
" style="fill:none;stroke:#000000;stroke-linecap:square;stroke-linejoin:miter;stroke-width:0.8;"/>
   </g>
   <g id="patch_4">
    <path d="M 414.72 307.584 
L 414.72 41.472 
" style="fill:none;stroke:#000000;stroke-linecap:square;stroke-linejoin:miter;stroke-width:0.8;"/>
   </g>
   <g id="patch_5">
    <path d="M 57.6 307.584 
L 414.72 307.584 
" style="fill:none;stroke:#000000;stroke-linecap:square;stroke-linejoin:miter;stroke-width:0.8;"/>
   </g>
   <g id="patch_6">
    <path d="M 57.6 41.472 
L 414.72 41.472 
" style="fill:none;stroke:#000000;stroke-linecap:square;stroke-linejoin:miter;stroke-width:0.8;"/>
   </g>
   <g id="text_14">
    <!-- With and without tensor contribution to $C_\ell$ -->
    <defs>
     <path d="M 3.328125 72.90625 
L 13.28125 72.90625 
L 28.609375 11.28125 
L 43.890625 72.90625 
L 54.984375 72.90625 
L 70.3125 11.28125 
L 85.59375 72.90625 
L 95.609375 72.90625 
L 77.296875 0 
L 64.890625 0 
L 49.515625 63.28125 
L 33.984375 0 
L 21.578125 0 
z
" id="DejaVuSans-57"/>
     <path d="M 9.421875 54.6875 
L 18.40625 54.6875 
L 18.40625 0 
L 9.421875 0 
z
M 9.421875 75.984375 
L 18.40625 75.984375 
L 18.40625 64.59375 
L 9.421875 64.59375 
z
" id="DejaVuSans-69"/>
     <path d="M 18.3125 70.21875 
L 18.3125 54.6875 
L 36.8125 54.6875 
L 36.8125 47.703125 
L 18.3125 47.703125 
L 18.3125 18.015625 
Q 18.3125 11.328125 20.140625 9.421875 
Q 21.96875 7.515625 27.59375 7.515625 
L 36.8125 7.515625 
L 36.8125 0 
L 27.59375 0 
Q 17.1875 0 13.234375 3.875 
Q 9.28125 7.765625 9.28125 18.015625 
L 9.28125 47.703125 
L 2.6875 47.703125 
L 2.6875 54.6875 
L 9.28125 54.6875 
L 9.28125 70.21875 
z
" id="DejaVuSans-74"/>
     <path d="M 54.890625 33.015625 
L 54.890625 0 
L 45.90625 0 
L 45.90625 32.71875 
Q 45.90625 40.484375 42.875 44.328125 
Q 39.84375 48.1875 33.796875 48.1875 
Q 26.515625 48.1875 22.3125 43.546875 
Q 18.109375 38.921875 18.109375 30.90625 
L 18.109375 0 
L 9.078125 0 
L 9.078125 75.984375 
L 18.109375 75.984375 
L 18.109375 46.1875 
Q 21.34375 51.125 25.703125 53.5625 
Q 30.078125 56 35.796875 56 
Q 45.21875 56 50.046875 50.171875 
Q 54.890625 44.34375 54.890625 33.015625 
z
" id="DejaVuSans-68"/>
     <path id="DejaVuSans-20"/>
     <path d="M 34.28125 27.484375 
Q 23.390625 27.484375 19.1875 25 
Q 14.984375 22.515625 14.984375 16.5 
Q 14.984375 11.71875 18.140625 8.90625 
Q 21.296875 6.109375 26.703125 6.109375 
Q 34.1875 6.109375 38.703125 11.40625 
Q 43.21875 16.703125 43.21875 25.484375 
L 43.21875 27.484375 
z
M 52.203125 31.203125 
L 52.203125 0 
L 43.21875 0 
L 43.21875 8.296875 
Q 40.140625 3.328125 35.546875 0.953125 
Q 30.953125 -1.421875 24.3125 -1.421875 
Q 15.921875 -1.421875 10.953125 3.296875 
Q 6 8.015625 6 15.921875 
Q 6 25.140625 12.171875 29.828125 
Q 18.359375 34.515625 30.609375 34.515625 
L 43.21875 34.515625 
L 43.21875 35.40625 
Q 43.21875 41.609375 39.140625 45 
Q 35.0625 48.390625 27.6875 48.390625 
Q 23 48.390625 18.546875 47.265625 
Q 14.109375 46.140625 10.015625 43.890625 
L 10.015625 52.203125 
Q 14.9375 54.109375 19.578125 55.046875 
Q 24.21875 56 28.609375 56 
Q 40.484375 56 46.34375 49.84375 
Q 52.203125 43.703125 52.203125 31.203125 
z
" id="DejaVuSans-61"/>
     <path d="M 54.890625 33.015625 
L 54.890625 0 
L 45.90625 0 
L 45.90625 32.71875 
Q 45.90625 40.484375 42.875 44.328125 
Q 39.84375 48.1875 33.796875 48.1875 
Q 26.515625 48.1875 22.3125 43.546875 
Q 18.109375 38.921875 18.109375 30.90625 
L 18.109375 0 
L 9.078125 0 
L 9.078125 54.6875 
L 18.109375 54.6875 
L 18.109375 46.1875 
Q 21.34375 51.125 25.703125 53.5625 
Q 30.078125 56 35.796875 56 
Q 45.21875 56 50.046875 50.171875 
Q 54.890625 44.34375 54.890625 33.015625 
z
" id="DejaVuSans-6e"/>
     <path d="M 45.40625 46.390625 
L 45.40625 75.984375 
L 54.390625 75.984375 
L 54.390625 0 
L 45.40625 0 
L 45.40625 8.203125 
Q 42.578125 3.328125 38.25 0.953125 
Q 33.9375 -1.421875 27.875 -1.421875 
Q 17.96875 -1.421875 11.734375 6.484375 
Q 5.515625 14.40625 5.515625 27.296875 
Q 5.515625 40.1875 11.734375 48.09375 
Q 17.96875 56 27.875 56 
Q 33.9375 56 38.25 53.625 
Q 42.578125 51.265625 45.40625 46.390625 
z
M 14.796875 27.296875 
Q 14.796875 17.390625 18.875 11.75 
Q 22.953125 6.109375 30.078125 6.109375 
Q 37.203125 6.109375 41.296875 11.75 
Q 45.40625 17.390625 45.40625 27.296875 
Q 45.40625 37.203125 41.296875 42.84375 
Q 37.203125 48.484375 30.078125 48.484375 
Q 22.953125 48.484375 18.875 42.84375 
Q 14.796875 37.203125 14.796875 27.296875 
z
" id="DejaVuSans-64"/>
     <path d="M 4.203125 54.6875 
L 13.1875 54.6875 
L 24.421875 12.015625 
L 35.59375 54.6875 
L 46.1875 54.6875 
L 57.421875 12.015625 
L 68.609375 54.6875 
L 77.59375 54.6875 
L 63.28125 0 
L 52.6875 0 
L 40.921875 44.828125 
L 29.109375 0 
L 18.5 0 
z
" id="DejaVuSans-77"/>
     <path d="M 30.609375 48.390625 
Q 23.390625 48.390625 19.1875 42.75 
Q 14.984375 37.109375 14.984375 27.296875 
Q 14.984375 17.484375 19.15625 11.84375 
Q 23.34375 6.203125 30.609375 6.203125 
Q 37.796875 6.203125 41.984375 11.859375 
Q 46.1875 17.53125 46.1875 27.296875 
Q 46.1875 37.015625 41.984375 42.703125 
Q 37.796875 48.390625 30.609375 48.390625 
z
M 30.609375 56 
Q 42.328125 56 49.015625 48.375 
Q 55.71875 40.765625 55.71875 27.296875 
Q 55.71875 13.875 49.015625 6.21875 
Q 42.328125 -1.421875 30.609375 -1.421875 
Q 18.84375 -1.421875 12.171875 6.21875 
Q 5.515625 13.875 5.515625 27.296875 
Q 5.515625 40.765625 12.171875 48.375 
Q 18.84375 56 30.609375 56 
z
" id="DejaVuSans-6f"/>
     <path d="M 8.5 21.578125 
L 8.5 54.6875 
L 17.484375 54.6875 
L 17.484375 21.921875 
Q 17.484375 14.15625 20.5 10.265625 
Q 23.53125 6.390625 29.59375 6.390625 
Q 36.859375 6.390625 41.078125 11.03125 
Q 45.3125 15.671875 45.3125 23.6875 
L 45.3125 54.6875 
L 54.296875 54.6875 
L 54.296875 0 
L 45.3125 0 
L 45.3125 8.40625 
Q 42.046875 3.421875 37.71875 1 
Q 33.40625 -1.421875 27.6875 -1.421875 
Q 18.265625 -1.421875 13.375 4.4375 
Q 8.5 10.296875 8.5 21.578125 
z
M 31.109375 56 
z
" id="DejaVuSans-75"/>
     <path d="M 56.203125 29.59375 
L 56.203125 25.203125 
L 14.890625 25.203125 
Q 15.484375 15.921875 20.484375 11.0625 
Q 25.484375 6.203125 34.421875 6.203125 
Q 39.59375 6.203125 44.453125 7.46875 
Q 49.3125 8.734375 54.109375 11.28125 
L 54.109375 2.78125 
Q 49.265625 0.734375 44.1875 -0.34375 
Q 39.109375 -1.421875 33.890625 -1.421875 
Q 20.796875 -1.421875 13.15625 6.1875 
Q 5.515625 13.8125 5.515625 26.8125 
Q 5.515625 40.234375 12.765625 48.109375 
Q 20.015625 56 32.328125 56 
Q 43.359375 56 49.78125 48.890625 
Q 56.203125 41.796875 56.203125 29.59375 
z
M 47.21875 32.234375 
Q 47.125 39.59375 43.09375 43.984375 
Q 39.0625 48.390625 32.421875 48.390625 
Q 24.90625 48.390625 20.390625 44.140625 
Q 15.875 39.890625 15.1875 32.171875 
z
" id="DejaVuSans-65"/>
     <path d="M 44.28125 53.078125 
L 44.28125 44.578125 
Q 40.484375 46.53125 36.375 47.5 
Q 32.28125 48.484375 27.875 48.484375 
Q 21.1875 48.484375 17.84375 46.4375 
Q 14.5 44.390625 14.5 40.28125 
Q 14.5 37.15625 16.890625 35.375 
Q 19.28125 33.59375 26.515625 31.984375 
L 29.59375 31.296875 
Q 39.15625 29.25 43.1875 25.515625 
Q 47.21875 21.78125 47.21875 15.09375 
Q 47.21875 7.46875 41.1875 3.015625 
Q 35.15625 -1.421875 24.609375 -1.421875 
Q 20.21875 -1.421875 15.453125 -0.5625 
Q 10.6875 0.296875 5.421875 2 
L 5.421875 11.28125 
Q 10.40625 8.6875 15.234375 7.390625 
Q 20.0625 6.109375 24.8125 6.109375 
Q 31.15625 6.109375 34.5625 8.28125 
Q 37.984375 10.453125 37.984375 14.40625 
Q 37.984375 18.0625 35.515625 20.015625 
Q 33.0625 21.96875 24.703125 23.78125 
L 21.578125 24.515625 
Q 13.234375 26.265625 9.515625 29.90625 
Q 5.8125 33.546875 5.8125 39.890625 
Q 5.8125 47.609375 11.28125 51.796875 
Q 16.75 56 26.8125 56 
Q 31.78125 56 36.171875 55.265625 
Q 40.578125 54.546875 44.28125 53.078125 
z
" id="DejaVuSans-73"/>
     <path d="M 41.109375 46.296875 
Q 39.59375 47.171875 37.8125 47.578125 
Q 36.03125 48 33.890625 48 
Q 26.265625 48 22.1875 43.046875 
Q 18.109375 38.09375 18.109375 28.8125 
L 18.109375 0 
L 9.078125 0 
L 9.078125 54.6875 
L 18.109375 54.6875 
L 18.109375 46.1875 
Q 20.953125 51.171875 25.484375 53.578125 
Q 30.03125 56 36.53125 56 
Q 37.453125 56 38.578125 55.875 
Q 39.703125 55.765625 41.0625 55.515625 
z
" id="DejaVuSans-72"/>
     <path d="M 48.78125 52.59375 
L 48.78125 44.1875 
Q 44.96875 46.296875 41.140625 47.34375 
Q 37.3125 48.390625 33.40625 48.390625 
Q 24.65625 48.390625 19.8125 42.84375 
Q 14.984375 37.3125 14.984375 27.296875 
Q 14.984375 17.28125 19.8125 11.734375 
Q 24.65625 6.203125 33.40625 6.203125 
Q 37.3125 6.203125 41.140625 7.25 
Q 44.96875 8.296875 48.78125 10.40625 
L 48.78125 2.09375 
Q 45.015625 0.34375 40.984375 -0.53125 
Q 36.96875 -1.421875 32.421875 -1.421875 
Q 20.0625 -1.421875 12.78125 6.34375 
Q 5.515625 14.109375 5.515625 27.296875 
Q 5.515625 40.671875 12.859375 48.328125 
Q 20.21875 56 33.015625 56 
Q 37.15625 56 41.109375 55.140625 
Q 45.0625 54.296875 48.78125 52.59375 
z
" id="DejaVuSans-63"/>
     <path d="M 48.6875 27.296875 
Q 48.6875 37.203125 44.609375 42.84375 
Q 40.53125 48.484375 33.40625 48.484375 
Q 26.265625 48.484375 22.1875 42.84375 
Q 18.109375 37.203125 18.109375 27.296875 
Q 18.109375 17.390625 22.1875 11.75 
Q 26.265625 6.109375 33.40625 6.109375 
Q 40.53125 6.109375 44.609375 11.75 
Q 48.6875 17.390625 48.6875 27.296875 
z
M 18.109375 46.390625 
Q 20.953125 51.265625 25.265625 53.625 
Q 29.59375 56 35.59375 56 
Q 45.5625 56 51.78125 48.09375 
Q 58.015625 40.1875 58.015625 27.296875 
Q 58.015625 14.40625 51.78125 6.484375 
Q 45.5625 -1.421875 35.59375 -1.421875 
Q 29.59375 -1.421875 25.265625 0.953125 
Q 20.953125 3.328125 18.109375 8.203125 
L 18.109375 0 
L 9.078125 0 
L 9.078125 75.984375 
L 18.109375 75.984375 
z
" id="DejaVuSans-62"/>
    </defs>
    <g transform="translate(109.5 35.472)scale(0.12 -0.12)">
     <use transform="translate(0 0.015625)" xlink:href="#DejaVuSans-57"/>
     <use transform="translate(98.876953 0.015625)" xlink:href="#DejaVuSans-69"/>
     <use transform="translate(126.660156 0.015625)" xlink:href="#DejaVuSans-74"/>
     <use transform="translate(165.869141 0.015625)" xlink:href="#DejaVuSans-68"/>
     <use transform="translate(229.248047 0.015625)" xlink:href="#DejaVuSans-20"/>
     <use transform="translate(261.035156 0.015625)" xlink:href="#DejaVuSans-61"/>
     <use transform="translate(322.314453 0.015625)" xlink:href="#DejaVuSans-6e"/>
     <use transform="translate(385.693359 0.015625)" xlink:href="#DejaVuSans-64"/>
     <use transform="translate(449.169922 0.015625)" xlink:href="#DejaVuSans-20"/>
     <use transform="translate(480.957031 0.015625)" xlink:href="#DejaVuSans-77"/>
     <use transform="translate(562.744141 0.015625)" xlink:href="#DejaVuSans-69"/>
     <use transform="translate(590.527344 0.015625)" xlink:href="#DejaVuSans-74"/>
     <use transform="translate(629.736328 0.015625)" xlink:href="#DejaVuSans-68"/>
     <use transform="translate(693.115234 0.015625)" xlink:href="#DejaVuSans-6f"/>
     <use transform="translate(754.296875 0.015625)" xlink:href="#DejaVuSans-75"/>
     <use transform="translate(817.675781 0.015625)" xlink:href="#DejaVuSans-74"/>
     <use transform="translate(856.884766 0.015625)" xlink:href="#DejaVuSans-20"/>
     <use transform="translate(888.671875 0.015625)" xlink:href="#DejaVuSans-74"/>
     <use transform="translate(927.880859 0.015625)" xlink:href="#DejaVuSans-65"/>
     <use transform="translate(989.404297 0.015625)" xlink:href="#DejaVuSans-6e"/>
     <use transform="translate(1052.783203 0.015625)" xlink:href="#DejaVuSans-73"/>
     <use transform="translate(1104.882812 0.015625)" xlink:href="#DejaVuSans-6f"/>
     <use transform="translate(1166.064453 0.015625)" xlink:href="#DejaVuSans-72"/>
     <use transform="translate(1207.177734 0.015625)" xlink:href="#DejaVuSans-20"/>
     <use transform="translate(1238.964844 0.015625)" xlink:href="#DejaVuSans-63"/>
     <use transform="translate(1293.945312 0.015625)" xlink:href="#DejaVuSans-6f"/>
     <use transform="translate(1355.126953 0.015625)" xlink:href="#DejaVuSans-6e"/>
     <use transform="translate(1418.505859 0.015625)" xlink:href="#DejaVuSans-74"/>
     <use transform="translate(1457.714844 0.015625)" xlink:href="#DejaVuSans-72"/>
     <use transform="translate(1498.828125 0.015625)" xlink:href="#DejaVuSans-69"/>
     <use transform="translate(1526.611328 0.015625)" xlink:href="#DejaVuSans-62"/>
     <use transform="translate(1590.087891 0.015625)" xlink:href="#DejaVuSans-75"/>
     <use transform="translate(1653.466797 0.015625)" xlink:href="#DejaVuSans-74"/>
     <use transform="translate(1692.675781 0.015625)" xlink:href="#DejaVuSans-69"/>
     <use transform="translate(1720.458984 0.015625)" xlink:href="#DejaVuSans-6f"/>
     <use transform="translate(1781.640625 0.015625)" xlink:href="#DejaVuSans-6e"/>
     <use transform="translate(1845.019531 0.015625)" xlink:href="#DejaVuSans-20"/>
     <use transform="translate(1876.806641 0.015625)" xlink:href="#DejaVuSans-74"/>
     <use transform="translate(1916.015625 0.015625)" xlink:href="#DejaVuSans-6f"/>
     <use transform="translate(1977.197266 0.015625)" xlink:href="#DejaVuSans-20"/>
     <use transform="translate(2008.984375 0.015625)" xlink:href="#DejaVuSans-Oblique-43"/>
     <use transform="translate(2078.808594 -16.390625)scale(0.7)" xlink:href="#DejaVuSans-Oblique-2113"/>
    </g>
   </g>
   <g id="legend_1">
    <g id="patch_7">
     <path d="M 64.6 78.82825 
L 143.892188 78.82825 
Q 145.892188 78.82825 145.892188 76.82825 
L 145.892188 48.472 
Q 145.892188 46.472 143.892188 46.472 
L 64.6 46.472 
Q 62.6 46.472 62.6 48.472 
L 62.6 76.82825 
Q 62.6 78.82825 64.6 78.82825 
z
" style="fill:#ffffff;opacity:0.8;stroke:#cccccc;stroke-linejoin:miter;"/>
    </g>
    <g id="line2d_40">
     <path d="M 66.6 54.570437 
L 86.6 54.570437 
" style="fill:none;stroke:#ff0000;stroke-linecap:square;stroke-width:1.5;"/>
    </g>
    <g id="line2d_41"/>
    <g id="text_15">
     <!-- with-T -->
     <defs>
      <path d="M 4.890625 31.390625 
L 31.203125 31.390625 
L 31.203125 23.390625 
L 4.890625 23.390625 
z
" id="DejaVuSans-2d"/>
      <path d="M -0.296875 72.90625 
L 61.375 72.90625 
L 61.375 64.59375 
L 35.5 64.59375 
L 35.5 0 
L 25.59375 0 
L 25.59375 64.59375 
L -0.296875 64.59375 
z
" id="DejaVuSans-54"/>
     </defs>
     <g transform="translate(94.6 58.070437)scale(0.1 -0.1)">
      <use xlink:href="#DejaVuSans-77"/>
      <use x="81.787109" xlink:href="#DejaVuSans-69"/>
      <use x="109.570312" xlink:href="#DejaVuSans-74"/>
      <use x="148.779297" xlink:href="#DejaVuSans-68"/>
      <use x="212.158203" xlink:href="#DejaVuSans-2d"/>
      <use x="248.101562" xlink:href="#DejaVuSans-54"/>
     </g>
    </g>
    <g id="line2d_42">
     <path d="M 66.6 69.248562 
L 86.6 69.248562 
" style="fill:none;stroke:#0000ff;stroke-dasharray:5.55,2.4;stroke-dashoffset:0;stroke-width:1.5;"/>
    </g>
    <g id="line2d_43"/>
    <g id="text_16">
     <!-- without-T -->
     <g transform="translate(94.6 72.748562)scale(0.1 -0.1)">
      <use xlink:href="#DejaVuSans-77"/>
      <use x="81.787109" xlink:href="#DejaVuSans-69"/>
      <use x="109.570312" xlink:href="#DejaVuSans-74"/>
      <use x="148.779297" xlink:href="#DejaVuSans-68"/>
      <use x="212.158203" xlink:href="#DejaVuSans-6f"/>
      <use x="273.339844" xlink:href="#DejaVuSans-75"/>
      <use x="336.71875" xlink:href="#DejaVuSans-74"/>
      <use x="375.927734" xlink:href="#DejaVuSans-2d"/>
      <use x="411.871094" xlink:href="#DejaVuSans-54"/>
     </g>
    </g>
   </g>
  </g>
 </g>
 <defs>
  <clipPath id="pcbe97cce70">
   <rect height="266.112" width="357.12" x="57.6" y="41.472"/>
  </clipPath>
 </defs>
</svg>
