<?xml version="1.0" encoding="utf-8" standalone="no"?>
<!DOCTYPE svg PUBLIC "-//W3C//DTD SVG 1.1//EN"
  "http://www.w3.org/Graphics/SVG/1.1/DTD/svg11.dtd">
<!-- Created with matplotlib (http://matplotlib.org/) -->
<svg height="345pt" version="1.1" viewBox="0 0 460 345" width="460pt" xmlns="http://www.w3.org/2000/svg" xmlns:xlink="http://www.w3.org/1999/xlink">
 <defs>
  <style type="text/css">
*{stroke-linecap:butt;stroke-linejoin:round;}
  </style>
 </defs>
 <g id="figure_1">
  <g id="patch_1">
   <path d="M 0 345.6 
L 460.8 345.6 
L 460.8 0 
L 0 0 
z
" style="fill:#ffffff;"/>
  </g>
  <g id="axes_1">
   <g id="patch_2">
    <path d="M 57.6 307.584 
L 414.72 307.584 
L 414.72 41.472 
L 57.6 41.472 
z
" style="fill:#ffffff;"/>
   </g>
   <g id="matplotlib.axis_1">
    <g id="xtick_1">
     <g id="line2d_1">
      <defs>
       <path d="M 0 0 
L 0 3.5 
" id="mba9f8e42c6" style="stroke:#000000;stroke-width:0.8;"/>
      </defs>
      <g>
       <use style="stroke:#000000;stroke-width:0.8;" x="73.832727" xlink:href="#mba9f8e42c6" y="307.584"/>
      </g>
     </g>
     <g id="text_1">
      <!-- $\mathdefault{10^{-5}}$ -->
      <defs>
       <path d="M 12.40625 8.296875 
L 28.515625 8.296875 
L 28.515625 63.921875 
L 10.984375 60.40625 
L 10.984375 69.390625 
L 28.421875 72.90625 
L 38.28125 72.90625 
L 38.28125 8.296875 
L 54.390625 8.296875 
L 54.390625 0 
L 12.40625 0 
z
" id="DejaVuSans-31"/>
       <path d="M 31.78125 66.40625 
Q 24.171875 66.40625 20.328125 58.90625 
Q 16.5 51.421875 16.5 36.375 
Q 16.5 21.390625 20.328125 13.890625 
Q 24.171875 6.390625 31.78125 6.390625 
Q 39.453125 6.390625 43.28125 13.890625 
Q 47.125 21.390625 47.125 36.375 
Q 47.125 51.421875 43.28125 58.90625 
Q 39.453125 66.40625 31.78125 66.40625 
z
M 31.78125 74.21875 
Q 44.046875 74.21875 50.515625 64.515625 
Q 56.984375 54.828125 56.984375 36.375 
Q 56.984375 17.96875 50.515625 8.265625 
Q 44.046875 -1.421875 31.78125 -1.421875 
Q 19.53125 -1.421875 13.0625 8.265625 
Q 6.59375 17.96875 6.59375 36.375 
Q 6.59375 54.828125 13.0625 64.515625 
Q 19.53125 74.21875 31.78125 74.21875 
z
" id="DejaVuSans-30"/>
       <path d="M 10.59375 35.5 
L 73.1875 35.5 
L 73.1875 27.203125 
L 10.59375 27.203125 
z
" id="DejaVuSans-2212"/>
       <path d="M 10.796875 72.90625 
L 49.515625 72.90625 
L 49.515625 64.59375 
L 19.828125 64.59375 
L 19.828125 46.734375 
Q 21.96875 47.46875 24.109375 47.828125 
Q 26.265625 48.1875 28.421875 48.1875 
Q 40.625 48.1875 47.75 41.5 
Q 54.890625 34.8125 54.890625 23.390625 
Q 54.890625 11.625 47.5625 5.09375 
Q 40.234375 -1.421875 26.90625 -1.421875 
Q 22.3125 -1.421875 17.546875 -0.640625 
Q 12.796875 0.140625 7.71875 1.703125 
L 7.71875 11.625 
Q 12.109375 9.234375 16.796875 8.0625 
Q 21.484375 6.890625 26.703125 6.890625 
Q 35.15625 6.890625 40.078125 11.328125 
Q 45.015625 15.765625 45.015625 23.390625 
Q 45.015625 31 40.078125 35.4375 
Q 35.15625 39.890625 26.703125 39.890625 
Q 22.75 39.890625 18.8125 39.015625 
Q 14.890625 38.140625 10.796875 36.28125 
z
" id="DejaVuSans-35"/>
      </defs>
      <g transform="translate(60.907727 322.942281)scale(0.11 -0.11)">
       <use transform="translate(0 0.684375)" xlink:href="#DejaVuSans-31"/>
       <use transform="translate(63.623047 0.684375)" xlink:href="#DejaVuSans-30"/>
       <use transform="translate(128.203125 38.965625)scale(0.7)" xlink:href="#DejaVuSans-2212"/>
       <use transform="translate(186.855469 38.965625)scale(0.7)" xlink:href="#DejaVuSans-35"/>
      </g>
     </g>
    </g>
    <g id="xtick_2">
     <g id="line2d_2">
      <g>
       <use style="stroke:#000000;stroke-width:0.8;" x="114.414545" xlink:href="#mba9f8e42c6" y="307.584"/>
      </g>
     </g>
     <g id="text_2">
      <!-- $\mathdefault{10^{-4}}$ -->
      <defs>
       <path d="M 37.796875 64.3125 
L 12.890625 25.390625 
L 37.796875 25.390625 
z
M 35.203125 72.90625 
L 47.609375 72.90625 
L 47.609375 25.390625 
L 58.015625 25.390625 
L 58.015625 17.1875 
L 47.609375 17.1875 
L 47.609375 0 
L 37.796875 0 
L 37.796875 17.1875 
L 4.890625 17.1875 
L 4.890625 26.703125 
z
" id="DejaVuSans-34"/>
      </defs>
      <g transform="translate(101.489545 322.942281)scale(0.11 -0.11)">
       <use transform="translate(0 0.684375)" xlink:href="#DejaVuSans-31"/>
       <use transform="translate(63.623047 0.684375)" xlink:href="#DejaVuSans-30"/>
       <use transform="translate(128.203125 38.965625)scale(0.7)" xlink:href="#DejaVuSans-2212"/>
       <use transform="translate(186.855469 38.965625)scale(0.7)" xlink:href="#DejaVuSans-34"/>
      </g>
     </g>
    </g>
    <g id="xtick_3">
     <g id="line2d_3">
      <g>
       <use style="stroke:#000000;stroke-width:0.8;" x="154.996364" xlink:href="#mba9f8e42c6" y="307.584"/>
      </g>
     </g>
     <g id="text_3">
      <!-- $\mathdefault{10^{-3}}$ -->
      <defs>
       <path d="M 40.578125 39.3125 
Q 47.65625 37.796875 51.625 33 
Q 55.609375 28.21875 55.609375 21.1875 
Q 55.609375 10.40625 48.1875 4.484375 
Q 40.765625 -1.421875 27.09375 -1.421875 
Q 22.515625 -1.421875 17.65625 -0.515625 
Q 12.796875 0.390625 7.625 2.203125 
L 7.625 11.71875 
Q 11.71875 9.328125 16.59375 8.109375 
Q 21.484375 6.890625 26.8125 6.890625 
Q 36.078125 6.890625 40.9375 10.546875 
Q 45.796875 14.203125 45.796875 21.1875 
Q 45.796875 27.640625 41.28125 31.265625 
Q 36.765625 34.90625 28.71875 34.90625 
L 20.21875 34.90625 
L 20.21875 43.015625 
L 29.109375 43.015625 
Q 36.375 43.015625 40.234375 45.921875 
Q 44.09375 48.828125 44.09375 54.296875 
Q 44.09375 59.90625 40.109375 62.90625 
Q 36.140625 65.921875 28.71875 65.921875 
Q 24.65625 65.921875 20.015625 65.03125 
Q 15.375 64.15625 9.8125 62.3125 
L 9.8125 71.09375 
Q 15.4375 72.65625 20.34375 73.4375 
Q 25.25 74.21875 29.59375 74.21875 
Q 40.828125 74.21875 47.359375 69.109375 
Q 53.90625 64.015625 53.90625 55.328125 
Q 53.90625 49.265625 50.4375 45.09375 
Q 46.96875 40.921875 40.578125 39.3125 
z
" id="DejaVuSans-33"/>
      </defs>
      <g transform="translate(142.071364 322.942281)scale(0.11 -0.11)">
       <use transform="translate(0 0.765625)" xlink:href="#DejaVuSans-31"/>
       <use transform="translate(63.623047 0.765625)" xlink:href="#DejaVuSans-30"/>
       <use transform="translate(128.203125 39.046875)scale(0.7)" xlink:href="#DejaVuSans-2212"/>
       <use transform="translate(186.855469 39.046875)scale(0.7)" xlink:href="#DejaVuSans-33"/>
      </g>
     </g>
    </g>
    <g id="xtick_4">
     <g id="line2d_4">
      <g>
       <use style="stroke:#000000;stroke-width:0.8;" x="195.578182" xlink:href="#mba9f8e42c6" y="307.584"/>
      </g>
     </g>
     <g id="text_4">
      <!-- $\mathdefault{10^{-2}}$ -->
      <defs>
       <path d="M 19.1875 8.296875 
L 53.609375 8.296875 
L 53.609375 0 
L 7.328125 0 
L 7.328125 8.296875 
Q 12.9375 14.109375 22.625 23.890625 
Q 32.328125 33.6875 34.8125 36.53125 
Q 39.546875 41.84375 41.421875 45.53125 
Q 43.3125 49.21875 43.3125 52.78125 
Q 43.3125 58.59375 39.234375 62.25 
Q 35.15625 65.921875 28.609375 65.921875 
Q 23.96875 65.921875 18.8125 64.3125 
Q 13.671875 62.703125 7.8125 59.421875 
L 7.8125 69.390625 
Q 13.765625 71.78125 18.9375 73 
Q 24.125 74.21875 28.421875 74.21875 
Q 39.75 74.21875 46.484375 68.546875 
Q 53.21875 62.890625 53.21875 53.421875 
Q 53.21875 48.921875 51.53125 44.890625 
Q 49.859375 40.875 45.40625 35.40625 
Q 44.1875 33.984375 37.640625 27.21875 
Q 31.109375 20.453125 19.1875 8.296875 
z
" id="DejaVuSans-32"/>
      </defs>
      <g transform="translate(182.653182 322.942281)scale(0.11 -0.11)">
       <use transform="translate(0 0.765625)" xlink:href="#DejaVuSans-31"/>
       <use transform="translate(63.623047 0.765625)" xlink:href="#DejaVuSans-30"/>
       <use transform="translate(128.203125 39.046875)scale(0.7)" xlink:href="#DejaVuSans-2212"/>
       <use transform="translate(186.855469 39.046875)scale(0.7)" xlink:href="#DejaVuSans-32"/>
      </g>
     </g>
    </g>
    <g id="xtick_5">
     <g id="line2d_5">
      <g>
       <use style="stroke:#000000;stroke-width:0.8;" x="236.16" xlink:href="#mba9f8e42c6" y="307.584"/>
      </g>
     </g>
     <g id="text_5">
      <!-- $\mathdefault{10^{-1}}$ -->
      <g transform="translate(223.235 322.942281)scale(0.11 -0.11)">
       <use transform="translate(0 0.684375)" xlink:href="#DejaVuSans-31"/>
       <use transform="translate(63.623047 0.684375)" xlink:href="#DejaVuSans-30"/>
       <use transform="translate(128.203125 38.965625)scale(0.7)" xlink:href="#DejaVuSans-2212"/>
       <use transform="translate(186.855469 38.965625)scale(0.7)" xlink:href="#DejaVuSans-31"/>
      </g>
     </g>
    </g>
    <g id="xtick_6">
     <g id="line2d_6">
      <g>
       <use style="stroke:#000000;stroke-width:0.8;" x="276.741818" xlink:href="#mba9f8e42c6" y="307.584"/>
      </g>
     </g>
     <g id="text_6">
      <!-- $\mathdefault{10^{0}}$ -->
      <g transform="translate(267.061818 322.942281)scale(0.11 -0.11)">
       <use transform="translate(0 0.765625)" xlink:href="#DejaVuSans-31"/>
       <use transform="translate(63.623047 0.765625)" xlink:href="#DejaVuSans-30"/>
       <use transform="translate(128.203125 39.046875)scale(0.7)" xlink:href="#DejaVuSans-30"/>
      </g>
     </g>
    </g>
    <g id="xtick_7">
     <g id="line2d_7">
      <g>
       <use style="stroke:#000000;stroke-width:0.8;" x="317.323636" xlink:href="#mba9f8e42c6" y="307.584"/>
      </g>
     </g>
     <g id="text_7">
      <!-- $\mathdefault{10^{1}}$ -->
      <g transform="translate(307.643636 322.942281)scale(0.11 -0.11)">
       <use transform="translate(0 0.684375)" xlink:href="#DejaVuSans-31"/>
       <use transform="translate(63.623047 0.684375)" xlink:href="#DejaVuSans-30"/>
       <use transform="translate(128.203125 38.965625)scale(0.7)" xlink:href="#DejaVuSans-31"/>
      </g>
     </g>
    </g>
    <g id="xtick_8">
     <g id="line2d_8">
      <g>
       <use style="stroke:#000000;stroke-width:0.8;" x="357.905455" xlink:href="#mba9f8e42c6" y="307.584"/>
      </g>
     </g>
     <g id="text_8">
      <!-- $\mathdefault{10^{2}}$ -->
      <g transform="translate(348.225455 322.942281)scale(0.11 -0.11)">
       <use transform="translate(0 0.765625)" xlink:href="#DejaVuSans-31"/>
       <use transform="translate(63.623047 0.765625)" xlink:href="#DejaVuSans-30"/>
       <use transform="translate(128.203125 39.046875)scale(0.7)" xlink:href="#DejaVuSans-32"/>
      </g>
     </g>
    </g>
    <g id="xtick_9">
     <g id="line2d_9">
      <g>
       <use style="stroke:#000000;stroke-width:0.8;" x="398.487273" xlink:href="#mba9f8e42c6" y="307.584"/>
      </g>
     </g>
     <g id="text_9">
      <!-- $\mathdefault{10^{3}}$ -->
      <g transform="translate(388.807273 322.942281)scale(0.11 -0.11)">
       <use transform="translate(0 0.765625)" xlink:href="#DejaVuSans-31"/>
       <use transform="translate(63.623047 0.765625)" xlink:href="#DejaVuSans-30"/>
       <use transform="translate(128.203125 39.046875)scale(0.7)" xlink:href="#DejaVuSans-33"/>
      </g>
     </g>
    </g>
    <g id="xtick_10">
     <g id="line2d_10">
      <defs>
       <path d="M 0 0 
L 0 2 
" id="m3af4ed6720" style="stroke:#000000;stroke-width:0.6;"/>
      </defs>
      <g>
       <use style="stroke:#000000;stroke-width:0.6;" x="57.683598" xlink:href="#m3af4ed6720" y="307.584"/>
      </g>
     </g>
    </g>
    <g id="xtick_11">
     <g id="line2d_11">
      <g>
       <use style="stroke:#000000;stroke-width:0.6;" x="61.616383" xlink:href="#m3af4ed6720" y="307.584"/>
      </g>
     </g>
    </g>
    <g id="xtick_12">
     <g id="line2d_12">
      <g>
       <use style="stroke:#000000;stroke-width:0.6;" x="64.829702" xlink:href="#m3af4ed6720" y="307.584"/>
      </g>
     </g>
    </g>
    <g id="xtick_13">
     <g id="line2d_13">
      <g>
       <use style="stroke:#000000;stroke-width:0.6;" x="67.546524" xlink:href="#m3af4ed6720" y="307.584"/>
      </g>
     </g>
    </g>
    <g id="xtick_14">
     <g id="line2d_14">
      <g>
       <use style="stroke:#000000;stroke-width:0.6;" x="69.899943" xlink:href="#m3af4ed6720" y="307.584"/>
      </g>
     </g>
    </g>
    <g id="xtick_15">
     <g id="line2d_15">
      <g>
       <use style="stroke:#000000;stroke-width:0.6;" x="71.975805" xlink:href="#m3af4ed6720" y="307.584"/>
      </g>
     </g>
    </g>
    <g id="xtick_16">
     <g id="line2d_16">
      <g>
       <use style="stroke:#000000;stroke-width:0.6;" x="86.049072" xlink:href="#m3af4ed6720" y="307.584"/>
      </g>
     </g>
    </g>
    <g id="xtick_17">
     <g id="line2d_17">
      <g>
       <use style="stroke:#000000;stroke-width:0.6;" x="93.195175" xlink:href="#m3af4ed6720" y="307.584"/>
      </g>
     </g>
    </g>
    <g id="xtick_18">
     <g id="line2d_18">
      <g>
       <use style="stroke:#000000;stroke-width:0.6;" x="98.265416" xlink:href="#m3af4ed6720" y="307.584"/>
      </g>
     </g>
    </g>
    <g id="xtick_19">
     <g id="line2d_19">
      <g>
       <use style="stroke:#000000;stroke-width:0.6;" x="102.198201" xlink:href="#m3af4ed6720" y="307.584"/>
      </g>
     </g>
    </g>
    <g id="xtick_20">
     <g id="line2d_20">
      <g>
       <use style="stroke:#000000;stroke-width:0.6;" x="105.41152" xlink:href="#m3af4ed6720" y="307.584"/>
      </g>
     </g>
    </g>
    <g id="xtick_21">
     <g id="line2d_21">
      <g>
       <use style="stroke:#000000;stroke-width:0.6;" x="108.128342" xlink:href="#m3af4ed6720" y="307.584"/>
      </g>
     </g>
    </g>
    <g id="xtick_22">
     <g id="line2d_22">
      <g>
       <use style="stroke:#000000;stroke-width:0.6;" x="110.481761" xlink:href="#m3af4ed6720" y="307.584"/>
      </g>
     </g>
    </g>
    <g id="xtick_23">
     <g id="line2d_23">
      <g>
       <use style="stroke:#000000;stroke-width:0.6;" x="112.557623" xlink:href="#m3af4ed6720" y="307.584"/>
      </g>
     </g>
    </g>
    <g id="xtick_24">
     <g id="line2d_24">
      <g>
       <use style="stroke:#000000;stroke-width:0.6;" x="126.63089" xlink:href="#m3af4ed6720" y="307.584"/>
      </g>
     </g>
    </g>
    <g id="xtick_25">
     <g id="line2d_25">
      <g>
       <use style="stroke:#000000;stroke-width:0.6;" x="133.776993" xlink:href="#m3af4ed6720" y="307.584"/>
      </g>
     </g>
    </g>
    <g id="xtick_26">
     <g id="line2d_26">
      <g>
       <use style="stroke:#000000;stroke-width:0.6;" x="138.847235" xlink:href="#m3af4ed6720" y="307.584"/>
      </g>
     </g>
    </g>
    <g id="xtick_27">
     <g id="line2d_27">
      <g>
       <use style="stroke:#000000;stroke-width:0.6;" x="142.780019" xlink:href="#m3af4ed6720" y="307.584"/>
      </g>
     </g>
    </g>
    <g id="xtick_28">
     <g id="line2d_28">
      <g>
       <use style="stroke:#000000;stroke-width:0.6;" x="145.993338" xlink:href="#m3af4ed6720" y="307.584"/>
      </g>
     </g>
    </g>
    <g id="xtick_29">
     <g id="line2d_29">
      <g>
       <use style="stroke:#000000;stroke-width:0.6;" x="148.71016" xlink:href="#m3af4ed6720" y="307.584"/>
      </g>
     </g>
    </g>
    <g id="xtick_30">
     <g id="line2d_30">
      <g>
       <use style="stroke:#000000;stroke-width:0.6;" x="151.063579" xlink:href="#m3af4ed6720" y="307.584"/>
      </g>
     </g>
    </g>
    <g id="xtick_31">
     <g id="line2d_31">
      <g>
       <use style="stroke:#000000;stroke-width:0.6;" x="153.139441" xlink:href="#m3af4ed6720" y="307.584"/>
      </g>
     </g>
    </g>
    <g id="xtick_32">
     <g id="line2d_32">
      <g>
       <use style="stroke:#000000;stroke-width:0.6;" x="167.212708" xlink:href="#m3af4ed6720" y="307.584"/>
      </g>
     </g>
    </g>
    <g id="xtick_33">
     <g id="line2d_33">
      <g>
       <use style="stroke:#000000;stroke-width:0.6;" x="174.358812" xlink:href="#m3af4ed6720" y="307.584"/>
      </g>
     </g>
    </g>
    <g id="xtick_34">
     <g id="line2d_34">
      <g>
       <use style="stroke:#000000;stroke-width:0.6;" x="179.429053" xlink:href="#m3af4ed6720" y="307.584"/>
      </g>
     </g>
    </g>
    <g id="xtick_35">
     <g id="line2d_35">
      <g>
       <use style="stroke:#000000;stroke-width:0.6;" x="183.361837" xlink:href="#m3af4ed6720" y="307.584"/>
      </g>
     </g>
    </g>
    <g id="xtick_36">
     <g id="line2d_36">
      <g>
       <use style="stroke:#000000;stroke-width:0.6;" x="186.575156" xlink:href="#m3af4ed6720" y="307.584"/>
      </g>
     </g>
    </g>
    <g id="xtick_37">
     <g id="line2d_37">
      <g>
       <use style="stroke:#000000;stroke-width:0.6;" x="189.291979" xlink:href="#m3af4ed6720" y="307.584"/>
      </g>
     </g>
    </g>
    <g id="xtick_38">
     <g id="line2d_38">
      <g>
       <use style="stroke:#000000;stroke-width:0.6;" x="191.645397" xlink:href="#m3af4ed6720" y="307.584"/>
      </g>
     </g>
    </g>
    <g id="xtick_39">
     <g id="line2d_39">
      <g>
       <use style="stroke:#000000;stroke-width:0.6;" x="193.72126" xlink:href="#m3af4ed6720" y="307.584"/>
      </g>
     </g>
    </g>
    <g id="xtick_40">
     <g id="line2d_40">
      <g>
       <use style="stroke:#000000;stroke-width:0.6;" x="207.794526" xlink:href="#m3af4ed6720" y="307.584"/>
      </g>
     </g>
    </g>
    <g id="xtick_41">
     <g id="line2d_41">
      <g>
       <use style="stroke:#000000;stroke-width:0.6;" x="214.94063" xlink:href="#m3af4ed6720" y="307.584"/>
      </g>
     </g>
    </g>
    <g id="xtick_42">
     <g id="line2d_42">
      <g>
       <use style="stroke:#000000;stroke-width:0.6;" x="220.010871" xlink:href="#m3af4ed6720" y="307.584"/>
      </g>
     </g>
    </g>
    <g id="xtick_43">
     <g id="line2d_43">
      <g>
       <use style="stroke:#000000;stroke-width:0.6;" x="223.943655" xlink:href="#m3af4ed6720" y="307.584"/>
      </g>
     </g>
    </g>
    <g id="xtick_44">
     <g id="line2d_44">
      <g>
       <use style="stroke:#000000;stroke-width:0.6;" x="227.156974" xlink:href="#m3af4ed6720" y="307.584"/>
      </g>
     </g>
    </g>
    <g id="xtick_45">
     <g id="line2d_45">
      <g>
       <use style="stroke:#000000;stroke-width:0.6;" x="229.873797" xlink:href="#m3af4ed6720" y="307.584"/>
      </g>
     </g>
    </g>
    <g id="xtick_46">
     <g id="line2d_46">
      <g>
       <use style="stroke:#000000;stroke-width:0.6;" x="232.227215" xlink:href="#m3af4ed6720" y="307.584"/>
      </g>
     </g>
    </g>
    <g id="xtick_47">
     <g id="line2d_47">
      <g>
       <use style="stroke:#000000;stroke-width:0.6;" x="234.303078" xlink:href="#m3af4ed6720" y="307.584"/>
      </g>
     </g>
    </g>
    <g id="xtick_48">
     <g id="line2d_48">
      <g>
       <use style="stroke:#000000;stroke-width:0.6;" x="248.376345" xlink:href="#m3af4ed6720" y="307.584"/>
      </g>
     </g>
    </g>
    <g id="xtick_49">
     <g id="line2d_49">
      <g>
       <use style="stroke:#000000;stroke-width:0.6;" x="255.522448" xlink:href="#m3af4ed6720" y="307.584"/>
      </g>
     </g>
    </g>
    <g id="xtick_50">
     <g id="line2d_50">
      <g>
       <use style="stroke:#000000;stroke-width:0.6;" x="260.592689" xlink:href="#m3af4ed6720" y="307.584"/>
      </g>
     </g>
    </g>
    <g id="xtick_51">
     <g id="line2d_51">
      <g>
       <use style="stroke:#000000;stroke-width:0.6;" x="264.525474" xlink:href="#m3af4ed6720" y="307.584"/>
      </g>
     </g>
    </g>
    <g id="xtick_52">
     <g id="line2d_52">
      <g>
       <use style="stroke:#000000;stroke-width:0.6;" x="267.738793" xlink:href="#m3af4ed6720" y="307.584"/>
      </g>
     </g>
    </g>
    <g id="xtick_53">
     <g id="line2d_53">
      <g>
       <use style="stroke:#000000;stroke-width:0.6;" x="270.455615" xlink:href="#m3af4ed6720" y="307.584"/>
      </g>
     </g>
    </g>
    <g id="xtick_54">
     <g id="line2d_54">
      <g>
       <use style="stroke:#000000;stroke-width:0.6;" x="272.809034" xlink:href="#m3af4ed6720" y="307.584"/>
      </g>
     </g>
    </g>
    <g id="xtick_55">
     <g id="line2d_55">
      <g>
       <use style="stroke:#000000;stroke-width:0.6;" x="274.884896" xlink:href="#m3af4ed6720" y="307.584"/>
      </g>
     </g>
    </g>
    <g id="xtick_56">
     <g id="line2d_56">
      <g>
       <use style="stroke:#000000;stroke-width:0.6;" x="288.958163" xlink:href="#m3af4ed6720" y="307.584"/>
      </g>
     </g>
    </g>
    <g id="xtick_57">
     <g id="line2d_57">
      <g>
       <use style="stroke:#000000;stroke-width:0.6;" x="296.104266" xlink:href="#m3af4ed6720" y="307.584"/>
      </g>
     </g>
    </g>
    <g id="xtick_58">
     <g id="line2d_58">
      <g>
       <use style="stroke:#000000;stroke-width:0.6;" x="301.174507" xlink:href="#m3af4ed6720" y="307.584"/>
      </g>
     </g>
    </g>
    <g id="xtick_59">
     <g id="line2d_59">
      <g>
       <use style="stroke:#000000;stroke-width:0.6;" x="305.107292" xlink:href="#m3af4ed6720" y="307.584"/>
      </g>
     </g>
    </g>
    <g id="xtick_60">
     <g id="line2d_60">
      <g>
       <use style="stroke:#000000;stroke-width:0.6;" x="308.320611" xlink:href="#m3af4ed6720" y="307.584"/>
      </g>
     </g>
    </g>
    <g id="xtick_61">
     <g id="line2d_61">
      <g>
       <use style="stroke:#000000;stroke-width:0.6;" x="311.037433" xlink:href="#m3af4ed6720" y="307.584"/>
      </g>
     </g>
    </g>
    <g id="xtick_62">
     <g id="line2d_62">
      <g>
       <use style="stroke:#000000;stroke-width:0.6;" x="313.390852" xlink:href="#m3af4ed6720" y="307.584"/>
      </g>
     </g>
    </g>
    <g id="xtick_63">
     <g id="line2d_63">
      <g>
       <use style="stroke:#000000;stroke-width:0.6;" x="315.466714" xlink:href="#m3af4ed6720" y="307.584"/>
      </g>
     </g>
    </g>
    <g id="xtick_64">
     <g id="line2d_64">
      <g>
       <use style="stroke:#000000;stroke-width:0.6;" x="329.539981" xlink:href="#m3af4ed6720" y="307.584"/>
      </g>
     </g>
    </g>
    <g id="xtick_65">
     <g id="line2d_65">
      <g>
       <use style="stroke:#000000;stroke-width:0.6;" x="336.686084" xlink:href="#m3af4ed6720" y="307.584"/>
      </g>
     </g>
    </g>
    <g id="xtick_66">
     <g id="line2d_66">
      <g>
       <use style="stroke:#000000;stroke-width:0.6;" x="341.756325" xlink:href="#m3af4ed6720" y="307.584"/>
      </g>
     </g>
    </g>
    <g id="xtick_67">
     <g id="line2d_67">
      <g>
       <use style="stroke:#000000;stroke-width:0.6;" x="345.68911" xlink:href="#m3af4ed6720" y="307.584"/>
      </g>
     </g>
    </g>
    <g id="xtick_68">
     <g id="line2d_68">
      <g>
       <use style="stroke:#000000;stroke-width:0.6;" x="348.902429" xlink:href="#m3af4ed6720" y="307.584"/>
      </g>
     </g>
    </g>
    <g id="xtick_69">
     <g id="line2d_69">
      <g>
       <use style="stroke:#000000;stroke-width:0.6;" x="351.619251" xlink:href="#m3af4ed6720" y="307.584"/>
      </g>
     </g>
    </g>
    <g id="xtick_70">
     <g id="line2d_70">
      <g>
       <use style="stroke:#000000;stroke-width:0.6;" x="353.97267" xlink:href="#m3af4ed6720" y="307.584"/>
      </g>
     </g>
    </g>
    <g id="xtick_71">
     <g id="line2d_71">
      <g>
       <use style="stroke:#000000;stroke-width:0.6;" x="356.048532" xlink:href="#m3af4ed6720" y="307.584"/>
      </g>
     </g>
    </g>
    <g id="xtick_72">
     <g id="line2d_72">
      <g>
       <use style="stroke:#000000;stroke-width:0.6;" x="370.121799" xlink:href="#m3af4ed6720" y="307.584"/>
      </g>
     </g>
    </g>
    <g id="xtick_73">
     <g id="line2d_73">
      <g>
       <use style="stroke:#000000;stroke-width:0.6;" x="377.267903" xlink:href="#m3af4ed6720" y="307.584"/>
      </g>
     </g>
    </g>
    <g id="xtick_74">
     <g id="line2d_74">
      <g>
       <use style="stroke:#000000;stroke-width:0.6;" x="382.338144" xlink:href="#m3af4ed6720" y="307.584"/>
      </g>
     </g>
    </g>
    <g id="xtick_75">
     <g id="line2d_75">
      <g>
       <use style="stroke:#000000;stroke-width:0.6;" x="386.270928" xlink:href="#m3af4ed6720" y="307.584"/>
      </g>
     </g>
    </g>
    <g id="xtick_76">
     <g id="line2d_76">
      <g>
       <use style="stroke:#000000;stroke-width:0.6;" x="389.484247" xlink:href="#m3af4ed6720" y="307.584"/>
      </g>
     </g>
    </g>
    <g id="xtick_77">
     <g id="line2d_77">
      <g>
       <use style="stroke:#000000;stroke-width:0.6;" x="392.20107" xlink:href="#m3af4ed6720" y="307.584"/>
      </g>
     </g>
    </g>
    <g id="xtick_78">
     <g id="line2d_78">
      <g>
       <use style="stroke:#000000;stroke-width:0.6;" x="394.554488" xlink:href="#m3af4ed6720" y="307.584"/>
      </g>
     </g>
    </g>
    <g id="xtick_79">
     <g id="line2d_79">
      <g>
       <use style="stroke:#000000;stroke-width:0.6;" x="396.630351" xlink:href="#m3af4ed6720" y="307.584"/>
      </g>
     </g>
    </g>
    <g id="xtick_80">
     <g id="line2d_80">
      <g>
       <use style="stroke:#000000;stroke-width:0.6;" x="410.703617" xlink:href="#m3af4ed6720" y="307.584"/>
      </g>
     </g>
    </g>
    <g id="text_10">
     <!-- $k \; [\mathrm{Mpc}^{-1}]$ -->
     <defs>
      <path d="M 18.3125 75.984375 
L 27.296875 75.984375 
L 18.703125 31.6875 
L 49.515625 54.6875 
L 61.1875 54.6875 
L 26.8125 28.515625 
L 51.90625 0 
L 41.015625 0 
L 17.671875 26.703125 
L 12.5 0 
L 3.515625 0 
z
" id="DejaVuSans-Oblique-6b"/>
      <path d="M 8.59375 75.984375 
L 29.296875 75.984375 
L 29.296875 69 
L 17.578125 69 
L 17.578125 -6.203125 
L 29.296875 -6.203125 
L 29.296875 -13.1875 
L 8.59375 -13.1875 
z
" id="DejaVuSans-5b"/>
      <path d="M 9.8125 72.90625 
L 24.515625 72.90625 
L 43.109375 23.296875 
L 61.8125 72.90625 
L 76.515625 72.90625 
L 76.515625 0 
L 66.890625 0 
L 66.890625 64.015625 
L 48.09375 14.015625 
L 38.1875 14.015625 
L 19.390625 64.015625 
L 19.390625 0 
L 9.8125 0 
z
" id="DejaVuSans-4d"/>
      <path d="M 18.109375 8.203125 
L 18.109375 -20.796875 
L 9.078125 -20.796875 
L 9.078125 54.6875 
L 18.109375 54.6875 
L 18.109375 46.390625 
Q 20.953125 51.265625 25.265625 53.625 
Q 29.59375 56 35.59375 56 
Q 45.5625 56 51.78125 48.09375 
Q 58.015625 40.1875 58.015625 27.296875 
Q 58.015625 14.40625 51.78125 6.484375 
Q 45.5625 -1.421875 35.59375 -1.421875 
Q 29.59375 -1.421875 25.265625 0.953125 
Q 20.953125 3.328125 18.109375 8.203125 
z
M 48.6875 27.296875 
Q 48.6875 37.203125 44.609375 42.84375 
Q 40.53125 48.484375 33.40625 48.484375 
Q 26.265625 48.484375 22.1875 42.84375 
Q 18.109375 37.203125 18.109375 27.296875 
Q 18.109375 17.390625 22.1875 11.75 
Q 26.265625 6.109375 33.40625 6.109375 
Q 40.53125 6.109375 44.609375 11.75 
Q 48.6875 17.390625 48.6875 27.296875 
z
" id="DejaVuSans-70"/>
      <path d="M 48.78125 52.59375 
L 48.78125 44.1875 
Q 44.96875 46.296875 41.140625 47.34375 
Q 37.3125 48.390625 33.40625 48.390625 
Q 24.65625 48.390625 19.8125 42.84375 
Q 14.984375 37.3125 14.984375 27.296875 
Q 14.984375 17.28125 19.8125 11.734375 
Q 24.65625 6.203125 33.40625 6.203125 
Q 37.3125 6.203125 41.140625 7.25 
Q 44.96875 8.296875 48.78125 10.40625 
L 48.78125 2.09375 
Q 45.015625 0.34375 40.984375 -0.53125 
Q 36.96875 -1.421875 32.421875 -1.421875 
Q 20.0625 -1.421875 12.78125 6.34375 
Q 5.515625 14.109375 5.515625 27.296875 
Q 5.515625 40.671875 12.859375 48.328125 
Q 20.21875 56 33.015625 56 
Q 37.15625 56 41.109375 55.140625 
Q 45.0625 54.296875 48.78125 52.59375 
z
" id="DejaVuSans-63"/>
      <path d="M 30.421875 75.984375 
L 30.421875 -13.1875 
L 9.71875 -13.1875 
L 9.71875 -6.203125 
L 21.390625 -6.203125 
L 21.390625 69 
L 9.71875 69 
L 9.71875 75.984375 
z
" id="DejaVuSans-5d"/>
     </defs>
     <g transform="translate(210.035 339.129937)scale(0.11 -0.11)">
      <use transform="translate(0 0.684375)" xlink:href="#DejaVuSans-Oblique-6b"/>
      <use transform="translate(84.969292 0.684375)" xlink:href="#DejaVuSans-5b"/>
      <use transform="translate(123.982964 0.684375)" xlink:href="#DejaVuSans-4d"/>
      <use transform="translate(210.262261 0.684375)" xlink:href="#DejaVuSans-70"/>
      <use transform="translate(273.738823 0.684375)" xlink:href="#DejaVuSans-63"/>
      <use transform="translate(329.676323 38.965625)scale(0.7)" xlink:href="#DejaVuSans-2212"/>
      <use transform="translate(388.328667 38.965625)scale(0.7)" xlink:href="#DejaVuSans-31"/>
      <use transform="translate(435.599175 0.684375)" xlink:href="#DejaVuSans-5d"/>
     </g>
    </g>
   </g>
   <g id="matplotlib.axis_2">
    <g id="ytick_1">
     <g id="line2d_81">
      <defs>
       <path d="M 0 0 
L -3.5 0 
" id="mb2a07a5fa2" style="stroke:#000000;stroke-width:0.8;"/>
      </defs>
      <g>
       <use style="stroke:#000000;stroke-width:0.8;" x="57.6" xlink:href="#mb2a07a5fa2" y="277.210399"/>
      </g>
     </g>
     <g id="text_11">
      <!-- $\mathdefault{10^{-13}}$ -->
      <g transform="translate(19.91 281.38954)scale(0.11 -0.11)">
       <use transform="translate(0 0.765625)" xlink:href="#DejaVuSans-31"/>
       <use transform="translate(63.623047 0.765625)" xlink:href="#DejaVuSans-30"/>
       <use transform="translate(128.203125 39.046875)scale(0.7)" xlink:href="#DejaVuSans-2212"/>
       <use transform="translate(186.855469 39.046875)scale(0.7)" xlink:href="#DejaVuSans-31"/>
       <use transform="translate(231.391602 39.046875)scale(0.7)" xlink:href="#DejaVuSans-33"/>
      </g>
     </g>
    </g>
    <g id="ytick_2">
     <g id="line2d_82">
      <g>
       <use style="stroke:#000000;stroke-width:0.8;" x="57.6" xlink:href="#mb2a07a5fa2" y="241.252841"/>
      </g>
     </g>
     <g id="text_12">
      <!-- $\mathdefault{10^{-10}}$ -->
      <g transform="translate(19.91 245.431981)scale(0.11 -0.11)">
       <use transform="translate(0 0.765625)" xlink:href="#DejaVuSans-31"/>
       <use transform="translate(63.623047 0.765625)" xlink:href="#DejaVuSans-30"/>
       <use transform="translate(128.203125 39.046875)scale(0.7)" xlink:href="#DejaVuSans-2212"/>
       <use transform="translate(186.855469 39.046875)scale(0.7)" xlink:href="#DejaVuSans-31"/>
       <use transform="translate(231.391602 39.046875)scale(0.7)" xlink:href="#DejaVuSans-30"/>
      </g>
     </g>
    </g>
    <g id="ytick_3">
     <g id="line2d_83">
      <g>
       <use style="stroke:#000000;stroke-width:0.8;" x="57.6" xlink:href="#mb2a07a5fa2" y="205.295282"/>
      </g>
     </g>
     <g id="text_13">
      <!-- $\mathdefault{10^{-7}}$ -->
      <defs>
       <path d="M 8.203125 72.90625 
L 55.078125 72.90625 
L 55.078125 68.703125 
L 28.609375 0 
L 18.3125 0 
L 43.21875 64.59375 
L 8.203125 64.59375 
z
" id="DejaVuSans-37"/>
      </defs>
      <g transform="translate(24.75 209.474423)scale(0.11 -0.11)">
       <use transform="translate(0 0.684375)" xlink:href="#DejaVuSans-31"/>
       <use transform="translate(63.623047 0.684375)" xlink:href="#DejaVuSans-30"/>
       <use transform="translate(128.203125 38.965625)scale(0.7)" xlink:href="#DejaVuSans-2212"/>
       <use transform="translate(186.855469 38.965625)scale(0.7)" xlink:href="#DejaVuSans-37"/>
      </g>
     </g>
    </g>
    <g id="ytick_4">
     <g id="line2d_84">
      <g>
       <use style="stroke:#000000;stroke-width:0.8;" x="57.6" xlink:href="#mb2a07a5fa2" y="169.337724"/>
      </g>
     </g>
     <g id="text_14">
      <!-- $\mathdefault{10^{-4}}$ -->
      <g transform="translate(24.75 173.516864)scale(0.11 -0.11)">
       <use transform="translate(0 0.684375)" xlink:href="#DejaVuSans-31"/>
       <use transform="translate(63.623047 0.684375)" xlink:href="#DejaVuSans-30"/>
       <use transform="translate(128.203125 38.965625)scale(0.7)" xlink:href="#DejaVuSans-2212"/>
       <use transform="translate(186.855469 38.965625)scale(0.7)" xlink:href="#DejaVuSans-34"/>
      </g>
     </g>
    </g>
    <g id="ytick_5">
     <g id="line2d_85">
      <g>
       <use style="stroke:#000000;stroke-width:0.8;" x="57.6" xlink:href="#mb2a07a5fa2" y="133.380165"/>
      </g>
     </g>
     <g id="text_15">
      <!-- $\mathdefault{10^{-1}}$ -->
      <g transform="translate(24.75 137.559306)scale(0.11 -0.11)">
       <use transform="translate(0 0.684375)" xlink:href="#DejaVuSans-31"/>
       <use transform="translate(63.623047 0.684375)" xlink:href="#DejaVuSans-30"/>
       <use transform="translate(128.203125 38.965625)scale(0.7)" xlink:href="#DejaVuSans-2212"/>
       <use transform="translate(186.855469 38.965625)scale(0.7)" xlink:href="#DejaVuSans-31"/>
      </g>
     </g>
    </g>
    <g id="ytick_6">
     <g id="line2d_86">
      <g>
       <use style="stroke:#000000;stroke-width:0.8;" x="57.6" xlink:href="#mb2a07a5fa2" y="97.422607"/>
      </g>
     </g>
     <g id="text_16">
      <!-- $\mathdefault{10^{2}}$ -->
      <g transform="translate(31.24 101.601748)scale(0.11 -0.11)">
       <use transform="translate(0 0.765625)" xlink:href="#DejaVuSans-31"/>
       <use transform="translate(63.623047 0.765625)" xlink:href="#DejaVuSans-30"/>
       <use transform="translate(128.203125 39.046875)scale(0.7)" xlink:href="#DejaVuSans-32"/>
      </g>
     </g>
    </g>
    <g id="ytick_7">
     <g id="line2d_87">
      <g>
       <use style="stroke:#000000;stroke-width:0.8;" x="57.6" xlink:href="#mb2a07a5fa2" y="61.465048"/>
      </g>
     </g>
     <g id="text_17">
      <!-- $\mathdefault{10^{5}}$ -->
      <g transform="translate(31.24 65.644189)scale(0.11 -0.11)">
       <use transform="translate(0 0.684375)" xlink:href="#DejaVuSans-31"/>
       <use transform="translate(63.623047 0.684375)" xlink:href="#DejaVuSans-30"/>
       <use transform="translate(128.203125 38.965625)scale(0.7)" xlink:href="#DejaVuSans-35"/>
      </g>
     </g>
    </g>
    <g id="text_18">
     <!-- $k^3 P(k, z)$ -->
     <defs>
      <path d="M 16.890625 72.90625 
L 39.703125 72.90625 
Q 49.65625 72.90625 54.875 68.265625 
Q 60.109375 63.625 60.109375 54.6875 
Q 60.109375 42.671875 52.390625 35.984375 
Q 44.671875 29.296875 30.71875 29.296875 
L 18.3125 29.296875 
L 12.59375 0 
L 2.6875 0 
z
M 25.203125 64.796875 
L 19.921875 37.40625 
L 32.328125 37.40625 
Q 40.71875 37.40625 45.203125 41.703125 
Q 49.703125 46 49.703125 54 
Q 49.703125 59.125 46.65625 61.953125 
Q 43.609375 64.796875 38.09375 64.796875 
z
" id="DejaVuSans-Oblique-50"/>
      <path d="M 31 75.875 
Q 24.46875 64.65625 21.28125 53.65625 
Q 18.109375 42.671875 18.109375 31.390625 
Q 18.109375 20.125 21.3125 9.0625 
Q 24.515625 -2 31 -13.1875 
L 23.1875 -13.1875 
Q 15.875 -1.703125 12.234375 9.375 
Q 8.59375 20.453125 8.59375 31.390625 
Q 8.59375 42.28125 12.203125 53.3125 
Q 15.828125 64.359375 23.1875 75.875 
z
" id="DejaVuSans-28"/>
      <path d="M 11.71875 12.40625 
L 22.015625 12.40625 
L 22.015625 4 
L 14.015625 -11.625 
L 7.71875 -11.625 
L 11.71875 4 
z
" id="DejaVuSans-2c"/>
      <path d="M 11.625 54.6875 
L 54.296875 54.6875 
L 52.6875 46.484375 
L 11.53125 7.171875 
L 45.515625 7.171875 
L 44.09375 0 
L -0.296875 0 
L 1.3125 8.203125 
L 42.484375 47.515625 
L 10.203125 47.515625 
z
" id="DejaVuSans-Oblique-7a"/>
      <path d="M 8.015625 75.875 
L 15.828125 75.875 
Q 23.140625 64.359375 26.78125 53.3125 
Q 30.421875 42.28125 30.421875 31.390625 
Q 30.421875 20.453125 26.78125 9.375 
Q 23.140625 -1.703125 15.828125 -13.1875 
L 8.015625 -13.1875 
Q 14.5 -2 17.703125 9.0625 
Q 20.90625 20.125 20.90625 31.390625 
Q 20.90625 42.671875 17.703125 53.65625 
Q 14.5 64.65625 8.015625 75.875 
z
" id="DejaVuSans-29"/>
     </defs>
     <g transform="translate(13.622344 197.243)rotate(-90)scale(0.11 -0.11)">
      <use transform="translate(0 0.765625)" xlink:href="#DejaVuSans-Oblique-6b"/>
      <use transform="translate(65.357865 39.046875)scale(0.7)" xlink:href="#DejaVuSans-33"/>
      <use transform="translate(112.628372 0.765625)" xlink:href="#DejaVuSans-Oblique-50"/>
      <use transform="translate(172.931107 0.765625)" xlink:href="#DejaVuSans-28"/>
      <use transform="translate(211.944779 0.765625)" xlink:href="#DejaVuSans-Oblique-6b"/>
      <use transform="translate(269.854935 0.765625)" xlink:href="#DejaVuSans-2c"/>
      <use transform="translate(321.124466 0.765625)" xlink:href="#DejaVuSans-Oblique-7a"/>
      <use transform="translate(373.614701 0.765625)" xlink:href="#DejaVuSans-29"/>
     </g>
    </g>
   </g>
   <g id="line2d_88">
    <path clip-path="url(#p2fe2da7ad9)" d="M 73.832727 272.943328 
L 153.697745 179.567813 
L 167.333236 163.979045 
L 176.748218 153.536176 
L 184.215273 145.572 
L 190.383709 139.311611 
L 195.415855 134.510176 
L 199.636364 130.774465 
L 203.369891 127.75753 
L 206.778764 125.281275 
L 210.349964 122.966536 
L 219.602618 117.15975 
L 223.498473 114.608423 
L 225.4464 113.62824 
L 227.556655 112.852191 
L 230.153891 111.888101 
L 231.777164 111.002829 
L 234.536727 109.415283 
L 235.835345 108.974971 
L 238.757236 108.152996 
L 242.328436 106.558853 
L 244.276364 106.077123 
L 247.522909 104.893766 
L 248.821527 104.529182 
L 251.094109 103.785705 
L 252.879709 103.268361 
L 255.152291 102.647557 
L 259.697455 101.452746 
L 266.839855 99.782255 
L 274.793891 98.159774 
L 283.559564 96.605433 
L 293.2992 95.108388 
L 304.175127 93.663753 
L 316.512 92.253853 
L 332.257745 90.698838 
L 348.165818 89.370178 
L 366.5088 88.066319 
L 387.611345 86.794208 
L 398.487273 86.214058 
L 398.487273 86.214058 
" style="fill:none;stroke:#1f77b4;stroke-linecap:square;stroke-width:1.5;"/>
   </g>
   <g id="line2d_89">
    <path clip-path="url(#p2fe2da7ad9)" d="M 73.832727 272.943382 
L 153.373091 179.948003 
L 167.008582 164.355686 
L 176.423564 153.907993 
L 183.890618 145.938104 
L 190.059055 139.67066 
L 195.0912 134.860365 
L 199.311709 131.113477 
L 203.045236 128.082966 
L 206.454109 125.592097 
L 210.025309 123.265025 
L 219.764945 117.145576 
L 223.498473 114.678933 
L 225.4464 113.666764 
L 227.718982 112.772549 
L 229.991564 111.841661 
L 231.614836 110.911577 
L 234.861382 108.929235 
L 236.322327 108.37843 
L 238.270255 107.652759 
L 239.7312 106.799312 
L 241.5168 105.748646 
L 245.899636 103.605607 
L 247.685236 102.729263 
L 249.308509 101.854031 
L 253.366691 99.590386 
L 260.346764 95.483862 
L 274.144582 87.244362 
L 279.176727 84.551655 
L 283.721891 82.370978 
L 288.267055 80.436854 
L 293.136873 78.607258 
L 298.656 76.777606 
L 305.149091 74.868802 
L 313.265455 72.726164 
L 324.466036 70.017774 
L 342.484364 65.918364 
L 385.988073 56.314496 
L 398.487273 53.568 
L 398.487273 53.568 
" style="fill:none;stroke:#ff7f0e;stroke-linecap:square;stroke-width:1.5;"/>
   </g>
   <g id="line2d_90">
    <path clip-path="url(#p2fe2da7ad9)" d="M 73.832727 289.167706 
L 155.321018 193.891656 
L 168.3072 179.074417 
L 177.559855 168.84188 
L 184.864582 161.081489 
L 190.870691 155.013905 
L 195.902836 150.240863 
L 200.123345 146.537092 
L 203.856873 143.555989 
L 207.265745 141.116089 
L 210.999273 138.732871 
L 218.628655 133.983744 
L 223.823127 130.579829 
L 225.608727 129.712533 
L 227.718982 128.951514 
L 230.153891 128.039661 
L 231.777164 127.15393 
L 234.536727 125.565734 
L 235.835345 125.125163 
L 238.757236 124.302709 
L 242.328436 122.708131 
L 244.276364 122.226221 
L 247.522909 121.042628 
L 248.821527 120.677969 
L 251.094109 119.934384 
L 252.879709 119.416974 
L 255.152291 118.79609 
L 259.697455 117.601182 
L 266.839855 115.930614 
L 274.793891 114.308084 
L 283.559564 112.753706 
L 293.2992 111.256589 
L 304.337455 109.791684 
L 316.674327 108.383538 
L 332.420073 106.830896 
L 348.490473 105.4919 
L 366.833455 104.191801 
L 388.098327 102.913967 
L 398.487273 102.360792 
L 398.487273 102.360792 
" style="fill:none;stroke:#2ca02c;stroke-linecap:square;stroke-width:1.5;"/>
   </g>
   <g id="line2d_91">
    <path clip-path="url(#p2fe2da7ad9)" d="M 73.832727 289.167707 
L 155.158691 194.079167 
L 168.144873 179.257199 
L 177.397527 169.018493 
L 184.702255 161.25058 
L 190.708364 155.173945 
L 195.740509 150.390095 
L 199.961018 146.673971 
L 203.694545 143.67903 
L 207.103418 141.225108 
L 210.674618 138.928258 
L 218.953309 133.752049 
L 223.6608 130.649016 
L 225.4464 129.755415 
L 227.556655 128.973254 
L 230.153891 128.000051 
L 231.777164 127.105722 
L 234.536727 125.497977 
L 235.835345 125.049666 
L 238.757236 124.208214 
L 242.328436 122.573569 
L 244.276364 122.070553 
L 247.522909 120.836229 
L 248.821527 120.449372 
L 251.094109 119.659148 
L 252.879709 119.100398 
L 255.314618 118.367609 
L 260.022109 116.974822 
L 282.5856 110.252934 
L 288.429382 108.151351 
L 294.110836 105.871336 
L 300.4416 103.083706 
L 310.830545 98.215015 
L 319.271564 94.368974 
L 325.115345 91.950399 
L 330.309818 90.035256 
L 335.504291 88.355631 
L 341.023418 86.811189 
L 347.029527 85.368695 
L 353.847273 83.965744 
L 362.612945 82.404058 
L 375.274473 80.395884 
L 398.487273 76.969273 
L 398.487273 76.969273 
" style="fill:none;stroke:#d62728;stroke-linecap:square;stroke-width:1.5;"/>
   </g>
   <g id="line2d_92">
    <path clip-path="url(#p2fe2da7ad9)" d="M 73.832727 295.488 
L 156.457309 198.879879 
L 168.794182 184.814885 
L 177.884509 174.773221 
L 185.189236 167.025507 
L 191.195345 160.973794 
L 196.065164 156.368968 
L 200.285673 152.676085 
L 204.0192 149.706941 
L 207.428073 147.279097 
L 211.1616 144.905841 
L 218.466327 140.364051 
L 223.823127 136.84941 
L 225.608727 135.981978 
L 227.718982 135.220824 
L 230.153891 134.308849 
L 231.777164 133.423057 
L 234.536727 131.834776 
L 235.835345 131.394169 
L 238.757236 130.571653 
L 242.328436 128.977026 
L 244.276364 128.495092 
L 247.522909 127.311476 
L 248.821527 126.946808 
L 251.094109 126.203212 
L 252.879709 125.685795 
L 255.152291 125.064904 
L 259.697455 123.869985 
L 266.839855 122.199407 
L 274.793891 120.576874 
L 283.559564 119.022492 
L 293.2992 117.525366 
L 304.337455 116.060431 
L 316.674327 114.652159 
L 332.420073 113.099504 
L 348.490473 111.760508 
L 366.833455 110.460409 
L 388.098327 109.182575 
L 398.487273 108.6294 
L 398.487273 108.6294 
" style="fill:none;stroke:#9467bd;stroke-linecap:square;stroke-width:1.5;"/>
   </g>
   <g id="line2d_93">
    <path clip-path="url(#p2fe2da7ad9)" d="M 73.832727 295.488 
L 156.457309 198.87989 
L 168.794182 184.814904 
L 177.884509 174.773242 
L 185.189236 167.025497 
L 191.195345 160.973666 
L 196.065164 156.368573 
L 200.285673 152.675208 
L 204.0192 149.705321 
L 207.428073 147.276457 
L 211.1616 144.90161 
L 218.466327 140.353724 
L 223.823127 136.82891 
L 225.608727 135.957724 
L 227.718982 135.192732 
L 229.991564 134.35031 
L 231.614836 133.48243 
L 234.699055 131.711002 
L 235.997673 131.295117 
L 238.594909 130.576823 
L 240.055855 129.79792 
L 241.354473 129.15923 
L 242.490764 128.849666 
L 244.276364 128.391714 
L 247.522909 127.181263 
L 248.821527 126.806928 
L 251.094109 126.041319 
L 252.879709 125.506435 
L 255.152291 124.861891 
L 259.859782 123.568918 
L 266.839855 121.834479 
L 275.4432 119.925148 
L 285.832145 117.860792 
L 310.181236 113.13596 
L 316.187345 111.664407 
L 321.219491 110.208248 
L 326.251636 108.518156 
L 331.283782 106.592462 
L 337.127564 104.105246 
L 345.893236 100.093144 
L 355.145891 95.927318 
L 360.989673 93.545169 
L 366.184145 91.669027 
L 371.216291 90.087649 
L 376.410764 88.686 
L 382.254545 87.343142 
L 389.234618 85.974384 
L 398.162618 84.45976 
L 398.487273 84.408179 
L 398.487273 84.408179 
" style="fill:none;stroke:#8c564b;stroke-linecap:square;stroke-width:1.5;"/>
   </g>
   <g id="patch_3">
    <path d="M 57.6 307.584 
L 57.6 41.472 
" style="fill:none;stroke:#000000;stroke-linecap:square;stroke-linejoin:miter;stroke-width:0.8;"/>
   </g>
   <g id="patch_4">
    <path d="M 414.72 307.584 
L 414.72 41.472 
" style="fill:none;stroke:#000000;stroke-linecap:square;stroke-linejoin:miter;stroke-width:0.8;"/>
   </g>
   <g id="patch_5">
    <path d="M 57.6 307.584 
L 414.72 307.584 
" style="fill:none;stroke:#000000;stroke-linecap:square;stroke-linejoin:miter;stroke-width:0.8;"/>
   </g>
   <g id="patch_6">
    <path d="M 57.6 41.472 
L 414.72 41.472 
" style="fill:none;stroke:#000000;stroke-linecap:square;stroke-linejoin:miter;stroke-width:0.8;"/>
   </g>
   <g id="text_19">
    <!-- Linear and nonlinear matter power spectrum -->
    <defs>
     <path d="M 9.8125 72.90625 
L 19.671875 72.90625 
L 19.671875 8.296875 
L 55.171875 8.296875 
L 55.171875 0 
L 9.8125 0 
z
" id="DejaVuSans-4c"/>
     <path d="M 9.421875 54.6875 
L 18.40625 54.6875 
L 18.40625 0 
L 9.421875 0 
z
M 9.421875 75.984375 
L 18.40625 75.984375 
L 18.40625 64.59375 
L 9.421875 64.59375 
z
" id="DejaVuSans-69"/>
     <path d="M 54.890625 33.015625 
L 54.890625 0 
L 45.90625 0 
L 45.90625 32.71875 
Q 45.90625 40.484375 42.875 44.328125 
Q 39.84375 48.1875 33.796875 48.1875 
Q 26.515625 48.1875 22.3125 43.546875 
Q 18.109375 38.921875 18.109375 30.90625 
L 18.109375 0 
L 9.078125 0 
L 9.078125 54.6875 
L 18.109375 54.6875 
L 18.109375 46.1875 
Q 21.34375 51.125 25.703125 53.5625 
Q 30.078125 56 35.796875 56 
Q 45.21875 56 50.046875 50.171875 
Q 54.890625 44.34375 54.890625 33.015625 
z
" id="DejaVuSans-6e"/>
     <path d="M 56.203125 29.59375 
L 56.203125 25.203125 
L 14.890625 25.203125 
Q 15.484375 15.921875 20.484375 11.0625 
Q 25.484375 6.203125 34.421875 6.203125 
Q 39.59375 6.203125 44.453125 7.46875 
Q 49.3125 8.734375 54.109375 11.28125 
L 54.109375 2.78125 
Q 49.265625 0.734375 44.1875 -0.34375 
Q 39.109375 -1.421875 33.890625 -1.421875 
Q 20.796875 -1.421875 13.15625 6.1875 
Q 5.515625 13.8125 5.515625 26.8125 
Q 5.515625 40.234375 12.765625 48.109375 
Q 20.015625 56 32.328125 56 
Q 43.359375 56 49.78125 48.890625 
Q 56.203125 41.796875 56.203125 29.59375 
z
M 47.21875 32.234375 
Q 47.125 39.59375 43.09375 43.984375 
Q 39.0625 48.390625 32.421875 48.390625 
Q 24.90625 48.390625 20.390625 44.140625 
Q 15.875 39.890625 15.1875 32.171875 
z
" id="DejaVuSans-65"/>
     <path d="M 34.28125 27.484375 
Q 23.390625 27.484375 19.1875 25 
Q 14.984375 22.515625 14.984375 16.5 
Q 14.984375 11.71875 18.140625 8.90625 
Q 21.296875 6.109375 26.703125 6.109375 
Q 34.1875 6.109375 38.703125 11.40625 
Q 43.21875 16.703125 43.21875 25.484375 
L 43.21875 27.484375 
z
M 52.203125 31.203125 
L 52.203125 0 
L 43.21875 0 
L 43.21875 8.296875 
Q 40.140625 3.328125 35.546875 0.953125 
Q 30.953125 -1.421875 24.3125 -1.421875 
Q 15.921875 -1.421875 10.953125 3.296875 
Q 6 8.015625 6 15.921875 
Q 6 25.140625 12.171875 29.828125 
Q 18.359375 34.515625 30.609375 34.515625 
L 43.21875 34.515625 
L 43.21875 35.40625 
Q 43.21875 41.609375 39.140625 45 
Q 35.0625 48.390625 27.6875 48.390625 
Q 23 48.390625 18.546875 47.265625 
Q 14.109375 46.140625 10.015625 43.890625 
L 10.015625 52.203125 
Q 14.9375 54.109375 19.578125 55.046875 
Q 24.21875 56 28.609375 56 
Q 40.484375 56 46.34375 49.84375 
Q 52.203125 43.703125 52.203125 31.203125 
z
" id="DejaVuSans-61"/>
     <path d="M 41.109375 46.296875 
Q 39.59375 47.171875 37.8125 47.578125 
Q 36.03125 48 33.890625 48 
Q 26.265625 48 22.1875 43.046875 
Q 18.109375 38.09375 18.109375 28.8125 
L 18.109375 0 
L 9.078125 0 
L 9.078125 54.6875 
L 18.109375 54.6875 
L 18.109375 46.1875 
Q 20.953125 51.171875 25.484375 53.578125 
Q 30.03125 56 36.53125 56 
Q 37.453125 56 38.578125 55.875 
Q 39.703125 55.765625 41.0625 55.515625 
z
" id="DejaVuSans-72"/>
     <path id="DejaVuSans-20"/>
     <path d="M 45.40625 46.390625 
L 45.40625 75.984375 
L 54.390625 75.984375 
L 54.390625 0 
L 45.40625 0 
L 45.40625 8.203125 
Q 42.578125 3.328125 38.25 0.953125 
Q 33.9375 -1.421875 27.875 -1.421875 
Q 17.96875 -1.421875 11.734375 6.484375 
Q 5.515625 14.40625 5.515625 27.296875 
Q 5.515625 40.1875 11.734375 48.09375 
Q 17.96875 56 27.875 56 
Q 33.9375 56 38.25 53.625 
Q 42.578125 51.265625 45.40625 46.390625 
z
M 14.796875 27.296875 
Q 14.796875 17.390625 18.875 11.75 
Q 22.953125 6.109375 30.078125 6.109375 
Q 37.203125 6.109375 41.296875 11.75 
Q 45.40625 17.390625 45.40625 27.296875 
Q 45.40625 37.203125 41.296875 42.84375 
Q 37.203125 48.484375 30.078125 48.484375 
Q 22.953125 48.484375 18.875 42.84375 
Q 14.796875 37.203125 14.796875 27.296875 
z
" id="DejaVuSans-64"/>
     <path d="M 30.609375 48.390625 
Q 23.390625 48.390625 19.1875 42.75 
Q 14.984375 37.109375 14.984375 27.296875 
Q 14.984375 17.484375 19.15625 11.84375 
Q 23.34375 6.203125 30.609375 6.203125 
Q 37.796875 6.203125 41.984375 11.859375 
Q 46.1875 17.53125 46.1875 27.296875 
Q 46.1875 37.015625 41.984375 42.703125 
Q 37.796875 48.390625 30.609375 48.390625 
z
M 30.609375 56 
Q 42.328125 56 49.015625 48.375 
Q 55.71875 40.765625 55.71875 27.296875 
Q 55.71875 13.875 49.015625 6.21875 
Q 42.328125 -1.421875 30.609375 -1.421875 
Q 18.84375 -1.421875 12.171875 6.21875 
Q 5.515625 13.875 5.515625 27.296875 
Q 5.515625 40.765625 12.171875 48.375 
Q 18.84375 56 30.609375 56 
z
" id="DejaVuSans-6f"/>
     <path d="M 9.421875 75.984375 
L 18.40625 75.984375 
L 18.40625 0 
L 9.421875 0 
z
" id="DejaVuSans-6c"/>
     <path d="M 52 44.1875 
Q 55.375 50.25 60.0625 53.125 
Q 64.75 56 71.09375 56 
Q 79.640625 56 84.28125 50.015625 
Q 88.921875 44.046875 88.921875 33.015625 
L 88.921875 0 
L 79.890625 0 
L 79.890625 32.71875 
Q 79.890625 40.578125 77.09375 44.375 
Q 74.3125 48.1875 68.609375 48.1875 
Q 61.625 48.1875 57.5625 43.546875 
Q 53.515625 38.921875 53.515625 30.90625 
L 53.515625 0 
L 44.484375 0 
L 44.484375 32.71875 
Q 44.484375 40.625 41.703125 44.40625 
Q 38.921875 48.1875 33.109375 48.1875 
Q 26.21875 48.1875 22.15625 43.53125 
Q 18.109375 38.875 18.109375 30.90625 
L 18.109375 0 
L 9.078125 0 
L 9.078125 54.6875 
L 18.109375 54.6875 
L 18.109375 46.1875 
Q 21.1875 51.21875 25.484375 53.609375 
Q 29.78125 56 35.6875 56 
Q 41.65625 56 45.828125 52.96875 
Q 50 49.953125 52 44.1875 
z
" id="DejaVuSans-6d"/>
     <path d="M 18.3125 70.21875 
L 18.3125 54.6875 
L 36.8125 54.6875 
L 36.8125 47.703125 
L 18.3125 47.703125 
L 18.3125 18.015625 
Q 18.3125 11.328125 20.140625 9.421875 
Q 21.96875 7.515625 27.59375 7.515625 
L 36.8125 7.515625 
L 36.8125 0 
L 27.59375 0 
Q 17.1875 0 13.234375 3.875 
Q 9.28125 7.765625 9.28125 18.015625 
L 9.28125 47.703125 
L 2.6875 47.703125 
L 2.6875 54.6875 
L 9.28125 54.6875 
L 9.28125 70.21875 
z
" id="DejaVuSans-74"/>
     <path d="M 4.203125 54.6875 
L 13.1875 54.6875 
L 24.421875 12.015625 
L 35.59375 54.6875 
L 46.1875 54.6875 
L 57.421875 12.015625 
L 68.609375 54.6875 
L 77.59375 54.6875 
L 63.28125 0 
L 52.6875 0 
L 40.921875 44.828125 
L 29.109375 0 
L 18.5 0 
z
" id="DejaVuSans-77"/>
     <path d="M 44.28125 53.078125 
L 44.28125 44.578125 
Q 40.484375 46.53125 36.375 47.5 
Q 32.28125 48.484375 27.875 48.484375 
Q 21.1875 48.484375 17.84375 46.4375 
Q 14.5 44.390625 14.5 40.28125 
Q 14.5 37.15625 16.890625 35.375 
Q 19.28125 33.59375 26.515625 31.984375 
L 29.59375 31.296875 
Q 39.15625 29.25 43.1875 25.515625 
Q 47.21875 21.78125 47.21875 15.09375 
Q 47.21875 7.46875 41.1875 3.015625 
Q 35.15625 -1.421875 24.609375 -1.421875 
Q 20.21875 -1.421875 15.453125 -0.5625 
Q 10.6875 0.296875 5.421875 2 
L 5.421875 11.28125 
Q 10.40625 8.6875 15.234375 7.390625 
Q 20.0625 6.109375 24.8125 6.109375 
Q 31.15625 6.109375 34.5625 8.28125 
Q 37.984375 10.453125 37.984375 14.40625 
Q 37.984375 18.0625 35.515625 20.015625 
Q 33.0625 21.96875 24.703125 23.78125 
L 21.578125 24.515625 
Q 13.234375 26.265625 9.515625 29.90625 
Q 5.8125 33.546875 5.8125 39.890625 
Q 5.8125 47.609375 11.28125 51.796875 
Q 16.75 56 26.8125 56 
Q 31.78125 56 36.171875 55.265625 
Q 40.578125 54.546875 44.28125 53.078125 
z
" id="DejaVuSans-73"/>
     <path d="M 8.5 21.578125 
L 8.5 54.6875 
L 17.484375 54.6875 
L 17.484375 21.921875 
Q 17.484375 14.15625 20.5 10.265625 
Q 23.53125 6.390625 29.59375 6.390625 
Q 36.859375 6.390625 41.078125 11.03125 
Q 45.3125 15.671875 45.3125 23.6875 
L 45.3125 54.6875 
L 54.296875 54.6875 
L 54.296875 0 
L 45.3125 0 
L 45.3125 8.40625 
Q 42.046875 3.421875 37.71875 1 
Q 33.40625 -1.421875 27.6875 -1.421875 
Q 18.265625 -1.421875 13.375 4.4375 
Q 8.5 10.296875 8.5 21.578125 
z
M 31.109375 56 
z
" id="DejaVuSans-75"/>
    </defs>
    <g transform="translate(87.616687 35.472)scale(0.132 -0.132)">
     <use xlink:href="#DejaVuSans-4c"/>
     <use x="55.712891" xlink:href="#DejaVuSans-69"/>
     <use x="83.496094" xlink:href="#DejaVuSans-6e"/>
     <use x="146.875" xlink:href="#DejaVuSans-65"/>
     <use x="208.398438" xlink:href="#DejaVuSans-61"/>
     <use x="269.677734" xlink:href="#DejaVuSans-72"/>
     <use x="310.791016" xlink:href="#DejaVuSans-20"/>
     <use x="342.578125" xlink:href="#DejaVuSans-61"/>
     <use x="403.857422" xlink:href="#DejaVuSans-6e"/>
     <use x="467.236328" xlink:href="#DejaVuSans-64"/>
     <use x="530.712891" xlink:href="#DejaVuSans-20"/>
     <use x="562.5" xlink:href="#DejaVuSans-6e"/>
     <use x="625.878906" xlink:href="#DejaVuSans-6f"/>
     <use x="687.060547" xlink:href="#DejaVuSans-6e"/>
     <use x="750.439453" xlink:href="#DejaVuSans-6c"/>
     <use x="778.222656" xlink:href="#DejaVuSans-69"/>
     <use x="806.005859" xlink:href="#DejaVuSans-6e"/>
     <use x="869.384766" xlink:href="#DejaVuSans-65"/>
     <use x="930.908203" xlink:href="#DejaVuSans-61"/>
     <use x="992.1875" xlink:href="#DejaVuSans-72"/>
     <use x="1033.300781" xlink:href="#DejaVuSans-20"/>
     <use x="1065.087891" xlink:href="#DejaVuSans-6d"/>
     <use x="1162.5" xlink:href="#DejaVuSans-61"/>
     <use x="1223.779297" xlink:href="#DejaVuSans-74"/>
     <use x="1262.988281" xlink:href="#DejaVuSans-74"/>
     <use x="1302.197266" xlink:href="#DejaVuSans-65"/>
     <use x="1363.720703" xlink:href="#DejaVuSans-72"/>
     <use x="1404.833984" xlink:href="#DejaVuSans-20"/>
     <use x="1436.621094" xlink:href="#DejaVuSans-70"/>
     <use x="1500.097656" xlink:href="#DejaVuSans-6f"/>
     <use x="1561.279297" xlink:href="#DejaVuSans-77"/>
     <use x="1643.066406" xlink:href="#DejaVuSans-65"/>
     <use x="1704.589844" xlink:href="#DejaVuSans-72"/>
     <use x="1745.703125" xlink:href="#DejaVuSans-20"/>
     <use x="1777.490234" xlink:href="#DejaVuSans-73"/>
     <use x="1829.589844" xlink:href="#DejaVuSans-70"/>
     <use x="1893.066406" xlink:href="#DejaVuSans-65"/>
     <use x="1954.589844" xlink:href="#DejaVuSans-63"/>
     <use x="2009.570312" xlink:href="#DejaVuSans-74"/>
     <use x="2048.779297" xlink:href="#DejaVuSans-72"/>
     <use x="2089.892578" xlink:href="#DejaVuSans-75"/>
     <use x="2153.271484" xlink:href="#DejaVuSans-6d"/>
    </g>
   </g>
   <g id="legend_1">
    <g id="patch_7">
     <path d="M 234.54 302.084 
L 407.02 302.084 
Q 409.22 302.084 409.22 299.884 
L 409.22 204.108375 
Q 409.22 201.908375 407.02 201.908375 
L 234.54 201.908375 
Q 232.34 201.908375 232.34 204.108375 
L 232.34 299.884 
Q 232.34 302.084 234.54 302.084 
z
" style="fill:#ffffff;opacity:0.8;stroke:#cccccc;stroke-linejoin:miter;"/>
    </g>
    <g id="line2d_94">
     <path d="M 236.74 210.816656 
L 258.74 210.816656 
" style="fill:none;stroke:#1f77b4;stroke-linecap:square;stroke-width:1.5;"/>
    </g>
    <g id="line2d_95"/>
    <g id="text_20">
     <!-- CLASS $z = 0.00$ -->
     <defs>
      <path d="M 64.40625 67.28125 
L 64.40625 56.890625 
Q 59.421875 61.53125 53.78125 63.8125 
Q 48.140625 66.109375 41.796875 66.109375 
Q 29.296875 66.109375 22.65625 58.46875 
Q 16.015625 50.828125 16.015625 36.375 
Q 16.015625 21.96875 22.65625 14.328125 
Q 29.296875 6.6875 41.796875 6.6875 
Q 48.140625 6.6875 53.78125 8.984375 
Q 59.421875 11.28125 64.40625 15.921875 
L 64.40625 5.609375 
Q 59.234375 2.09375 53.4375 0.328125 
Q 47.65625 -1.421875 41.21875 -1.421875 
Q 24.65625 -1.421875 15.125 8.703125 
Q 5.609375 18.84375 5.609375 36.375 
Q 5.609375 53.953125 15.125 64.078125 
Q 24.65625 74.21875 41.21875 74.21875 
Q 47.75 74.21875 53.53125 72.484375 
Q 59.328125 70.75 64.40625 67.28125 
z
" id="DejaVuSans-43"/>
      <path d="M 34.1875 63.1875 
L 20.796875 26.90625 
L 47.609375 26.90625 
z
M 28.609375 72.90625 
L 39.796875 72.90625 
L 67.578125 0 
L 57.328125 0 
L 50.6875 18.703125 
L 17.828125 18.703125 
L 11.1875 0 
L 0.78125 0 
z
" id="DejaVuSans-41"/>
      <path d="M 53.515625 70.515625 
L 53.515625 60.890625 
Q 47.90625 63.578125 42.921875 64.890625 
Q 37.9375 66.21875 33.296875 66.21875 
Q 25.25 66.21875 20.875 63.09375 
Q 16.5 59.96875 16.5 54.203125 
Q 16.5 49.359375 19.40625 46.890625 
Q 22.3125 44.4375 30.421875 42.921875 
L 36.375 41.703125 
Q 47.40625 39.59375 52.65625 34.296875 
Q 57.90625 29 57.90625 20.125 
Q 57.90625 9.515625 50.796875 4.046875 
Q 43.703125 -1.421875 29.984375 -1.421875 
Q 24.8125 -1.421875 18.96875 -0.25 
Q 13.140625 0.921875 6.890625 3.21875 
L 6.890625 13.375 
Q 12.890625 10.015625 18.65625 8.296875 
Q 24.421875 6.59375 29.984375 6.59375 
Q 38.421875 6.59375 43.015625 9.90625 
Q 47.609375 13.234375 47.609375 19.390625 
Q 47.609375 24.75 44.3125 27.78125 
Q 41.015625 30.8125 33.5 32.328125 
L 27.484375 33.5 
Q 16.453125 35.6875 11.515625 40.375 
Q 6.59375 45.0625 6.59375 53.421875 
Q 6.59375 63.09375 13.40625 68.65625 
Q 20.21875 74.21875 32.171875 74.21875 
Q 37.3125 74.21875 42.625 73.28125 
Q 47.953125 72.359375 53.515625 70.515625 
z
" id="DejaVuSans-53"/>
      <path d="M 10.59375 45.40625 
L 73.1875 45.40625 
L 73.1875 37.203125 
L 10.59375 37.203125 
z
M 10.59375 25.484375 
L 73.1875 25.484375 
L 73.1875 17.1875 
L 10.59375 17.1875 
z
" id="DejaVuSans-3d"/>
      <path d="M 10.6875 12.40625 
L 21 12.40625 
L 21 0 
L 10.6875 0 
z
" id="DejaVuSans-2e"/>
     </defs>
     <g transform="translate(267.54 214.666656)scale(0.11 -0.11)">
      <use transform="translate(0 0.78125)" xlink:href="#DejaVuSans-43"/>
      <use transform="translate(69.824219 0.78125)" xlink:href="#DejaVuSans-4c"/>
      <use transform="translate(125.537109 0.78125)" xlink:href="#DejaVuSans-41"/>
      <use transform="translate(193.945312 0.78125)" xlink:href="#DejaVuSans-53"/>
      <use transform="translate(257.421875 0.78125)" xlink:href="#DejaVuSans-53"/>
      <use transform="translate(320.898438 0.78125)" xlink:href="#DejaVuSans-20"/>
      <use transform="translate(352.685547 0.78125)" xlink:href="#DejaVuSans-Oblique-7a"/>
      <use transform="translate(424.658203 0.78125)" xlink:href="#DejaVuSans-3d"/>
      <use transform="translate(527.929688 0.78125)" xlink:href="#DejaVuSans-30"/>
      <use transform="translate(591.552734 0.78125)" xlink:href="#DejaVuSans-2e"/>
      <use transform="translate(623.339844 0.78125)" xlink:href="#DejaVuSans-30"/>
      <use transform="translate(686.962891 0.78125)" xlink:href="#DejaVuSans-30"/>
     </g>
    </g>
    <g id="line2d_96">
     <path d="M 236.74 226.962594 
L 258.74 226.962594 
" style="fill:none;stroke:#ff7f0e;stroke-linecap:square;stroke-width:1.5;"/>
    </g>
    <g id="line2d_97"/>
    <g id="text_21">
     <!-- CLASS+HaloFit $z = 0.00$ -->
     <defs>
      <path d="M 46 62.703125 
L 46 35.5 
L 73.1875 35.5 
L 73.1875 27.203125 
L 46 27.203125 
L 46 0 
L 37.796875 0 
L 37.796875 27.203125 
L 10.59375 27.203125 
L 10.59375 35.5 
L 37.796875 35.5 
L 37.796875 62.703125 
z
" id="DejaVuSans-2b"/>
      <path d="M 9.8125 72.90625 
L 19.671875 72.90625 
L 19.671875 43.015625 
L 55.515625 43.015625 
L 55.515625 72.90625 
L 65.375 72.90625 
L 65.375 0 
L 55.515625 0 
L 55.515625 34.71875 
L 19.671875 34.71875 
L 19.671875 0 
L 9.8125 0 
z
" id="DejaVuSans-48"/>
      <path d="M 9.8125 72.90625 
L 51.703125 72.90625 
L 51.703125 64.59375 
L 19.671875 64.59375 
L 19.671875 43.109375 
L 48.578125 43.109375 
L 48.578125 34.8125 
L 19.671875 34.8125 
L 19.671875 0 
L 9.8125 0 
z
" id="DejaVuSans-46"/>
     </defs>
     <g transform="translate(267.54 230.812594)scale(0.11 -0.11)">
      <use transform="translate(0 0.015625)" xlink:href="#DejaVuSans-43"/>
      <use transform="translate(69.824219 0.015625)" xlink:href="#DejaVuSans-4c"/>
      <use transform="translate(125.537109 0.015625)" xlink:href="#DejaVuSans-41"/>
      <use transform="translate(193.945312 0.015625)" xlink:href="#DejaVuSans-53"/>
      <use transform="translate(257.421875 0.015625)" xlink:href="#DejaVuSans-53"/>
      <use transform="translate(320.898438 0.015625)" xlink:href="#DejaVuSans-2b"/>
      <use transform="translate(404.6875 0.015625)" xlink:href="#DejaVuSans-48"/>
      <use transform="translate(479.882812 0.015625)" xlink:href="#DejaVuSans-61"/>
      <use transform="translate(541.162109 0.015625)" xlink:href="#DejaVuSans-6c"/>
      <use transform="translate(568.945312 0.015625)" xlink:href="#DejaVuSans-6f"/>
      <use transform="translate(630.126953 0.015625)" xlink:href="#DejaVuSans-46"/>
      <use transform="translate(687.646484 0.015625)" xlink:href="#DejaVuSans-69"/>
      <use transform="translate(715.429688 0.015625)" xlink:href="#DejaVuSans-74"/>
      <use transform="translate(754.638672 0.015625)" xlink:href="#DejaVuSans-20"/>
      <use transform="translate(786.425781 0.015625)" xlink:href="#DejaVuSans-Oblique-7a"/>
      <use transform="translate(858.398438 0.015625)" xlink:href="#DejaVuSans-3d"/>
      <use transform="translate(961.669922 0.015625)" xlink:href="#DejaVuSans-30"/>
      <use transform="translate(1025.292969 0.015625)" xlink:href="#DejaVuSans-2e"/>
      <use transform="translate(1057.080078 0.015625)" xlink:href="#DejaVuSans-30"/>
      <use transform="translate(1120.703125 0.015625)" xlink:href="#DejaVuSans-30"/>
     </g>
    </g>
    <g id="line2d_98">
     <path d="M 236.74 243.108531 
L 258.74 243.108531 
" style="fill:none;stroke:#2ca02c;stroke-linecap:square;stroke-width:1.5;"/>
    </g>
    <g id="line2d_99"/>
    <g id="text_22">
     <!-- CLASS $z = 5.00$ -->
     <g transform="translate(267.54 246.958531)scale(0.11 -0.11)">
      <use transform="translate(0 0.78125)" xlink:href="#DejaVuSans-43"/>
      <use transform="translate(69.824219 0.78125)" xlink:href="#DejaVuSans-4c"/>
      <use transform="translate(125.537109 0.78125)" xlink:href="#DejaVuSans-41"/>
      <use transform="translate(193.945312 0.78125)" xlink:href="#DejaVuSans-53"/>
      <use transform="translate(257.421875 0.78125)" xlink:href="#DejaVuSans-53"/>
      <use transform="translate(320.898438 0.78125)" xlink:href="#DejaVuSans-20"/>
      <use transform="translate(352.685547 0.78125)" xlink:href="#DejaVuSans-Oblique-7a"/>
      <use transform="translate(424.658203 0.78125)" xlink:href="#DejaVuSans-3d"/>
      <use transform="translate(527.929688 0.78125)" xlink:href="#DejaVuSans-35"/>
      <use transform="translate(591.552734 0.78125)" xlink:href="#DejaVuSans-2e"/>
      <use transform="translate(623.339844 0.78125)" xlink:href="#DejaVuSans-30"/>
      <use transform="translate(686.962891 0.78125)" xlink:href="#DejaVuSans-30"/>
     </g>
    </g>
    <g id="line2d_100">
     <path d="M 236.74 259.254469 
L 258.74 259.254469 
" style="fill:none;stroke:#d62728;stroke-linecap:square;stroke-width:1.5;"/>
    </g>
    <g id="line2d_101"/>
    <g id="text_23">
     <!-- CLASS+HaloFit $z = 5.00$ -->
     <g transform="translate(267.54 263.104469)scale(0.11 -0.11)">
      <use transform="translate(0 0.015625)" xlink:href="#DejaVuSans-43"/>
      <use transform="translate(69.824219 0.015625)" xlink:href="#DejaVuSans-4c"/>
      <use transform="translate(125.537109 0.015625)" xlink:href="#DejaVuSans-41"/>
      <use transform="translate(193.945312 0.015625)" xlink:href="#DejaVuSans-53"/>
      <use transform="translate(257.421875 0.015625)" xlink:href="#DejaVuSans-53"/>
      <use transform="translate(320.898438 0.015625)" xlink:href="#DejaVuSans-2b"/>
      <use transform="translate(404.6875 0.015625)" xlink:href="#DejaVuSans-48"/>
      <use transform="translate(479.882812 0.015625)" xlink:href="#DejaVuSans-61"/>
      <use transform="translate(541.162109 0.015625)" xlink:href="#DejaVuSans-6c"/>
      <use transform="translate(568.945312 0.015625)" xlink:href="#DejaVuSans-6f"/>
      <use transform="translate(630.126953 0.015625)" xlink:href="#DejaVuSans-46"/>
      <use transform="translate(687.646484 0.015625)" xlink:href="#DejaVuSans-69"/>
      <use transform="translate(715.429688 0.015625)" xlink:href="#DejaVuSans-74"/>
      <use transform="translate(754.638672 0.015625)" xlink:href="#DejaVuSans-20"/>
      <use transform="translate(786.425781 0.015625)" xlink:href="#DejaVuSans-Oblique-7a"/>
      <use transform="translate(858.398438 0.015625)" xlink:href="#DejaVuSans-3d"/>
      <use transform="translate(961.669922 0.015625)" xlink:href="#DejaVuSans-35"/>
      <use transform="translate(1025.292969 0.015625)" xlink:href="#DejaVuSans-2e"/>
      <use transform="translate(1057.080078 0.015625)" xlink:href="#DejaVuSans-30"/>
      <use transform="translate(1120.703125 0.015625)" xlink:href="#DejaVuSans-30"/>
     </g>
    </g>
    <g id="line2d_102">
     <path d="M 236.74 275.400406 
L 258.74 275.400406 
" style="fill:none;stroke:#9467bd;stroke-linecap:square;stroke-width:1.5;"/>
    </g>
    <g id="line2d_103"/>
    <g id="text_24">
     <!-- CLASS $z = 10.00$ -->
     <g transform="translate(267.54 279.250406)scale(0.11 -0.11)">
      <use transform="translate(0 0.78125)" xlink:href="#DejaVuSans-43"/>
      <use transform="translate(69.824219 0.78125)" xlink:href="#DejaVuSans-4c"/>
      <use transform="translate(125.537109 0.78125)" xlink:href="#DejaVuSans-41"/>
      <use transform="translate(193.945312 0.78125)" xlink:href="#DejaVuSans-53"/>
      <use transform="translate(257.421875 0.78125)" xlink:href="#DejaVuSans-53"/>
      <use transform="translate(320.898438 0.78125)" xlink:href="#DejaVuSans-20"/>
      <use transform="translate(352.685547 0.78125)" xlink:href="#DejaVuSans-Oblique-7a"/>
      <use transform="translate(424.658203 0.78125)" xlink:href="#DejaVuSans-3d"/>
      <use transform="translate(527.929688 0.78125)" xlink:href="#DejaVuSans-31"/>
      <use transform="translate(591.552734 0.78125)" xlink:href="#DejaVuSans-30"/>
      <use transform="translate(655.175781 0.78125)" xlink:href="#DejaVuSans-2e"/>
      <use transform="translate(686.962891 0.78125)" xlink:href="#DejaVuSans-30"/>
      <use transform="translate(750.585938 0.78125)" xlink:href="#DejaVuSans-30"/>
     </g>
    </g>
    <g id="line2d_104">
     <path d="M 236.74 291.546344 
L 258.74 291.546344 
" style="fill:none;stroke:#8c564b;stroke-linecap:square;stroke-width:1.5;"/>
    </g>
    <g id="line2d_105"/>
    <g id="text_25">
     <!-- CLASS+HaloFit $z = 10.00$ -->
     <g transform="translate(267.54 295.396344)scale(0.11 -0.11)">
      <use transform="translate(0 0.015625)" xlink:href="#DejaVuSans-43"/>
      <use transform="translate(69.824219 0.015625)" xlink:href="#DejaVuSans-4c"/>
      <use transform="translate(125.537109 0.015625)" xlink:href="#DejaVuSans-41"/>
      <use transform="translate(193.945312 0.015625)" xlink:href="#DejaVuSans-53"/>
      <use transform="translate(257.421875 0.015625)" xlink:href="#DejaVuSans-53"/>
      <use transform="translate(320.898438 0.015625)" xlink:href="#DejaVuSans-2b"/>
      <use transform="translate(404.6875 0.015625)" xlink:href="#DejaVuSans-48"/>
      <use transform="translate(479.882812 0.015625)" xlink:href="#DejaVuSans-61"/>
      <use transform="translate(541.162109 0.015625)" xlink:href="#DejaVuSans-6c"/>
      <use transform="translate(568.945312 0.015625)" xlink:href="#DejaVuSans-6f"/>
      <use transform="translate(630.126953 0.015625)" xlink:href="#DejaVuSans-46"/>
      <use transform="translate(687.646484 0.015625)" xlink:href="#DejaVuSans-69"/>
      <use transform="translate(715.429688 0.015625)" xlink:href="#DejaVuSans-74"/>
      <use transform="translate(754.638672 0.015625)" xlink:href="#DejaVuSans-20"/>
      <use transform="translate(786.425781 0.015625)" xlink:href="#DejaVuSans-Oblique-7a"/>
      <use transform="translate(858.398438 0.015625)" xlink:href="#DejaVuSans-3d"/>
      <use transform="translate(961.669922 0.015625)" xlink:href="#DejaVuSans-31"/>
      <use transform="translate(1025.292969 0.015625)" xlink:href="#DejaVuSans-30"/>
      <use transform="translate(1088.916016 0.015625)" xlink:href="#DejaVuSans-2e"/>
      <use transform="translate(1120.703125 0.015625)" xlink:href="#DejaVuSans-30"/>
      <use transform="translate(1184.326172 0.015625)" xlink:href="#DejaVuSans-30"/>
     </g>
    </g>
   </g>
  </g>
 </g>
 <defs>
  <clipPath id="p2fe2da7ad9">
   <rect height="266.112" width="357.12" x="57.6" y="41.472"/>
  </clipPath>
 </defs>
</svg>
