<?xml version="1.0" encoding="utf-8" standalone="no"?>
<!DOCTYPE svg PUBLIC "-//W3C//DTD SVG 1.1//EN"
  "http://www.w3.org/Graphics/SVG/1.1/DTD/svg11.dtd">
<!-- Created with matplotlib (http://matplotlib.org/) -->
<svg height="345pt" version="1.1" viewBox="0 0 460 345" width="460pt" xmlns="http://www.w3.org/2000/svg" xmlns:xlink="http://www.w3.org/1999/xlink">
 <defs>
  <style type="text/css">
*{stroke-linecap:butt;stroke-linejoin:round;}
  </style>
 </defs>
 <g id="figure_1">
  <g id="patch_1">
   <path d="M 0 345.6 
L 460.8 345.6 
L 460.8 0 
L 0 0 
z
" style="fill:#ffffff;"/>
  </g>
  <g id="axes_1">
   <g id="patch_2">
    <path d="M 57.6 307.584 
L 414.72 307.584 
L 414.72 41.472 
L 57.6 41.472 
z
" style="fill:#ffffff;"/>
   </g>
   <g id="matplotlib.axis_1">
    <g id="xtick_1">
     <g id="line2d_1">
      <defs>
       <path d="M 0 0 
L 0 3.5 
" id="m52e544ca74" style="stroke:#000000;stroke-width:0.8;"/>
      </defs>
      <g>
       <use style="stroke:#000000;stroke-width:0.8;" x="73.832727" xlink:href="#m52e544ca74" y="307.584"/>
      </g>
     </g>
     <g id="text_1">
      <!-- $\mathdefault{10^{-5}}$ -->
      <defs>
       <path d="M 12.40625 8.296875 
L 28.515625 8.296875 
L 28.515625 63.921875 
L 10.984375 60.40625 
L 10.984375 69.390625 
L 28.421875 72.90625 
L 38.28125 72.90625 
L 38.28125 8.296875 
L 54.390625 8.296875 
L 54.390625 0 
L 12.40625 0 
z
" id="DejaVuSans-31"/>
       <path d="M 31.78125 66.40625 
Q 24.171875 66.40625 20.328125 58.90625 
Q 16.5 51.421875 16.5 36.375 
Q 16.5 21.390625 20.328125 13.890625 
Q 24.171875 6.390625 31.78125 6.390625 
Q 39.453125 6.390625 43.28125 13.890625 
Q 47.125 21.390625 47.125 36.375 
Q 47.125 51.421875 43.28125 58.90625 
Q 39.453125 66.40625 31.78125 66.40625 
z
M 31.78125 74.21875 
Q 44.046875 74.21875 50.515625 64.515625 
Q 56.984375 54.828125 56.984375 36.375 
Q 56.984375 17.96875 50.515625 8.265625 
Q 44.046875 -1.421875 31.78125 -1.421875 
Q 19.53125 -1.421875 13.0625 8.265625 
Q 6.59375 17.96875 6.59375 36.375 
Q 6.59375 54.828125 13.0625 64.515625 
Q 19.53125 74.21875 31.78125 74.21875 
z
" id="DejaVuSans-30"/>
       <path d="M 10.59375 35.5 
L 73.1875 35.5 
L 73.1875 27.203125 
L 10.59375 27.203125 
z
" id="DejaVuSans-2212"/>
       <path d="M 10.796875 72.90625 
L 49.515625 72.90625 
L 49.515625 64.59375 
L 19.828125 64.59375 
L 19.828125 46.734375 
Q 21.96875 47.46875 24.109375 47.828125 
Q 26.265625 48.1875 28.421875 48.1875 
Q 40.625 48.1875 47.75 41.5 
Q 54.890625 34.8125 54.890625 23.390625 
Q 54.890625 11.625 47.5625 5.09375 
Q 40.234375 -1.421875 26.90625 -1.421875 
Q 22.3125 -1.421875 17.546875 -0.640625 
Q 12.796875 0.140625 7.71875 1.703125 
L 7.71875 11.625 
Q 12.109375 9.234375 16.796875 8.0625 
Q 21.484375 6.890625 26.703125 6.890625 
Q 35.15625 6.890625 40.078125 11.328125 
Q 45.015625 15.765625 45.015625 23.390625 
Q 45.015625 31 40.078125 35.4375 
Q 35.15625 39.890625 26.703125 39.890625 
Q 22.75 39.890625 18.8125 39.015625 
Q 14.890625 38.140625 10.796875 36.28125 
z
" id="DejaVuSans-35"/>
      </defs>
      <g transform="translate(60.907727 322.942281)scale(0.11 -0.11)">
       <use transform="translate(0 0.684375)" xlink:href="#DejaVuSans-31"/>
       <use transform="translate(63.623047 0.684375)" xlink:href="#DejaVuSans-30"/>
       <use transform="translate(128.203125 38.965625)scale(0.7)" xlink:href="#DejaVuSans-2212"/>
       <use transform="translate(186.855469 38.965625)scale(0.7)" xlink:href="#DejaVuSans-35"/>
      </g>
     </g>
    </g>
    <g id="xtick_2">
     <g id="line2d_2">
      <g>
       <use style="stroke:#000000;stroke-width:0.8;" x="114.414545" xlink:href="#m52e544ca74" y="307.584"/>
      </g>
     </g>
     <g id="text_2">
      <!-- $\mathdefault{10^{-4}}$ -->
      <defs>
       <path d="M 37.796875 64.3125 
L 12.890625 25.390625 
L 37.796875 25.390625 
z
M 35.203125 72.90625 
L 47.609375 72.90625 
L 47.609375 25.390625 
L 58.015625 25.390625 
L 58.015625 17.1875 
L 47.609375 17.1875 
L 47.609375 0 
L 37.796875 0 
L 37.796875 17.1875 
L 4.890625 17.1875 
L 4.890625 26.703125 
z
" id="DejaVuSans-34"/>
      </defs>
      <g transform="translate(101.489545 322.942281)scale(0.11 -0.11)">
       <use transform="translate(0 0.684375)" xlink:href="#DejaVuSans-31"/>
       <use transform="translate(63.623047 0.684375)" xlink:href="#DejaVuSans-30"/>
       <use transform="translate(128.203125 38.965625)scale(0.7)" xlink:href="#DejaVuSans-2212"/>
       <use transform="translate(186.855469 38.965625)scale(0.7)" xlink:href="#DejaVuSans-34"/>
      </g>
     </g>
    </g>
    <g id="xtick_3">
     <g id="line2d_3">
      <g>
       <use style="stroke:#000000;stroke-width:0.8;" x="154.996364" xlink:href="#m52e544ca74" y="307.584"/>
      </g>
     </g>
     <g id="text_3">
      <!-- $\mathdefault{10^{-3}}$ -->
      <defs>
       <path d="M 40.578125 39.3125 
Q 47.65625 37.796875 51.625 33 
Q 55.609375 28.21875 55.609375 21.1875 
Q 55.609375 10.40625 48.1875 4.484375 
Q 40.765625 -1.421875 27.09375 -1.421875 
Q 22.515625 -1.421875 17.65625 -0.515625 
Q 12.796875 0.390625 7.625 2.203125 
L 7.625 11.71875 
Q 11.71875 9.328125 16.59375 8.109375 
Q 21.484375 6.890625 26.8125 6.890625 
Q 36.078125 6.890625 40.9375 10.546875 
Q 45.796875 14.203125 45.796875 21.1875 
Q 45.796875 27.640625 41.28125 31.265625 
Q 36.765625 34.90625 28.71875 34.90625 
L 20.21875 34.90625 
L 20.21875 43.015625 
L 29.109375 43.015625 
Q 36.375 43.015625 40.234375 45.921875 
Q 44.09375 48.828125 44.09375 54.296875 
Q 44.09375 59.90625 40.109375 62.90625 
Q 36.140625 65.921875 28.71875 65.921875 
Q 24.65625 65.921875 20.015625 65.03125 
Q 15.375 64.15625 9.8125 62.3125 
L 9.8125 71.09375 
Q 15.4375 72.65625 20.34375 73.4375 
Q 25.25 74.21875 29.59375 74.21875 
Q 40.828125 74.21875 47.359375 69.109375 
Q 53.90625 64.015625 53.90625 55.328125 
Q 53.90625 49.265625 50.4375 45.09375 
Q 46.96875 40.921875 40.578125 39.3125 
z
" id="DejaVuSans-33"/>
      </defs>
      <g transform="translate(142.071364 322.942281)scale(0.11 -0.11)">
       <use transform="translate(0 0.765625)" xlink:href="#DejaVuSans-31"/>
       <use transform="translate(63.623047 0.765625)" xlink:href="#DejaVuSans-30"/>
       <use transform="translate(128.203125 39.046875)scale(0.7)" xlink:href="#DejaVuSans-2212"/>
       <use transform="translate(186.855469 39.046875)scale(0.7)" xlink:href="#DejaVuSans-33"/>
      </g>
     </g>
    </g>
    <g id="xtick_4">
     <g id="line2d_4">
      <g>
       <use style="stroke:#000000;stroke-width:0.8;" x="195.578182" xlink:href="#m52e544ca74" y="307.584"/>
      </g>
     </g>
     <g id="text_4">
      <!-- $\mathdefault{10^{-2}}$ -->
      <defs>
       <path d="M 19.1875 8.296875 
L 53.609375 8.296875 
L 53.609375 0 
L 7.328125 0 
L 7.328125 8.296875 
Q 12.9375 14.109375 22.625 23.890625 
Q 32.328125 33.6875 34.8125 36.53125 
Q 39.546875 41.84375 41.421875 45.53125 
Q 43.3125 49.21875 43.3125 52.78125 
Q 43.3125 58.59375 39.234375 62.25 
Q 35.15625 65.921875 28.609375 65.921875 
Q 23.96875 65.921875 18.8125 64.3125 
Q 13.671875 62.703125 7.8125 59.421875 
L 7.8125 69.390625 
Q 13.765625 71.78125 18.9375 73 
Q 24.125 74.21875 28.421875 74.21875 
Q 39.75 74.21875 46.484375 68.546875 
Q 53.21875 62.890625 53.21875 53.421875 
Q 53.21875 48.921875 51.53125 44.890625 
Q 49.859375 40.875 45.40625 35.40625 
Q 44.1875 33.984375 37.640625 27.21875 
Q 31.109375 20.453125 19.1875 8.296875 
z
" id="DejaVuSans-32"/>
      </defs>
      <g transform="translate(182.653182 322.942281)scale(0.11 -0.11)">
       <use transform="translate(0 0.765625)" xlink:href="#DejaVuSans-31"/>
       <use transform="translate(63.623047 0.765625)" xlink:href="#DejaVuSans-30"/>
       <use transform="translate(128.203125 39.046875)scale(0.7)" xlink:href="#DejaVuSans-2212"/>
       <use transform="translate(186.855469 39.046875)scale(0.7)" xlink:href="#DejaVuSans-32"/>
      </g>
     </g>
    </g>
    <g id="xtick_5">
     <g id="line2d_5">
      <g>
       <use style="stroke:#000000;stroke-width:0.8;" x="236.16" xlink:href="#m52e544ca74" y="307.584"/>
      </g>
     </g>
     <g id="text_5">
      <!-- $\mathdefault{10^{-1}}$ -->
      <g transform="translate(223.235 322.942281)scale(0.11 -0.11)">
       <use transform="translate(0 0.684375)" xlink:href="#DejaVuSans-31"/>
       <use transform="translate(63.623047 0.684375)" xlink:href="#DejaVuSans-30"/>
       <use transform="translate(128.203125 38.965625)scale(0.7)" xlink:href="#DejaVuSans-2212"/>
       <use transform="translate(186.855469 38.965625)scale(0.7)" xlink:href="#DejaVuSans-31"/>
      </g>
     </g>
    </g>
    <g id="xtick_6">
     <g id="line2d_6">
      <g>
       <use style="stroke:#000000;stroke-width:0.8;" x="276.741818" xlink:href="#m52e544ca74" y="307.584"/>
      </g>
     </g>
     <g id="text_6">
      <!-- $\mathdefault{10^{0}}$ -->
      <g transform="translate(267.061818 322.942281)scale(0.11 -0.11)">
       <use transform="translate(0 0.765625)" xlink:href="#DejaVuSans-31"/>
       <use transform="translate(63.623047 0.765625)" xlink:href="#DejaVuSans-30"/>
       <use transform="translate(128.203125 39.046875)scale(0.7)" xlink:href="#DejaVuSans-30"/>
      </g>
     </g>
    </g>
    <g id="xtick_7">
     <g id="line2d_7">
      <g>
       <use style="stroke:#000000;stroke-width:0.8;" x="317.323636" xlink:href="#m52e544ca74" y="307.584"/>
      </g>
     </g>
     <g id="text_7">
      <!-- $\mathdefault{10^{1}}$ -->
      <g transform="translate(307.643636 322.942281)scale(0.11 -0.11)">
       <use transform="translate(0 0.684375)" xlink:href="#DejaVuSans-31"/>
       <use transform="translate(63.623047 0.684375)" xlink:href="#DejaVuSans-30"/>
       <use transform="translate(128.203125 38.965625)scale(0.7)" xlink:href="#DejaVuSans-31"/>
      </g>
     </g>
    </g>
    <g id="xtick_8">
     <g id="line2d_8">
      <g>
       <use style="stroke:#000000;stroke-width:0.8;" x="357.905455" xlink:href="#m52e544ca74" y="307.584"/>
      </g>
     </g>
     <g id="text_8">
      <!-- $\mathdefault{10^{2}}$ -->
      <g transform="translate(348.225455 322.942281)scale(0.11 -0.11)">
       <use transform="translate(0 0.765625)" xlink:href="#DejaVuSans-31"/>
       <use transform="translate(63.623047 0.765625)" xlink:href="#DejaVuSans-30"/>
       <use transform="translate(128.203125 39.046875)scale(0.7)" xlink:href="#DejaVuSans-32"/>
      </g>
     </g>
    </g>
    <g id="xtick_9">
     <g id="line2d_9">
      <g>
       <use style="stroke:#000000;stroke-width:0.8;" x="398.487273" xlink:href="#m52e544ca74" y="307.584"/>
      </g>
     </g>
     <g id="text_9">
      <!-- $\mathdefault{10^{3}}$ -->
      <g transform="translate(388.807273 322.942281)scale(0.11 -0.11)">
       <use transform="translate(0 0.765625)" xlink:href="#DejaVuSans-31"/>
       <use transform="translate(63.623047 0.765625)" xlink:href="#DejaVuSans-30"/>
       <use transform="translate(128.203125 39.046875)scale(0.7)" xlink:href="#DejaVuSans-33"/>
      </g>
     </g>
    </g>
    <g id="xtick_10">
     <g id="line2d_10">
      <defs>
       <path d="M 0 0 
L 0 2 
" id="m2e0051ae56" style="stroke:#000000;stroke-width:0.6;"/>
      </defs>
      <g>
       <use style="stroke:#000000;stroke-width:0.6;" x="57.683598" xlink:href="#m2e0051ae56" y="307.584"/>
      </g>
     </g>
    </g>
    <g id="xtick_11">
     <g id="line2d_11">
      <g>
       <use style="stroke:#000000;stroke-width:0.6;" x="61.616383" xlink:href="#m2e0051ae56" y="307.584"/>
      </g>
     </g>
    </g>
    <g id="xtick_12">
     <g id="line2d_12">
      <g>
       <use style="stroke:#000000;stroke-width:0.6;" x="64.829702" xlink:href="#m2e0051ae56" y="307.584"/>
      </g>
     </g>
    </g>
    <g id="xtick_13">
     <g id="line2d_13">
      <g>
       <use style="stroke:#000000;stroke-width:0.6;" x="67.546524" xlink:href="#m2e0051ae56" y="307.584"/>
      </g>
     </g>
    </g>
    <g id="xtick_14">
     <g id="line2d_14">
      <g>
       <use style="stroke:#000000;stroke-width:0.6;" x="69.899943" xlink:href="#m2e0051ae56" y="307.584"/>
      </g>
     </g>
    </g>
    <g id="xtick_15">
     <g id="line2d_15">
      <g>
       <use style="stroke:#000000;stroke-width:0.6;" x="71.975805" xlink:href="#m2e0051ae56" y="307.584"/>
      </g>
     </g>
    </g>
    <g id="xtick_16">
     <g id="line2d_16">
      <g>
       <use style="stroke:#000000;stroke-width:0.6;" x="86.049072" xlink:href="#m2e0051ae56" y="307.584"/>
      </g>
     </g>
    </g>
    <g id="xtick_17">
     <g id="line2d_17">
      <g>
       <use style="stroke:#000000;stroke-width:0.6;" x="93.195175" xlink:href="#m2e0051ae56" y="307.584"/>
      </g>
     </g>
    </g>
    <g id="xtick_18">
     <g id="line2d_18">
      <g>
       <use style="stroke:#000000;stroke-width:0.6;" x="98.265416" xlink:href="#m2e0051ae56" y="307.584"/>
      </g>
     </g>
    </g>
    <g id="xtick_19">
     <g id="line2d_19">
      <g>
       <use style="stroke:#000000;stroke-width:0.6;" x="102.198201" xlink:href="#m2e0051ae56" y="307.584"/>
      </g>
     </g>
    </g>
    <g id="xtick_20">
     <g id="line2d_20">
      <g>
       <use style="stroke:#000000;stroke-width:0.6;" x="105.41152" xlink:href="#m2e0051ae56" y="307.584"/>
      </g>
     </g>
    </g>
    <g id="xtick_21">
     <g id="line2d_21">
      <g>
       <use style="stroke:#000000;stroke-width:0.6;" x="108.128342" xlink:href="#m2e0051ae56" y="307.584"/>
      </g>
     </g>
    </g>
    <g id="xtick_22">
     <g id="line2d_22">
      <g>
       <use style="stroke:#000000;stroke-width:0.6;" x="110.481761" xlink:href="#m2e0051ae56" y="307.584"/>
      </g>
     </g>
    </g>
    <g id="xtick_23">
     <g id="line2d_23">
      <g>
       <use style="stroke:#000000;stroke-width:0.6;" x="112.557623" xlink:href="#m2e0051ae56" y="307.584"/>
      </g>
     </g>
    </g>
    <g id="xtick_24">
     <g id="line2d_24">
      <g>
       <use style="stroke:#000000;stroke-width:0.6;" x="126.63089" xlink:href="#m2e0051ae56" y="307.584"/>
      </g>
     </g>
    </g>
    <g id="xtick_25">
     <g id="line2d_25">
      <g>
       <use style="stroke:#000000;stroke-width:0.6;" x="133.776993" xlink:href="#m2e0051ae56" y="307.584"/>
      </g>
     </g>
    </g>
    <g id="xtick_26">
     <g id="line2d_26">
      <g>
       <use style="stroke:#000000;stroke-width:0.6;" x="138.847235" xlink:href="#m2e0051ae56" y="307.584"/>
      </g>
     </g>
    </g>
    <g id="xtick_27">
     <g id="line2d_27">
      <g>
       <use style="stroke:#000000;stroke-width:0.6;" x="142.780019" xlink:href="#m2e0051ae56" y="307.584"/>
      </g>
     </g>
    </g>
    <g id="xtick_28">
     <g id="line2d_28">
      <g>
       <use style="stroke:#000000;stroke-width:0.6;" x="145.993338" xlink:href="#m2e0051ae56" y="307.584"/>
      </g>
     </g>
    </g>
    <g id="xtick_29">
     <g id="line2d_29">
      <g>
       <use style="stroke:#000000;stroke-width:0.6;" x="148.71016" xlink:href="#m2e0051ae56" y="307.584"/>
      </g>
     </g>
    </g>
    <g id="xtick_30">
     <g id="line2d_30">
      <g>
       <use style="stroke:#000000;stroke-width:0.6;" x="151.063579" xlink:href="#m2e0051ae56" y="307.584"/>
      </g>
     </g>
    </g>
    <g id="xtick_31">
     <g id="line2d_31">
      <g>
       <use style="stroke:#000000;stroke-width:0.6;" x="153.139441" xlink:href="#m2e0051ae56" y="307.584"/>
      </g>
     </g>
    </g>
    <g id="xtick_32">
     <g id="line2d_32">
      <g>
       <use style="stroke:#000000;stroke-width:0.6;" x="167.212708" xlink:href="#m2e0051ae56" y="307.584"/>
      </g>
     </g>
    </g>
    <g id="xtick_33">
     <g id="line2d_33">
      <g>
       <use style="stroke:#000000;stroke-width:0.6;" x="174.358812" xlink:href="#m2e0051ae56" y="307.584"/>
      </g>
     </g>
    </g>
    <g id="xtick_34">
     <g id="line2d_34">
      <g>
       <use style="stroke:#000000;stroke-width:0.6;" x="179.429053" xlink:href="#m2e0051ae56" y="307.584"/>
      </g>
     </g>
    </g>
    <g id="xtick_35">
     <g id="line2d_35">
      <g>
       <use style="stroke:#000000;stroke-width:0.6;" x="183.361837" xlink:href="#m2e0051ae56" y="307.584"/>
      </g>
     </g>
    </g>
    <g id="xtick_36">
     <g id="line2d_36">
      <g>
       <use style="stroke:#000000;stroke-width:0.6;" x="186.575156" xlink:href="#m2e0051ae56" y="307.584"/>
      </g>
     </g>
    </g>
    <g id="xtick_37">
     <g id="line2d_37">
      <g>
       <use style="stroke:#000000;stroke-width:0.6;" x="189.291979" xlink:href="#m2e0051ae56" y="307.584"/>
      </g>
     </g>
    </g>
    <g id="xtick_38">
     <g id="line2d_38">
      <g>
       <use style="stroke:#000000;stroke-width:0.6;" x="191.645397" xlink:href="#m2e0051ae56" y="307.584"/>
      </g>
     </g>
    </g>
    <g id="xtick_39">
     <g id="line2d_39">
      <g>
       <use style="stroke:#000000;stroke-width:0.6;" x="193.72126" xlink:href="#m2e0051ae56" y="307.584"/>
      </g>
     </g>
    </g>
    <g id="xtick_40">
     <g id="line2d_40">
      <g>
       <use style="stroke:#000000;stroke-width:0.6;" x="207.794526" xlink:href="#m2e0051ae56" y="307.584"/>
      </g>
     </g>
    </g>
    <g id="xtick_41">
     <g id="line2d_41">
      <g>
       <use style="stroke:#000000;stroke-width:0.6;" x="214.94063" xlink:href="#m2e0051ae56" y="307.584"/>
      </g>
     </g>
    </g>
    <g id="xtick_42">
     <g id="line2d_42">
      <g>
       <use style="stroke:#000000;stroke-width:0.6;" x="220.010871" xlink:href="#m2e0051ae56" y="307.584"/>
      </g>
     </g>
    </g>
    <g id="xtick_43">
     <g id="line2d_43">
      <g>
       <use style="stroke:#000000;stroke-width:0.6;" x="223.943655" xlink:href="#m2e0051ae56" y="307.584"/>
      </g>
     </g>
    </g>
    <g id="xtick_44">
     <g id="line2d_44">
      <g>
       <use style="stroke:#000000;stroke-width:0.6;" x="227.156974" xlink:href="#m2e0051ae56" y="307.584"/>
      </g>
     </g>
    </g>
    <g id="xtick_45">
     <g id="line2d_45">
      <g>
       <use style="stroke:#000000;stroke-width:0.6;" x="229.873797" xlink:href="#m2e0051ae56" y="307.584"/>
      </g>
     </g>
    </g>
    <g id="xtick_46">
     <g id="line2d_46">
      <g>
       <use style="stroke:#000000;stroke-width:0.6;" x="232.227215" xlink:href="#m2e0051ae56" y="307.584"/>
      </g>
     </g>
    </g>
    <g id="xtick_47">
     <g id="line2d_47">
      <g>
       <use style="stroke:#000000;stroke-width:0.6;" x="234.303078" xlink:href="#m2e0051ae56" y="307.584"/>
      </g>
     </g>
    </g>
    <g id="xtick_48">
     <g id="line2d_48">
      <g>
       <use style="stroke:#000000;stroke-width:0.6;" x="248.376345" xlink:href="#m2e0051ae56" y="307.584"/>
      </g>
     </g>
    </g>
    <g id="xtick_49">
     <g id="line2d_49">
      <g>
       <use style="stroke:#000000;stroke-width:0.6;" x="255.522448" xlink:href="#m2e0051ae56" y="307.584"/>
      </g>
     </g>
    </g>
    <g id="xtick_50">
     <g id="line2d_50">
      <g>
       <use style="stroke:#000000;stroke-width:0.6;" x="260.592689" xlink:href="#m2e0051ae56" y="307.584"/>
      </g>
     </g>
    </g>
    <g id="xtick_51">
     <g id="line2d_51">
      <g>
       <use style="stroke:#000000;stroke-width:0.6;" x="264.525474" xlink:href="#m2e0051ae56" y="307.584"/>
      </g>
     </g>
    </g>
    <g id="xtick_52">
     <g id="line2d_52">
      <g>
       <use style="stroke:#000000;stroke-width:0.6;" x="267.738793" xlink:href="#m2e0051ae56" y="307.584"/>
      </g>
     </g>
    </g>
    <g id="xtick_53">
     <g id="line2d_53">
      <g>
       <use style="stroke:#000000;stroke-width:0.6;" x="270.455615" xlink:href="#m2e0051ae56" y="307.584"/>
      </g>
     </g>
    </g>
    <g id="xtick_54">
     <g id="line2d_54">
      <g>
       <use style="stroke:#000000;stroke-width:0.6;" x="272.809034" xlink:href="#m2e0051ae56" y="307.584"/>
      </g>
     </g>
    </g>
    <g id="xtick_55">
     <g id="line2d_55">
      <g>
       <use style="stroke:#000000;stroke-width:0.6;" x="274.884896" xlink:href="#m2e0051ae56" y="307.584"/>
      </g>
     </g>
    </g>
    <g id="xtick_56">
     <g id="line2d_56">
      <g>
       <use style="stroke:#000000;stroke-width:0.6;" x="288.958163" xlink:href="#m2e0051ae56" y="307.584"/>
      </g>
     </g>
    </g>
    <g id="xtick_57">
     <g id="line2d_57">
      <g>
       <use style="stroke:#000000;stroke-width:0.6;" x="296.104266" xlink:href="#m2e0051ae56" y="307.584"/>
      </g>
     </g>
    </g>
    <g id="xtick_58">
     <g id="line2d_58">
      <g>
       <use style="stroke:#000000;stroke-width:0.6;" x="301.174507" xlink:href="#m2e0051ae56" y="307.584"/>
      </g>
     </g>
    </g>
    <g id="xtick_59">
     <g id="line2d_59">
      <g>
       <use style="stroke:#000000;stroke-width:0.6;" x="305.107292" xlink:href="#m2e0051ae56" y="307.584"/>
      </g>
     </g>
    </g>
    <g id="xtick_60">
     <g id="line2d_60">
      <g>
       <use style="stroke:#000000;stroke-width:0.6;" x="308.320611" xlink:href="#m2e0051ae56" y="307.584"/>
      </g>
     </g>
    </g>
    <g id="xtick_61">
     <g id="line2d_61">
      <g>
       <use style="stroke:#000000;stroke-width:0.6;" x="311.037433" xlink:href="#m2e0051ae56" y="307.584"/>
      </g>
     </g>
    </g>
    <g id="xtick_62">
     <g id="line2d_62">
      <g>
       <use style="stroke:#000000;stroke-width:0.6;" x="313.390852" xlink:href="#m2e0051ae56" y="307.584"/>
      </g>
     </g>
    </g>
    <g id="xtick_63">
     <g id="line2d_63">
      <g>
       <use style="stroke:#000000;stroke-width:0.6;" x="315.466714" xlink:href="#m2e0051ae56" y="307.584"/>
      </g>
     </g>
    </g>
    <g id="xtick_64">
     <g id="line2d_64">
      <g>
       <use style="stroke:#000000;stroke-width:0.6;" x="329.539981" xlink:href="#m2e0051ae56" y="307.584"/>
      </g>
     </g>
    </g>
    <g id="xtick_65">
     <g id="line2d_65">
      <g>
       <use style="stroke:#000000;stroke-width:0.6;" x="336.686084" xlink:href="#m2e0051ae56" y="307.584"/>
      </g>
     </g>
    </g>
    <g id="xtick_66">
     <g id="line2d_66">
      <g>
       <use style="stroke:#000000;stroke-width:0.6;" x="341.756325" xlink:href="#m2e0051ae56" y="307.584"/>
      </g>
     </g>
    </g>
    <g id="xtick_67">
     <g id="line2d_67">
      <g>
       <use style="stroke:#000000;stroke-width:0.6;" x="345.68911" xlink:href="#m2e0051ae56" y="307.584"/>
      </g>
     </g>
    </g>
    <g id="xtick_68">
     <g id="line2d_68">
      <g>
       <use style="stroke:#000000;stroke-width:0.6;" x="348.902429" xlink:href="#m2e0051ae56" y="307.584"/>
      </g>
     </g>
    </g>
    <g id="xtick_69">
     <g id="line2d_69">
      <g>
       <use style="stroke:#000000;stroke-width:0.6;" x="351.619251" xlink:href="#m2e0051ae56" y="307.584"/>
      </g>
     </g>
    </g>
    <g id="xtick_70">
     <g id="line2d_70">
      <g>
       <use style="stroke:#000000;stroke-width:0.6;" x="353.97267" xlink:href="#m2e0051ae56" y="307.584"/>
      </g>
     </g>
    </g>
    <g id="xtick_71">
     <g id="line2d_71">
      <g>
       <use style="stroke:#000000;stroke-width:0.6;" x="356.048532" xlink:href="#m2e0051ae56" y="307.584"/>
      </g>
     </g>
    </g>
    <g id="xtick_72">
     <g id="line2d_72">
      <g>
       <use style="stroke:#000000;stroke-width:0.6;" x="370.121799" xlink:href="#m2e0051ae56" y="307.584"/>
      </g>
     </g>
    </g>
    <g id="xtick_73">
     <g id="line2d_73">
      <g>
       <use style="stroke:#000000;stroke-width:0.6;" x="377.267903" xlink:href="#m2e0051ae56" y="307.584"/>
      </g>
     </g>
    </g>
    <g id="xtick_74">
     <g id="line2d_74">
      <g>
       <use style="stroke:#000000;stroke-width:0.6;" x="382.338144" xlink:href="#m2e0051ae56" y="307.584"/>
      </g>
     </g>
    </g>
    <g id="xtick_75">
     <g id="line2d_75">
      <g>
       <use style="stroke:#000000;stroke-width:0.6;" x="386.270928" xlink:href="#m2e0051ae56" y="307.584"/>
      </g>
     </g>
    </g>
    <g id="xtick_76">
     <g id="line2d_76">
      <g>
       <use style="stroke:#000000;stroke-width:0.6;" x="389.484247" xlink:href="#m2e0051ae56" y="307.584"/>
      </g>
     </g>
    </g>
    <g id="xtick_77">
     <g id="line2d_77">
      <g>
       <use style="stroke:#000000;stroke-width:0.6;" x="392.20107" xlink:href="#m2e0051ae56" y="307.584"/>
      </g>
     </g>
    </g>
    <g id="xtick_78">
     <g id="line2d_78">
      <g>
       <use style="stroke:#000000;stroke-width:0.6;" x="394.554488" xlink:href="#m2e0051ae56" y="307.584"/>
      </g>
     </g>
    </g>
    <g id="xtick_79">
     <g id="line2d_79">
      <g>
       <use style="stroke:#000000;stroke-width:0.6;" x="396.630351" xlink:href="#m2e0051ae56" y="307.584"/>
      </g>
     </g>
    </g>
    <g id="xtick_80">
     <g id="line2d_80">
      <g>
       <use style="stroke:#000000;stroke-width:0.6;" x="410.703617" xlink:href="#m2e0051ae56" y="307.584"/>
      </g>
     </g>
    </g>
    <g id="text_10">
     <!-- $k \; [\mathrm{Mpc}^{-1}]$ -->
     <defs>
      <path d="M 18.3125 75.984375 
L 27.296875 75.984375 
L 18.703125 31.6875 
L 49.515625 54.6875 
L 61.1875 54.6875 
L 26.8125 28.515625 
L 51.90625 0 
L 41.015625 0 
L 17.671875 26.703125 
L 12.5 0 
L 3.515625 0 
z
" id="DejaVuSans-Oblique-6b"/>
      <path d="M 8.59375 75.984375 
L 29.296875 75.984375 
L 29.296875 69 
L 17.578125 69 
L 17.578125 -6.203125 
L 29.296875 -6.203125 
L 29.296875 -13.1875 
L 8.59375 -13.1875 
z
" id="DejaVuSans-5b"/>
      <path d="M 9.8125 72.90625 
L 24.515625 72.90625 
L 43.109375 23.296875 
L 61.8125 72.90625 
L 76.515625 72.90625 
L 76.515625 0 
L 66.890625 0 
L 66.890625 64.015625 
L 48.09375 14.015625 
L 38.1875 14.015625 
L 19.390625 64.015625 
L 19.390625 0 
L 9.8125 0 
z
" id="DejaVuSans-4d"/>
      <path d="M 18.109375 8.203125 
L 18.109375 -20.796875 
L 9.078125 -20.796875 
L 9.078125 54.6875 
L 18.109375 54.6875 
L 18.109375 46.390625 
Q 20.953125 51.265625 25.265625 53.625 
Q 29.59375 56 35.59375 56 
Q 45.5625 56 51.78125 48.09375 
Q 58.015625 40.1875 58.015625 27.296875 
Q 58.015625 14.40625 51.78125 6.484375 
Q 45.5625 -1.421875 35.59375 -1.421875 
Q 29.59375 -1.421875 25.265625 0.953125 
Q 20.953125 3.328125 18.109375 8.203125 
z
M 48.6875 27.296875 
Q 48.6875 37.203125 44.609375 42.84375 
Q 40.53125 48.484375 33.40625 48.484375 
Q 26.265625 48.484375 22.1875 42.84375 
Q 18.109375 37.203125 18.109375 27.296875 
Q 18.109375 17.390625 22.1875 11.75 
Q 26.265625 6.109375 33.40625 6.109375 
Q 40.53125 6.109375 44.609375 11.75 
Q 48.6875 17.390625 48.6875 27.296875 
z
" id="DejaVuSans-70"/>
      <path d="M 48.78125 52.59375 
L 48.78125 44.1875 
Q 44.96875 46.296875 41.140625 47.34375 
Q 37.3125 48.390625 33.40625 48.390625 
Q 24.65625 48.390625 19.8125 42.84375 
Q 14.984375 37.3125 14.984375 27.296875 
Q 14.984375 17.28125 19.8125 11.734375 
Q 24.65625 6.203125 33.40625 6.203125 
Q 37.3125 6.203125 41.140625 7.25 
Q 44.96875 8.296875 48.78125 10.40625 
L 48.78125 2.09375 
Q 45.015625 0.34375 40.984375 -0.53125 
Q 36.96875 -1.421875 32.421875 -1.421875 
Q 20.0625 -1.421875 12.78125 6.34375 
Q 5.515625 14.109375 5.515625 27.296875 
Q 5.515625 40.671875 12.859375 48.328125 
Q 20.21875 56 33.015625 56 
Q 37.15625 56 41.109375 55.140625 
Q 45.0625 54.296875 48.78125 52.59375 
z
" id="DejaVuSans-63"/>
      <path d="M 30.421875 75.984375 
L 30.421875 -13.1875 
L 9.71875 -13.1875 
L 9.71875 -6.203125 
L 21.390625 -6.203125 
L 21.390625 69 
L 9.71875 69 
L 9.71875 75.984375 
z
" id="DejaVuSans-5d"/>
     </defs>
     <g transform="translate(210.035 339.129937)scale(0.11 -0.11)">
      <use transform="translate(0 0.684375)" xlink:href="#DejaVuSans-Oblique-6b"/>
      <use transform="translate(84.969292 0.684375)" xlink:href="#DejaVuSans-5b"/>
      <use transform="translate(123.982964 0.684375)" xlink:href="#DejaVuSans-4d"/>
      <use transform="translate(210.262261 0.684375)" xlink:href="#DejaVuSans-70"/>
      <use transform="translate(273.738823 0.684375)" xlink:href="#DejaVuSans-63"/>
      <use transform="translate(329.676323 38.965625)scale(0.7)" xlink:href="#DejaVuSans-2212"/>
      <use transform="translate(388.328667 38.965625)scale(0.7)" xlink:href="#DejaVuSans-31"/>
      <use transform="translate(435.599175 0.684375)" xlink:href="#DejaVuSans-5d"/>
     </g>
    </g>
   </g>
   <g id="matplotlib.axis_2">
    <g id="ytick_1">
     <g id="line2d_81">
      <defs>
       <path d="M 0 0 
L -3.5 0 
" id="mc7969046fd" style="stroke:#000000;stroke-width:0.8;"/>
      </defs>
      <g>
       <use style="stroke:#000000;stroke-width:0.8;" x="57.6" xlink:href="#mc7969046fd" y="282.656242"/>
      </g>
     </g>
     <g id="text_11">
      <!-- $\mathdefault{10^{-5}}$ -->
      <g transform="translate(24.75 286.835383)scale(0.11 -0.11)">
       <use transform="translate(0 0.684375)" xlink:href="#DejaVuSans-31"/>
       <use transform="translate(63.623047 0.684375)" xlink:href="#DejaVuSans-30"/>
       <use transform="translate(128.203125 38.965625)scale(0.7)" xlink:href="#DejaVuSans-2212"/>
       <use transform="translate(186.855469 38.965625)scale(0.7)" xlink:href="#DejaVuSans-35"/>
      </g>
     </g>
    </g>
    <g id="ytick_2">
     <g id="line2d_82">
      <g>
       <use style="stroke:#000000;stroke-width:0.8;" x="57.6" xlink:href="#mc7969046fd" y="224.099135"/>
      </g>
     </g>
     <g id="text_12">
      <!-- $\mathdefault{10^{-4}}$ -->
      <g transform="translate(24.75 228.278276)scale(0.11 -0.11)">
       <use transform="translate(0 0.684375)" xlink:href="#DejaVuSans-31"/>
       <use transform="translate(63.623047 0.684375)" xlink:href="#DejaVuSans-30"/>
       <use transform="translate(128.203125 38.965625)scale(0.7)" xlink:href="#DejaVuSans-2212"/>
       <use transform="translate(186.855469 38.965625)scale(0.7)" xlink:href="#DejaVuSans-34"/>
      </g>
     </g>
    </g>
    <g id="ytick_3">
     <g id="line2d_83">
      <g>
       <use style="stroke:#000000;stroke-width:0.8;" x="57.6" xlink:href="#mc7969046fd" y="165.542028"/>
      </g>
     </g>
     <g id="text_13">
      <!-- $\mathdefault{10^{-3}}$ -->
      <g transform="translate(24.75 169.721168)scale(0.11 -0.11)">
       <use transform="translate(0 0.765625)" xlink:href="#DejaVuSans-31"/>
       <use transform="translate(63.623047 0.765625)" xlink:href="#DejaVuSans-30"/>
       <use transform="translate(128.203125 39.046875)scale(0.7)" xlink:href="#DejaVuSans-2212"/>
       <use transform="translate(186.855469 39.046875)scale(0.7)" xlink:href="#DejaVuSans-33"/>
      </g>
     </g>
    </g>
    <g id="ytick_4">
     <g id="line2d_84">
      <g>
       <use style="stroke:#000000;stroke-width:0.8;" x="57.6" xlink:href="#mc7969046fd" y="106.984921"/>
      </g>
     </g>
     <g id="text_14">
      <!-- $\mathdefault{10^{-2}}$ -->
      <g transform="translate(24.75 111.164061)scale(0.11 -0.11)">
       <use transform="translate(0 0.765625)" xlink:href="#DejaVuSans-31"/>
       <use transform="translate(63.623047 0.765625)" xlink:href="#DejaVuSans-30"/>
       <use transform="translate(128.203125 39.046875)scale(0.7)" xlink:href="#DejaVuSans-2212"/>
       <use transform="translate(186.855469 39.046875)scale(0.7)" xlink:href="#DejaVuSans-32"/>
      </g>
     </g>
    </g>
    <g id="ytick_5">
     <g id="line2d_85">
      <g>
       <use style="stroke:#000000;stroke-width:0.8;" x="57.6" xlink:href="#mc7969046fd" y="48.427813"/>
      </g>
     </g>
     <g id="text_15">
      <!-- $\mathdefault{10^{-1}}$ -->
      <g transform="translate(24.75 52.606954)scale(0.11 -0.11)">
       <use transform="translate(0 0.684375)" xlink:href="#DejaVuSans-31"/>
       <use transform="translate(63.623047 0.684375)" xlink:href="#DejaVuSans-30"/>
       <use transform="translate(128.203125 38.965625)scale(0.7)" xlink:href="#DejaVuSans-2212"/>
       <use transform="translate(186.855469 38.965625)scale(0.7)" xlink:href="#DejaVuSans-31"/>
      </g>
     </g>
    </g>
    <g id="ytick_6">
     <g id="line2d_86">
      <defs>
       <path d="M 0 0 
L -2 0 
" id="maf26b9484d" style="stroke:#000000;stroke-width:0.6;"/>
      </defs>
      <g>
       <use style="stroke:#000000;stroke-width:0.6;" x="57.6" xlink:href="#maf26b9484d" y="305.958458"/>
      </g>
     </g>
    </g>
    <g id="ytick_7">
     <g id="line2d_87">
      <g>
       <use style="stroke:#000000;stroke-width:0.6;" x="57.6" xlink:href="#maf26b9484d" y="300.283688"/>
      </g>
     </g>
    </g>
    <g id="ytick_8">
     <g id="line2d_88">
      <g>
       <use style="stroke:#000000;stroke-width:0.6;" x="57.6" xlink:href="#maf26b9484d" y="295.647063"/>
      </g>
     </g>
    </g>
    <g id="ytick_9">
     <g id="line2d_89">
      <g>
       <use style="stroke:#000000;stroke-width:0.6;" x="57.6" xlink:href="#maf26b9484d" y="291.726853"/>
      </g>
     </g>
    </g>
    <g id="ytick_10">
     <g id="line2d_90">
      <g>
       <use style="stroke:#000000;stroke-width:0.6;" x="57.6" xlink:href="#maf26b9484d" y="288.331012"/>
      </g>
     </g>
    </g>
    <g id="ytick_11">
     <g id="line2d_91">
      <g>
       <use style="stroke:#000000;stroke-width:0.6;" x="57.6" xlink:href="#maf26b9484d" y="285.335669"/>
      </g>
     </g>
    </g>
    <g id="ytick_12">
     <g id="line2d_92">
      <g>
       <use style="stroke:#000000;stroke-width:0.6;" x="57.6" xlink:href="#maf26b9484d" y="265.028797"/>
      </g>
     </g>
    </g>
    <g id="ytick_13">
     <g id="line2d_93">
      <g>
       <use style="stroke:#000000;stroke-width:0.6;" x="57.6" xlink:href="#maf26b9484d" y="254.717402"/>
      </g>
     </g>
    </g>
    <g id="ytick_14">
     <g id="line2d_94">
      <g>
       <use style="stroke:#000000;stroke-width:0.6;" x="57.6" xlink:href="#maf26b9484d" y="247.401351"/>
      </g>
     </g>
    </g>
    <g id="ytick_15">
     <g id="line2d_95">
      <g>
       <use style="stroke:#000000;stroke-width:0.6;" x="57.6" xlink:href="#maf26b9484d" y="241.726581"/>
      </g>
     </g>
    </g>
    <g id="ytick_16">
     <g id="line2d_96">
      <g>
       <use style="stroke:#000000;stroke-width:0.6;" x="57.6" xlink:href="#maf26b9484d" y="237.089956"/>
      </g>
     </g>
    </g>
    <g id="ytick_17">
     <g id="line2d_97">
      <g>
       <use style="stroke:#000000;stroke-width:0.6;" x="57.6" xlink:href="#maf26b9484d" y="233.169746"/>
      </g>
     </g>
    </g>
    <g id="ytick_18">
     <g id="line2d_98">
      <g>
       <use style="stroke:#000000;stroke-width:0.6;" x="57.6" xlink:href="#maf26b9484d" y="229.773905"/>
      </g>
     </g>
    </g>
    <g id="ytick_19">
     <g id="line2d_99">
      <g>
       <use style="stroke:#000000;stroke-width:0.6;" x="57.6" xlink:href="#maf26b9484d" y="226.778561"/>
      </g>
     </g>
    </g>
    <g id="ytick_20">
     <g id="line2d_100">
      <g>
       <use style="stroke:#000000;stroke-width:0.6;" x="57.6" xlink:href="#maf26b9484d" y="206.471689"/>
      </g>
     </g>
    </g>
    <g id="ytick_21">
     <g id="line2d_101">
      <g>
       <use style="stroke:#000000;stroke-width:0.6;" x="57.6" xlink:href="#maf26b9484d" y="196.160295"/>
      </g>
     </g>
    </g>
    <g id="ytick_22">
     <g id="line2d_102">
      <g>
       <use style="stroke:#000000;stroke-width:0.6;" x="57.6" xlink:href="#maf26b9484d" y="188.844244"/>
      </g>
     </g>
    </g>
    <g id="ytick_23">
     <g id="line2d_103">
      <g>
       <use style="stroke:#000000;stroke-width:0.6;" x="57.6" xlink:href="#maf26b9484d" y="183.169474"/>
      </g>
     </g>
    </g>
    <g id="ytick_24">
     <g id="line2d_104">
      <g>
       <use style="stroke:#000000;stroke-width:0.6;" x="57.6" xlink:href="#maf26b9484d" y="178.532849"/>
      </g>
     </g>
    </g>
    <g id="ytick_25">
     <g id="line2d_105">
      <g>
       <use style="stroke:#000000;stroke-width:0.6;" x="57.6" xlink:href="#maf26b9484d" y="174.612639"/>
      </g>
     </g>
    </g>
    <g id="ytick_26">
     <g id="line2d_106">
      <g>
       <use style="stroke:#000000;stroke-width:0.6;" x="57.6" xlink:href="#maf26b9484d" y="171.216798"/>
      </g>
     </g>
    </g>
    <g id="ytick_27">
     <g id="line2d_107">
      <g>
       <use style="stroke:#000000;stroke-width:0.6;" x="57.6" xlink:href="#maf26b9484d" y="168.221454"/>
      </g>
     </g>
    </g>
    <g id="ytick_28">
     <g id="line2d_108">
      <g>
       <use style="stroke:#000000;stroke-width:0.6;" x="57.6" xlink:href="#maf26b9484d" y="147.914582"/>
      </g>
     </g>
    </g>
    <g id="ytick_29">
     <g id="line2d_109">
      <g>
       <use style="stroke:#000000;stroke-width:0.6;" x="57.6" xlink:href="#maf26b9484d" y="137.603187"/>
      </g>
     </g>
    </g>
    <g id="ytick_30">
     <g id="line2d_110">
      <g>
       <use style="stroke:#000000;stroke-width:0.6;" x="57.6" xlink:href="#maf26b9484d" y="130.287136"/>
      </g>
     </g>
    </g>
    <g id="ytick_31">
     <g id="line2d_111">
      <g>
       <use style="stroke:#000000;stroke-width:0.6;" x="57.6" xlink:href="#maf26b9484d" y="124.612366"/>
      </g>
     </g>
    </g>
    <g id="ytick_32">
     <g id="line2d_112">
      <g>
       <use style="stroke:#000000;stroke-width:0.6;" x="57.6" xlink:href="#maf26b9484d" y="119.975742"/>
      </g>
     </g>
    </g>
    <g id="ytick_33">
     <g id="line2d_113">
      <g>
       <use style="stroke:#000000;stroke-width:0.6;" x="57.6" xlink:href="#maf26b9484d" y="116.055531"/>
      </g>
     </g>
    </g>
    <g id="ytick_34">
     <g id="line2d_114">
      <g>
       <use style="stroke:#000000;stroke-width:0.6;" x="57.6" xlink:href="#maf26b9484d" y="112.659691"/>
      </g>
     </g>
    </g>
    <g id="ytick_35">
     <g id="line2d_115">
      <g>
       <use style="stroke:#000000;stroke-width:0.6;" x="57.6" xlink:href="#maf26b9484d" y="109.664347"/>
      </g>
     </g>
    </g>
    <g id="ytick_36">
     <g id="line2d_116">
      <g>
       <use style="stroke:#000000;stroke-width:0.6;" x="57.6" xlink:href="#maf26b9484d" y="89.357475"/>
      </g>
     </g>
    </g>
    <g id="ytick_37">
     <g id="line2d_117">
      <g>
       <use style="stroke:#000000;stroke-width:0.6;" x="57.6" xlink:href="#maf26b9484d" y="79.04608"/>
      </g>
     </g>
    </g>
    <g id="ytick_38">
     <g id="line2d_118">
      <g>
       <use style="stroke:#000000;stroke-width:0.6;" x="57.6" xlink:href="#maf26b9484d" y="71.730029"/>
      </g>
     </g>
    </g>
    <g id="ytick_39">
     <g id="line2d_119">
      <g>
       <use style="stroke:#000000;stroke-width:0.6;" x="57.6" xlink:href="#maf26b9484d" y="66.055259"/>
      </g>
     </g>
    </g>
    <g id="ytick_40">
     <g id="line2d_120">
      <g>
       <use style="stroke:#000000;stroke-width:0.6;" x="57.6" xlink:href="#maf26b9484d" y="61.418634"/>
      </g>
     </g>
    </g>
    <g id="ytick_41">
     <g id="line2d_121">
      <g>
       <use style="stroke:#000000;stroke-width:0.6;" x="57.6" xlink:href="#maf26b9484d" y="57.498424"/>
      </g>
     </g>
    </g>
    <g id="ytick_42">
     <g id="line2d_122">
      <g>
       <use style="stroke:#000000;stroke-width:0.6;" x="57.6" xlink:href="#maf26b9484d" y="54.102583"/>
      </g>
     </g>
    </g>
    <g id="ytick_43">
     <g id="line2d_123">
      <g>
       <use style="stroke:#000000;stroke-width:0.6;" x="57.6" xlink:href="#maf26b9484d" y="51.10724"/>
      </g>
     </g>
    </g>
    <g id="text_16">
     <!-- $1 - P_{EH}(k, z)/P_{CLASS}(k, z)$ -->
     <defs>
      <path d="M 16.890625 72.90625 
L 39.703125 72.90625 
Q 49.65625 72.90625 54.875 68.265625 
Q 60.109375 63.625 60.109375 54.6875 
Q 60.109375 42.671875 52.390625 35.984375 
Q 44.671875 29.296875 30.71875 29.296875 
L 18.3125 29.296875 
L 12.59375 0 
L 2.6875 0 
z
M 25.203125 64.796875 
L 19.921875 37.40625 
L 32.328125 37.40625 
Q 40.71875 37.40625 45.203125 41.703125 
Q 49.703125 46 49.703125 54 
Q 49.703125 59.125 46.65625 61.953125 
Q 43.609375 64.796875 38.09375 64.796875 
z
" id="DejaVuSans-Oblique-50"/>
      <path d="M 16.890625 72.90625 
L 62.984375 72.90625 
L 61.375 64.59375 
L 25.09375 64.59375 
L 20.90625 43.015625 
L 55.71875 43.015625 
L 54.109375 34.71875 
L 19.28125 34.71875 
L 14.203125 8.296875 
L 51.3125 8.296875 
L 49.703125 0 
L 2.6875 0 
z
" id="DejaVuSans-Oblique-45"/>
      <path d="M 16.890625 72.90625 
L 26.8125 72.90625 
L 21 43.015625 
L 56.78125 43.015625 
L 62.59375 72.90625 
L 72.515625 72.90625 
L 58.296875 0 
L 48.390625 0 
L 55.171875 34.71875 
L 19.390625 34.71875 
L 12.59375 0 
L 2.6875 0 
z
" id="DejaVuSans-Oblique-48"/>
      <path d="M 31 75.875 
Q 24.46875 64.65625 21.28125 53.65625 
Q 18.109375 42.671875 18.109375 31.390625 
Q 18.109375 20.125 21.3125 9.0625 
Q 24.515625 -2 31 -13.1875 
L 23.1875 -13.1875 
Q 15.875 -1.703125 12.234375 9.375 
Q 8.59375 20.453125 8.59375 31.390625 
Q 8.59375 42.28125 12.203125 53.3125 
Q 15.828125 64.359375 23.1875 75.875 
z
" id="DejaVuSans-28"/>
      <path d="M 11.71875 12.40625 
L 22.015625 12.40625 
L 22.015625 4 
L 14.015625 -11.625 
L 7.71875 -11.625 
L 11.71875 4 
z
" id="DejaVuSans-2c"/>
      <path d="M 11.625 54.6875 
L 54.296875 54.6875 
L 52.6875 46.484375 
L 11.53125 7.171875 
L 45.515625 7.171875 
L 44.09375 0 
L -0.296875 0 
L 1.3125 8.203125 
L 42.484375 47.515625 
L 10.203125 47.515625 
z
" id="DejaVuSans-Oblique-7a"/>
      <path d="M 8.015625 75.875 
L 15.828125 75.875 
Q 23.140625 64.359375 26.78125 53.3125 
Q 30.421875 42.28125 30.421875 31.390625 
Q 30.421875 20.453125 26.78125 9.375 
Q 23.140625 -1.703125 15.828125 -13.1875 
L 8.015625 -13.1875 
Q 14.5 -2 17.703125 9.0625 
Q 20.90625 20.125 20.90625 31.390625 
Q 20.90625 42.671875 17.703125 53.65625 
Q 14.5 64.65625 8.015625 75.875 
z
" id="DejaVuSans-29"/>
      <path d="M 25.390625 72.90625 
L 33.6875 72.90625 
L 8.296875 -9.28125 
L 0 -9.28125 
z
" id="DejaVuSans-2f"/>
      <path d="M 69.484375 67.28125 
L 67.484375 56.890625 
Q 62.796875 61.625 57.546875 63.921875 
Q 52.296875 66.21875 46.1875 66.21875 
Q 37.84375 66.21875 31.515625 62.203125 
Q 25.203125 58.203125 20.609375 50 
Q 17.671875 44.734375 16.125 38.84375 
Q 14.59375 32.953125 14.59375 27 
Q 14.59375 17.046875 19.75 11.8125 
Q 24.90625 6.59375 34.71875 6.59375 
Q 41.5 6.59375 47.75 8.765625 
Q 54 10.9375 59.90625 15.28125 
L 57.625 3.609375 
Q 51.8125 1.125 45.875 -0.140625 
Q 39.9375 -1.421875 33.984375 -1.421875 
Q 19.96875 -1.421875 12.078125 6.1875 
Q 4.203125 13.8125 4.203125 27.390625 
Q 4.203125 36.078125 7.203125 44.46875 
Q 10.203125 52.875 15.828125 59.8125 
Q 21.78125 67.1875 29.421875 70.703125 
Q 37.0625 74.21875 47.21875 74.21875 
Q 53.46875 74.21875 59.0625 72.484375 
Q 64.65625 70.75 69.484375 67.28125 
z
" id="DejaVuSans-Oblique-43"/>
      <path d="M 16.796875 72.90625 
L 26.703125 72.90625 
L 14.203125 8.203125 
L 49.703125 8.203125 
L 48.09375 0 
L 2.6875 0 
z
" id="DejaVuSans-Oblique-4c"/>
      <path d="M 36.8125 72.90625 
L 48 72.90625 
L 61.53125 0 
L 51.21875 0 
L 48.1875 18.703125 
L 15.375 18.703125 
L 5.078125 0 
L -5.328125 0 
z
M 40.375 63.1875 
L 19.921875 26.90625 
L 46.6875 26.90625 
z
" id="DejaVuSans-Oblique-41"/>
      <path d="M 60.296875 70.515625 
L 58.40625 60.890625 
Q 53.46875 63.53125 48.609375 64.875 
Q 43.75 66.21875 39.203125 66.21875 
Q 30.375 66.21875 25.140625 62.359375 
Q 19.921875 58.5 19.921875 52.09375 
Q 19.921875 48.578125 21.84375 46.703125 
Q 23.78125 44.828125 31.78125 42.671875 
L 37.703125 41.21875 
Q 47.703125 38.625 51.609375 34.640625 
Q 55.515625 30.671875 55.515625 23.484375 
Q 55.515625 12.453125 46.84375 5.515625 
Q 38.1875 -1.421875 24.03125 -1.421875 
Q 18.21875 -1.421875 12.359375 -0.265625 
Q 6.5 0.875 0.59375 3.21875 
L 2.59375 13.375 
Q 8.015625 10.015625 13.453125 8.296875 
Q 18.890625 6.59375 24.3125 6.59375 
Q 33.546875 6.59375 39.109375 10.6875 
Q 44.671875 14.796875 44.671875 21.390625 
Q 44.671875 25.78125 42.453125 28.046875 
Q 40.234375 30.328125 32.90625 32.171875 
L 27 33.6875 
Q 16.890625 36.328125 13.203125 39.765625 
Q 9.515625 43.21875 9.515625 49.421875 
Q 9.515625 60.296875 17.890625 67.25 
Q 26.265625 74.21875 39.703125 74.21875 
Q 44.921875 74.21875 50.046875 73.28125 
Q 55.171875 72.359375 60.296875 70.515625 
z
" id="DejaVuSans-Oblique-53"/>
     </defs>
     <g transform="translate(18.462344 237.668)rotate(-90)scale(0.11 -0.11)">
      <use transform="translate(0 0.015625)" xlink:href="#DejaVuSans-31"/>
      <use transform="translate(83.105469 0.015625)" xlink:href="#DejaVuSans-2212"/>
      <use transform="translate(186.376953 0.015625)" xlink:href="#DejaVuSans-Oblique-50"/>
      <use transform="translate(246.679688 -16.390625)scale(0.7)" xlink:href="#DejaVuSans-Oblique-45"/>
      <use transform="translate(290.908203 -16.390625)scale(0.7)" xlink:href="#DejaVuSans-Oblique-48"/>
      <use transform="translate(346.279297 0.015625)" xlink:href="#DejaVuSans-28"/>
      <use transform="translate(385.292969 0.015625)" xlink:href="#DejaVuSans-Oblique-6b"/>
      <use transform="translate(443.203125 0.015625)" xlink:href="#DejaVuSans-2c"/>
      <use transform="translate(494.472656 0.015625)" xlink:href="#DejaVuSans-Oblique-7a"/>
      <use transform="translate(546.962891 0.015625)" xlink:href="#DejaVuSans-29"/>
      <use transform="translate(585.976562 0.015625)" xlink:href="#DejaVuSans-2f"/>
      <use transform="translate(619.667969 0.015625)" xlink:href="#DejaVuSans-Oblique-50"/>
      <use transform="translate(679.970703 -16.390625)scale(0.7)" xlink:href="#DejaVuSans-Oblique-43"/>
      <use transform="translate(728.847656 -16.390625)scale(0.7)" xlink:href="#DejaVuSans-Oblique-4c"/>
      <use transform="translate(767.84668 -16.390625)scale(0.7)" xlink:href="#DejaVuSans-Oblique-41"/>
      <use transform="translate(815.732422 -16.390625)scale(0.7)" xlink:href="#DejaVuSans-Oblique-53"/>
      <use transform="translate(860.166016 -16.390625)scale(0.7)" xlink:href="#DejaVuSans-Oblique-53"/>
      <use transform="translate(907.333984 0.015625)" xlink:href="#DejaVuSans-28"/>
      <use transform="translate(946.347656 0.015625)" xlink:href="#DejaVuSans-Oblique-6b"/>
      <use transform="translate(1004.257812 0.015625)" xlink:href="#DejaVuSans-2c"/>
      <use transform="translate(1055.527344 0.015625)" xlink:href="#DejaVuSans-Oblique-7a"/>
      <use transform="translate(1108.017578 0.015625)" xlink:href="#DejaVuSans-29"/>
     </g>
    </g>
   </g>
   <g id="line2d_124">
    <path clip-path="url(#pc3c40de99a)" d="M 73.832727 109.736259 
L 105.973527 109.855942 
L 115.388509 110.100895 
L 121.232291 110.462195 
L 125.4528 110.928337 
L 128.861673 111.512784 
L 131.783564 112.23053 
L 134.3808 113.098952 
L 136.653382 114.092348 
L 138.763636 115.256488 
L 140.711564 116.586236 
L 142.497164 118.057198 
L 144.282764 119.818412 
L 146.068364 121.915976 
L 147.691636 124.169963 
L 149.314909 126.812649 
L 150.775855 129.588244 
L 152.2368 132.857214 
L 153.535418 136.290969 
L 154.834036 140.372049 
L 155.970327 144.651701 
L 157.106618 149.82551 
L 158.080582 155.251195 
L 159.054545 162.086665 
L 159.866182 169.537945 
L 160.515491 177.490098 
L 161.002473 185.536456 
L 161.489455 197.134752 
L 161.814109 209.277314 
L 162.138764 232.866713 
L 162.301091 268.825259 
L 162.788073 215.287329 
L 163.275055 196.458024 
L 163.762036 185.979352 
L 164.411345 176.795274 
L 165.222982 168.995419 
L 166.034618 163.417601 
L 166.846255 159.200191 
L 167.820218 155.363568 
L 168.794182 152.524434 
L 169.605818 150.783562 
L 170.417455 149.533313 
L 171.229091 148.721166 
L 171.8784 148.371542 
L 172.527709 148.289571 
L 173.177018 148.487717 
L 173.826327 148.987261 
L 174.475636 149.805466 
L 175.124945 150.969604 
L 175.774255 152.527166 
L 176.585891 155.147311 
L 177.2352 157.939321 
L 177.884509 161.577517 
L 178.533818 166.38257 
L 179.183127 172.957094 
L 179.670109 179.820619 
L 180.157091 189.838702 
L 180.481745 200.180193 
L 180.8064 218.62742 
L 180.968727 238.563054 
L 181.131055 278.833485 
L 181.455709 213.675844 
L 181.780364 196.773463 
L 182.267345 182.624024 
L 182.916655 170.980653 
L 183.565964 162.946809 
L 184.3776 155.532291 
L 185.351564 148.872431 
L 186.325527 143.752237 
L 187.299491 139.809297 
L 188.273455 136.840196 
L 189.085091 134.996775 
L 189.896727 133.649076 
L 190.546036 132.921861 
L 191.195345 132.531354 
L 191.682327 132.471462 
L 192.169309 132.619967 
L 192.656291 132.98467 
L 193.3056 133.821142 
L 193.954909 135.080988 
L 194.604218 136.855811 
L 195.253527 139.308458 
L 195.902836 142.6726 
L 196.552145 147.327879 
L 197.201455 153.991356 
L 197.688436 161.235521 
L 198.175418 172.340493 
L 198.500073 184.712033 
L 198.6624 194.627029 
L 198.824727 211.552702 
L 198.987055 295.488 
L 199.149382 213.032366 
L 199.474036 184.004602 
L 199.961018 165.608015 
L 200.610327 151.804748 
L 201.259636 142.525383 
L 202.071273 133.912641 
L 203.045236 126.063048 
L 204.181527 118.956236 
L 205.8048 110.536502 
L 207.915055 100.519066 
L 212.135564 82.371723 
L 213.271855 78.652245 
L 214.245818 76.192329 
L 215.057455 74.711116 
L 215.706764 73.951434 
L 216.193745 73.669367 
L 216.680727 73.664542 
L 217.167709 73.908715 
L 217.817018 74.563872 
L 218.628655 75.833461 
L 220.0896 78.273502 
L 220.576582 78.69587 
L 220.901236 78.751816 
L 221.225891 78.582587 
L 221.550545 78.164907 
L 222.037527 77.049476 
L 222.686836 74.698365 
L 223.498473 70.717444 
L 225.933382 58.0603 
L 226.745018 55.284887 
L 227.232 54.210976 
L 227.718982 53.642759 
L 228.043636 53.568 
L 228.368291 53.750621 
L 228.692945 54.200676 
L 229.179927 55.392312 
L 229.666909 57.20778 
L 230.316218 60.539972 
L 231.452509 67.95587 
L 232.264145 72.594419 
L 232.751127 74.07441 
L 233.075782 74.298032 
L 233.238109 74.171437 
L 233.562764 73.479016 
L 234.049745 71.567171 
L 235.997673 62.341088 
L 236.484655 61.243839 
L 236.809309 60.938167 
L 237.133964 60.977914 
L 237.458618 61.362239 
L 237.9456 62.519476 
L 238.594909 64.901317 
L 240.055855 70.647843 
L 240.705164 72.235423 
L 241.029818 72.571358 
L 241.354473 72.616798 
L 241.679127 72.39674 
L 242.166109 71.784241 
L 243.140073 70.098467 
L 244.114036 68.347186 
L 244.438691 68.17309 
L 244.763345 68.419126 
L 245.088 69.188961 
L 245.574982 71.294415 
L 246.8736 78.19251 
L 247.035927 78.33019 
L 247.198255 78.158274 
L 247.522909 76.96105 
L 248.6592 71.21454 
L 248.821527 70.978355 
L 248.983855 71.008079 
L 249.146182 71.315665 
L 249.470836 72.717957 
L 249.957818 76.328436 
L 250.4448 79.739653 
L 250.769455 80.593431 
L 250.931782 80.387854 
L 251.256436 78.932004 
L 252.068073 74.347672 
L 252.2304 74.080544 
L 252.392727 74.114932 
L 252.555055 74.464049 
L 252.879709 75.990143 
L 253.691345 80.511982 
L 253.853673 80.681769 
L 254.016 80.485018 
L 254.340655 79.301719 
L 254.989964 76.68305 
L 255.152291 76.522209 
L 255.314618 76.625852 
L 255.639273 77.542061 
L 256.288582 80.145928 
L 256.450909 80.324121 
L 256.613236 80.236088 
L 256.937891 79.473585 
L 257.424873 78.128681 
L 257.5872 77.980741 
L 257.749527 78.06894 
L 258.074182 78.72963 
L 258.561164 79.680417 
L 258.723491 79.76621 
L 259.048145 79.571865 
L 259.697455 78.747108 
L 260.022109 78.805312 
L 260.671418 79.352962 
L 260.996073 79.237697 
L 261.645382 78.781165 
L 262.132364 78.843344 
L 262.619345 78.861398 
L 265.054255 77.988309 
L 265.865891 77.6915 
L 267.976145 76.710654 
L 270.248727 75.525035 
L 273.495273 73.674205 
L 278.527418 70.727274 
L 283.559564 67.993597 
L 288.267055 65.732652 
L 292.649891 63.91472 
L 297.032727 62.355375 
L 301.577891 60.981516 
L 306.447709 59.742016 
L 312.129164 58.533205 
L 317.485964 57.586228 
L 398.487273 57.586228 
L 398.487273 57.586228 
" style="fill:none;stroke:#1f77b4;stroke-linecap:square;stroke-width:1.5;"/>
   </g>
   <g id="line2d_125">
    <path clip-path="url(#pc3c40de99a)" d="M 73.832727 111.126211 
L 107.5968 111.246244 
L 116.849455 111.48889 
L 122.530909 111.841755 
L 126.751418 112.3125 
L 130.160291 112.909354 
L 132.919855 113.603486 
L 135.354764 114.429475 
L 137.627345 115.438845 
L 139.575273 116.53355 
L 141.5232 117.889297 
L 143.3088 119.406878 
L 145.0944 121.242359 
L 146.717673 123.232075 
L 148.340945 125.586903 
L 149.964218 128.363199 
L 151.425164 131.313206 
L 152.886109 134.818925 
L 154.184727 138.528768 
L 155.483345 142.986639 
L 156.619636 147.71587 
L 157.755927 153.517033 
L 158.729891 159.765632 
L 159.541527 166.407685 
L 160.190836 173.251415 
L 160.840145 182.473852 
L 161.327127 192.36224 
L 161.651782 201.882963 
L 161.976436 217.020825 
L 162.138764 230.133757 
L 162.301091 258.346115 
L 162.463418 257.8781 
L 162.788073 217.352798 
L 163.275055 197.624043 
L 163.762036 186.878871 
L 164.411345 177.543017 
L 165.060655 171.012505 
L 165.872291 165.037205 
L 166.683927 160.571669 
L 167.657891 156.537261 
L 168.631855 153.56063 
L 169.443491 151.73351 
L 170.255127 150.419561 
L 171.066764 149.560076 
L 171.716073 149.180865 
L 172.365382 149.074642 
L 173.014691 149.252463 
L 173.664 149.736645 
L 174.313309 150.548414 
L 174.962618 151.715354 
L 175.611927 153.285943 
L 176.423564 155.940294 
L 177.072873 158.779729 
L 177.722182 162.49955 
L 178.371491 167.459352 
L 179.0208 174.332006 
L 179.507782 181.630115 
L 179.994764 192.586529 
L 180.319418 204.467653 
L 180.644073 228.600978 
L 180.8064 270.553861 
L 181.131055 219.052665 
L 181.455709 199.459013 
L 181.942691 184.114049 
L 182.592 171.828911 
L 183.241309 163.448814 
L 184.052945 155.754647 
L 185.026909 148.864646 
L 186.000873 143.55182 
L 186.974836 139.393949 
L 187.9488 136.199814 
L 188.922764 133.820464 
L 189.7344 132.370438 
L 190.546036 131.377363 
L 191.195345 130.936936 
L 191.682327 130.824273 
L 192.169309 130.904908 
L 192.656291 131.184391 
L 193.3056 131.875235 
L 193.954909 132.944227 
L 194.604218 134.464779 
L 195.253527 136.566855 
L 195.902836 139.426149 
L 196.552145 143.308128 
L 197.201455 148.66766 
L 197.850764 156.42196 
L 198.337745 165.147295 
L 198.6624 173.777354 
L 198.987055 187.636308 
L 199.149382 199.481048 
L 199.474036 238.293334 
L 199.798691 189.608029 
L 200.285673 168.134119 
L 200.772655 156.284874 
L 201.421964 145.659796 
L 202.2336 136.209032 
L 203.045236 129.084687 
L 204.0192 122.354438 
L 205.317818 114.985605 
L 207.5904 103.412121 
L 211.323927 86.430118 
L 212.622545 81.44374 
L 213.596509 78.471314 
L 214.570473 76.214696 
L 215.219782 75.151777 
L 215.869091 74.493712 
L 216.356073 74.308403 
L 216.843055 74.403963 
L 217.330036 74.741119 
L 217.979345 75.51919 
L 218.953309 77.221142 
L 220.0896 79.166269 
L 220.576582 79.614587 
L 220.901236 79.679903 
L 221.225891 79.511854 
L 221.550545 79.08632 
L 222.037527 77.941898 
L 222.686836 75.52493 
L 223.498473 71.438903 
L 225.771055 59.223063 
L 226.582691 56.182175 
L 227.232 54.626309 
L 227.718982 54.052611 
L 228.043636 53.978722 
L 228.368291 54.166094 
L 228.692945 54.625119 
L 229.179927 55.8389 
L 229.666909 57.688471 
L 230.316218 61.088695 
L 231.452509 68.69214 
L 232.264145 73.482091 
L 232.751127 75.01922 
L 233.075782 75.25425 
L 233.238109 75.12456 
L 233.562764 74.410017 
L 234.049745 72.436153 
L 235.997673 62.963471 
L 236.484655 61.8433 
L 236.809309 61.532207 
L 237.133964 61.574305 
L 237.458618 61.968742 
L 237.9456 63.155097 
L 238.594909 65.599782 
L 240.055855 71.525517 
L 240.705164 73.171519 
L 241.029818 73.521368 
L 241.354473 73.57018 
L 241.679127 73.343523 
L 242.166109 72.711 
L 243.140073 70.971248 
L 244.114036 69.16648 
L 244.438691 68.987999 
L 244.763345 69.242784 
L 245.088 70.038191 
L 245.574982 72.216652 
L 246.8736 79.402914 
L 247.035927 79.547845 
L 247.198255 79.3684 
L 247.522909 78.116887 
L 248.6592 72.142638 
L 248.821527 71.898473 
L 248.983855 71.929614 
L 249.146182 72.248495 
L 249.470836 73.70322 
L 249.957818 77.462849 
L 250.4448 81.037289 
L 250.769455 81.936163 
L 250.931782 81.720134 
L 251.256436 80.191017 
L 252.068073 75.402713 
L 252.2304 75.125154 
L 252.392727 75.161344 
L 252.555055 75.525086 
L 252.879709 77.116648 
L 253.691345 81.857954 
L 253.853673 82.036956 
L 254.016 81.830017 
L 254.340655 80.586641 
L 254.989964 77.844925 
L 255.152291 77.676698 
L 255.314618 77.784779 
L 255.639273 78.743073 
L 256.288582 81.477589 
L 256.450909 81.665438 
L 256.613236 81.573093 
L 256.937891 80.772238 
L 257.424873 79.36295 
L 257.5872 79.208302 
L 257.749527 79.300859 
L 258.074182 79.993705 
L 258.561164 80.993432 
L 258.723491 81.084171 
L 258.885818 81.039834 
L 259.210473 80.644471 
L 259.697455 80.012279 
L 259.859782 79.985992 
L 260.184436 80.235035 
L 260.671418 80.650105 
L 260.996073 80.528788 
L 261.645382 80.049197 
L 262.132364 80.115717 
L 262.619345 80.135842 
L 265.054255 79.221128 
L 265.865891 78.9101 
L 267.976145 77.88429 
L 270.248727 76.646423 
L 273.495273 74.718763 
L 278.365091 71.754882 
L 284.208873 68.494846 
L 288.104727 66.579679 
L 292.000582 64.895071 
L 296.221091 63.313137 
L 300.603927 61.910906 
L 305.311418 60.638312 
L 310.668218 59.42546 
L 317.161309 58.198388 
L 317.810618 58.169916 
L 398.487273 58.169916 
L 398.487273 58.169916 
" style="fill:none;stroke:#ff7f0e;stroke-linecap:square;stroke-width:1.5;"/>
   </g>
   <g id="line2d_126">
    <path clip-path="url(#pc3c40de99a)" d="M 73.832727 112.876119 
L 109.220073 112.992886 
L 118.472727 113.235687 
L 124.154182 113.597505 
L 128.212364 114.064069 
L 131.458909 114.646389 
L 134.218473 115.359047 
L 136.653382 116.219679 
L 138.763636 117.193504 
L 140.711564 118.335377 
L 142.497164 119.629013 
L 144.120436 121.058337 
L 145.743709 122.771611 
L 147.366982 124.82085 
L 148.990255 127.267492 
L 150.4512 129.866754 
L 151.912145 132.947217 
L 153.210764 136.19325 
L 154.509382 140.045543 
L 155.645673 144.072104 
L 156.781964 148.915747 
L 157.755927 153.945432 
L 158.729891 160.17198 
L 159.541527 166.787827 
L 160.190836 173.599185 
L 160.840145 182.764374 
L 161.327127 192.565142 
L 161.814109 208.331772 
L 162.138764 229.428285 
L 162.301091 255.395435 
L 162.463418 262.241053 
L 162.788073 218.575078 
L 163.275055 198.445781 
L 163.762036 187.587235 
L 164.411345 178.190197 
L 165.060655 171.634349 
L 165.872291 165.6497 
L 166.683927 161.188744 
L 167.495564 157.759686 
L 168.469527 154.654038 
L 169.281164 152.749612 
L 170.0928 151.382697 
L 170.904436 150.489465 
L 171.553745 150.093456 
L 172.203055 149.977563 
L 172.852364 150.151706 
L 173.501673 150.638566 
L 174.150982 151.464474 
L 174.800291 152.658659 
L 175.4496 154.271825 
L 176.098909 156.38664 
L 176.748218 159.136199 
L 177.397527 162.741555 
L 178.046836 167.571795 
L 178.696145 174.283589 
L 179.183127 181.404484 
L 179.670109 192.034815 
L 179.994764 203.410546 
L 180.319418 225.573265 
L 180.481745 257.09853 
L 180.644073 246.977121 
L 180.968727 209.231529 
L 181.455709 189.204861 
L 181.942691 177.831793 
L 182.592 167.611479 
L 183.403636 158.650699 
L 184.215273 151.996288 
L 185.189236 145.830729 
L 186.1632 140.970233 
L 187.137164 137.129291 
L 188.111127 134.158247 
L 189.085091 131.931081 
L 189.896727 130.565401 
L 190.708364 129.635663 
L 191.357673 129.228744 
L 191.844655 129.128756 
L 192.331636 129.209468 
L 192.818618 129.474367 
L 193.467927 130.118499 
L 194.117236 131.109242 
L 194.766545 132.522261 
L 195.415855 134.468323 
L 196.065164 137.091986 
L 196.714473 140.603155 
L 197.363782 145.342581 
L 198.013091 151.948193 
L 198.500073 158.973704 
L 198.987055 169.488096 
L 199.311709 180.74547 
L 199.636364 202.575036 
L 199.798691 232.864084 
L 199.961018 225.700516 
L 200.285673 186.970374 
L 200.772655 166.766962 
L 201.259636 155.304822 
L 201.908945 144.905328 
L 202.720582 135.654716 
L 203.694545 127.485677 
L 204.830836 120.064974 
L 206.941091 108.259581 
L 208.726691 99.553845 
L 212.297891 83.406096 
L 213.434182 79.65796 
L 214.408145 77.232983 
L 215.219782 75.826814 
L 215.869091 75.164136 
L 216.356073 74.983043 
L 216.843055 75.089958 
L 217.330036 75.444916 
L 217.979345 76.256314 
L 218.953309 78.026871 
L 220.0896 80.057466 
L 220.576582 80.530878 
L 220.901236 80.604706 
L 221.225891 80.436659 
L 221.550545 80.001754 
L 222.037527 78.825681 
L 222.686836 76.339439 
L 223.498473 72.144849 
L 225.771055 59.683845 
L 226.582691 56.598446 
L 227.232 55.022703 
L 227.718982 54.443084 
L 228.043636 54.369653 
L 228.368291 54.561217 
L 228.692945 55.028451 
L 229.179927 56.26294 
L 229.666909 58.144887 
L 230.316218 61.610204 
L 231.452509 69.394767 
L 232.264145 74.332467 
L 232.751127 75.925273 
L 233.075782 76.1708 
L 233.238109 76.03763 
L 233.562764 75.300423 
L 234.049745 73.264282 
L 235.997673 63.548315 
L 236.484655 62.405636 
L 236.809309 62.088989 
L 237.133964 62.132909 
L 237.458618 62.536634 
L 237.9456 63.750389 
L 238.594909 66.254727 
L 240.055855 72.35205 
L 240.705164 74.054254 
L 241.029818 74.417231 
L 241.354473 74.46886 
L 241.679127 74.23536 
L 242.166109 73.58269 
L 243.140073 71.789208 
L 244.114036 69.9318 
L 244.438691 69.748826 
L 244.763345 70.011834 
L 245.088 70.831612 
L 245.574982 73.080071 
L 246.8736 80.547263 
L 247.035927 80.699081 
L 247.198255 80.51202 
L 247.522909 79.206866 
L 248.6592 73.008894 
L 248.821527 72.756899 
L 248.983855 72.789316 
L 249.146182 73.119053 
L 249.470836 74.624657 
L 249.957818 78.530358 
L 250.4448 82.265017 
L 250.769455 83.208395 
L 250.931782 82.982158 
L 251.256436 81.380692 
L 252.068073 76.390466 
L 252.2304 76.10229 
L 252.392727 76.13985 
L 252.555055 76.517576 
L 252.879709 78.172833 
L 253.691345 83.130298 
L 253.853673 83.318312 
L 254.016 83.101098 
L 254.340655 81.79809 
L 254.989964 78.93563 
L 255.152291 78.760133 
L 255.314618 78.872488 
L 255.639273 79.871921 
L 256.288582 82.73536 
L 256.450909 82.932733 
L 256.613236 82.835934 
L 256.937891 81.99618 
L 257.424873 80.52141 
L 257.5872 80.359833 
L 257.749527 80.456602 
L 258.074182 81.181287 
L 258.561164 82.228786 
L 258.723491 82.324088 
L 258.885818 82.277762 
L 259.210473 81.863659 
L 259.697455 81.201952 
L 259.859782 81.174493 
L 260.184436 81.435228 
L 260.671418 81.870048 
L 260.996073 81.743079 
L 261.645382 81.241306 
L 262.132364 81.311269 
L 262.619345 81.332571 
L 265.054255 80.376467 
L 265.865891 80.051933 
L 267.813818 79.058479 
L 269.274764 78.263623 
L 274.793891 74.866707 
L 283.234909 69.788987 
L 286.968436 67.840462 
L 290.701964 66.113672 
L 294.760145 64.47619 
L 298.980655 63.013689 
L 303.525818 61.677352 
L 308.557964 60.436722 
L 314.239418 59.267875 
L 317.810618 58.705744 
L 398.487273 58.705744 
L 398.487273 58.705744 
" style="fill:none;stroke:#2ca02c;stroke-linecap:square;stroke-width:1.5;"/>
   </g>
   <g id="line2d_127">
    <path clip-path="url(#pc3c40de99a)" d="M 73.832727 114.894053 
L 111.168 115.00837 
L 120.258327 115.250832 
L 125.777455 115.611475 
L 129.673309 116.072853 
L 132.757527 116.641977 
L 135.354764 117.32625 
L 137.627345 118.139436 
L 139.7376 119.129359 
L 141.685527 120.299493 
L 143.471127 121.641867 
L 145.0944 123.139524 
L 146.717673 124.949931 
L 148.178618 126.901326 
L 149.639564 129.206399 
L 151.100509 131.941643 
L 152.399127 134.830301 
L 153.697745 138.253274 
L 154.996364 142.362838 
L 156.132655 146.705283 
L 157.268945 151.984269 
L 158.242909 157.555782 
L 159.054545 163.317789 
L 159.866182 170.69727 
L 160.515491 178.554426 
L 161.1648 189.740752 
L 161.651782 203.010202 
L 161.976436 218.208868 
L 162.138764 231.414048 
L 162.301091 260.096328 
L 162.463418 258.265045 
L 162.788073 218.271384 
L 163.275055 198.621197 
L 163.762036 187.904966 
L 164.411345 178.595626 
L 165.060655 172.090832 
L 165.872291 166.152564 
L 166.683927 161.730949 
L 167.495564 158.33967 
L 168.3072 155.725001 
L 169.118836 153.747972 
L 169.930473 152.32935 
L 170.579782 151.551777 
L 171.229091 151.069199 
L 171.8784 150.875443 
L 172.365382 150.923103 
L 172.852364 151.144222 
L 173.501673 151.730602 
L 174.150982 152.67895 
L 174.800291 154.024506 
L 175.4496 155.827653 
L 176.098909 158.187284 
L 176.748218 161.265195 
L 177.397527 165.337702 
L 178.046836 170.893099 
L 178.696145 178.8908 
L 179.183127 187.898271 
L 179.507782 196.849629 
L 179.832436 211.430073 
L 179.994764 224.269176 
L 180.157091 252.219448 
L 180.319418 251.441086 
L 180.644073 210.386504 
L 181.131055 189.845477 
L 181.618036 178.28264 
L 182.267345 167.886707 
L 183.078982 158.756457 
L 183.890618 151.963936 
L 184.864582 145.662163 
L 185.838545 140.677425 
L 186.812509 136.677163 
L 187.786473 133.526749 
L 188.760436 131.111542 
L 189.7344 129.32813 
L 190.546036 128.290465 
L 191.195345 127.773861 
L 191.844655 127.548926 
L 192.331636 127.576469 
L 192.980945 127.878841 
L 193.630255 128.48622 
L 194.279564 129.417693 
L 194.928873 130.747695 
L 195.578182 132.571056 
L 196.227491 135.008239 
L 196.8768 138.228182 
L 197.526109 142.492826 
L 198.175418 148.269758 
L 198.824727 156.602218 
L 199.311709 166.102001 
L 199.636364 175.743106 
L 199.961018 192.180754 
L 200.123345 208.072359 
L 200.285673 262.125343 
L 200.610327 194.897735 
L 200.934982 176.031621 
L 201.421964 160.926074 
L 202.071273 148.595766 
L 202.882909 138.275575 
L 203.694545 130.756206 
L 204.668509 123.661081 
L 206.291782 113.666437 
L 207.915055 104.856557 
L 211.486255 87.5094 
L 212.622545 82.986073 
L 213.596509 79.885921 
L 214.408145 77.881343 
L 215.219782 76.454155 
L 215.869091 75.785713 
L 216.356073 75.607626 
L 216.843055 75.724329 
L 217.330036 76.095169 
L 217.979345 76.936783 
L 218.790982 78.441008 
L 220.0896 80.879438 
L 220.576582 81.375555 
L 220.901236 81.456668 
L 221.225891 81.287808 
L 221.550545 80.843213 
L 222.037527 79.635989 
L 222.686836 77.082866 
L 223.498473 72.785133 
L 225.771055 60.095549 
L 226.582691 56.969049 
L 227.232 55.374832 
L 227.718982 54.789515 
L 228.043636 54.716265 
L 228.368291 54.911374 
L 228.692945 55.385773 
L 229.179927 56.638549 
L 229.666909 58.549258 
L 230.316218 62.072752 
L 231.452509 70.021009 
L 232.264145 75.093547 
L 232.751127 76.737209 
L 233.075782 76.99214 
L 233.238109 76.855553 
L 233.562764 76.096904 
L 234.049745 74.002795 
L 235.997673 64.063723 
L 236.484655 62.900464 
L 236.809309 62.578681 
L 237.133964 62.624108 
L 237.458618 63.035977 
L 237.9456 64.274015 
L 238.594909 66.831799 
L 240.055855 73.083798 
L 240.705164 74.837135 
L 241.029818 75.211841 
L 241.354473 75.265751 
L 241.679127 75.025862 
L 242.166109 74.354527 
L 243.140073 72.511363 
L 244.114036 70.605737 
L 244.438691 70.418481 
L 244.601018 70.492285 
L 244.925673 71.033685 
L 245.250327 72.171332 
L 245.737309 74.860427 
L 246.711273 81.098824 
L 247.035927 81.725967 
L 247.198255 81.531616 
L 247.522909 80.176244 
L 248.6592 73.773045 
L 248.821527 73.51374 
L 248.983855 73.547238 
L 249.146182 73.886871 
L 249.470836 75.438934 
L 249.957818 79.478532 
L 250.4448 83.362191 
L 250.769455 84.346957 
L 250.931782 84.110778 
L 251.256436 82.441152 
L 252.068073 77.264767 
L 252.2304 76.9669 
L 252.392727 77.005706 
L 252.555055 77.396187 
L 252.879709 79.109778 
L 253.691345 84.267801 
L 253.853673 84.464373 
L 254.016 84.2376 
L 254.340655 82.878483 
L 254.989964 79.90273 
L 255.152291 79.72073 
L 255.314618 79.837323 
L 255.639273 80.875051 
L 256.288582 83.857453 
L 256.450909 84.063653 
L 256.613236 83.962697 
L 256.937891 83.086721 
L 257.424873 81.551119 
L 257.5872 81.383144 
L 257.749527 81.483859 
L 258.074182 82.238183 
L 258.561164 83.330105 
L 258.723491 83.429588 
L 258.885818 83.381314 
L 259.210473 82.949552 
L 259.697455 82.26023 
L 259.859782 82.231698 
L 260.184436 82.503418 
L 260.671418 82.956796 
L 260.996073 82.824555 
L 261.645382 82.301952 
L 262.132364 82.374971 
L 262.619345 82.397335 
L 264.891927 81.453913 
L 265.865891 81.06552 
L 267.813818 80.03404 
L 269.274764 79.209717 
L 274.956218 75.593442 
L 279.826036 72.477128 
L 284.046545 70.018531 
L 288.429382 67.756987 
L 292.162909 66.077978 
L 296.058764 64.551272 
L 300.279273 63.131422 
L 304.824436 61.836075 
L 310.018909 60.596851 
L 315.862691 59.435999 
L 317.810618 59.172373 
L 398.487273 59.172373 
L 398.487273 59.172373 
" style="fill:none;stroke:#d62728;stroke-linecap:square;stroke-width:1.5;"/>
   </g>
   <g id="line2d_128">
    <path clip-path="url(#pc3c40de99a)" d="M 73.832727 117.155928 
L 113.602909 117.269094 
L 122.206255 117.505913 
L 127.400727 117.856053 
L 131.296582 118.336437 
L 134.3808 118.940781 
L 136.815709 119.628985 
L 139.088291 120.499788 
L 141.036218 121.482406 
L 142.821818 122.621143 
L 144.445091 123.909381 
L 146.068364 125.485244 
L 147.529309 127.201826 
L 148.990255 129.254629 
L 150.4512 131.703429 
L 151.749818 134.300797 
L 153.048436 137.393572 
L 154.347055 141.105831 
L 155.483345 145.014238 
L 156.619636 149.734241 
L 157.5936 154.637095 
L 158.567564 160.685259 
L 159.3792 167.076794 
L 160.190836 175.525109 
L 160.840145 184.976961 
L 161.327127 195.235727 
L 161.651782 205.290963 
L 161.976436 221.878389 
L 162.138764 237.339964 
L 162.301091 282.576001 
L 162.625745 227.437524 
L 162.9504 208.596193 
L 163.437382 194.092609 
L 164.086691 182.777064 
L 164.736 175.278614 
L 165.547636 168.62492 
L 166.359273 163.76064 
L 167.170909 160.06214 
L 167.982545 157.21505 
L 168.794182 155.049214 
L 169.605818 153.472544 
L 170.417455 152.419506 
L 171.066764 151.921925 
L 171.716073 151.722125 
L 172.203055 151.770942 
L 172.690036 151.99824 
L 173.339345 152.601736 
L 173.988655 153.584088 
L 174.637964 154.984297 
L 175.287273 156.866604 
L 175.936582 159.337509 
L 176.585891 162.573435 
L 177.2352 166.880635 
L 177.884509 172.829839 
L 178.371491 179.029509 
L 178.858473 187.91398 
L 179.183127 196.719435 
L 179.507782 210.955592 
L 179.670109 223.302671 
L 179.832436 248.9334 
L 179.994764 255.692737 
L 180.319418 211.37791 
L 180.8064 190.404632 
L 181.293382 178.706383 
L 181.942691 168.187107 
L 182.754327 158.922631 
L 183.565964 152.012946 
L 184.539927 145.589549 
L 185.513891 140.49904 
L 186.650182 135.75593 
L 187.624145 132.570335 
L 188.598109 130.09273 
L 189.572073 128.229051 
L 190.383709 127.10102 
L 191.033018 126.492207 
L 191.682327 126.157078 
L 192.331636 126.102544 
L 192.980945 126.331729 
L 193.630255 126.843596 
L 194.279564 127.652333 
L 194.928873 128.821879 
L 195.578182 130.431183 
L 196.227491 132.57597 
L 196.8768 135.383597 
L 197.526109 139.039657 
L 198.175418 143.852501 
L 198.824727 150.453762 
L 199.311709 157.386671 
L 199.798691 167.593303 
L 200.123345 178.263476 
L 200.448 197.841991 
L 200.772655 239.785524 
L 201.097309 188.985603 
L 201.584291 167.368741 
L 202.071273 155.496043 
L 202.720582 144.948293 
L 203.532218 135.729205 
L 204.506182 127.525193 
L 205.967127 117.613755 
L 207.428073 108.891998 
L 209.376 98.809648 
L 211.810909 86.884457 
L 212.9472 82.53739 
L 213.921164 79.630503 
L 214.7328 77.819875 
L 215.382109 76.814011 
L 215.869091 76.351023 
L 216.356073 76.174978 
L 216.843055 76.300002 
L 217.330036 76.68482 
L 217.979345 77.553507 
L 218.790982 79.104396 
L 220.0896 81.624814 
L 220.576582 82.141302 
L 220.901236 82.22865 
L 221.225891 82.058463 
L 221.550545 81.604272 
L 222.037527 80.367263 
L 222.686836 77.751231 
L 223.498473 73.357596 
L 225.771055 60.45901 
L 226.582691 57.29526 
L 227.232 55.684265 
L 227.718982 55.093664 
L 228.043636 55.020438 
L 228.368291 55.218554 
L 228.692945 55.699154 
L 229.179927 56.96794 
L 229.666909 58.904033 
L 230.316218 62.479132 
L 231.290182 69.372281 
L 232.264145 75.768139 
L 232.751127 77.457851 
L 233.075782 77.72116 
L 233.238109 77.581338 
L 233.562764 76.802881 
L 234.049745 74.655627 
L 235.997673 64.514765 
L 236.484655 63.333022 
L 236.809309 63.006556 
L 237.133964 63.053193 
L 237.458618 63.472219 
L 237.9456 64.731764 
L 238.594909 67.336982 
L 240.055855 73.727526 
L 240.705164 75.526902 
L 241.029818 75.912218 
L 241.354473 75.968122 
L 241.679127 75.722232 
L 242.166109 75.033745 
L 243.140073 73.145474 
L 244.114036 71.196229 
L 244.438691 71.005069 
L 244.601018 71.080668 
L 244.925673 71.63464 
L 245.250327 72.799326 
L 245.737309 75.557362 
L 246.711273 81.987193 
L 247.035927 82.636682 
L 247.198255 82.435706 
L 247.522909 81.034416 
L 248.6592 74.443865 
L 248.821527 74.178001 
L 248.983855 74.212476 
L 249.146182 74.560991 
L 249.470836 76.154809 
L 249.957818 80.315671 
L 250.4448 84.336591 
L 250.769455 85.36002 
L 250.931782 85.114646 
L 251.256436 83.38173 
L 252.068073 78.034274 
L 252.2304 77.727734 
L 252.392727 77.767818 
L 252.555055 78.170008 
L 252.879709 79.936895 
L 253.691345 85.279622 
L 253.853673 85.48411 
L 254.016 85.248413 
L 254.340655 83.837135 
L 254.989964 80.756672 
L 255.152291 80.5687 
L 255.314618 80.689188 
L 255.639273 81.762122 
L 256.288582 84.854412 
L 256.450909 85.068787 
L 256.613236 84.963956 
L 256.937891 84.054393 
L 257.424873 82.462623 
L 257.5872 82.288745 
L 257.749527 82.393077 
L 258.074182 83.174672 
L 258.561164 84.307588 
L 258.723491 84.410935 
L 258.885818 84.36086 
L 259.210473 83.912794 
L 259.697455 83.198014 
L 259.859782 83.168482 
L 260.184436 83.450285 
L 260.671418 83.920724 
L 260.996073 83.783603 
L 261.645382 83.241765 
L 262.132364 83.317559 
L 262.619345 83.340879 
L 264.891927 82.36379 
L 265.865891 81.961923 
L 267.813818 80.895402 
L 269.274764 80.044078 
L 274.956218 76.319278 
L 279.663709 73.22105 
L 284.858182 70.153021 
L 288.754036 68.137469 
L 292.649891 66.37676 
L 296.708073 64.791961 
L 300.928582 63.383513 
L 305.473745 62.10047 
L 310.668218 60.873366 
L 316.674327 59.694367 
L 317.810618 59.577546 
L 398.487273 59.577546 
L 398.487273 59.577546 
" style="fill:none;stroke:#9467bd;stroke-linecap:square;stroke-width:1.5;"/>
   </g>
   <g id="patch_3">
    <path d="M 57.6 307.584 
L 57.6 41.472 
" style="fill:none;stroke:#000000;stroke-linecap:square;stroke-linejoin:miter;stroke-width:0.8;"/>
   </g>
   <g id="patch_4">
    <path d="M 414.72 307.584 
L 414.72 41.472 
" style="fill:none;stroke:#000000;stroke-linecap:square;stroke-linejoin:miter;stroke-width:0.8;"/>
   </g>
   <g id="patch_5">
    <path d="M 57.6 307.584 
L 414.72 307.584 
" style="fill:none;stroke:#000000;stroke-linecap:square;stroke-linejoin:miter;stroke-width:0.8;"/>
   </g>
   <g id="patch_6">
    <path d="M 57.6 41.472 
L 414.72 41.472 
" style="fill:none;stroke:#000000;stroke-linecap:square;stroke-linejoin:miter;stroke-width:0.8;"/>
   </g>
   <g id="text_17">
    <!-- Relative difference between the EH and CLASS PS -->
    <defs>
     <path d="M 44.390625 34.1875 
Q 47.5625 33.109375 50.5625 29.59375 
Q 53.5625 26.078125 56.59375 19.921875 
L 66.609375 0 
L 56 0 
L 46.6875 18.703125 
Q 43.0625 26.03125 39.671875 28.421875 
Q 36.28125 30.8125 30.421875 30.8125 
L 19.671875 30.8125 
L 19.671875 0 
L 9.8125 0 
L 9.8125 72.90625 
L 32.078125 72.90625 
Q 44.578125 72.90625 50.734375 67.671875 
Q 56.890625 62.453125 56.890625 51.90625 
Q 56.890625 45.015625 53.6875 40.46875 
Q 50.484375 35.9375 44.390625 34.1875 
z
M 19.671875 64.796875 
L 19.671875 38.921875 
L 32.078125 38.921875 
Q 39.203125 38.921875 42.84375 42.21875 
Q 46.484375 45.515625 46.484375 51.90625 
Q 46.484375 58.296875 42.84375 61.546875 
Q 39.203125 64.796875 32.078125 64.796875 
z
" id="DejaVuSans-52"/>
     <path d="M 56.203125 29.59375 
L 56.203125 25.203125 
L 14.890625 25.203125 
Q 15.484375 15.921875 20.484375 11.0625 
Q 25.484375 6.203125 34.421875 6.203125 
Q 39.59375 6.203125 44.453125 7.46875 
Q 49.3125 8.734375 54.109375 11.28125 
L 54.109375 2.78125 
Q 49.265625 0.734375 44.1875 -0.34375 
Q 39.109375 -1.421875 33.890625 -1.421875 
Q 20.796875 -1.421875 13.15625 6.1875 
Q 5.515625 13.8125 5.515625 26.8125 
Q 5.515625 40.234375 12.765625 48.109375 
Q 20.015625 56 32.328125 56 
Q 43.359375 56 49.78125 48.890625 
Q 56.203125 41.796875 56.203125 29.59375 
z
M 47.21875 32.234375 
Q 47.125 39.59375 43.09375 43.984375 
Q 39.0625 48.390625 32.421875 48.390625 
Q 24.90625 48.390625 20.390625 44.140625 
Q 15.875 39.890625 15.1875 32.171875 
z
" id="DejaVuSans-65"/>
     <path d="M 9.421875 75.984375 
L 18.40625 75.984375 
L 18.40625 0 
L 9.421875 0 
z
" id="DejaVuSans-6c"/>
     <path d="M 34.28125 27.484375 
Q 23.390625 27.484375 19.1875 25 
Q 14.984375 22.515625 14.984375 16.5 
Q 14.984375 11.71875 18.140625 8.90625 
Q 21.296875 6.109375 26.703125 6.109375 
Q 34.1875 6.109375 38.703125 11.40625 
Q 43.21875 16.703125 43.21875 25.484375 
L 43.21875 27.484375 
z
M 52.203125 31.203125 
L 52.203125 0 
L 43.21875 0 
L 43.21875 8.296875 
Q 40.140625 3.328125 35.546875 0.953125 
Q 30.953125 -1.421875 24.3125 -1.421875 
Q 15.921875 -1.421875 10.953125 3.296875 
Q 6 8.015625 6 15.921875 
Q 6 25.140625 12.171875 29.828125 
Q 18.359375 34.515625 30.609375 34.515625 
L 43.21875 34.515625 
L 43.21875 35.40625 
Q 43.21875 41.609375 39.140625 45 
Q 35.0625 48.390625 27.6875 48.390625 
Q 23 48.390625 18.546875 47.265625 
Q 14.109375 46.140625 10.015625 43.890625 
L 10.015625 52.203125 
Q 14.9375 54.109375 19.578125 55.046875 
Q 24.21875 56 28.609375 56 
Q 40.484375 56 46.34375 49.84375 
Q 52.203125 43.703125 52.203125 31.203125 
z
" id="DejaVuSans-61"/>
     <path d="M 18.3125 70.21875 
L 18.3125 54.6875 
L 36.8125 54.6875 
L 36.8125 47.703125 
L 18.3125 47.703125 
L 18.3125 18.015625 
Q 18.3125 11.328125 20.140625 9.421875 
Q 21.96875 7.515625 27.59375 7.515625 
L 36.8125 7.515625 
L 36.8125 0 
L 27.59375 0 
Q 17.1875 0 13.234375 3.875 
Q 9.28125 7.765625 9.28125 18.015625 
L 9.28125 47.703125 
L 2.6875 47.703125 
L 2.6875 54.6875 
L 9.28125 54.6875 
L 9.28125 70.21875 
z
" id="DejaVuSans-74"/>
     <path d="M 9.421875 54.6875 
L 18.40625 54.6875 
L 18.40625 0 
L 9.421875 0 
z
M 9.421875 75.984375 
L 18.40625 75.984375 
L 18.40625 64.59375 
L 9.421875 64.59375 
z
" id="DejaVuSans-69"/>
     <path d="M 2.984375 54.6875 
L 12.5 54.6875 
L 29.59375 8.796875 
L 46.6875 54.6875 
L 56.203125 54.6875 
L 35.6875 0 
L 23.484375 0 
z
" id="DejaVuSans-76"/>
     <path id="DejaVuSans-20"/>
     <path d="M 45.40625 46.390625 
L 45.40625 75.984375 
L 54.390625 75.984375 
L 54.390625 0 
L 45.40625 0 
L 45.40625 8.203125 
Q 42.578125 3.328125 38.25 0.953125 
Q 33.9375 -1.421875 27.875 -1.421875 
Q 17.96875 -1.421875 11.734375 6.484375 
Q 5.515625 14.40625 5.515625 27.296875 
Q 5.515625 40.1875 11.734375 48.09375 
Q 17.96875 56 27.875 56 
Q 33.9375 56 38.25 53.625 
Q 42.578125 51.265625 45.40625 46.390625 
z
M 14.796875 27.296875 
Q 14.796875 17.390625 18.875 11.75 
Q 22.953125 6.109375 30.078125 6.109375 
Q 37.203125 6.109375 41.296875 11.75 
Q 45.40625 17.390625 45.40625 27.296875 
Q 45.40625 37.203125 41.296875 42.84375 
Q 37.203125 48.484375 30.078125 48.484375 
Q 22.953125 48.484375 18.875 42.84375 
Q 14.796875 37.203125 14.796875 27.296875 
z
" id="DejaVuSans-64"/>
     <path d="M 37.109375 75.984375 
L 37.109375 68.5 
L 28.515625 68.5 
Q 23.6875 68.5 21.796875 66.546875 
Q 19.921875 64.59375 19.921875 59.515625 
L 19.921875 54.6875 
L 34.71875 54.6875 
L 34.71875 47.703125 
L 19.921875 47.703125 
L 19.921875 0 
L 10.890625 0 
L 10.890625 47.703125 
L 2.296875 47.703125 
L 2.296875 54.6875 
L 10.890625 54.6875 
L 10.890625 58.5 
Q 10.890625 67.625 15.140625 71.796875 
Q 19.390625 75.984375 28.609375 75.984375 
z
" id="DejaVuSans-66"/>
     <path d="M 41.109375 46.296875 
Q 39.59375 47.171875 37.8125 47.578125 
Q 36.03125 48 33.890625 48 
Q 26.265625 48 22.1875 43.046875 
Q 18.109375 38.09375 18.109375 28.8125 
L 18.109375 0 
L 9.078125 0 
L 9.078125 54.6875 
L 18.109375 54.6875 
L 18.109375 46.1875 
Q 20.953125 51.171875 25.484375 53.578125 
Q 30.03125 56 36.53125 56 
Q 37.453125 56 38.578125 55.875 
Q 39.703125 55.765625 41.0625 55.515625 
z
" id="DejaVuSans-72"/>
     <path d="M 54.890625 33.015625 
L 54.890625 0 
L 45.90625 0 
L 45.90625 32.71875 
Q 45.90625 40.484375 42.875 44.328125 
Q 39.84375 48.1875 33.796875 48.1875 
Q 26.515625 48.1875 22.3125 43.546875 
Q 18.109375 38.921875 18.109375 30.90625 
L 18.109375 0 
L 9.078125 0 
L 9.078125 54.6875 
L 18.109375 54.6875 
L 18.109375 46.1875 
Q 21.34375 51.125 25.703125 53.5625 
Q 30.078125 56 35.796875 56 
Q 45.21875 56 50.046875 50.171875 
Q 54.890625 44.34375 54.890625 33.015625 
z
" id="DejaVuSans-6e"/>
     <path d="M 48.6875 27.296875 
Q 48.6875 37.203125 44.609375 42.84375 
Q 40.53125 48.484375 33.40625 48.484375 
Q 26.265625 48.484375 22.1875 42.84375 
Q 18.109375 37.203125 18.109375 27.296875 
Q 18.109375 17.390625 22.1875 11.75 
Q 26.265625 6.109375 33.40625 6.109375 
Q 40.53125 6.109375 44.609375 11.75 
Q 48.6875 17.390625 48.6875 27.296875 
z
M 18.109375 46.390625 
Q 20.953125 51.265625 25.265625 53.625 
Q 29.59375 56 35.59375 56 
Q 45.5625 56 51.78125 48.09375 
Q 58.015625 40.1875 58.015625 27.296875 
Q 58.015625 14.40625 51.78125 6.484375 
Q 45.5625 -1.421875 35.59375 -1.421875 
Q 29.59375 -1.421875 25.265625 0.953125 
Q 20.953125 3.328125 18.109375 8.203125 
L 18.109375 0 
L 9.078125 0 
L 9.078125 75.984375 
L 18.109375 75.984375 
z
" id="DejaVuSans-62"/>
     <path d="M 4.203125 54.6875 
L 13.1875 54.6875 
L 24.421875 12.015625 
L 35.59375 54.6875 
L 46.1875 54.6875 
L 57.421875 12.015625 
L 68.609375 54.6875 
L 77.59375 54.6875 
L 63.28125 0 
L 52.6875 0 
L 40.921875 44.828125 
L 29.109375 0 
L 18.5 0 
z
" id="DejaVuSans-77"/>
     <path d="M 54.890625 33.015625 
L 54.890625 0 
L 45.90625 0 
L 45.90625 32.71875 
Q 45.90625 40.484375 42.875 44.328125 
Q 39.84375 48.1875 33.796875 48.1875 
Q 26.515625 48.1875 22.3125 43.546875 
Q 18.109375 38.921875 18.109375 30.90625 
L 18.109375 0 
L 9.078125 0 
L 9.078125 75.984375 
L 18.109375 75.984375 
L 18.109375 46.1875 
Q 21.34375 51.125 25.703125 53.5625 
Q 30.078125 56 35.796875 56 
Q 45.21875 56 50.046875 50.171875 
Q 54.890625 44.34375 54.890625 33.015625 
z
" id="DejaVuSans-68"/>
     <path d="M 9.8125 72.90625 
L 55.90625 72.90625 
L 55.90625 64.59375 
L 19.671875 64.59375 
L 19.671875 43.015625 
L 54.390625 43.015625 
L 54.390625 34.71875 
L 19.671875 34.71875 
L 19.671875 8.296875 
L 56.78125 8.296875 
L 56.78125 0 
L 9.8125 0 
z
" id="DejaVuSans-45"/>
     <path d="M 9.8125 72.90625 
L 19.671875 72.90625 
L 19.671875 43.015625 
L 55.515625 43.015625 
L 55.515625 72.90625 
L 65.375 72.90625 
L 65.375 0 
L 55.515625 0 
L 55.515625 34.71875 
L 19.671875 34.71875 
L 19.671875 0 
L 9.8125 0 
z
" id="DejaVuSans-48"/>
     <path d="M 64.40625 67.28125 
L 64.40625 56.890625 
Q 59.421875 61.53125 53.78125 63.8125 
Q 48.140625 66.109375 41.796875 66.109375 
Q 29.296875 66.109375 22.65625 58.46875 
Q 16.015625 50.828125 16.015625 36.375 
Q 16.015625 21.96875 22.65625 14.328125 
Q 29.296875 6.6875 41.796875 6.6875 
Q 48.140625 6.6875 53.78125 8.984375 
Q 59.421875 11.28125 64.40625 15.921875 
L 64.40625 5.609375 
Q 59.234375 2.09375 53.4375 0.328125 
Q 47.65625 -1.421875 41.21875 -1.421875 
Q 24.65625 -1.421875 15.125 8.703125 
Q 5.609375 18.84375 5.609375 36.375 
Q 5.609375 53.953125 15.125 64.078125 
Q 24.65625 74.21875 41.21875 74.21875 
Q 47.75 74.21875 53.53125 72.484375 
Q 59.328125 70.75 64.40625 67.28125 
z
" id="DejaVuSans-43"/>
     <path d="M 9.8125 72.90625 
L 19.671875 72.90625 
L 19.671875 8.296875 
L 55.171875 8.296875 
L 55.171875 0 
L 9.8125 0 
z
" id="DejaVuSans-4c"/>
     <path d="M 34.1875 63.1875 
L 20.796875 26.90625 
L 47.609375 26.90625 
z
M 28.609375 72.90625 
L 39.796875 72.90625 
L 67.578125 0 
L 57.328125 0 
L 50.6875 18.703125 
L 17.828125 18.703125 
L 11.1875 0 
L 0.78125 0 
z
" id="DejaVuSans-41"/>
     <path d="M 53.515625 70.515625 
L 53.515625 60.890625 
Q 47.90625 63.578125 42.921875 64.890625 
Q 37.9375 66.21875 33.296875 66.21875 
Q 25.25 66.21875 20.875 63.09375 
Q 16.5 59.96875 16.5 54.203125 
Q 16.5 49.359375 19.40625 46.890625 
Q 22.3125 44.4375 30.421875 42.921875 
L 36.375 41.703125 
Q 47.40625 39.59375 52.65625 34.296875 
Q 57.90625 29 57.90625 20.125 
Q 57.90625 9.515625 50.796875 4.046875 
Q 43.703125 -1.421875 29.984375 -1.421875 
Q 24.8125 -1.421875 18.96875 -0.25 
Q 13.140625 0.921875 6.890625 3.21875 
L 6.890625 13.375 
Q 12.890625 10.015625 18.65625 8.296875 
Q 24.421875 6.59375 29.984375 6.59375 
Q 38.421875 6.59375 43.015625 9.90625 
Q 47.609375 13.234375 47.609375 19.390625 
Q 47.609375 24.75 44.3125 27.78125 
Q 41.015625 30.8125 33.5 32.328125 
L 27.484375 33.5 
Q 16.453125 35.6875 11.515625 40.375 
Q 6.59375 45.0625 6.59375 53.421875 
Q 6.59375 63.09375 13.40625 68.65625 
Q 20.21875 74.21875 32.171875 74.21875 
Q 37.3125 74.21875 42.625 73.28125 
Q 47.953125 72.359375 53.515625 70.515625 
z
" id="DejaVuSans-53"/>
     <path d="M 19.671875 64.796875 
L 19.671875 37.40625 
L 32.078125 37.40625 
Q 38.96875 37.40625 42.71875 40.96875 
Q 46.484375 44.53125 46.484375 51.125 
Q 46.484375 57.671875 42.71875 61.234375 
Q 38.96875 64.796875 32.078125 64.796875 
z
M 9.8125 72.90625 
L 32.078125 72.90625 
Q 44.34375 72.90625 50.609375 67.359375 
Q 56.890625 61.8125 56.890625 51.125 
Q 56.890625 40.328125 50.609375 34.8125 
Q 44.34375 29.296875 32.078125 29.296875 
L 19.671875 29.296875 
L 19.671875 0 
L 9.8125 0 
z
" id="DejaVuSans-50"/>
    </defs>
    <g transform="translate(70.915594 35.472)scale(0.132 -0.132)">
     <use xlink:href="#DejaVuSans-52"/>
     <use x="69.419922" xlink:href="#DejaVuSans-65"/>
     <use x="130.943359" xlink:href="#DejaVuSans-6c"/>
     <use x="158.726562" xlink:href="#DejaVuSans-61"/>
     <use x="220.005859" xlink:href="#DejaVuSans-74"/>
     <use x="259.214844" xlink:href="#DejaVuSans-69"/>
     <use x="286.998047" xlink:href="#DejaVuSans-76"/>
     <use x="346.177734" xlink:href="#DejaVuSans-65"/>
     <use x="407.701172" xlink:href="#DejaVuSans-20"/>
     <use x="439.488281" xlink:href="#DejaVuSans-64"/>
     <use x="502.964844" xlink:href="#DejaVuSans-69"/>
     <use x="530.748047" xlink:href="#DejaVuSans-66"/>
     <use x="565.953125" xlink:href="#DejaVuSans-66"/>
     <use x="601.158203" xlink:href="#DejaVuSans-65"/>
     <use x="662.681641" xlink:href="#DejaVuSans-72"/>
     <use x="703.763672" xlink:href="#DejaVuSans-65"/>
     <use x="765.287109" xlink:href="#DejaVuSans-6e"/>
     <use x="828.666016" xlink:href="#DejaVuSans-63"/>
     <use x="883.646484" xlink:href="#DejaVuSans-65"/>
     <use x="945.169922" xlink:href="#DejaVuSans-20"/>
     <use x="976.957031" xlink:href="#DejaVuSans-62"/>
     <use x="1040.433594" xlink:href="#DejaVuSans-65"/>
     <use x="1101.957031" xlink:href="#DejaVuSans-74"/>
     <use x="1141.166016" xlink:href="#DejaVuSans-77"/>
     <use x="1222.953125" xlink:href="#DejaVuSans-65"/>
     <use x="1284.476562" xlink:href="#DejaVuSans-65"/>
     <use x="1346" xlink:href="#DejaVuSans-6e"/>
     <use x="1409.378906" xlink:href="#DejaVuSans-20"/>
     <use x="1441.166016" xlink:href="#DejaVuSans-74"/>
     <use x="1480.375" xlink:href="#DejaVuSans-68"/>
     <use x="1543.753906" xlink:href="#DejaVuSans-65"/>
     <use x="1605.277344" xlink:href="#DejaVuSans-20"/>
     <use x="1637.064453" xlink:href="#DejaVuSans-45"/>
     <use x="1700.248047" xlink:href="#DejaVuSans-48"/>
     <use x="1775.443359" xlink:href="#DejaVuSans-20"/>
     <use x="1807.230469" xlink:href="#DejaVuSans-61"/>
     <use x="1868.509766" xlink:href="#DejaVuSans-6e"/>
     <use x="1931.888672" xlink:href="#DejaVuSans-64"/>
     <use x="1995.365234" xlink:href="#DejaVuSans-20"/>
     <use x="2027.152344" xlink:href="#DejaVuSans-43"/>
     <use x="2096.976562" xlink:href="#DejaVuSans-4c"/>
     <use x="2152.720703" xlink:href="#DejaVuSans-41"/>
     <use x="2221.128906" xlink:href="#DejaVuSans-53"/>
     <use x="2284.605469" xlink:href="#DejaVuSans-53"/>
     <use x="2348.082031" xlink:href="#DejaVuSans-20"/>
     <use x="2379.869141" xlink:href="#DejaVuSans-50"/>
     <use x="2440.171875" xlink:href="#DejaVuSans-53"/>
    </g>
   </g>
   <g id="legend_1">
    <g id="patch_7">
     <path d="M 328.04 302.084 
L 407.02 302.084 
Q 409.22 302.084 409.22 299.884 
L 409.22 220.254312 
Q 409.22 218.054312 407.02 218.054312 
L 328.04 218.054312 
Q 325.84 218.054312 325.84 220.254312 
L 325.84 299.884 
Q 325.84 302.084 328.04 302.084 
z
" style="fill:#ffffff;opacity:0.8;stroke:#cccccc;stroke-linejoin:miter;"/>
    </g>
    <g id="line2d_129">
     <path d="M 330.24 226.962594 
L 352.24 226.962594 
" style="fill:none;stroke:#1f77b4;stroke-linecap:square;stroke-width:1.5;"/>
    </g>
    <g id="line2d_130"/>
    <g id="text_18">
     <!-- $z = 0.00$ -->
     <defs>
      <path d="M 10.59375 45.40625 
L 73.1875 45.40625 
L 73.1875 37.203125 
L 10.59375 37.203125 
z
M 10.59375 25.484375 
L 73.1875 25.484375 
L 73.1875 17.1875 
L 10.59375 17.1875 
z
" id="DejaVuSans-3d"/>
      <path d="M 10.6875 12.40625 
L 21 12.40625 
L 21 0 
L 10.6875 0 
z
" id="DejaVuSans-2e"/>
     </defs>
     <g transform="translate(361.04 230.812594)scale(0.11 -0.11)">
      <use transform="translate(0 0.78125)" xlink:href="#DejaVuSans-Oblique-7a"/>
      <use transform="translate(71.972656 0.78125)" xlink:href="#DejaVuSans-3d"/>
      <use transform="translate(175.244141 0.78125)" xlink:href="#DejaVuSans-30"/>
      <use transform="translate(238.867188 0.78125)" xlink:href="#DejaVuSans-2e"/>
      <use transform="translate(270.654297 0.78125)" xlink:href="#DejaVuSans-30"/>
      <use transform="translate(334.277344 0.78125)" xlink:href="#DejaVuSans-30"/>
     </g>
    </g>
    <g id="line2d_131">
     <path d="M 330.24 243.108531 
L 352.24 243.108531 
" style="fill:none;stroke:#ff7f0e;stroke-linecap:square;stroke-width:1.5;"/>
    </g>
    <g id="line2d_132"/>
    <g id="text_19">
     <!-- $z = 0.50$ -->
     <g transform="translate(361.04 246.958531)scale(0.11 -0.11)">
      <use transform="translate(0 0.78125)" xlink:href="#DejaVuSans-Oblique-7a"/>
      <use transform="translate(71.972656 0.78125)" xlink:href="#DejaVuSans-3d"/>
      <use transform="translate(175.244141 0.78125)" xlink:href="#DejaVuSans-30"/>
      <use transform="translate(238.867188 0.78125)" xlink:href="#DejaVuSans-2e"/>
      <use transform="translate(270.654297 0.78125)" xlink:href="#DejaVuSans-35"/>
      <use transform="translate(334.277344 0.78125)" xlink:href="#DejaVuSans-30"/>
     </g>
    </g>
    <g id="line2d_133">
     <path d="M 330.24 259.254469 
L 352.24 259.254469 
" style="fill:none;stroke:#2ca02c;stroke-linecap:square;stroke-width:1.5;"/>
    </g>
    <g id="line2d_134"/>
    <g id="text_20">
     <!-- $z = 1.00$ -->
     <g transform="translate(361.04 263.104469)scale(0.11 -0.11)">
      <use transform="translate(0 0.78125)" xlink:href="#DejaVuSans-Oblique-7a"/>
      <use transform="translate(71.972656 0.78125)" xlink:href="#DejaVuSans-3d"/>
      <use transform="translate(175.244141 0.78125)" xlink:href="#DejaVuSans-31"/>
      <use transform="translate(238.867188 0.78125)" xlink:href="#DejaVuSans-2e"/>
      <use transform="translate(270.654297 0.78125)" xlink:href="#DejaVuSans-30"/>
      <use transform="translate(334.277344 0.78125)" xlink:href="#DejaVuSans-30"/>
     </g>
    </g>
    <g id="line2d_135">
     <path d="M 330.24 275.400406 
L 352.24 275.400406 
" style="fill:none;stroke:#d62728;stroke-linecap:square;stroke-width:1.5;"/>
    </g>
    <g id="line2d_136"/>
    <g id="text_21">
     <!-- $z = 1.50$ -->
     <g transform="translate(361.04 279.250406)scale(0.11 -0.11)">
      <use transform="translate(0 0.78125)" xlink:href="#DejaVuSans-Oblique-7a"/>
      <use transform="translate(71.972656 0.78125)" xlink:href="#DejaVuSans-3d"/>
      <use transform="translate(175.244141 0.78125)" xlink:href="#DejaVuSans-31"/>
      <use transform="translate(238.867188 0.78125)" xlink:href="#DejaVuSans-2e"/>
      <use transform="translate(270.654297 0.78125)" xlink:href="#DejaVuSans-35"/>
      <use transform="translate(334.277344 0.78125)" xlink:href="#DejaVuSans-30"/>
     </g>
    </g>
    <g id="line2d_137">
     <path d="M 330.24 291.546344 
L 352.24 291.546344 
" style="fill:none;stroke:#9467bd;stroke-linecap:square;stroke-width:1.5;"/>
    </g>
    <g id="line2d_138"/>
    <g id="text_22">
     <!-- $z = 2.00$ -->
     <g transform="translate(361.04 295.396344)scale(0.11 -0.11)">
      <use transform="translate(0 0.78125)" xlink:href="#DejaVuSans-Oblique-7a"/>
      <use transform="translate(71.972656 0.78125)" xlink:href="#DejaVuSans-3d"/>
      <use transform="translate(175.244141 0.78125)" xlink:href="#DejaVuSans-32"/>
      <use transform="translate(238.867188 0.78125)" xlink:href="#DejaVuSans-2e"/>
      <use transform="translate(270.654297 0.78125)" xlink:href="#DejaVuSans-30"/>
      <use transform="translate(334.277344 0.78125)" xlink:href="#DejaVuSans-30"/>
     </g>
    </g>
   </g>
  </g>
 </g>
 <defs>
  <clipPath id="pc3c40de99a">
   <rect height="266.112" width="357.12" x="57.6" y="41.472"/>
  </clipPath>
 </defs>
</svg>
