<?xml version="1.0" encoding="utf-8" standalone="no"?>
<!DOCTYPE svg PUBLIC "-//W3C//DTD SVG 1.1//EN"
  "http://www.w3.org/Graphics/SVG/1.1/DTD/svg11.dtd">
<!-- Created with matplotlib (http://matplotlib.org/) -->
<svg height="345pt" version="1.1" viewBox="0 0 460 345" width="460pt" xmlns="http://www.w3.org/2000/svg" xmlns:xlink="http://www.w3.org/1999/xlink">
 <defs>
  <style type="text/css">
*{stroke-linecap:butt;stroke-linejoin:round;}
  </style>
 </defs>
 <g id="figure_1">
  <g id="patch_1">
   <path d="M 0 345.6 
L 460.8 345.6 
L 460.8 0 
L 0 0 
z
" style="fill:#ffffff;"/>
  </g>
  <g id="axes_1">
   <g id="patch_2">
    <path d="M 57.6 307.584 
L 414.72 307.584 
L 414.72 41.472 
L 57.6 41.472 
z
" style="fill:#ffffff;"/>
   </g>
   <g id="matplotlib.axis_1">
    <g id="xtick_1">
     <g id="line2d_1">
      <defs>
       <path d="M 0 0 
L 0 3.5 
" id="mb9e5cd3ab2" style="stroke:#000000;stroke-width:0.8;"/>
      </defs>
      <g>
       <use style="stroke:#000000;stroke-width:0.8;" x="80.81306" xlink:href="#mb9e5cd3ab2" y="307.584"/>
      </g>
     </g>
     <g id="text_1">
      <!-- $\mathdefault{10^{-3}}$ -->
      <defs>
       <path d="M 12.40625 8.296875 
L 28.515625 8.296875 
L 28.515625 63.921875 
L 10.984375 60.40625 
L 10.984375 69.390625 
L 28.421875 72.90625 
L 38.28125 72.90625 
L 38.28125 8.296875 
L 54.390625 8.296875 
L 54.390625 0 
L 12.40625 0 
z
" id="DejaVuSans-31"/>
       <path d="M 31.78125 66.40625 
Q 24.171875 66.40625 20.328125 58.90625 
Q 16.5 51.421875 16.5 36.375 
Q 16.5 21.390625 20.328125 13.890625 
Q 24.171875 6.390625 31.78125 6.390625 
Q 39.453125 6.390625 43.28125 13.890625 
Q 47.125 21.390625 47.125 36.375 
Q 47.125 51.421875 43.28125 58.90625 
Q 39.453125 66.40625 31.78125 66.40625 
z
M 31.78125 74.21875 
Q 44.046875 74.21875 50.515625 64.515625 
Q 56.984375 54.828125 56.984375 36.375 
Q 56.984375 17.96875 50.515625 8.265625 
Q 44.046875 -1.421875 31.78125 -1.421875 
Q 19.53125 -1.421875 13.0625 8.265625 
Q 6.59375 17.96875 6.59375 36.375 
Q 6.59375 54.828125 13.0625 64.515625 
Q 19.53125 74.21875 31.78125 74.21875 
z
" id="DejaVuSans-30"/>
       <path d="M 10.59375 35.5 
L 73.1875 35.5 
L 73.1875 27.203125 
L 10.59375 27.203125 
z
" id="DejaVuSans-2212"/>
       <path d="M 40.578125 39.3125 
Q 47.65625 37.796875 51.625 33 
Q 55.609375 28.21875 55.609375 21.1875 
Q 55.609375 10.40625 48.1875 4.484375 
Q 40.765625 -1.421875 27.09375 -1.421875 
Q 22.515625 -1.421875 17.65625 -0.515625 
Q 12.796875 0.390625 7.625 2.203125 
L 7.625 11.71875 
Q 11.71875 9.328125 16.59375 8.109375 
Q 21.484375 6.890625 26.8125 6.890625 
Q 36.078125 6.890625 40.9375 10.546875 
Q 45.796875 14.203125 45.796875 21.1875 
Q 45.796875 27.640625 41.28125 31.265625 
Q 36.765625 34.90625 28.71875 34.90625 
L 20.21875 34.90625 
L 20.21875 43.015625 
L 29.109375 43.015625 
Q 36.375 43.015625 40.234375 45.921875 
Q 44.09375 48.828125 44.09375 54.296875 
Q 44.09375 59.90625 40.109375 62.90625 
Q 36.140625 65.921875 28.71875 65.921875 
Q 24.65625 65.921875 20.015625 65.03125 
Q 15.375 64.15625 9.8125 62.3125 
L 9.8125 71.09375 
Q 15.4375 72.65625 20.34375 73.4375 
Q 25.25 74.21875 29.59375 74.21875 
Q 40.828125 74.21875 47.359375 69.109375 
Q 53.90625 64.015625 53.90625 55.328125 
Q 53.90625 49.265625 50.4375 45.09375 
Q 46.96875 40.921875 40.578125 39.3125 
z
" id="DejaVuSans-33"/>
      </defs>
      <g transform="translate(67.88806 322.942281)scale(0.11 -0.11)">
       <use transform="translate(0 0.765625)" xlink:href="#DejaVuSans-31"/>
       <use transform="translate(63.623047 0.765625)" xlink:href="#DejaVuSans-30"/>
       <use transform="translate(128.203125 39.046875)scale(0.7)" xlink:href="#DejaVuSans-2212"/>
       <use transform="translate(186.855469 39.046875)scale(0.7)" xlink:href="#DejaVuSans-33"/>
      </g>
     </g>
    </g>
    <g id="xtick_2">
     <g id="line2d_2">
      <g>
       <use style="stroke:#000000;stroke-width:0.8;" x="121.415179" xlink:href="#mb9e5cd3ab2" y="307.584"/>
      </g>
     </g>
     <g id="text_2">
      <!-- $\mathdefault{10^{-2}}$ -->
      <defs>
       <path d="M 19.1875 8.296875 
L 53.609375 8.296875 
L 53.609375 0 
L 7.328125 0 
L 7.328125 8.296875 
Q 12.9375 14.109375 22.625 23.890625 
Q 32.328125 33.6875 34.8125 36.53125 
Q 39.546875 41.84375 41.421875 45.53125 
Q 43.3125 49.21875 43.3125 52.78125 
Q 43.3125 58.59375 39.234375 62.25 
Q 35.15625 65.921875 28.609375 65.921875 
Q 23.96875 65.921875 18.8125 64.3125 
Q 13.671875 62.703125 7.8125 59.421875 
L 7.8125 69.390625 
Q 13.765625 71.78125 18.9375 73 
Q 24.125 74.21875 28.421875 74.21875 
Q 39.75 74.21875 46.484375 68.546875 
Q 53.21875 62.890625 53.21875 53.421875 
Q 53.21875 48.921875 51.53125 44.890625 
Q 49.859375 40.875 45.40625 35.40625 
Q 44.1875 33.984375 37.640625 27.21875 
Q 31.109375 20.453125 19.1875 8.296875 
z
" id="DejaVuSans-32"/>
      </defs>
      <g transform="translate(108.490179 322.942281)scale(0.11 -0.11)">
       <use transform="translate(0 0.765625)" xlink:href="#DejaVuSans-31"/>
       <use transform="translate(63.623047 0.765625)" xlink:href="#DejaVuSans-30"/>
       <use transform="translate(128.203125 39.046875)scale(0.7)" xlink:href="#DejaVuSans-2212"/>
       <use transform="translate(186.855469 39.046875)scale(0.7)" xlink:href="#DejaVuSans-32"/>
      </g>
     </g>
    </g>
    <g id="xtick_3">
     <g id="line2d_3">
      <g>
       <use style="stroke:#000000;stroke-width:0.8;" x="162.017299" xlink:href="#mb9e5cd3ab2" y="307.584"/>
      </g>
     </g>
     <g id="text_3">
      <!-- $\mathdefault{10^{-1}}$ -->
      <g transform="translate(149.092299 322.942281)scale(0.11 -0.11)">
       <use transform="translate(0 0.684375)" xlink:href="#DejaVuSans-31"/>
       <use transform="translate(63.623047 0.684375)" xlink:href="#DejaVuSans-30"/>
       <use transform="translate(128.203125 38.965625)scale(0.7)" xlink:href="#DejaVuSans-2212"/>
       <use transform="translate(186.855469 38.965625)scale(0.7)" xlink:href="#DejaVuSans-31"/>
      </g>
     </g>
    </g>
    <g id="xtick_4">
     <g id="line2d_4">
      <g>
       <use style="stroke:#000000;stroke-width:0.8;" x="202.619418" xlink:href="#mb9e5cd3ab2" y="307.584"/>
      </g>
     </g>
     <g id="text_4">
      <!-- $\mathdefault{10^{0}}$ -->
      <g transform="translate(192.939418 322.942281)scale(0.11 -0.11)">
       <use transform="translate(0 0.765625)" xlink:href="#DejaVuSans-31"/>
       <use transform="translate(63.623047 0.765625)" xlink:href="#DejaVuSans-30"/>
       <use transform="translate(128.203125 39.046875)scale(0.7)" xlink:href="#DejaVuSans-30"/>
      </g>
     </g>
    </g>
    <g id="xtick_5">
     <g id="line2d_5">
      <g>
       <use style="stroke:#000000;stroke-width:0.8;" x="243.221537" xlink:href="#mb9e5cd3ab2" y="307.584"/>
      </g>
     </g>
     <g id="text_5">
      <!-- $\mathdefault{10^{1}}$ -->
      <g transform="translate(233.541537 322.942281)scale(0.11 -0.11)">
       <use transform="translate(0 0.684375)" xlink:href="#DejaVuSans-31"/>
       <use transform="translate(63.623047 0.684375)" xlink:href="#DejaVuSans-30"/>
       <use transform="translate(128.203125 38.965625)scale(0.7)" xlink:href="#DejaVuSans-31"/>
      </g>
     </g>
    </g>
    <g id="xtick_6">
     <g id="line2d_6">
      <g>
       <use style="stroke:#000000;stroke-width:0.8;" x="283.823656" xlink:href="#mb9e5cd3ab2" y="307.584"/>
      </g>
     </g>
     <g id="text_6">
      <!-- $\mathdefault{10^{2}}$ -->
      <g transform="translate(274.143656 322.942281)scale(0.11 -0.11)">
       <use transform="translate(0 0.765625)" xlink:href="#DejaVuSans-31"/>
       <use transform="translate(63.623047 0.765625)" xlink:href="#DejaVuSans-30"/>
       <use transform="translate(128.203125 39.046875)scale(0.7)" xlink:href="#DejaVuSans-32"/>
      </g>
     </g>
    </g>
    <g id="xtick_7">
     <g id="line2d_7">
      <g>
       <use style="stroke:#000000;stroke-width:0.8;" x="324.425776" xlink:href="#mb9e5cd3ab2" y="307.584"/>
      </g>
     </g>
     <g id="text_7">
      <!-- $\mathdefault{10^{3}}$ -->
      <g transform="translate(314.745776 322.942281)scale(0.11 -0.11)">
       <use transform="translate(0 0.765625)" xlink:href="#DejaVuSans-31"/>
       <use transform="translate(63.623047 0.765625)" xlink:href="#DejaVuSans-30"/>
       <use transform="translate(128.203125 39.046875)scale(0.7)" xlink:href="#DejaVuSans-33"/>
      </g>
     </g>
    </g>
    <g id="xtick_8">
     <g id="line2d_8">
      <g>
       <use style="stroke:#000000;stroke-width:0.8;" x="365.027895" xlink:href="#mb9e5cd3ab2" y="307.584"/>
      </g>
     </g>
     <g id="text_8">
      <!-- $\mathdefault{10^{4}}$ -->
      <defs>
       <path d="M 37.796875 64.3125 
L 12.890625 25.390625 
L 37.796875 25.390625 
z
M 35.203125 72.90625 
L 47.609375 72.90625 
L 47.609375 25.390625 
L 58.015625 25.390625 
L 58.015625 17.1875 
L 47.609375 17.1875 
L 47.609375 0 
L 37.796875 0 
L 37.796875 17.1875 
L 4.890625 17.1875 
L 4.890625 26.703125 
z
" id="DejaVuSans-34"/>
      </defs>
      <g transform="translate(355.347895 322.942281)scale(0.11 -0.11)">
       <use transform="translate(0 0.684375)" xlink:href="#DejaVuSans-31"/>
       <use transform="translate(63.623047 0.684375)" xlink:href="#DejaVuSans-30"/>
       <use transform="translate(128.203125 38.965625)scale(0.7)" xlink:href="#DejaVuSans-34"/>
      </g>
     </g>
    </g>
    <g id="xtick_9">
     <g id="line2d_9">
      <g>
       <use style="stroke:#000000;stroke-width:0.8;" x="405.630014" xlink:href="#mb9e5cd3ab2" y="307.584"/>
      </g>
     </g>
     <g id="text_9">
      <!-- $\mathdefault{10^{5}}$ -->
      <defs>
       <path d="M 10.796875 72.90625 
L 49.515625 72.90625 
L 49.515625 64.59375 
L 19.828125 64.59375 
L 19.828125 46.734375 
Q 21.96875 47.46875 24.109375 47.828125 
Q 26.265625 48.1875 28.421875 48.1875 
Q 40.625 48.1875 47.75 41.5 
Q 54.890625 34.8125 54.890625 23.390625 
Q 54.890625 11.625 47.5625 5.09375 
Q 40.234375 -1.421875 26.90625 -1.421875 
Q 22.3125 -1.421875 17.546875 -0.640625 
Q 12.796875 0.140625 7.71875 1.703125 
L 7.71875 11.625 
Q 12.109375 9.234375 16.796875 8.0625 
Q 21.484375 6.890625 26.703125 6.890625 
Q 35.15625 6.890625 40.078125 11.328125 
Q 45.015625 15.765625 45.015625 23.390625 
Q 45.015625 31 40.078125 35.4375 
Q 35.15625 39.890625 26.703125 39.890625 
Q 22.75 39.890625 18.8125 39.015625 
Q 14.890625 38.140625 10.796875 36.28125 
z
" id="DejaVuSans-35"/>
      </defs>
      <g transform="translate(395.950014 322.942281)scale(0.11 -0.11)">
       <use transform="translate(0 0.684375)" xlink:href="#DejaVuSans-31"/>
       <use transform="translate(63.623047 0.684375)" xlink:href="#DejaVuSans-30"/>
       <use transform="translate(128.203125 38.965625)scale(0.7)" xlink:href="#DejaVuSans-35"/>
      </g>
     </g>
    </g>
    <g id="xtick_10">
     <g id="line2d_10">
      <defs>
       <path d="M 0 0 
L 0 2 
" id="m170df205f5" style="stroke:#000000;stroke-width:0.6;"/>
      </defs>
      <g>
       <use style="stroke:#000000;stroke-width:0.6;" x="59.583075" xlink:href="#m170df205f5" y="307.584"/>
      </g>
     </g>
    </g>
    <g id="xtick_11">
     <g id="line2d_11">
      <g>
       <use style="stroke:#000000;stroke-width:0.6;" x="64.655853" xlink:href="#m170df205f5" y="307.584"/>
      </g>
     </g>
    </g>
    <g id="xtick_12">
     <g id="line2d_12">
      <g>
       <use style="stroke:#000000;stroke-width:0.6;" x="68.590604" xlink:href="#m170df205f5" y="307.584"/>
      </g>
     </g>
    </g>
    <g id="xtick_13">
     <g id="line2d_13">
      <g>
       <use style="stroke:#000000;stroke-width:0.6;" x="71.805531" xlink:href="#m170df205f5" y="307.584"/>
      </g>
     </g>
    </g>
    <g id="xtick_14">
     <g id="line2d_14">
      <g>
       <use style="stroke:#000000;stroke-width:0.6;" x="74.523712" xlink:href="#m170df205f5" y="307.584"/>
      </g>
     </g>
    </g>
    <g id="xtick_15">
     <g id="line2d_15">
      <g>
       <use style="stroke:#000000;stroke-width:0.6;" x="76.878308" xlink:href="#m170df205f5" y="307.584"/>
      </g>
     </g>
    </g>
    <g id="xtick_16">
     <g id="line2d_16">
      <g>
       <use style="stroke:#000000;stroke-width:0.6;" x="78.955209" xlink:href="#m170df205f5" y="307.584"/>
      </g>
     </g>
    </g>
    <g id="xtick_17">
     <g id="line2d_17">
      <g>
       <use style="stroke:#000000;stroke-width:0.6;" x="93.035516" xlink:href="#m170df205f5" y="307.584"/>
      </g>
     </g>
    </g>
    <g id="xtick_18">
     <g id="line2d_18">
      <g>
       <use style="stroke:#000000;stroke-width:0.6;" x="100.185194" xlink:href="#m170df205f5" y="307.584"/>
      </g>
     </g>
    </g>
    <g id="xtick_19">
     <g id="line2d_19">
      <g>
       <use style="stroke:#000000;stroke-width:0.6;" x="105.257972" xlink:href="#m170df205f5" y="307.584"/>
      </g>
     </g>
    </g>
    <g id="xtick_20">
     <g id="line2d_20">
      <g>
       <use style="stroke:#000000;stroke-width:0.6;" x="109.192724" xlink:href="#m170df205f5" y="307.584"/>
      </g>
     </g>
    </g>
    <g id="xtick_21">
     <g id="line2d_21">
      <g>
       <use style="stroke:#000000;stroke-width:0.6;" x="112.40765" xlink:href="#m170df205f5" y="307.584"/>
      </g>
     </g>
    </g>
    <g id="xtick_22">
     <g id="line2d_22">
      <g>
       <use style="stroke:#000000;stroke-width:0.6;" x="115.125832" xlink:href="#m170df205f5" y="307.584"/>
      </g>
     </g>
    </g>
    <g id="xtick_23">
     <g id="line2d_23">
      <g>
       <use style="stroke:#000000;stroke-width:0.6;" x="117.480428" xlink:href="#m170df205f5" y="307.584"/>
      </g>
     </g>
    </g>
    <g id="xtick_24">
     <g id="line2d_24">
      <g>
       <use style="stroke:#000000;stroke-width:0.6;" x="119.557328" xlink:href="#m170df205f5" y="307.584"/>
      </g>
     </g>
    </g>
    <g id="xtick_25">
     <g id="line2d_25">
      <g>
       <use style="stroke:#000000;stroke-width:0.6;" x="133.637635" xlink:href="#m170df205f5" y="307.584"/>
      </g>
     </g>
    </g>
    <g id="xtick_26">
     <g id="line2d_26">
      <g>
       <use style="stroke:#000000;stroke-width:0.6;" x="140.787314" xlink:href="#m170df205f5" y="307.584"/>
      </g>
     </g>
    </g>
    <g id="xtick_27">
     <g id="line2d_27">
      <g>
       <use style="stroke:#000000;stroke-width:0.6;" x="145.860091" xlink:href="#m170df205f5" y="307.584"/>
      </g>
     </g>
    </g>
    <g id="xtick_28">
     <g id="line2d_28">
      <g>
       <use style="stroke:#000000;stroke-width:0.6;" x="149.794843" xlink:href="#m170df205f5" y="307.584"/>
      </g>
     </g>
    </g>
    <g id="xtick_29">
     <g id="line2d_29">
      <g>
       <use style="stroke:#000000;stroke-width:0.6;" x="153.009769" xlink:href="#m170df205f5" y="307.584"/>
      </g>
     </g>
    </g>
    <g id="xtick_30">
     <g id="line2d_30">
      <g>
       <use style="stroke:#000000;stroke-width:0.6;" x="155.727951" xlink:href="#m170df205f5" y="307.584"/>
      </g>
     </g>
    </g>
    <g id="xtick_31">
     <g id="line2d_31">
      <g>
       <use style="stroke:#000000;stroke-width:0.6;" x="158.082547" xlink:href="#m170df205f5" y="307.584"/>
      </g>
     </g>
    </g>
    <g id="xtick_32">
     <g id="line2d_32">
      <g>
       <use style="stroke:#000000;stroke-width:0.6;" x="160.159448" xlink:href="#m170df205f5" y="307.584"/>
      </g>
     </g>
    </g>
    <g id="xtick_33">
     <g id="line2d_33">
      <g>
       <use style="stroke:#000000;stroke-width:0.6;" x="174.239754" xlink:href="#m170df205f5" y="307.584"/>
      </g>
     </g>
    </g>
    <g id="xtick_34">
     <g id="line2d_34">
      <g>
       <use style="stroke:#000000;stroke-width:0.6;" x="181.389433" xlink:href="#m170df205f5" y="307.584"/>
      </g>
     </g>
    </g>
    <g id="xtick_35">
     <g id="line2d_35">
      <g>
       <use style="stroke:#000000;stroke-width:0.6;" x="186.46221" xlink:href="#m170df205f5" y="307.584"/>
      </g>
     </g>
    </g>
    <g id="xtick_36">
     <g id="line2d_36">
      <g>
       <use style="stroke:#000000;stroke-width:0.6;" x="190.396962" xlink:href="#m170df205f5" y="307.584"/>
      </g>
     </g>
    </g>
    <g id="xtick_37">
     <g id="line2d_37">
      <g>
       <use style="stroke:#000000;stroke-width:0.6;" x="193.611889" xlink:href="#m170df205f5" y="307.584"/>
      </g>
     </g>
    </g>
    <g id="xtick_38">
     <g id="line2d_38">
      <g>
       <use style="stroke:#000000;stroke-width:0.6;" x="196.33007" xlink:href="#m170df205f5" y="307.584"/>
      </g>
     </g>
    </g>
    <g id="xtick_39">
     <g id="line2d_39">
      <g>
       <use style="stroke:#000000;stroke-width:0.6;" x="198.684666" xlink:href="#m170df205f5" y="307.584"/>
      </g>
     </g>
    </g>
    <g id="xtick_40">
     <g id="line2d_40">
      <g>
       <use style="stroke:#000000;stroke-width:0.6;" x="200.761567" xlink:href="#m170df205f5" y="307.584"/>
      </g>
     </g>
    </g>
    <g id="xtick_41">
     <g id="line2d_41">
      <g>
       <use style="stroke:#000000;stroke-width:0.6;" x="214.841874" xlink:href="#m170df205f5" y="307.584"/>
      </g>
     </g>
    </g>
    <g id="xtick_42">
     <g id="line2d_42">
      <g>
       <use style="stroke:#000000;stroke-width:0.6;" x="221.991552" xlink:href="#m170df205f5" y="307.584"/>
      </g>
     </g>
    </g>
    <g id="xtick_43">
     <g id="line2d_43">
      <g>
       <use style="stroke:#000000;stroke-width:0.6;" x="227.06433" xlink:href="#m170df205f5" y="307.584"/>
      </g>
     </g>
    </g>
    <g id="xtick_44">
     <g id="line2d_44">
      <g>
       <use style="stroke:#000000;stroke-width:0.6;" x="230.999081" xlink:href="#m170df205f5" y="307.584"/>
      </g>
     </g>
    </g>
    <g id="xtick_45">
     <g id="line2d_45">
      <g>
       <use style="stroke:#000000;stroke-width:0.6;" x="234.214008" xlink:href="#m170df205f5" y="307.584"/>
      </g>
     </g>
    </g>
    <g id="xtick_46">
     <g id="line2d_46">
      <g>
       <use style="stroke:#000000;stroke-width:0.6;" x="236.932189" xlink:href="#m170df205f5" y="307.584"/>
      </g>
     </g>
    </g>
    <g id="xtick_47">
     <g id="line2d_47">
      <g>
       <use style="stroke:#000000;stroke-width:0.6;" x="239.286785" xlink:href="#m170df205f5" y="307.584"/>
      </g>
     </g>
    </g>
    <g id="xtick_48">
     <g id="line2d_48">
      <g>
       <use style="stroke:#000000;stroke-width:0.6;" x="241.363686" xlink:href="#m170df205f5" y="307.584"/>
      </g>
     </g>
    </g>
    <g id="xtick_49">
     <g id="line2d_49">
      <g>
       <use style="stroke:#000000;stroke-width:0.6;" x="255.443993" xlink:href="#m170df205f5" y="307.584"/>
      </g>
     </g>
    </g>
    <g id="xtick_50">
     <g id="line2d_50">
      <g>
       <use style="stroke:#000000;stroke-width:0.6;" x="262.593671" xlink:href="#m170df205f5" y="307.584"/>
      </g>
     </g>
    </g>
    <g id="xtick_51">
     <g id="line2d_51">
      <g>
       <use style="stroke:#000000;stroke-width:0.6;" x="267.666449" xlink:href="#m170df205f5" y="307.584"/>
      </g>
     </g>
    </g>
    <g id="xtick_52">
     <g id="line2d_52">
      <g>
       <use style="stroke:#000000;stroke-width:0.6;" x="271.601201" xlink:href="#m170df205f5" y="307.584"/>
      </g>
     </g>
    </g>
    <g id="xtick_53">
     <g id="line2d_53">
      <g>
       <use style="stroke:#000000;stroke-width:0.6;" x="274.816127" xlink:href="#m170df205f5" y="307.584"/>
      </g>
     </g>
    </g>
    <g id="xtick_54">
     <g id="line2d_54">
      <g>
       <use style="stroke:#000000;stroke-width:0.6;" x="277.534309" xlink:href="#m170df205f5" y="307.584"/>
      </g>
     </g>
    </g>
    <g id="xtick_55">
     <g id="line2d_55">
      <g>
       <use style="stroke:#000000;stroke-width:0.6;" x="279.888905" xlink:href="#m170df205f5" y="307.584"/>
      </g>
     </g>
    </g>
    <g id="xtick_56">
     <g id="line2d_56">
      <g>
       <use style="stroke:#000000;stroke-width:0.6;" x="281.965805" xlink:href="#m170df205f5" y="307.584"/>
      </g>
     </g>
    </g>
    <g id="xtick_57">
     <g id="line2d_57">
      <g>
       <use style="stroke:#000000;stroke-width:0.6;" x="296.046112" xlink:href="#m170df205f5" y="307.584"/>
      </g>
     </g>
    </g>
    <g id="xtick_58">
     <g id="line2d_58">
      <g>
       <use style="stroke:#000000;stroke-width:0.6;" x="303.195791" xlink:href="#m170df205f5" y="307.584"/>
      </g>
     </g>
    </g>
    <g id="xtick_59">
     <g id="line2d_59">
      <g>
       <use style="stroke:#000000;stroke-width:0.6;" x="308.268568" xlink:href="#m170df205f5" y="307.584"/>
      </g>
     </g>
    </g>
    <g id="xtick_60">
     <g id="line2d_60">
      <g>
       <use style="stroke:#000000;stroke-width:0.6;" x="312.20332" xlink:href="#m170df205f5" y="307.584"/>
      </g>
     </g>
    </g>
    <g id="xtick_61">
     <g id="line2d_61">
      <g>
       <use style="stroke:#000000;stroke-width:0.6;" x="315.418246" xlink:href="#m170df205f5" y="307.584"/>
      </g>
     </g>
    </g>
    <g id="xtick_62">
     <g id="line2d_62">
      <g>
       <use style="stroke:#000000;stroke-width:0.6;" x="318.136428" xlink:href="#m170df205f5" y="307.584"/>
      </g>
     </g>
    </g>
    <g id="xtick_63">
     <g id="line2d_63">
      <g>
       <use style="stroke:#000000;stroke-width:0.6;" x="320.491024" xlink:href="#m170df205f5" y="307.584"/>
      </g>
     </g>
    </g>
    <g id="xtick_64">
     <g id="line2d_64">
      <g>
       <use style="stroke:#000000;stroke-width:0.6;" x="322.567925" xlink:href="#m170df205f5" y="307.584"/>
      </g>
     </g>
    </g>
    <g id="xtick_65">
     <g id="line2d_65">
      <g>
       <use style="stroke:#000000;stroke-width:0.6;" x="336.648231" xlink:href="#m170df205f5" y="307.584"/>
      </g>
     </g>
    </g>
    <g id="xtick_66">
     <g id="line2d_66">
      <g>
       <use style="stroke:#000000;stroke-width:0.6;" x="343.79791" xlink:href="#m170df205f5" y="307.584"/>
      </g>
     </g>
    </g>
    <g id="xtick_67">
     <g id="line2d_67">
      <g>
       <use style="stroke:#000000;stroke-width:0.6;" x="348.870687" xlink:href="#m170df205f5" y="307.584"/>
      </g>
     </g>
    </g>
    <g id="xtick_68">
     <g id="line2d_68">
      <g>
       <use style="stroke:#000000;stroke-width:0.6;" x="352.805439" xlink:href="#m170df205f5" y="307.584"/>
      </g>
     </g>
    </g>
    <g id="xtick_69">
     <g id="line2d_69">
      <g>
       <use style="stroke:#000000;stroke-width:0.6;" x="356.020366" xlink:href="#m170df205f5" y="307.584"/>
      </g>
     </g>
    </g>
    <g id="xtick_70">
     <g id="line2d_70">
      <g>
       <use style="stroke:#000000;stroke-width:0.6;" x="358.738547" xlink:href="#m170df205f5" y="307.584"/>
      </g>
     </g>
    </g>
    <g id="xtick_71">
     <g id="line2d_71">
      <g>
       <use style="stroke:#000000;stroke-width:0.6;" x="361.093143" xlink:href="#m170df205f5" y="307.584"/>
      </g>
     </g>
    </g>
    <g id="xtick_72">
     <g id="line2d_72">
      <g>
       <use style="stroke:#000000;stroke-width:0.6;" x="363.170044" xlink:href="#m170df205f5" y="307.584"/>
      </g>
     </g>
    </g>
    <g id="xtick_73">
     <g id="line2d_73">
      <g>
       <use style="stroke:#000000;stroke-width:0.6;" x="377.250351" xlink:href="#m170df205f5" y="307.584"/>
      </g>
     </g>
    </g>
    <g id="xtick_74">
     <g id="line2d_74">
      <g>
       <use style="stroke:#000000;stroke-width:0.6;" x="384.400029" xlink:href="#m170df205f5" y="307.584"/>
      </g>
     </g>
    </g>
    <g id="xtick_75">
     <g id="line2d_75">
      <g>
       <use style="stroke:#000000;stroke-width:0.6;" x="389.472806" xlink:href="#m170df205f5" y="307.584"/>
      </g>
     </g>
    </g>
    <g id="xtick_76">
     <g id="line2d_76">
      <g>
       <use style="stroke:#000000;stroke-width:0.6;" x="393.407558" xlink:href="#m170df205f5" y="307.584"/>
      </g>
     </g>
    </g>
    <g id="xtick_77">
     <g id="line2d_77">
      <g>
       <use style="stroke:#000000;stroke-width:0.6;" x="396.622485" xlink:href="#m170df205f5" y="307.584"/>
      </g>
     </g>
    </g>
    <g id="xtick_78">
     <g id="line2d_78">
      <g>
       <use style="stroke:#000000;stroke-width:0.6;" x="399.340666" xlink:href="#m170df205f5" y="307.584"/>
      </g>
     </g>
    </g>
    <g id="xtick_79">
     <g id="line2d_79">
      <g>
       <use style="stroke:#000000;stroke-width:0.6;" x="401.695262" xlink:href="#m170df205f5" y="307.584"/>
      </g>
     </g>
    </g>
    <g id="xtick_80">
     <g id="line2d_80">
      <g>
       <use style="stroke:#000000;stroke-width:0.6;" x="403.772163" xlink:href="#m170df205f5" y="307.584"/>
      </g>
     </g>
    </g>
    <g id="text_10">
     <!-- $R \; [h^{-1}\mathrm{Mpc}]$ -->
     <defs>
      <path d="M 25.203125 64.796875 
L 20.21875 38.921875 
L 32.90625 38.921875 
Q 40.375 38.921875 44.984375 43.046875 
Q 49.609375 47.171875 49.609375 53.8125 
Q 49.609375 59.125 46.5 61.953125 
Q 43.40625 64.796875 37.59375 64.796875 
z
M 43.3125 35.015625 
Q 46.4375 34.28125 48.515625 31.390625 
Q 50.59375 28.515625 53.328125 19.921875 
L 59.515625 0 
L 49.125 0 
L 43.40625 18.703125 
Q 41.21875 25.921875 38.328125 28.359375 
Q 35.453125 30.8125 29.5 30.8125 
L 18.609375 30.8125 
L 12.59375 0 
L 2.6875 0 
L 16.890625 72.90625 
L 39.109375 72.90625 
Q 49.21875 72.90625 54.609375 68.328125 
Q 60.015625 63.765625 60.015625 55.171875 
Q 60.015625 47.5625 55.421875 41.984375 
Q 50.828125 36.421875 43.3125 35.015625 
z
" id="DejaVuSans-Oblique-52"/>
      <path d="M 8.59375 75.984375 
L 29.296875 75.984375 
L 29.296875 69 
L 17.578125 69 
L 17.578125 -6.203125 
L 29.296875 -6.203125 
L 29.296875 -13.1875 
L 8.59375 -13.1875 
z
" id="DejaVuSans-5b"/>
      <path d="M 55.71875 33.015625 
L 49.3125 0 
L 40.28125 0 
L 46.6875 32.671875 
Q 47.125 34.96875 47.359375 36.71875 
Q 47.609375 38.484375 47.609375 39.5 
Q 47.609375 43.609375 45.015625 45.890625 
Q 42.4375 48.1875 37.796875 48.1875 
Q 30.5625 48.1875 25.265625 43.296875 
Q 19.96875 38.421875 18.40625 30.328125 
L 12.5 0 
L 3.515625 0 
L 18.3125 75.984375 
L 27.296875 75.984375 
L 21.484375 46.09375 
Q 24.90625 50.6875 30.21875 53.34375 
Q 35.546875 56 41.40625 56 
Q 48.640625 56 52.609375 52.09375 
Q 56.59375 48.1875 56.59375 41.109375 
Q 56.59375 39.359375 56.375 37.359375 
Q 56.15625 35.359375 55.71875 33.015625 
z
" id="DejaVuSans-Oblique-68"/>
      <path d="M 9.8125 72.90625 
L 24.515625 72.90625 
L 43.109375 23.296875 
L 61.8125 72.90625 
L 76.515625 72.90625 
L 76.515625 0 
L 66.890625 0 
L 66.890625 64.015625 
L 48.09375 14.015625 
L 38.1875 14.015625 
L 19.390625 64.015625 
L 19.390625 0 
L 9.8125 0 
z
" id="DejaVuSans-4d"/>
      <path d="M 18.109375 8.203125 
L 18.109375 -20.796875 
L 9.078125 -20.796875 
L 9.078125 54.6875 
L 18.109375 54.6875 
L 18.109375 46.390625 
Q 20.953125 51.265625 25.265625 53.625 
Q 29.59375 56 35.59375 56 
Q 45.5625 56 51.78125 48.09375 
Q 58.015625 40.1875 58.015625 27.296875 
Q 58.015625 14.40625 51.78125 6.484375 
Q 45.5625 -1.421875 35.59375 -1.421875 
Q 29.59375 -1.421875 25.265625 0.953125 
Q 20.953125 3.328125 18.109375 8.203125 
z
M 48.6875 27.296875 
Q 48.6875 37.203125 44.609375 42.84375 
Q 40.53125 48.484375 33.40625 48.484375 
Q 26.265625 48.484375 22.1875 42.84375 
Q 18.109375 37.203125 18.109375 27.296875 
Q 18.109375 17.390625 22.1875 11.75 
Q 26.265625 6.109375 33.40625 6.109375 
Q 40.53125 6.109375 44.609375 11.75 
Q 48.6875 17.390625 48.6875 27.296875 
z
" id="DejaVuSans-70"/>
      <path d="M 48.78125 52.59375 
L 48.78125 44.1875 
Q 44.96875 46.296875 41.140625 47.34375 
Q 37.3125 48.390625 33.40625 48.390625 
Q 24.65625 48.390625 19.8125 42.84375 
Q 14.984375 37.3125 14.984375 27.296875 
Q 14.984375 17.28125 19.8125 11.734375 
Q 24.65625 6.203125 33.40625 6.203125 
Q 37.3125 6.203125 41.140625 7.25 
Q 44.96875 8.296875 48.78125 10.40625 
L 48.78125 2.09375 
Q 45.015625 0.34375 40.984375 -0.53125 
Q 36.96875 -1.421875 32.421875 -1.421875 
Q 20.0625 -1.421875 12.78125 6.34375 
Q 5.515625 14.109375 5.515625 27.296875 
Q 5.515625 40.671875 12.859375 48.328125 
Q 20.21875 56 33.015625 56 
Q 37.15625 56 41.109375 55.140625 
Q 45.0625 54.296875 48.78125 52.59375 
z
" id="DejaVuSans-63"/>
      <path d="M 30.421875 75.984375 
L 30.421875 -13.1875 
L 9.71875 -13.1875 
L 9.71875 -6.203125 
L 21.390625 -6.203125 
L 21.390625 69 
L 9.71875 69 
L 9.71875 75.984375 
z
" id="DejaVuSans-5d"/>
     </defs>
     <g transform="translate(205.525 339.129937)scale(0.11 -0.11)">
      <use transform="translate(0 0.684375)" xlink:href="#DejaVuSans-Oblique-52"/>
      <use transform="translate(96.541558 0.684375)" xlink:href="#DejaVuSans-5b"/>
      <use transform="translate(135.555229 0.684375)" xlink:href="#DejaVuSans-Oblique-68"/>
      <use transform="translate(206.381844 38.965625)scale(0.7)" xlink:href="#DejaVuSans-2212"/>
      <use transform="translate(265.034188 38.965625)scale(0.7)" xlink:href="#DejaVuSans-31"/>
      <use transform="translate(312.304696 0.684375)" xlink:href="#DejaVuSans-4d"/>
      <use transform="translate(398.583993 0.684375)" xlink:href="#DejaVuSans-70"/>
      <use transform="translate(462.060555 0.684375)" xlink:href="#DejaVuSans-63"/>
      <use transform="translate(517.041024 0.684375)" xlink:href="#DejaVuSans-5d"/>
     </g>
    </g>
   </g>
   <g id="matplotlib.axis_2">
    <g id="ytick_1">
     <g id="line2d_81">
      <defs>
       <path d="M 0 0 
L -3.5 0 
" id="m0fe2ab9bdd" style="stroke:#000000;stroke-width:0.8;"/>
      </defs>
      <g>
       <use style="stroke:#000000;stroke-width:0.8;" x="57.6" xlink:href="#m0fe2ab9bdd" y="307.501205"/>
      </g>
     </g>
     <g id="text_11">
      <!-- −4.0 -->
      <defs>
       <path d="M 10.6875 12.40625 
L 21 12.40625 
L 21 0 
L 10.6875 0 
z
" id="DejaVuSans-2e"/>
      </defs>
      <g transform="translate(23.888906 311.680346)scale(0.11 -0.11)">
       <use xlink:href="#DejaVuSans-2212"/>
       <use x="83.789062" xlink:href="#DejaVuSans-34"/>
       <use x="147.412109" xlink:href="#DejaVuSans-2e"/>
       <use x="179.199219" xlink:href="#DejaVuSans-30"/>
      </g>
     </g>
    </g>
    <g id="ytick_2">
     <g id="line2d_82">
      <g>
       <use style="stroke:#000000;stroke-width:0.8;" x="57.6" xlink:href="#m0fe2ab9bdd" y="275.370954"/>
      </g>
     </g>
     <g id="text_12">
      <!-- −3.5 -->
      <g transform="translate(23.888906 279.550095)scale(0.11 -0.11)">
       <use xlink:href="#DejaVuSans-2212"/>
       <use x="83.789062" xlink:href="#DejaVuSans-33"/>
       <use x="147.412109" xlink:href="#DejaVuSans-2e"/>
       <use x="179.199219" xlink:href="#DejaVuSans-35"/>
      </g>
     </g>
    </g>
    <g id="ytick_3">
     <g id="line2d_83">
      <g>
       <use style="stroke:#000000;stroke-width:0.8;" x="57.6" xlink:href="#m0fe2ab9bdd" y="243.240703"/>
      </g>
     </g>
     <g id="text_13">
      <!-- −3.0 -->
      <g transform="translate(23.888906 247.419844)scale(0.11 -0.11)">
       <use xlink:href="#DejaVuSans-2212"/>
       <use x="83.789062" xlink:href="#DejaVuSans-33"/>
       <use x="147.412109" xlink:href="#DejaVuSans-2e"/>
       <use x="179.199219" xlink:href="#DejaVuSans-30"/>
      </g>
     </g>
    </g>
    <g id="ytick_4">
     <g id="line2d_84">
      <g>
       <use style="stroke:#000000;stroke-width:0.8;" x="57.6" xlink:href="#m0fe2ab9bdd" y="211.110452"/>
      </g>
     </g>
     <g id="text_14">
      <!-- −2.5 -->
      <g transform="translate(23.888906 215.289593)scale(0.11 -0.11)">
       <use xlink:href="#DejaVuSans-2212"/>
       <use x="83.789062" xlink:href="#DejaVuSans-32"/>
       <use x="147.412109" xlink:href="#DejaVuSans-2e"/>
       <use x="179.199219" xlink:href="#DejaVuSans-35"/>
      </g>
     </g>
    </g>
    <g id="ytick_5">
     <g id="line2d_85">
      <g>
       <use style="stroke:#000000;stroke-width:0.8;" x="57.6" xlink:href="#m0fe2ab9bdd" y="178.980201"/>
      </g>
     </g>
     <g id="text_15">
      <!-- −2.0 -->
      <g transform="translate(23.888906 183.159342)scale(0.11 -0.11)">
       <use xlink:href="#DejaVuSans-2212"/>
       <use x="83.789062" xlink:href="#DejaVuSans-32"/>
       <use x="147.412109" xlink:href="#DejaVuSans-2e"/>
       <use x="179.199219" xlink:href="#DejaVuSans-30"/>
      </g>
     </g>
    </g>
    <g id="ytick_6">
     <g id="line2d_86">
      <g>
       <use style="stroke:#000000;stroke-width:0.8;" x="57.6" xlink:href="#m0fe2ab9bdd" y="146.84995"/>
      </g>
     </g>
     <g id="text_16">
      <!-- −1.5 -->
      <g transform="translate(23.888906 151.029091)scale(0.11 -0.11)">
       <use xlink:href="#DejaVuSans-2212"/>
       <use x="83.789062" xlink:href="#DejaVuSans-31"/>
       <use x="147.412109" xlink:href="#DejaVuSans-2e"/>
       <use x="179.199219" xlink:href="#DejaVuSans-35"/>
      </g>
     </g>
    </g>
    <g id="ytick_7">
     <g id="line2d_87">
      <g>
       <use style="stroke:#000000;stroke-width:0.8;" x="57.6" xlink:href="#m0fe2ab9bdd" y="114.719699"/>
      </g>
     </g>
     <g id="text_17">
      <!-- −1.0 -->
      <g transform="translate(23.888906 118.89884)scale(0.11 -0.11)">
       <use xlink:href="#DejaVuSans-2212"/>
       <use x="83.789062" xlink:href="#DejaVuSans-31"/>
       <use x="147.412109" xlink:href="#DejaVuSans-2e"/>
       <use x="179.199219" xlink:href="#DejaVuSans-30"/>
      </g>
     </g>
    </g>
    <g id="ytick_8">
     <g id="line2d_88">
      <g>
       <use style="stroke:#000000;stroke-width:0.8;" x="57.6" xlink:href="#m0fe2ab9bdd" y="82.589448"/>
      </g>
     </g>
     <g id="text_18">
      <!-- −0.5 -->
      <g transform="translate(23.888906 86.768589)scale(0.11 -0.11)">
       <use xlink:href="#DejaVuSans-2212"/>
       <use x="83.789062" xlink:href="#DejaVuSans-30"/>
       <use x="147.412109" xlink:href="#DejaVuSans-2e"/>
       <use x="179.199219" xlink:href="#DejaVuSans-35"/>
      </g>
     </g>
    </g>
    <g id="ytick_9">
     <g id="line2d_89">
      <g>
       <use style="stroke:#000000;stroke-width:0.8;" x="57.6" xlink:href="#m0fe2ab9bdd" y="50.459197"/>
      </g>
     </g>
     <g id="text_19">
      <!-- 0.0 -->
      <g transform="translate(33.106563 54.638338)scale(0.11 -0.11)">
       <use xlink:href="#DejaVuSans-30"/>
       <use x="63.623047" xlink:href="#DejaVuSans-2e"/>
       <use x="95.410156" xlink:href="#DejaVuSans-30"/>
      </g>
     </g>
    </g>
    <g id="text_20">
     <!-- $\frac{\mathrm{d}\ln\sigma^2_M(R,z)}{\mathrm{d}\ln{}R}$ -->
     <defs>
      <path d="M 45.40625 46.390625 
L 45.40625 75.984375 
L 54.390625 75.984375 
L 54.390625 0 
L 45.40625 0 
L 45.40625 8.203125 
Q 42.578125 3.328125 38.25 0.953125 
Q 33.9375 -1.421875 27.875 -1.421875 
Q 17.96875 -1.421875 11.734375 6.484375 
Q 5.515625 14.40625 5.515625 27.296875 
Q 5.515625 40.1875 11.734375 48.09375 
Q 17.96875 56 27.875 56 
Q 33.9375 56 38.25 53.625 
Q 42.578125 51.265625 45.40625 46.390625 
z
M 14.796875 27.296875 
Q 14.796875 17.390625 18.875 11.75 
Q 22.953125 6.109375 30.078125 6.109375 
Q 37.203125 6.109375 41.296875 11.75 
Q 45.40625 17.390625 45.40625 27.296875 
Q 45.40625 37.203125 41.296875 42.84375 
Q 37.203125 48.484375 30.078125 48.484375 
Q 22.953125 48.484375 18.875 42.84375 
Q 14.796875 37.203125 14.796875 27.296875 
z
" id="DejaVuSans-64"/>
      <path d="M 9.421875 75.984375 
L 18.40625 75.984375 
L 18.40625 0 
L 9.421875 0 
z
" id="DejaVuSans-6c"/>
      <path d="M 54.890625 33.015625 
L 54.890625 0 
L 45.90625 0 
L 45.90625 32.71875 
Q 45.90625 40.484375 42.875 44.328125 
Q 39.84375 48.1875 33.796875 48.1875 
Q 26.515625 48.1875 22.3125 43.546875 
Q 18.109375 38.921875 18.109375 30.90625 
L 18.109375 0 
L 9.078125 0 
L 9.078125 54.6875 
L 18.109375 54.6875 
L 18.109375 46.1875 
Q 21.34375 51.125 25.703125 53.5625 
Q 30.078125 56 35.796875 56 
Q 45.21875 56 50.046875 50.171875 
Q 54.890625 44.34375 54.890625 33.015625 
z
" id="DejaVuSans-6e"/>
      <path d="M 34.671875 47.5625 
Q 27.25 47.5625 22.21875 42.1875 
Q 16.890625 36.578125 15.140625 27.296875 
Q 13.1875 17.484375 16.3125 11.8125 
Q 19.390625 6.203125 26.65625 6.203125 
Q 33.84375 6.203125 39.109375 11.859375 
Q 44.4375 17.53125 46.34375 27.296875 
Q 48.046875 36.234375 45.015625 42.1875 
Q 42.1875 47.5625 34.671875 47.5625 
z
M 36.078125 54.734375 
L 65.921875 54.6875 
L 64.15625 45.703125 
L 54.109375 45.703125 
Q 57.90625 38.09375 55.859375 27.296875 
Q 53.21875 13.875 45.0625 6.25 
Q 36.859375 -1.421875 25.140625 -1.421875 
Q 13.375 -1.421875 8.203125 6.25 
Q 3.03125 13.875 5.671875 27.296875 
Q 8.25 40.765625 16.40625 48.390625 
Q 23.1875 54.734375 36.078125 54.734375 
z
" id="DejaVuSans-Oblique-3c3"/>
      <path d="M 16.890625 72.90625 
L 31.6875 72.90625 
L 40.1875 23.78125 
L 68.40625 72.90625 
L 83.59375 72.90625 
L 69.390625 0 
L 59.8125 0 
L 72.21875 63.921875 
L 43.609375 14.015625 
L 33.984375 14.015625 
L 24.703125 64.109375 
L 12.3125 0 
L 2.6875 0 
z
" id="DejaVuSans-Oblique-4d"/>
      <path d="M 31 75.875 
Q 24.46875 64.65625 21.28125 53.65625 
Q 18.109375 42.671875 18.109375 31.390625 
Q 18.109375 20.125 21.3125 9.0625 
Q 24.515625 -2 31 -13.1875 
L 23.1875 -13.1875 
Q 15.875 -1.703125 12.234375 9.375 
Q 8.59375 20.453125 8.59375 31.390625 
Q 8.59375 42.28125 12.203125 53.3125 
Q 15.828125 64.359375 23.1875 75.875 
z
" id="DejaVuSans-28"/>
      <path d="M 11.71875 12.40625 
L 22.015625 12.40625 
L 22.015625 4 
L 14.015625 -11.625 
L 7.71875 -11.625 
L 11.71875 4 
z
" id="DejaVuSans-2c"/>
      <path d="M 11.625 54.6875 
L 54.296875 54.6875 
L 52.6875 46.484375 
L 11.53125 7.171875 
L 45.515625 7.171875 
L 44.09375 0 
L -0.296875 0 
L 1.3125 8.203125 
L 42.484375 47.515625 
L 10.203125 47.515625 
z
" id="DejaVuSans-Oblique-7a"/>
      <path d="M 8.015625 75.875 
L 15.828125 75.875 
Q 23.140625 64.359375 26.78125 53.3125 
Q 30.421875 42.28125 30.421875 31.390625 
Q 30.421875 20.453125 26.78125 9.375 
Q 23.140625 -1.703125 15.828125 -13.1875 
L 8.015625 -13.1875 
Q 14.5 -2 17.703125 9.0625 
Q 20.90625 20.125 20.90625 31.390625 
Q 20.90625 42.671875 17.703125 53.65625 
Q 14.5 64.65625 8.015625 75.875 
z
" id="DejaVuSans-29"/>
     </defs>
     <g transform="translate(15.268906 195.758)rotate(-90)scale(0.11 -0.11)">
      <use transform="translate(0 63.835938)scale(0.7)" xlink:href="#DejaVuSans-64"/>
      <use transform="translate(44.433594 63.835938)scale(0.7)" xlink:href="#DejaVuSans-6c"/>
      <use transform="translate(63.881836 63.835938)scale(0.7)" xlink:href="#DejaVuSans-6e"/>
      <use transform="translate(108.24707 63.835938)scale(0.7)" xlink:href="#DejaVuSans-Oblique-3c3"/>
      <use transform="translate(155.743201 90.632812)scale(0.49)" xlink:href="#DejaVuSans-32"/>
      <use transform="translate(152.612305 44.695312)scale(0.49)" xlink:href="#DejaVuSans-Oblique-4d"/>
      <use transform="translate(196.803223 63.835938)scale(0.7)" xlink:href="#DejaVuSans-28"/>
      <use transform="translate(224.112793 63.835938)scale(0.7)" xlink:href="#DejaVuSans-Oblique-52"/>
      <use transform="translate(272.750488 63.835938)scale(0.7)" xlink:href="#DejaVuSans-2c"/>
      <use transform="translate(308.63916 63.835938)scale(0.7)" xlink:href="#DejaVuSans-Oblique-7a"/>
      <use transform="translate(345.382324 63.835938)scale(0.7)" xlink:href="#DejaVuSans-29"/>
      <use transform="translate(108 -39.74375)scale(0.7)" xlink:href="#DejaVuSans-64"/>
      <use transform="translate(152.433594 -39.74375)scale(0.7)" xlink:href="#DejaVuSans-6c"/>
      <use transform="translate(171.881836 -39.74375)scale(0.7)" xlink:href="#DejaVuSans-6e"/>
      <use transform="translate(216.24707 -39.74375)scale(0.7)" xlink:href="#DejaVuSans-Oblique-52"/>
      <path d="M 0 19.695312 
L 0 25.945312 
L 372.691895 25.945312 
L 372.691895 19.695312 
L 0 19.695312 
z
"/>
     </g>
    </g>
   </g>
   <g id="line2d_90">
    <path clip-path="url(#p46f84ac7a1)" d="M 73.832727 53.568 
L 76.431263 54.542948 
L 78.86739 55.696944 
L 81.141109 57.014443 
L 83.414827 58.582029 
L 85.850955 60.533851 
L 88.936716 63.321804 
L 93.484153 67.452429 
L 95.270646 68.782021 
L 96.894731 69.717424 
L 98.356407 70.304082 
L 99.818084 70.66215 
L 101.766985 70.890396 
L 105.50238 71.275569 
L 129.701243 75.548474 
L 138.471301 77.382836 
L 146.916542 79.37439 
L 154.712149 81.442741 
L 161.858122 83.568806 
L 168.354461 85.732633 
L 174.201166 87.908445 
L 179.723054 90.193976 
L 185.244942 92.723252 
L 190.442014 95.35059 
L 195.314268 98.060586 
L 200.024114 100.934835 
L 204.571551 103.975109 
L 208.95658 107.180842 
L 213.179201 110.548645 
L 217.239412 114.071923 
L 221.137216 117.740513 
L 225.035019 121.71236 
L 228.932823 126.010174 
L 232.668218 130.454856 
L 236.403613 135.236216 
L 240.139008 140.369347 
L 244.036811 146.113223 
L 247.934615 152.260985 
L 251.994827 159.098114 
L 256.055038 166.3752 
L 260.277659 174.405779 
L 264.500279 182.909342 
L 268.235674 190.898253 
L 270.996618 196.85243 
L 271.808661 198.128805 
L 272.620703 199.012397 
L 273.919971 199.989614 
L 274.894422 200.853847 
L 275.706464 201.877199 
L 276.680915 203.54065 
L 277.817774 206.035714 
L 279.279451 209.900272 
L 281.553169 216.690914 
L 286.100607 230.336229 
L 288.699142 237.388425 
L 290.972861 242.93103 
L 293.24658 247.886572 
L 295.520298 252.313163 
L 297.794017 256.278888 
L 300.230144 260.076267 
L 302.666271 263.476203 
L 305.102398 266.519143 
L 307.863343 269.604114 
L 310.624287 272.335357 
L 313.385231 274.772937 
L 316.470992 277.18665 
L 319.556753 279.312267 
L 322.804922 281.281821 
L 326.2155 283.091461 
L 329.950895 284.811938 
L 333.848699 286.362309 
L 338.233728 287.860353 
L 342.943574 289.234585 
L 348.303053 290.562244 
L 354.312167 291.817315 
L 361.133323 293.007687 
L 368.766521 294.109781 
L 376.237311 294.971051 
L 381.596791 295.390288 
L 385.332186 295.47056 
L 387.930722 295.318898 
L 390.042032 294.975152 
L 391.828525 294.442425 
L 393.290201 293.766733 
L 394.589469 292.919535 
L 395.888737 291.760857 
L 397.025596 290.41793 
L 398.162456 288.681307 
L 398.487273 288.101045 
L 398.487273 288.101045 
" style="fill:none;stroke:#1f77b4;stroke-linecap:square;stroke-width:1.5;"/>
   </g>
   <g id="line2d_91">
    <path clip-path="url(#p46f84ac7a1)" d="M 73.832727 53.575752 
L 76.431263 54.553216 
L 78.86739 55.710245 
L 81.141109 57.031288 
L 83.414827 58.603212 
L 85.850955 60.560643 
L 88.936716 63.357096 
L 93.484153 67.501948 
L 95.270646 68.836929 
L 96.894731 69.776716 
L 98.356407 70.366746 
L 99.818084 70.727619 
L 101.766985 70.958966 
L 105.50238 71.350349 
L 128.889201 75.531894 
L 138.308893 77.537527 
L 146.591725 79.540971 
L 154.062515 81.574551 
L 161.046079 83.700502 
L 167.704827 85.959644 
L 173.876349 88.283459 
L 179.723054 90.715333 
L 185.407351 93.320906 
L 190.766831 96.021367 
L 195.963902 98.892684 
L 200.836156 101.837225 
L 205.546002 104.944236 
L 209.931031 108.095736 
L 214.153651 111.396266 
L 218.213863 114.847286 
L 222.111667 118.448977 
L 225.847062 122.198945 
L 229.420048 126.09074 
L 232.993035 130.311918 
L 236.403613 134.676271 
L 239.814191 139.392191 
L 243.224769 144.479364 
L 246.797755 150.22211 
L 250.370742 156.395973 
L 254.106137 163.311422 
L 258.00394 171.015664 
L 262.226561 179.868245 
L 270.671801 197.845089 
L 271.646252 199.247687 
L 272.458295 200.044169 
L 274.894422 202.050822 
L 275.706464 203.248195 
L 276.680915 205.132176 
L 277.980183 208.210244 
L 279.929085 213.480142 
L 289.186368 239.207802 
L 291.460086 244.492811 
L 293.571397 248.855363 
L 295.845115 253.052273 
L 298.281242 257.085213 
L 300.879778 260.952551 
L 303.478314 264.4317 
L 306.239258 267.750897 
L 309.000202 270.721679 
L 311.761146 273.378567 
L 314.684499 275.883125 
L 317.607851 278.102233 
L 320.693612 280.16856 
L 323.941782 282.073709 
L 327.35236 283.815648 
L 331.087755 285.464984 
L 335.147967 287.00248 
L 339.532996 288.419775 
L 344.40525 289.758315 
L 349.927138 291.040234 
L 356.261069 292.274382 
L 363.407042 293.435228 
L 371.202649 294.476398 
L 378.023805 295.180585 
L 382.73365 295.463105 
L 385.98182 295.445943 
L 388.255539 295.238641 
L 390.20444 294.846847 
L 391.828525 294.296246 
L 393.290201 293.550969 
L 394.427061 292.753742 
L 395.56392 291.710105 
L 396.700779 290.351643 
L 397.837639 288.597778 
L 398.487273 287.383666 
L 398.487273 287.383666 
" style="fill:none;stroke:#ff7f0e;stroke-linecap:square;stroke-width:1.5;"/>
   </g>
   <g id="line2d_92">
    <path clip-path="url(#p46f84ac7a1)" d="M 73.832727 53.56804 
L 76.431263 54.543001 
L 78.86739 55.697013 
L 81.141109 57.01453 
L 83.414827 58.582139 
L 85.850955 60.53399 
L 88.936716 63.321987 
L 93.484153 67.452685 
L 95.270646 68.782305 
L 96.894731 69.717731 
L 98.356407 70.304407 
L 99.818084 70.662488 
L 101.766985 70.89075 
L 105.50238 71.275956 
L 129.701243 75.549228 
L 138.471301 77.383814 
L 146.916542 79.375647 
L 154.712149 81.444296 
L 161.858122 83.570602 
L 168.354461 85.734497 
L 174.201166 87.910141 
L 179.723054 90.195389 
L 185.082534 92.646465 
L 190.279605 95.265875 
L 195.15186 97.967653 
L 199.861705 100.833108 
L 204.409143 103.864025 
L 208.794172 107.059871 
L 213.016792 110.417304 
L 217.077004 113.929814 
L 220.974807 117.587347 
L 224.872611 121.547466 
L 228.770414 125.832935 
L 232.505809 130.265317 
L 236.241204 135.034044 
L 239.976599 140.154377 
L 243.874403 145.884959 
L 247.772206 152.019718 
L 251.67001 158.562243 
L 255.730221 165.80919 
L 259.952842 173.8087 
L 264.175462 182.280399 
L 268.073266 190.584342 
L 271.159027 197.18905 
L 271.971069 198.385332 
L 272.783112 199.201177 
L 275.219239 201.272907 
L 276.031281 202.426202 
L 277.005732 204.244395 
L 278.142591 206.887045 
L 279.604268 210.876054 
L 282.202803 218.738587 
L 285.938198 229.915777 
L 288.536734 237.009493 
L 290.810452 242.592106 
L 293.084171 247.584726 
L 295.35789 252.043192 
L 297.631609 256.036438 
L 300.067736 259.859552 
L 302.503863 263.281079 
L 304.93999 266.344537 
L 307.700934 269.448385 
L 310.29947 272.043799 
L 313.222822 274.650637 
L 316.308583 277.079592 
L 319.394344 279.218827 
L 322.642514 281.200951 
L 326.053092 283.022087 
L 329.788487 284.754158 
L 333.68629 286.315427 
L 337.908911 287.77234 
L 342.618757 289.163926 
L 347.815828 290.468559 
L 353.824942 291.73944 
L 360.483689 292.916393 
L 368.116888 294.034857 
L 375.587677 294.914695 
L 381.271974 295.379386 
L 385.169778 295.478148 
L 387.930722 295.321813 
L 390.042032 294.975633 
L 391.828525 294.439919 
L 393.290201 293.760869 
L 394.589469 292.909762 
L 395.888737 291.746015 
L 397.025596 290.397491 
L 398.162456 288.65388 
L 398.487273 288.07134 
L 398.487273 288.07134 
" style="fill:none;stroke:#2ca02c;stroke-linecap:square;stroke-width:1.5;"/>
   </g>
   <g id="line2d_93">
    <path clip-path="url(#p46f84ac7a1)" d="M 73.832727 53.575752 
L 76.431263 54.553216 
L 78.86739 55.710245 
L 81.141109 57.031288 
L 83.414827 58.603212 
L 85.850955 60.560643 
L 88.936716 63.357096 
L 93.484153 67.501948 
L 95.270646 68.836929 
L 96.894731 69.776716 
L 98.356407 70.366746 
L 99.818084 70.727619 
L 101.766985 70.958966 
L 105.50238 71.350349 
L 128.889201 75.531894 
L 138.308893 77.537527 
L 146.591725 79.540971 
L 154.062515 81.574551 
L 161.046079 83.700502 
L 167.704827 85.959644 
L 173.876349 88.283459 
L 179.723054 90.715333 
L 185.407351 93.320906 
L 190.766831 96.021367 
L 195.963902 98.892684 
L 200.836156 101.837225 
L 205.546002 104.944236 
L 209.931031 108.095736 
L 214.153651 111.396266 
L 218.213863 114.847286 
L 222.111667 118.448977 
L 225.847062 122.198945 
L 229.420048 126.09074 
L 232.993035 130.311918 
L 236.403613 134.676271 
L 239.814191 139.392191 
L 243.224769 144.479364 
L 246.797755 150.22211 
L 250.370742 156.395973 
L 254.106137 163.311422 
L 258.00394 171.015664 
L 262.226561 179.868245 
L 270.671801 197.845089 
L 271.646252 199.247687 
L 272.458295 200.044169 
L 274.894422 202.050822 
L 275.706464 203.248195 
L 276.680915 205.132176 
L 277.980183 208.210244 
L 279.929085 213.480142 
L 289.186368 239.207802 
L 291.460086 244.492811 
L 293.571397 248.855363 
L 295.845115 253.052273 
L 298.281242 257.085213 
L 300.879778 260.952551 
L 303.478314 264.4317 
L 306.239258 267.750897 
L 309.000202 270.721679 
L 311.761146 273.378567 
L 314.684499 275.883125 
L 317.607851 278.102233 
L 320.693612 280.16856 
L 323.941782 282.073709 
L 327.35236 283.815648 
L 331.087755 285.464984 
L 335.147967 287.00248 
L 339.532996 288.419775 
L 344.40525 289.758315 
L 349.927138 291.040234 
L 356.261069 292.274382 
L 363.407042 293.435228 
L 371.202649 294.476398 
L 378.023805 295.180585 
L 382.73365 295.463105 
L 385.98182 295.445942 
L 388.255539 295.238637 
L 390.20444 294.846848 
L 391.828525 294.296245 
L 393.290201 293.550964 
L 394.427061 292.753739 
L 395.56392 291.710095 
L 396.700779 290.351638 
L 397.837639 288.597774 
L 398.487273 287.383664 
L 398.487273 287.383664 
" style="fill:none;stroke:#d62728;stroke-linecap:square;stroke-width:1.5;"/>
   </g>
   <g id="line2d_94">
    <path clip-path="url(#p46f84ac7a1)" d="M 73.832727 53.568075 
L 76.431263 54.543048 
L 78.86739 55.697073 
L 81.141109 57.014607 
L 83.414827 58.582235 
L 85.850955 60.534112 
L 88.936716 63.322147 
L 93.484153 67.45291 
L 95.270646 68.782555 
L 96.894731 69.718001 
L 98.356407 70.304691 
L 99.818084 70.662786 
L 101.766985 70.891062 
L 105.50238 71.276296 
L 129.701243 75.549891 
L 138.471301 77.384673 
L 146.916542 79.376747 
L 154.712149 81.44565 
L 161.858122 83.572148 
L 168.354461 85.736064 
L 174.201166 87.911496 
L 179.723054 90.196408 
L 185.082534 92.647266 
L 190.279605 95.266624 
L 195.15186 97.968441 
L 199.861705 100.834015 
L 204.409143 103.865122 
L 208.794172 107.061228 
L 213.016792 110.419003 
L 217.077004 113.931947 
L 220.974807 117.590018 
L 224.872611 121.550827 
L 228.770414 125.837173 
L 232.505809 130.270617 
L 236.241204 135.040665 
L 239.976599 140.162624 
L 243.874403 145.895271 
L 247.772206 152.032516 
L 251.67001 158.577973 
L 255.730221 165.828428 
L 259.952842 173.831967 
L 264.175462 182.307934 
L 268.073266 190.615937 
L 271.159027 197.223886 
L 271.971069 198.42067 
L 272.783112 199.236709 
L 275.219239 201.308079 
L 276.031281 202.461297 
L 277.005732 204.27952 
L 278.142591 206.922336 
L 279.604268 210.91164 
L 282.202803 218.774488 
L 285.938198 229.950873 
L 288.536734 237.043073 
L 290.810452 242.623742 
L 293.084171 247.613923 
L 295.35789 252.069597 
L 297.631609 256.059957 
L 300.067736 259.880374 
L 302.503863 263.299982 
L 304.93999 266.361944 
L 307.700934 269.464213 
L 310.29947 272.058708 
L 313.222822 274.66519 
L 316.308583 277.093951 
L 319.394344 279.232714 
L 322.642514 281.214557 
L 326.053092 283.036492 
L 329.788487 284.770268 
L 333.68629 286.333492 
L 337.908911 287.79288 
L 342.618757 289.185914 
L 347.815828 290.488908 
L 353.824942 291.756338 
L 360.646098 292.956209 
L 368.279296 294.067275 
L 375.912494 294.956186 
L 381.434383 295.39541 
L 385.007369 295.485873 
L 387.768313 295.342498 
L 389.879623 295.013367 
L 391.503708 294.557895 
L 392.965385 293.931496 
L 394.264652 293.142441 
L 395.56392 292.061276 
L 396.700779 290.804072 
L 397.837639 289.176513 
L 398.487273 288.047533 
L 398.487273 288.047533 
" style="fill:none;stroke:#9467bd;stroke-linecap:square;stroke-width:1.5;"/>
   </g>
   <g id="line2d_95">
    <path clip-path="url(#p46f84ac7a1)" d="M 73.832727 53.575752 
L 76.431263 54.553216 
L 78.86739 55.710245 
L 81.141109 57.031288 
L 83.414827 58.603212 
L 85.850955 60.560643 
L 88.936716 63.357096 
L 93.484153 67.501948 
L 95.270646 68.836929 
L 96.894731 69.776716 
L 98.356407 70.366746 
L 99.818084 70.727619 
L 101.766985 70.958966 
L 105.50238 71.350349 
L 128.889201 75.531894 
L 138.308893 77.537527 
L 146.591725 79.540971 
L 154.062515 81.574551 
L 161.046079 83.700502 
L 167.704827 85.959644 
L 173.876349 88.283459 
L 179.723054 90.715333 
L 185.407351 93.320906 
L 190.766831 96.021367 
L 195.963902 98.892684 
L 200.836156 101.837225 
L 205.546002 104.944236 
L 209.931031 108.095736 
L 214.153651 111.396266 
L 218.213863 114.847286 
L 222.111667 118.448977 
L 225.847062 122.198945 
L 229.420048 126.09074 
L 232.993035 130.311918 
L 236.403613 134.676271 
L 239.814191 139.392191 
L 243.224769 144.479364 
L 246.797755 150.22211 
L 250.370742 156.395973 
L 254.106137 163.311422 
L 258.00394 171.015664 
L 262.226561 179.868245 
L 270.671801 197.845089 
L 271.646252 199.247687 
L 272.458295 200.044169 
L 274.894422 202.050822 
L 275.706464 203.248195 
L 276.680915 205.132176 
L 277.980183 208.210244 
L 279.929085 213.480142 
L 289.186368 239.207802 
L 291.460086 244.492811 
L 293.571397 248.855363 
L 295.845115 253.052273 
L 298.281242 257.085213 
L 300.879778 260.952551 
L 303.478314 264.4317 
L 306.239258 267.750897 
L 309.000202 270.721679 
L 311.761146 273.378567 
L 314.684499 275.883125 
L 317.607851 278.102233 
L 320.693612 280.16856 
L 323.941782 282.073709 
L 327.35236 283.815648 
L 331.087755 285.464984 
L 335.147967 287.00248 
L 339.532996 288.419775 
L 344.40525 289.758315 
L 349.927138 291.040234 
L 356.261069 292.274382 
L 363.407042 293.435228 
L 371.202649 294.476398 
L 378.023805 295.180585 
L 382.73365 295.463105 
L 385.98182 295.445942 
L 388.255539 295.23864 
L 390.20444 294.846849 
L 391.828525 294.296246 
L 393.290201 293.550965 
L 394.427061 292.75374 
L 395.56392 291.7101 
L 396.700779 290.351646 
L 397.837639 288.597779 
L 398.487273 287.383666 
L 398.487273 287.383666 
" style="fill:none;stroke:#8c564b;stroke-linecap:square;stroke-width:1.5;"/>
   </g>
   <g id="patch_3">
    <path d="M 57.6 307.584 
L 57.6 41.472 
" style="fill:none;stroke:#000000;stroke-linecap:square;stroke-linejoin:miter;stroke-width:0.8;"/>
   </g>
   <g id="patch_4">
    <path d="M 414.72 307.584 
L 414.72 41.472 
" style="fill:none;stroke:#000000;stroke-linecap:square;stroke-linejoin:miter;stroke-width:0.8;"/>
   </g>
   <g id="patch_5">
    <path d="M 57.6 307.584 
L 414.72 307.584 
" style="fill:none;stroke:#000000;stroke-linecap:square;stroke-linejoin:miter;stroke-width:0.8;"/>
   </g>
   <g id="patch_6">
    <path d="M 57.6 41.472 
L 414.72 41.472 
" style="fill:none;stroke:#000000;stroke-linecap:square;stroke-linejoin:miter;stroke-width:0.8;"/>
   </g>
   <g id="text_21">
    <!-- Derivative of the matter density contrast -->
    <defs>
     <path d="M 19.671875 64.796875 
L 19.671875 8.109375 
L 31.59375 8.109375 
Q 46.6875 8.109375 53.6875 14.9375 
Q 60.6875 21.78125 60.6875 36.53125 
Q 60.6875 51.171875 53.6875 57.984375 
Q 46.6875 64.796875 31.59375 64.796875 
z
M 9.8125 72.90625 
L 30.078125 72.90625 
Q 51.265625 72.90625 61.171875 64.09375 
Q 71.09375 55.28125 71.09375 36.53125 
Q 71.09375 17.671875 61.125 8.828125 
Q 51.171875 0 30.078125 0 
L 9.8125 0 
z
" id="DejaVuSans-44"/>
     <path d="M 56.203125 29.59375 
L 56.203125 25.203125 
L 14.890625 25.203125 
Q 15.484375 15.921875 20.484375 11.0625 
Q 25.484375 6.203125 34.421875 6.203125 
Q 39.59375 6.203125 44.453125 7.46875 
Q 49.3125 8.734375 54.109375 11.28125 
L 54.109375 2.78125 
Q 49.265625 0.734375 44.1875 -0.34375 
Q 39.109375 -1.421875 33.890625 -1.421875 
Q 20.796875 -1.421875 13.15625 6.1875 
Q 5.515625 13.8125 5.515625 26.8125 
Q 5.515625 40.234375 12.765625 48.109375 
Q 20.015625 56 32.328125 56 
Q 43.359375 56 49.78125 48.890625 
Q 56.203125 41.796875 56.203125 29.59375 
z
M 47.21875 32.234375 
Q 47.125 39.59375 43.09375 43.984375 
Q 39.0625 48.390625 32.421875 48.390625 
Q 24.90625 48.390625 20.390625 44.140625 
Q 15.875 39.890625 15.1875 32.171875 
z
" id="DejaVuSans-65"/>
     <path d="M 41.109375 46.296875 
Q 39.59375 47.171875 37.8125 47.578125 
Q 36.03125 48 33.890625 48 
Q 26.265625 48 22.1875 43.046875 
Q 18.109375 38.09375 18.109375 28.8125 
L 18.109375 0 
L 9.078125 0 
L 9.078125 54.6875 
L 18.109375 54.6875 
L 18.109375 46.1875 
Q 20.953125 51.171875 25.484375 53.578125 
Q 30.03125 56 36.53125 56 
Q 37.453125 56 38.578125 55.875 
Q 39.703125 55.765625 41.0625 55.515625 
z
" id="DejaVuSans-72"/>
     <path d="M 9.421875 54.6875 
L 18.40625 54.6875 
L 18.40625 0 
L 9.421875 0 
z
M 9.421875 75.984375 
L 18.40625 75.984375 
L 18.40625 64.59375 
L 9.421875 64.59375 
z
" id="DejaVuSans-69"/>
     <path d="M 2.984375 54.6875 
L 12.5 54.6875 
L 29.59375 8.796875 
L 46.6875 54.6875 
L 56.203125 54.6875 
L 35.6875 0 
L 23.484375 0 
z
" id="DejaVuSans-76"/>
     <path d="M 34.28125 27.484375 
Q 23.390625 27.484375 19.1875 25 
Q 14.984375 22.515625 14.984375 16.5 
Q 14.984375 11.71875 18.140625 8.90625 
Q 21.296875 6.109375 26.703125 6.109375 
Q 34.1875 6.109375 38.703125 11.40625 
Q 43.21875 16.703125 43.21875 25.484375 
L 43.21875 27.484375 
z
M 52.203125 31.203125 
L 52.203125 0 
L 43.21875 0 
L 43.21875 8.296875 
Q 40.140625 3.328125 35.546875 0.953125 
Q 30.953125 -1.421875 24.3125 -1.421875 
Q 15.921875 -1.421875 10.953125 3.296875 
Q 6 8.015625 6 15.921875 
Q 6 25.140625 12.171875 29.828125 
Q 18.359375 34.515625 30.609375 34.515625 
L 43.21875 34.515625 
L 43.21875 35.40625 
Q 43.21875 41.609375 39.140625 45 
Q 35.0625 48.390625 27.6875 48.390625 
Q 23 48.390625 18.546875 47.265625 
Q 14.109375 46.140625 10.015625 43.890625 
L 10.015625 52.203125 
Q 14.9375 54.109375 19.578125 55.046875 
Q 24.21875 56 28.609375 56 
Q 40.484375 56 46.34375 49.84375 
Q 52.203125 43.703125 52.203125 31.203125 
z
" id="DejaVuSans-61"/>
     <path d="M 18.3125 70.21875 
L 18.3125 54.6875 
L 36.8125 54.6875 
L 36.8125 47.703125 
L 18.3125 47.703125 
L 18.3125 18.015625 
Q 18.3125 11.328125 20.140625 9.421875 
Q 21.96875 7.515625 27.59375 7.515625 
L 36.8125 7.515625 
L 36.8125 0 
L 27.59375 0 
Q 17.1875 0 13.234375 3.875 
Q 9.28125 7.765625 9.28125 18.015625 
L 9.28125 47.703125 
L 2.6875 47.703125 
L 2.6875 54.6875 
L 9.28125 54.6875 
L 9.28125 70.21875 
z
" id="DejaVuSans-74"/>
     <path id="DejaVuSans-20"/>
     <path d="M 30.609375 48.390625 
Q 23.390625 48.390625 19.1875 42.75 
Q 14.984375 37.109375 14.984375 27.296875 
Q 14.984375 17.484375 19.15625 11.84375 
Q 23.34375 6.203125 30.609375 6.203125 
Q 37.796875 6.203125 41.984375 11.859375 
Q 46.1875 17.53125 46.1875 27.296875 
Q 46.1875 37.015625 41.984375 42.703125 
Q 37.796875 48.390625 30.609375 48.390625 
z
M 30.609375 56 
Q 42.328125 56 49.015625 48.375 
Q 55.71875 40.765625 55.71875 27.296875 
Q 55.71875 13.875 49.015625 6.21875 
Q 42.328125 -1.421875 30.609375 -1.421875 
Q 18.84375 -1.421875 12.171875 6.21875 
Q 5.515625 13.875 5.515625 27.296875 
Q 5.515625 40.765625 12.171875 48.375 
Q 18.84375 56 30.609375 56 
z
" id="DejaVuSans-6f"/>
     <path d="M 37.109375 75.984375 
L 37.109375 68.5 
L 28.515625 68.5 
Q 23.6875 68.5 21.796875 66.546875 
Q 19.921875 64.59375 19.921875 59.515625 
L 19.921875 54.6875 
L 34.71875 54.6875 
L 34.71875 47.703125 
L 19.921875 47.703125 
L 19.921875 0 
L 10.890625 0 
L 10.890625 47.703125 
L 2.296875 47.703125 
L 2.296875 54.6875 
L 10.890625 54.6875 
L 10.890625 58.5 
Q 10.890625 67.625 15.140625 71.796875 
Q 19.390625 75.984375 28.609375 75.984375 
z
" id="DejaVuSans-66"/>
     <path d="M 54.890625 33.015625 
L 54.890625 0 
L 45.90625 0 
L 45.90625 32.71875 
Q 45.90625 40.484375 42.875 44.328125 
Q 39.84375 48.1875 33.796875 48.1875 
Q 26.515625 48.1875 22.3125 43.546875 
Q 18.109375 38.921875 18.109375 30.90625 
L 18.109375 0 
L 9.078125 0 
L 9.078125 75.984375 
L 18.109375 75.984375 
L 18.109375 46.1875 
Q 21.34375 51.125 25.703125 53.5625 
Q 30.078125 56 35.796875 56 
Q 45.21875 56 50.046875 50.171875 
Q 54.890625 44.34375 54.890625 33.015625 
z
" id="DejaVuSans-68"/>
     <path d="M 52 44.1875 
Q 55.375 50.25 60.0625 53.125 
Q 64.75 56 71.09375 56 
Q 79.640625 56 84.28125 50.015625 
Q 88.921875 44.046875 88.921875 33.015625 
L 88.921875 0 
L 79.890625 0 
L 79.890625 32.71875 
Q 79.890625 40.578125 77.09375 44.375 
Q 74.3125 48.1875 68.609375 48.1875 
Q 61.625 48.1875 57.5625 43.546875 
Q 53.515625 38.921875 53.515625 30.90625 
L 53.515625 0 
L 44.484375 0 
L 44.484375 32.71875 
Q 44.484375 40.625 41.703125 44.40625 
Q 38.921875 48.1875 33.109375 48.1875 
Q 26.21875 48.1875 22.15625 43.53125 
Q 18.109375 38.875 18.109375 30.90625 
L 18.109375 0 
L 9.078125 0 
L 9.078125 54.6875 
L 18.109375 54.6875 
L 18.109375 46.1875 
Q 21.1875 51.21875 25.484375 53.609375 
Q 29.78125 56 35.6875 56 
Q 41.65625 56 45.828125 52.96875 
Q 50 49.953125 52 44.1875 
z
" id="DejaVuSans-6d"/>
     <path d="M 44.28125 53.078125 
L 44.28125 44.578125 
Q 40.484375 46.53125 36.375 47.5 
Q 32.28125 48.484375 27.875 48.484375 
Q 21.1875 48.484375 17.84375 46.4375 
Q 14.5 44.390625 14.5 40.28125 
Q 14.5 37.15625 16.890625 35.375 
Q 19.28125 33.59375 26.515625 31.984375 
L 29.59375 31.296875 
Q 39.15625 29.25 43.1875 25.515625 
Q 47.21875 21.78125 47.21875 15.09375 
Q 47.21875 7.46875 41.1875 3.015625 
Q 35.15625 -1.421875 24.609375 -1.421875 
Q 20.21875 -1.421875 15.453125 -0.5625 
Q 10.6875 0.296875 5.421875 2 
L 5.421875 11.28125 
Q 10.40625 8.6875 15.234375 7.390625 
Q 20.0625 6.109375 24.8125 6.109375 
Q 31.15625 6.109375 34.5625 8.28125 
Q 37.984375 10.453125 37.984375 14.40625 
Q 37.984375 18.0625 35.515625 20.015625 
Q 33.0625 21.96875 24.703125 23.78125 
L 21.578125 24.515625 
Q 13.234375 26.265625 9.515625 29.90625 
Q 5.8125 33.546875 5.8125 39.890625 
Q 5.8125 47.609375 11.28125 51.796875 
Q 16.75 56 26.8125 56 
Q 31.78125 56 36.171875 55.265625 
Q 40.578125 54.546875 44.28125 53.078125 
z
" id="DejaVuSans-73"/>
     <path d="M 32.171875 -5.078125 
Q 28.375 -14.84375 24.75 -17.8125 
Q 21.140625 -20.796875 15.09375 -20.796875 
L 7.90625 -20.796875 
L 7.90625 -13.28125 
L 13.1875 -13.28125 
Q 16.890625 -13.28125 18.9375 -11.515625 
Q 21 -9.765625 23.484375 -3.21875 
L 25.09375 0.875 
L 2.984375 54.6875 
L 12.5 54.6875 
L 29.59375 11.921875 
L 46.6875 54.6875 
L 56.203125 54.6875 
z
" id="DejaVuSans-79"/>
    </defs>
    <g transform="translate(100.607344 35.472)scale(0.132 -0.132)">
     <use xlink:href="#DejaVuSans-44"/>
     <use x="77.001953" xlink:href="#DejaVuSans-65"/>
     <use x="138.525391" xlink:href="#DejaVuSans-72"/>
     <use x="179.638672" xlink:href="#DejaVuSans-69"/>
     <use x="207.421875" xlink:href="#DejaVuSans-76"/>
     <use x="266.601562" xlink:href="#DejaVuSans-61"/>
     <use x="327.880859" xlink:href="#DejaVuSans-74"/>
     <use x="367.089844" xlink:href="#DejaVuSans-69"/>
     <use x="394.873047" xlink:href="#DejaVuSans-76"/>
     <use x="454.052734" xlink:href="#DejaVuSans-65"/>
     <use x="515.576172" xlink:href="#DejaVuSans-20"/>
     <use x="547.363281" xlink:href="#DejaVuSans-6f"/>
     <use x="608.544922" xlink:href="#DejaVuSans-66"/>
     <use x="643.75" xlink:href="#DejaVuSans-20"/>
     <use x="675.537109" xlink:href="#DejaVuSans-74"/>
     <use x="714.746094" xlink:href="#DejaVuSans-68"/>
     <use x="778.125" xlink:href="#DejaVuSans-65"/>
     <use x="839.648438" xlink:href="#DejaVuSans-20"/>
     <use x="871.435547" xlink:href="#DejaVuSans-6d"/>
     <use x="968.847656" xlink:href="#DejaVuSans-61"/>
     <use x="1030.126953" xlink:href="#DejaVuSans-74"/>
     <use x="1069.335938" xlink:href="#DejaVuSans-74"/>
     <use x="1108.544922" xlink:href="#DejaVuSans-65"/>
     <use x="1170.068359" xlink:href="#DejaVuSans-72"/>
     <use x="1211.181641" xlink:href="#DejaVuSans-20"/>
     <use x="1242.96875" xlink:href="#DejaVuSans-64"/>
     <use x="1306.445312" xlink:href="#DejaVuSans-65"/>
     <use x="1367.96875" xlink:href="#DejaVuSans-6e"/>
     <use x="1431.347656" xlink:href="#DejaVuSans-73"/>
     <use x="1483.447266" xlink:href="#DejaVuSans-69"/>
     <use x="1511.230469" xlink:href="#DejaVuSans-74"/>
     <use x="1550.439453" xlink:href="#DejaVuSans-79"/>
     <use x="1609.619141" xlink:href="#DejaVuSans-20"/>
     <use x="1641.40625" xlink:href="#DejaVuSans-63"/>
     <use x="1696.386719" xlink:href="#DejaVuSans-6f"/>
     <use x="1757.568359" xlink:href="#DejaVuSans-6e"/>
     <use x="1820.947266" xlink:href="#DejaVuSans-74"/>
     <use x="1860.15625" xlink:href="#DejaVuSans-72"/>
     <use x="1901.269531" xlink:href="#DejaVuSans-61"/>
     <use x="1962.548828" xlink:href="#DejaVuSans-73"/>
     <use x="2014.648438" xlink:href="#DejaVuSans-74"/>
    </g>
   </g>
   <g id="legend_1">
    <g id="patch_7">
     <path d="M 65.3 302.084 
L 183.11 302.084 
Q 185.31 302.084 185.31 299.884 
L 185.31 204.108375 
Q 185.31 201.908375 183.11 201.908375 
L 65.3 201.908375 
Q 63.1 201.908375 63.1 204.108375 
L 63.1 299.884 
Q 63.1 302.084 65.3 302.084 
z
" style="fill:#ffffff;opacity:0.8;stroke:#cccccc;stroke-linejoin:miter;"/>
    </g>
    <g id="line2d_96">
     <path d="M 67.5 210.816656 
L 89.5 210.816656 
" style="fill:none;stroke:#1f77b4;stroke-linecap:square;stroke-width:1.5;"/>
    </g>
    <g id="line2d_97"/>
    <g id="text_22">
     <!-- CLASS $z = 0.00$ -->
     <defs>
      <path d="M 64.40625 67.28125 
L 64.40625 56.890625 
Q 59.421875 61.53125 53.78125 63.8125 
Q 48.140625 66.109375 41.796875 66.109375 
Q 29.296875 66.109375 22.65625 58.46875 
Q 16.015625 50.828125 16.015625 36.375 
Q 16.015625 21.96875 22.65625 14.328125 
Q 29.296875 6.6875 41.796875 6.6875 
Q 48.140625 6.6875 53.78125 8.984375 
Q 59.421875 11.28125 64.40625 15.921875 
L 64.40625 5.609375 
Q 59.234375 2.09375 53.4375 0.328125 
Q 47.65625 -1.421875 41.21875 -1.421875 
Q 24.65625 -1.421875 15.125 8.703125 
Q 5.609375 18.84375 5.609375 36.375 
Q 5.609375 53.953125 15.125 64.078125 
Q 24.65625 74.21875 41.21875 74.21875 
Q 47.75 74.21875 53.53125 72.484375 
Q 59.328125 70.75 64.40625 67.28125 
z
" id="DejaVuSans-43"/>
      <path d="M 9.8125 72.90625 
L 19.671875 72.90625 
L 19.671875 8.296875 
L 55.171875 8.296875 
L 55.171875 0 
L 9.8125 0 
z
" id="DejaVuSans-4c"/>
      <path d="M 34.1875 63.1875 
L 20.796875 26.90625 
L 47.609375 26.90625 
z
M 28.609375 72.90625 
L 39.796875 72.90625 
L 67.578125 0 
L 57.328125 0 
L 50.6875 18.703125 
L 17.828125 18.703125 
L 11.1875 0 
L 0.78125 0 
z
" id="DejaVuSans-41"/>
      <path d="M 53.515625 70.515625 
L 53.515625 60.890625 
Q 47.90625 63.578125 42.921875 64.890625 
Q 37.9375 66.21875 33.296875 66.21875 
Q 25.25 66.21875 20.875 63.09375 
Q 16.5 59.96875 16.5 54.203125 
Q 16.5 49.359375 19.40625 46.890625 
Q 22.3125 44.4375 30.421875 42.921875 
L 36.375 41.703125 
Q 47.40625 39.59375 52.65625 34.296875 
Q 57.90625 29 57.90625 20.125 
Q 57.90625 9.515625 50.796875 4.046875 
Q 43.703125 -1.421875 29.984375 -1.421875 
Q 24.8125 -1.421875 18.96875 -0.25 
Q 13.140625 0.921875 6.890625 3.21875 
L 6.890625 13.375 
Q 12.890625 10.015625 18.65625 8.296875 
Q 24.421875 6.59375 29.984375 6.59375 
Q 38.421875 6.59375 43.015625 9.90625 
Q 47.609375 13.234375 47.609375 19.390625 
Q 47.609375 24.75 44.3125 27.78125 
Q 41.015625 30.8125 33.5 32.328125 
L 27.484375 33.5 
Q 16.453125 35.6875 11.515625 40.375 
Q 6.59375 45.0625 6.59375 53.421875 
Q 6.59375 63.09375 13.40625 68.65625 
Q 20.21875 74.21875 32.171875 74.21875 
Q 37.3125 74.21875 42.625 73.28125 
Q 47.953125 72.359375 53.515625 70.515625 
z
" id="DejaVuSans-53"/>
      <path d="M 10.59375 45.40625 
L 73.1875 45.40625 
L 73.1875 37.203125 
L 10.59375 37.203125 
z
M 10.59375 25.484375 
L 73.1875 25.484375 
L 73.1875 17.1875 
L 10.59375 17.1875 
z
" id="DejaVuSans-3d"/>
     </defs>
     <g transform="translate(98.3 214.666656)scale(0.11 -0.11)">
      <use transform="translate(0 0.78125)" xlink:href="#DejaVuSans-43"/>
      <use transform="translate(69.824219 0.78125)" xlink:href="#DejaVuSans-4c"/>
      <use transform="translate(125.537109 0.78125)" xlink:href="#DejaVuSans-41"/>
      <use transform="translate(193.945312 0.78125)" xlink:href="#DejaVuSans-53"/>
      <use transform="translate(257.421875 0.78125)" xlink:href="#DejaVuSans-53"/>
      <use transform="translate(320.898438 0.78125)" xlink:href="#DejaVuSans-20"/>
      <use transform="translate(352.685547 0.78125)" xlink:href="#DejaVuSans-Oblique-7a"/>
      <use transform="translate(424.658203 0.78125)" xlink:href="#DejaVuSans-3d"/>
      <use transform="translate(527.929688 0.78125)" xlink:href="#DejaVuSans-30"/>
      <use transform="translate(591.552734 0.78125)" xlink:href="#DejaVuSans-2e"/>
      <use transform="translate(623.339844 0.78125)" xlink:href="#DejaVuSans-30"/>
      <use transform="translate(686.962891 0.78125)" xlink:href="#DejaVuSans-30"/>
     </g>
    </g>
    <g id="line2d_98">
     <path d="M 67.5 226.962594 
L 89.5 226.962594 
" style="fill:none;stroke:#ff7f0e;stroke-linecap:square;stroke-width:1.5;"/>
    </g>
    <g id="line2d_99"/>
    <g id="text_23">
     <!-- EH    $z = 0.00$ -->
     <defs>
      <path d="M 9.8125 72.90625 
L 55.90625 72.90625 
L 55.90625 64.59375 
L 19.671875 64.59375 
L 19.671875 43.015625 
L 54.390625 43.015625 
L 54.390625 34.71875 
L 19.671875 34.71875 
L 19.671875 8.296875 
L 56.78125 8.296875 
L 56.78125 0 
L 9.8125 0 
z
" id="DejaVuSans-45"/>
      <path d="M 9.8125 72.90625 
L 19.671875 72.90625 
L 19.671875 43.015625 
L 55.515625 43.015625 
L 55.515625 72.90625 
L 65.375 72.90625 
L 65.375 0 
L 55.515625 0 
L 55.515625 34.71875 
L 19.671875 34.71875 
L 19.671875 0 
L 9.8125 0 
z
" id="DejaVuSans-48"/>
     </defs>
     <g transform="translate(98.3 230.812594)scale(0.11 -0.11)">
      <use transform="translate(0 0.78125)" xlink:href="#DejaVuSans-45"/>
      <use transform="translate(63.183594 0.78125)" xlink:href="#DejaVuSans-48"/>
      <use transform="translate(138.378906 0.78125)" xlink:href="#DejaVuSans-20"/>
      <use transform="translate(170.166016 0.78125)" xlink:href="#DejaVuSans-20"/>
      <use transform="translate(201.953125 0.78125)" xlink:href="#DejaVuSans-20"/>
      <use transform="translate(233.740234 0.78125)" xlink:href="#DejaVuSans-20"/>
      <use transform="translate(265.527344 0.78125)" xlink:href="#DejaVuSans-Oblique-7a"/>
      <use transform="translate(337.5 0.78125)" xlink:href="#DejaVuSans-3d"/>
      <use transform="translate(440.771484 0.78125)" xlink:href="#DejaVuSans-30"/>
      <use transform="translate(504.394531 0.78125)" xlink:href="#DejaVuSans-2e"/>
      <use transform="translate(536.181641 0.78125)" xlink:href="#DejaVuSans-30"/>
      <use transform="translate(599.804688 0.78125)" xlink:href="#DejaVuSans-30"/>
     </g>
    </g>
    <g id="line2d_100">
     <path d="M 67.5 243.108531 
L 89.5 243.108531 
" style="fill:none;stroke:#2ca02c;stroke-linecap:square;stroke-width:1.5;"/>
    </g>
    <g id="line2d_101"/>
    <g id="text_24">
     <!-- CLASS $z = 1.00$ -->
     <g transform="translate(98.3 246.958531)scale(0.11 -0.11)">
      <use transform="translate(0 0.78125)" xlink:href="#DejaVuSans-43"/>
      <use transform="translate(69.824219 0.78125)" xlink:href="#DejaVuSans-4c"/>
      <use transform="translate(125.537109 0.78125)" xlink:href="#DejaVuSans-41"/>
      <use transform="translate(193.945312 0.78125)" xlink:href="#DejaVuSans-53"/>
      <use transform="translate(257.421875 0.78125)" xlink:href="#DejaVuSans-53"/>
      <use transform="translate(320.898438 0.78125)" xlink:href="#DejaVuSans-20"/>
      <use transform="translate(352.685547 0.78125)" xlink:href="#DejaVuSans-Oblique-7a"/>
      <use transform="translate(424.658203 0.78125)" xlink:href="#DejaVuSans-3d"/>
      <use transform="translate(527.929688 0.78125)" xlink:href="#DejaVuSans-31"/>
      <use transform="translate(591.552734 0.78125)" xlink:href="#DejaVuSans-2e"/>
      <use transform="translate(623.339844 0.78125)" xlink:href="#DejaVuSans-30"/>
      <use transform="translate(686.962891 0.78125)" xlink:href="#DejaVuSans-30"/>
     </g>
    </g>
    <g id="line2d_102">
     <path d="M 67.5 259.254469 
L 89.5 259.254469 
" style="fill:none;stroke:#d62728;stroke-linecap:square;stroke-width:1.5;"/>
    </g>
    <g id="line2d_103"/>
    <g id="text_25">
     <!-- EH    $z = 1.00$ -->
     <g transform="translate(98.3 263.104469)scale(0.11 -0.11)">
      <use transform="translate(0 0.78125)" xlink:href="#DejaVuSans-45"/>
      <use transform="translate(63.183594 0.78125)" xlink:href="#DejaVuSans-48"/>
      <use transform="translate(138.378906 0.78125)" xlink:href="#DejaVuSans-20"/>
      <use transform="translate(170.166016 0.78125)" xlink:href="#DejaVuSans-20"/>
      <use transform="translate(201.953125 0.78125)" xlink:href="#DejaVuSans-20"/>
      <use transform="translate(233.740234 0.78125)" xlink:href="#DejaVuSans-20"/>
      <use transform="translate(265.527344 0.78125)" xlink:href="#DejaVuSans-Oblique-7a"/>
      <use transform="translate(337.5 0.78125)" xlink:href="#DejaVuSans-3d"/>
      <use transform="translate(440.771484 0.78125)" xlink:href="#DejaVuSans-31"/>
      <use transform="translate(504.394531 0.78125)" xlink:href="#DejaVuSans-2e"/>
      <use transform="translate(536.181641 0.78125)" xlink:href="#DejaVuSans-30"/>
      <use transform="translate(599.804688 0.78125)" xlink:href="#DejaVuSans-30"/>
     </g>
    </g>
    <g id="line2d_104">
     <path d="M 67.5 275.400406 
L 89.5 275.400406 
" style="fill:none;stroke:#9467bd;stroke-linecap:square;stroke-width:1.5;"/>
    </g>
    <g id="line2d_105"/>
    <g id="text_26">
     <!-- CLASS $z = 2.00$ -->
     <g transform="translate(98.3 279.250406)scale(0.11 -0.11)">
      <use transform="translate(0 0.78125)" xlink:href="#DejaVuSans-43"/>
      <use transform="translate(69.824219 0.78125)" xlink:href="#DejaVuSans-4c"/>
      <use transform="translate(125.537109 0.78125)" xlink:href="#DejaVuSans-41"/>
      <use transform="translate(193.945312 0.78125)" xlink:href="#DejaVuSans-53"/>
      <use transform="translate(257.421875 0.78125)" xlink:href="#DejaVuSans-53"/>
      <use transform="translate(320.898438 0.78125)" xlink:href="#DejaVuSans-20"/>
      <use transform="translate(352.685547 0.78125)" xlink:href="#DejaVuSans-Oblique-7a"/>
      <use transform="translate(424.658203 0.78125)" xlink:href="#DejaVuSans-3d"/>
      <use transform="translate(527.929688 0.78125)" xlink:href="#DejaVuSans-32"/>
      <use transform="translate(591.552734 0.78125)" xlink:href="#DejaVuSans-2e"/>
      <use transform="translate(623.339844 0.78125)" xlink:href="#DejaVuSans-30"/>
      <use transform="translate(686.962891 0.78125)" xlink:href="#DejaVuSans-30"/>
     </g>
    </g>
    <g id="line2d_106">
     <path d="M 67.5 291.546344 
L 89.5 291.546344 
" style="fill:none;stroke:#8c564b;stroke-linecap:square;stroke-width:1.5;"/>
    </g>
    <g id="line2d_107"/>
    <g id="text_27">
     <!-- EH    $z = 2.00$ -->
     <g transform="translate(98.3 295.396344)scale(0.11 -0.11)">
      <use transform="translate(0 0.78125)" xlink:href="#DejaVuSans-45"/>
      <use transform="translate(63.183594 0.78125)" xlink:href="#DejaVuSans-48"/>
      <use transform="translate(138.378906 0.78125)" xlink:href="#DejaVuSans-20"/>
      <use transform="translate(170.166016 0.78125)" xlink:href="#DejaVuSans-20"/>
      <use transform="translate(201.953125 0.78125)" xlink:href="#DejaVuSans-20"/>
      <use transform="translate(233.740234 0.78125)" xlink:href="#DejaVuSans-20"/>
      <use transform="translate(265.527344 0.78125)" xlink:href="#DejaVuSans-Oblique-7a"/>
      <use transform="translate(337.5 0.78125)" xlink:href="#DejaVuSans-3d"/>
      <use transform="translate(440.771484 0.78125)" xlink:href="#DejaVuSans-32"/>
      <use transform="translate(504.394531 0.78125)" xlink:href="#DejaVuSans-2e"/>
      <use transform="translate(536.181641 0.78125)" xlink:href="#DejaVuSans-30"/>
      <use transform="translate(599.804688 0.78125)" xlink:href="#DejaVuSans-30"/>
     </g>
    </g>
   </g>
  </g>
 </g>
 <defs>
  <clipPath id="p46f84ac7a1">
   <rect height="266.112" width="357.12" x="57.6" y="41.472"/>
  </clipPath>
 </defs>
</svg>
