<?xml version="1.0" encoding="utf-8" standalone="no"?>
<!DOCTYPE svg PUBLIC "-//W3C//DTD SVG 1.1//EN"
  "http://www.w3.org/Graphics/SVG/1.1/DTD/svg11.dtd">
<!-- Created with matplotlib (http://matplotlib.org/) -->
<svg height="345pt" version="1.1" viewBox="0 0 460 345" width="460pt" xmlns="http://www.w3.org/2000/svg" xmlns:xlink="http://www.w3.org/1999/xlink">
 <defs>
  <style type="text/css">
*{stroke-linecap:butt;stroke-linejoin:round;}
  </style>
 </defs>
 <g id="figure_1">
  <g id="patch_1">
   <path d="M 0 345.6 
L 460.8 345.6 
L 460.8 0 
L 0 0 
z
" style="fill:#ffffff;"/>
  </g>
  <g id="axes_1">
   <g id="patch_2">
    <path d="M 57.6 307.584 
L 414.72 307.584 
L 414.72 41.472 
L 57.6 41.472 
z
" style="fill:#ffffff;"/>
   </g>
   <g id="matplotlib.axis_1">
    <g id="xtick_1">
     <g id="line2d_1">
      <defs>
       <path d="M 0 0 
L 0 3.5 
" id="m1f6bc462e3" style="stroke:#000000;stroke-width:0.8;"/>
      </defs>
      <g>
       <use style="stroke:#000000;stroke-width:0.8;" x="73.832727" xlink:href="#m1f6bc462e3" y="307.584"/>
      </g>
     </g>
     <g id="text_1">
      <!-- $\mathdefault{10^{2}}$ -->
      <defs>
       <path d="M 12.40625 8.296875 
L 28.515625 8.296875 
L 28.515625 63.921875 
L 10.984375 60.40625 
L 10.984375 69.390625 
L 28.421875 72.90625 
L 38.28125 72.90625 
L 38.28125 8.296875 
L 54.390625 8.296875 
L 54.390625 0 
L 12.40625 0 
z
" id="DejaVuSans-31"/>
       <path d="M 31.78125 66.40625 
Q 24.171875 66.40625 20.328125 58.90625 
Q 16.5 51.421875 16.5 36.375 
Q 16.5 21.390625 20.328125 13.890625 
Q 24.171875 6.390625 31.78125 6.390625 
Q 39.453125 6.390625 43.28125 13.890625 
Q 47.125 21.390625 47.125 36.375 
Q 47.125 51.421875 43.28125 58.90625 
Q 39.453125 66.40625 31.78125 66.40625 
z
M 31.78125 74.21875 
Q 44.046875 74.21875 50.515625 64.515625 
Q 56.984375 54.828125 56.984375 36.375 
Q 56.984375 17.96875 50.515625 8.265625 
Q 44.046875 -1.421875 31.78125 -1.421875 
Q 19.53125 -1.421875 13.0625 8.265625 
Q 6.59375 17.96875 6.59375 36.375 
Q 6.59375 54.828125 13.0625 64.515625 
Q 19.53125 74.21875 31.78125 74.21875 
z
" id="DejaVuSans-30"/>
       <path d="M 19.1875 8.296875 
L 53.609375 8.296875 
L 53.609375 0 
L 7.328125 0 
L 7.328125 8.296875 
Q 12.9375 14.109375 22.625 23.890625 
Q 32.328125 33.6875 34.8125 36.53125 
Q 39.546875 41.84375 41.421875 45.53125 
Q 43.3125 49.21875 43.3125 52.78125 
Q 43.3125 58.59375 39.234375 62.25 
Q 35.15625 65.921875 28.609375 65.921875 
Q 23.96875 65.921875 18.8125 64.3125 
Q 13.671875 62.703125 7.8125 59.421875 
L 7.8125 69.390625 
Q 13.765625 71.78125 18.9375 73 
Q 24.125 74.21875 28.421875 74.21875 
Q 39.75 74.21875 46.484375 68.546875 
Q 53.21875 62.890625 53.21875 53.421875 
Q 53.21875 48.921875 51.53125 44.890625 
Q 49.859375 40.875 45.40625 35.40625 
Q 44.1875 33.984375 37.640625 27.21875 
Q 31.109375 20.453125 19.1875 8.296875 
z
" id="DejaVuSans-32"/>
      </defs>
      <g transform="translate(65.032727 322.182437)scale(0.1 -0.1)">
       <use transform="translate(0 0.765625)" xlink:href="#DejaVuSans-31"/>
       <use transform="translate(63.623047 0.765625)" xlink:href="#DejaVuSans-30"/>
       <use transform="translate(128.203125 39.046875)scale(0.7)" xlink:href="#DejaVuSans-32"/>
      </g>
     </g>
    </g>
    <g id="xtick_2">
     <g id="line2d_2">
      <g>
       <use style="stroke:#000000;stroke-width:0.8;" x="236.16" xlink:href="#m1f6bc462e3" y="307.584"/>
      </g>
     </g>
     <g id="text_2">
      <!-- $\mathdefault{10^{3}}$ -->
      <defs>
       <path d="M 40.578125 39.3125 
Q 47.65625 37.796875 51.625 33 
Q 55.609375 28.21875 55.609375 21.1875 
Q 55.609375 10.40625 48.1875 4.484375 
Q 40.765625 -1.421875 27.09375 -1.421875 
Q 22.515625 -1.421875 17.65625 -0.515625 
Q 12.796875 0.390625 7.625 2.203125 
L 7.625 11.71875 
Q 11.71875 9.328125 16.59375 8.109375 
Q 21.484375 6.890625 26.8125 6.890625 
Q 36.078125 6.890625 40.9375 10.546875 
Q 45.796875 14.203125 45.796875 21.1875 
Q 45.796875 27.640625 41.28125 31.265625 
Q 36.765625 34.90625 28.71875 34.90625 
L 20.21875 34.90625 
L 20.21875 43.015625 
L 29.109375 43.015625 
Q 36.375 43.015625 40.234375 45.921875 
Q 44.09375 48.828125 44.09375 54.296875 
Q 44.09375 59.90625 40.109375 62.90625 
Q 36.140625 65.921875 28.71875 65.921875 
Q 24.65625 65.921875 20.015625 65.03125 
Q 15.375 64.15625 9.8125 62.3125 
L 9.8125 71.09375 
Q 15.4375 72.65625 20.34375 73.4375 
Q 25.25 74.21875 29.59375 74.21875 
Q 40.828125 74.21875 47.359375 69.109375 
Q 53.90625 64.015625 53.90625 55.328125 
Q 53.90625 49.265625 50.4375 45.09375 
Q 46.96875 40.921875 40.578125 39.3125 
z
" id="DejaVuSans-33"/>
      </defs>
      <g transform="translate(227.36 322.182437)scale(0.1 -0.1)">
       <use transform="translate(0 0.765625)" xlink:href="#DejaVuSans-31"/>
       <use transform="translate(63.623047 0.765625)" xlink:href="#DejaVuSans-30"/>
       <use transform="translate(128.203125 39.046875)scale(0.7)" xlink:href="#DejaVuSans-33"/>
      </g>
     </g>
    </g>
    <g id="xtick_3">
     <g id="line2d_3">
      <g>
       <use style="stroke:#000000;stroke-width:0.8;" x="398.487273" xlink:href="#m1f6bc462e3" y="307.584"/>
      </g>
     </g>
     <g id="text_3">
      <!-- $\mathdefault{10^{4}}$ -->
      <defs>
       <path d="M 37.796875 64.3125 
L 12.890625 25.390625 
L 37.796875 25.390625 
z
M 35.203125 72.90625 
L 47.609375 72.90625 
L 47.609375 25.390625 
L 58.015625 25.390625 
L 58.015625 17.1875 
L 47.609375 17.1875 
L 47.609375 0 
L 37.796875 0 
L 37.796875 17.1875 
L 4.890625 17.1875 
L 4.890625 26.703125 
z
" id="DejaVuSans-34"/>
      </defs>
      <g transform="translate(389.687273 322.182437)scale(0.1 -0.1)">
       <use transform="translate(0 0.684375)" xlink:href="#DejaVuSans-31"/>
       <use transform="translate(63.623047 0.684375)" xlink:href="#DejaVuSans-30"/>
       <use transform="translate(128.203125 38.965625)scale(0.7)" xlink:href="#DejaVuSans-34"/>
      </g>
     </g>
    </g>
    <g id="xtick_4">
     <g id="line2d_4">
      <defs>
       <path d="M 0 0 
L 0 2 
" id="m456f0be88f" style="stroke:#000000;stroke-width:0.6;"/>
      </defs>
      <g>
       <use style="stroke:#000000;stroke-width:0.6;" x="58.101589" xlink:href="#m456f0be88f" y="307.584"/>
      </g>
     </g>
    </g>
    <g id="xtick_5">
     <g id="line2d_5">
      <g>
       <use style="stroke:#000000;stroke-width:0.6;" x="66.405039" xlink:href="#m456f0be88f" y="307.584"/>
      </g>
     </g>
    </g>
    <g id="xtick_6">
     <g id="line2d_6">
      <g>
       <use style="stroke:#000000;stroke-width:0.6;" x="122.698105" xlink:href="#m456f0be88f" y="307.584"/>
      </g>
     </g>
    </g>
    <g id="xtick_7">
     <g id="line2d_7">
      <g>
       <use style="stroke:#000000;stroke-width:0.6;" x="151.282519" xlink:href="#m456f0be88f" y="307.584"/>
      </g>
     </g>
    </g>
    <g id="xtick_8">
     <g id="line2d_8">
      <g>
       <use style="stroke:#000000;stroke-width:0.6;" x="171.563484" xlink:href="#m456f0be88f" y="307.584"/>
      </g>
     </g>
    </g>
    <g id="xtick_9">
     <g id="line2d_9">
      <g>
       <use style="stroke:#000000;stroke-width:0.6;" x="187.294622" xlink:href="#m456f0be88f" y="307.584"/>
      </g>
     </g>
    </g>
    <g id="xtick_10">
     <g id="line2d_10">
      <g>
       <use style="stroke:#000000;stroke-width:0.6;" x="200.147898" xlink:href="#m456f0be88f" y="307.584"/>
      </g>
     </g>
    </g>
    <g id="xtick_11">
     <g id="line2d_11">
      <g>
       <use style="stroke:#000000;stroke-width:0.6;" x="211.015187" xlink:href="#m456f0be88f" y="307.584"/>
      </g>
     </g>
    </g>
    <g id="xtick_12">
     <g id="line2d_12">
      <g>
       <use style="stroke:#000000;stroke-width:0.6;" x="220.428862" xlink:href="#m456f0be88f" y="307.584"/>
      </g>
     </g>
    </g>
    <g id="xtick_13">
     <g id="line2d_13">
      <g>
       <use style="stroke:#000000;stroke-width:0.6;" x="228.732311" xlink:href="#m456f0be88f" y="307.584"/>
      </g>
     </g>
    </g>
    <g id="xtick_14">
     <g id="line2d_14">
      <g>
       <use style="stroke:#000000;stroke-width:0.6;" x="285.025378" xlink:href="#m456f0be88f" y="307.584"/>
      </g>
     </g>
    </g>
    <g id="xtick_15">
     <g id="line2d_15">
      <g>
       <use style="stroke:#000000;stroke-width:0.6;" x="313.609792" xlink:href="#m456f0be88f" y="307.584"/>
      </g>
     </g>
    </g>
    <g id="xtick_16">
     <g id="line2d_16">
      <g>
       <use style="stroke:#000000;stroke-width:0.6;" x="333.890756" xlink:href="#m456f0be88f" y="307.584"/>
      </g>
     </g>
    </g>
    <g id="xtick_17">
     <g id="line2d_17">
      <g>
       <use style="stroke:#000000;stroke-width:0.6;" x="349.621895" xlink:href="#m456f0be88f" y="307.584"/>
      </g>
     </g>
    </g>
    <g id="xtick_18">
     <g id="line2d_18">
      <g>
       <use style="stroke:#000000;stroke-width:0.6;" x="362.47517" xlink:href="#m456f0be88f" y="307.584"/>
      </g>
     </g>
    </g>
    <g id="xtick_19">
     <g id="line2d_19">
      <g>
       <use style="stroke:#000000;stroke-width:0.6;" x="373.34246" xlink:href="#m456f0be88f" y="307.584"/>
      </g>
     </g>
    </g>
    <g id="xtick_20">
     <g id="line2d_20">
      <g>
       <use style="stroke:#000000;stroke-width:0.6;" x="382.756135" xlink:href="#m456f0be88f" y="307.584"/>
      </g>
     </g>
    </g>
    <g id="xtick_21">
     <g id="line2d_21">
      <g>
       <use style="stroke:#000000;stroke-width:0.6;" x="391.059584" xlink:href="#m456f0be88f" y="307.584"/>
      </g>
     </g>
    </g>
    <g id="text_4">
     <!-- $1+z$ -->
     <defs>
      <path d="M 46 62.703125 
L 46 35.5 
L 73.1875 35.5 
L 73.1875 27.203125 
L 46 27.203125 
L 46 0 
L 37.796875 0 
L 37.796875 27.203125 
L 10.59375 27.203125 
L 10.59375 35.5 
L 37.796875 35.5 
L 37.796875 62.703125 
z
" id="DejaVuSans-2b"/>
      <path d="M 11.625 54.6875 
L 54.296875 54.6875 
L 52.6875 46.484375 
L 11.53125 7.171875 
L 45.515625 7.171875 
L 44.09375 0 
L -0.296875 0 
L 1.3125 8.203125 
L 42.484375 47.515625 
L 10.203125 47.515625 
z
" id="DejaVuSans-Oblique-7a"/>
     </defs>
     <g transform="translate(224.21 335.860562)scale(0.1 -0.1)">
      <use transform="translate(0 0.09375)" xlink:href="#DejaVuSans-31"/>
      <use transform="translate(83.105469 0.09375)" xlink:href="#DejaVuSans-2b"/>
      <use transform="translate(186.376953 0.09375)" xlink:href="#DejaVuSans-Oblique-7a"/>
     </g>
    </g>
   </g>
   <g id="matplotlib.axis_2">
    <g id="ytick_1">
     <g id="line2d_22">
      <defs>
       <path d="M 0 0 
L -3.5 0 
" id="m8b9dc09d38" style="stroke:#000000;stroke-width:0.8;"/>
      </defs>
      <g>
       <use style="stroke:#000000;stroke-width:0.8;" x="57.6" xlink:href="#m8b9dc09d38" y="297.809285"/>
      </g>
     </g>
     <g id="text_5">
      <!-- −4 -->
      <defs>
       <path d="M 10.59375 35.5 
L 73.1875 35.5 
L 73.1875 27.203125 
L 10.59375 27.203125 
z
" id="DejaVuSans-2212"/>
      </defs>
      <g transform="translate(35.857813 301.608504)scale(0.1 -0.1)">
       <use xlink:href="#DejaVuSans-2212"/>
       <use x="83.789062" xlink:href="#DejaVuSans-34"/>
      </g>
     </g>
    </g>
    <g id="ytick_2">
     <g id="line2d_23">
      <g>
       <use style="stroke:#000000;stroke-width:0.8;" x="57.6" xlink:href="#m8b9dc09d38" y="267.999271"/>
      </g>
     </g>
     <g id="text_6">
      <!-- −3 -->
      <g transform="translate(35.857813 271.79849)scale(0.1 -0.1)">
       <use xlink:href="#DejaVuSans-2212"/>
       <use x="83.789062" xlink:href="#DejaVuSans-33"/>
      </g>
     </g>
    </g>
    <g id="ytick_3">
     <g id="line2d_24">
      <g>
       <use style="stroke:#000000;stroke-width:0.8;" x="57.6" xlink:href="#m8b9dc09d38" y="238.189257"/>
      </g>
     </g>
     <g id="text_7">
      <!-- −2 -->
      <g transform="translate(35.857813 241.988476)scale(0.1 -0.1)">
       <use xlink:href="#DejaVuSans-2212"/>
       <use x="83.789062" xlink:href="#DejaVuSans-32"/>
      </g>
     </g>
    </g>
    <g id="ytick_4">
     <g id="line2d_25">
      <g>
       <use style="stroke:#000000;stroke-width:0.8;" x="57.6" xlink:href="#m8b9dc09d38" y="208.379243"/>
      </g>
     </g>
     <g id="text_8">
      <!-- −1 -->
      <g transform="translate(35.857813 212.178462)scale(0.1 -0.1)">
       <use xlink:href="#DejaVuSans-2212"/>
       <use x="83.789062" xlink:href="#DejaVuSans-31"/>
      </g>
     </g>
    </g>
    <g id="ytick_5">
     <g id="line2d_26">
      <g>
       <use style="stroke:#000000;stroke-width:0.8;" x="57.6" xlink:href="#m8b9dc09d38" y="178.569229"/>
      </g>
     </g>
     <g id="text_9">
      <!-- 0 -->
      <g transform="translate(44.2375 182.368448)scale(0.1 -0.1)">
       <use xlink:href="#DejaVuSans-30"/>
      </g>
     </g>
    </g>
    <g id="ytick_6">
     <g id="line2d_27">
      <g>
       <use style="stroke:#000000;stroke-width:0.8;" x="57.6" xlink:href="#m8b9dc09d38" y="148.759215"/>
      </g>
     </g>
     <g id="text_10">
      <!-- 1 -->
      <g transform="translate(44.2375 152.558434)scale(0.1 -0.1)">
       <use xlink:href="#DejaVuSans-31"/>
      </g>
     </g>
    </g>
    <g id="ytick_7">
     <g id="line2d_28">
      <g>
       <use style="stroke:#000000;stroke-width:0.8;" x="57.6" xlink:href="#m8b9dc09d38" y="118.949201"/>
      </g>
     </g>
     <g id="text_11">
      <!-- 2 -->
      <g transform="translate(44.2375 122.74842)scale(0.1 -0.1)">
       <use xlink:href="#DejaVuSans-32"/>
      </g>
     </g>
    </g>
    <g id="ytick_8">
     <g id="line2d_29">
      <g>
       <use style="stroke:#000000;stroke-width:0.8;" x="57.6" xlink:href="#m8b9dc09d38" y="89.139187"/>
      </g>
     </g>
     <g id="text_12">
      <!-- 3 -->
      <g transform="translate(44.2375 92.938406)scale(0.1 -0.1)">
       <use xlink:href="#DejaVuSans-33"/>
      </g>
     </g>
    </g>
    <g id="ytick_9">
     <g id="line2d_30">
      <g>
       <use style="stroke:#000000;stroke-width:0.8;" x="57.6" xlink:href="#m8b9dc09d38" y="59.329173"/>
      </g>
     </g>
     <g id="text_13">
      <!-- 4 -->
      <g transform="translate(44.2375 63.128392)scale(0.1 -0.1)">
       <use xlink:href="#DejaVuSans-34"/>
      </g>
     </g>
    </g>
   </g>
   <g id="line2d_31">
    <path clip-path="url(#p5b0e2bc181)" d="M 398.487273 178.569229 
L 256.891266 178.462221 
L 255.819799 178.214434 
L 255.073019 177.815526 
L 254.456113 177.231905 
L 253.871677 176.356224 
L 253.28724 175.041017 
L 252.702803 173.14281 
L 252.085898 170.336238 
L 251.436524 166.30066 
L 250.722213 160.381411 
L 249.910495 151.61984 
L 248.968903 138.820794 
L 247.702623 118.19914 
L 245.202533 76.895541 
L 244.29341 65.685777 
L 243.579098 59.302383 
L 242.994662 55.826831 
L 242.5401 54.231109 
L 242.182944 53.645956 
L 241.923195 53.578982 
L 241.695914 53.759794 
L 241.403695 54.307874 
L 241.014071 55.561003 
L 240.494572 58.08111 
L 239.812729 62.660561 
L 238.936074 70.206881 
L 237.637326 83.529799 
L 233.968363 122.079583 
L 232.572208 134.000833 
L 231.305929 143.011936 
L 230.104587 150.038314 
L 228.935714 155.593704 
L 227.799309 159.946192 
L 226.695374 163.339717 
L 225.591438 166.053249 
L 224.455033 168.269919 
L 223.28616 170.063741 
L 222.084818 171.505817 
L 220.78607 172.714289 
L 219.389916 173.709476 
L 217.798949 174.565019 
L 215.948233 175.299162 
L 213.707893 175.937408 
L 210.915585 176.490768 
L 207.27909 176.973533 
L 202.311379 177.394696 
L 195.233202 177.755362 
L 184.648405 178.054441 
L 167.699743 178.289843 
L 137.7636 178.45612 
L 73.832727 178.547535 
L 73.832727 178.547535 
" style="fill:none;stroke:#ff0000;stroke-linecap:square;stroke-width:1.5;"/>
   </g>
   <g id="line2d_32">
    <path clip-path="url(#p5b0e2bc181)" d="M 398.487273 178.569229 
L 258.644576 178.459715 
L 257.702983 178.213097 
L 257.053609 177.820374 
L 256.501641 177.221708 
L 255.982142 176.310963 
L 255.462643 174.914403 
L 254.943144 172.853237 
L 254.391176 169.707836 
L 253.806739 165.029545 
L 253.157365 157.886612 
L 252.443054 147.399331 
L 251.598868 131.516338 
L 250.332588 102.843996 
L 248.936434 72.581994 
L 248.254591 62.080521 
L 247.767561 57.375793 
L 247.410405 55.654518 
L 247.183124 55.372503 
L 247.053249 55.502922 
L 246.858437 56.100507 
L 246.566219 57.903098 
L 246.176594 61.976181 
L 245.689564 69.628209 
L 245.04019 83.777004 
L 244.163535 108.392256 
L 240.429634 220.285228 
L 239.585448 236.257834 
L 238.871137 245.916202 
L 238.254231 251.54923 
L 237.734732 254.512728 
L 237.312639 255.842654 
L 236.987952 256.273792 
L 236.760671 256.296619 
L 236.500921 256.064434 
L 236.176234 255.421239 
L 235.721673 253.942474 
L 235.104767 251.04978 
L 234.260581 245.890426 
L 232.864427 235.736909 
L 230.201993 216.35946 
L 228.805839 207.878184 
L 227.53956 201.499183 
L 226.370687 196.687711 
L 225.234282 192.904545 
L 224.130346 189.961355 
L 223.02641 187.62481 
L 221.922474 185.786491 
L 220.78607 184.31181 
L 219.584728 183.113931 
L 218.28598 182.13689 
L 216.857357 181.343299 
L 215.201453 180.683931 
L 213.220862 180.141403 
L 210.688304 179.690657 
L 207.311559 179.328976 
L 202.408785 179.043832 
L 194.486422 178.828869 
L 179.648225 178.680839 
L 143.867716 178.596474 
L 73.832727 178.572967 
L 73.832727 178.572967 
" style="fill:none;stroke:#0000ff;stroke-linecap:square;stroke-width:1.5;"/>
   </g>
   <g id="line2d_33">
    <path clip-path="url(#p5b0e2bc181)" d="M 398.487273 178.569229 
L 259.845918 178.462732 
L 258.936794 178.214829 
L 258.319889 177.821511 
L 257.800389 177.226642 
L 257.313359 176.327025 
L 256.826328 174.951721 
L 256.306829 172.767293 
L 255.754861 169.383052 
L 255.170425 164.315746 
L 254.521051 156.622802 
L 253.741802 144.496346 
L 252.475522 120.510716 
L 251.501461 103.840785 
L 250.949493 97.77375 
L 250.592338 95.873051 
L 250.397526 95.627634 
L 250.267651 95.79766 
L 250.072839 96.577772 
L 249.78062 98.970346 
L 249.423465 103.944708 
L 248.968903 113.531312 
L 248.384466 130.842969 
L 247.572749 162.232696 
L 245.007721 267.145949 
L 244.358347 283.356676 
L 243.838848 291.463068 
L 243.449223 294.655759 
L 243.189474 295.451136 
L 243.059599 295.463316 
L 242.897256 295.132534 
L 242.669975 294.047458 
L 242.345288 291.324236 
L 241.890726 285.460147 
L 241.241352 273.761116 
L 240.267291 251.637397 
L 237.897076 196.689986 
L 236.923014 179.647146 
L 236.078828 168.486485 
L 235.332048 161.309433 
L 234.650205 156.741607 
L 234.0333 154.024694 
L 233.481332 152.560589 
L 233.02677 151.933582 
L 232.637146 151.748734 
L 232.27999 151.824851 
L 231.857897 152.168012 
L 231.27346 153.012483 
L 230.559149 154.470847 
L 229.487682 157.182378 
L 225.818719 166.813771 
L 224.390096 169.734675 
L 223.091348 171.865144 
L 221.857537 173.462428 
L 220.623726 174.699787 
L 219.357447 175.663463 
L 217.993762 176.429252 
L 216.370326 177.068369 
L 214.487142 177.556243 
L 212.149395 177.925937 
L 208.870056 178.205475 
L 203.610127 178.399956 
L 193.382486 178.513653 
L 162.082658 178.562098 
L 73.832727 178.568892 
L 73.832727 178.568892 
" style="fill:none;stroke:#008000;stroke-dasharray:5.55,2.4;stroke-dashoffset:0;stroke-width:1.5;"/>
   </g>
   <g id="patch_3">
    <path d="M 57.6 307.584 
L 57.6 41.472 
" style="fill:none;stroke:#000000;stroke-linecap:square;stroke-linejoin:miter;stroke-width:0.8;"/>
   </g>
   <g id="patch_4">
    <path d="M 414.72 307.584 
L 414.72 41.472 
" style="fill:none;stroke:#000000;stroke-linecap:square;stroke-linejoin:miter;stroke-width:0.8;"/>
   </g>
   <g id="patch_5">
    <path d="M 57.6 307.584 
L 414.72 307.584 
" style="fill:none;stroke:#000000;stroke-linecap:square;stroke-linejoin:miter;stroke-width:0.8;"/>
   </g>
   <g id="patch_6">
    <path d="M 57.6 41.472 
L 414.72 41.472 
" style="fill:none;stroke:#000000;stroke-linecap:square;stroke-linejoin:miter;stroke-width:0.8;"/>
   </g>
   <g id="patch_7">
    <path d="M 185.629147 50.384551 
Q 206.29793 50.818319 226.966713 51.252087 
L 227.050641 47.252967 
Q 232.98537 50.378178 238.920098 53.503388 
Q 232.859478 56.376857 226.798858 59.250325 
L 226.882786 55.251206 
Q 206.214002 54.817438 185.545219 54.383671 
L 185.629147 50.384551 
z
" style="stroke:#000000;stroke-linecap:round;"/>
   </g>
   <g id="text_14">
    <!-- $v_\tau^{max}$, $z=1085.28$ -->
    <defs>
     <path d="M 7.171875 54.6875 
L 16.703125 54.6875 
L 24.703125 8.203125 
L 50.875 54.6875 
L 60.40625 54.6875 
L 29.296875 0 
L 17.1875 0 
z
" id="DejaVuSans-Oblique-76"/>
     <path d="M 89.796875 33.015625 
L 83.40625 0 
L 74.421875 0 
L 80.71875 32.71875 
Q 81.109375 34.8125 81.296875 36.328125 
Q 81.5 37.84375 81.5 38.921875 
Q 81.5 43.3125 79.046875 45.75 
Q 76.609375 48.1875 72.21875 48.1875 
Q 65.671875 48.1875 60.546875 43.28125 
Q 55.421875 38.375 53.90625 30.515625 
L 47.90625 0 
L 38.921875 0 
L 45.3125 32.71875 
Q 45.703125 34.515625 45.890625 36.046875 
Q 46.09375 37.59375 46.09375 38.8125 
Q 46.09375 43.265625 43.65625 45.71875 
Q 41.21875 48.1875 36.921875 48.1875 
Q 30.28125 48.1875 25.140625 43.28125 
Q 20.015625 38.375 18.5 30.515625 
L 12.5 0 
L 3.515625 0 
L 14.203125 54.6875 
L 23.1875 54.6875 
L 21.484375 46.1875 
Q 25.140625 50.984375 30.046875 53.484375 
Q 34.96875 56 40.578125 56 
Q 46.53125 56 50.359375 52.875 
Q 54.203125 49.75 54.984375 44.1875 
Q 59.078125 49.953125 64.46875 52.96875 
Q 69.875 56 75.875 56 
Q 82.90625 56 86.734375 51.953125 
Q 90.578125 47.90625 90.578125 40.484375 
Q 90.578125 38.875 90.375 36.9375 
Q 90.1875 35.015625 89.796875 33.015625 
z
" id="DejaVuSans-Oblique-6d"/>
     <path d="M 53.71875 31.203125 
L 47.609375 0 
L 38.625 0 
L 40.28125 8.296875 
Q 36.328125 3.421875 31.265625 1 
Q 26.21875 -1.421875 20.015625 -1.421875 
Q 13.03125 -1.421875 8.5625 2.84375 
Q 4.109375 7.125 4.109375 13.8125 
Q 4.109375 23.390625 11.75 28.953125 
Q 19.390625 34.515625 32.8125 34.515625 
L 45.3125 34.515625 
L 45.796875 36.921875 
Q 45.90625 37.3125 45.953125 37.765625 
Q 46 38.234375 46 39.203125 
Q 46 43.5625 42.453125 45.96875 
Q 38.921875 48.390625 32.515625 48.390625 
Q 28.125 48.390625 23.5 47.265625 
Q 18.890625 46.140625 14.015625 43.890625 
L 15.578125 52.203125 
Q 20.65625 54.109375 25.515625 55.046875 
Q 30.375 56 34.90625 56 
Q 44.578125 56 49.625 51.796875 
Q 54.6875 47.609375 54.6875 39.59375 
Q 54.6875 37.984375 54.4375 35.8125 
Q 54.203125 33.640625 53.71875 31.203125 
z
M 44 27.484375 
L 35.015625 27.484375 
Q 23.96875 27.484375 18.671875 24.53125 
Q 13.375 21.578125 13.375 15.375 
Q 13.375 11.078125 16.078125 8.640625 
Q 18.796875 6.203125 23.578125 6.203125 
Q 30.90625 6.203125 36.375 11.453125 
Q 41.84375 16.703125 43.609375 25.484375 
z
" id="DejaVuSans-Oblique-61"/>
     <path d="M 60.015625 54.6875 
L 34.90625 27.875 
L 50.296875 0 
L 39.984375 0 
L 28.421875 21.6875 
L 8.296875 0 
L -2.59375 0 
L 24.3125 28.8125 
L 10.015625 54.6875 
L 20.3125 54.6875 
L 30.8125 34.90625 
L 49.125 54.6875 
z
" id="DejaVuSans-Oblique-78"/>
     <path d="M 32.859375 9.96875 
Q 34.1875 7.625 39.453125 7.625 
L 43.75 7.625 
L 42.28125 0 
L 36.921875 0 
Q 28.125 0 25 4.6875 
Q 21.921875 9.46875 23.96875 19.828125 
L 29 45.703125 
L 8.453125 45.703125 
L 10.203125 54.6875 
L 60.640625 54.6875 
L 58.890625 45.703125 
L 38.1875 45.703125 
L 33.015625 19.28125 
Q 31.640625 12.203125 32.859375 9.96875 
z
" id="DejaVuSans-Oblique-3c4"/>
     <path d="M 11.71875 12.40625 
L 22.015625 12.40625 
L 22.015625 4 
L 14.015625 -11.625 
L 7.71875 -11.625 
L 11.71875 4 
z
" id="DejaVuSans-2c"/>
     <path id="DejaVuSans-20"/>
     <path d="M 10.59375 45.40625 
L 73.1875 45.40625 
L 73.1875 37.203125 
L 10.59375 37.203125 
z
M 10.59375 25.484375 
L 73.1875 25.484375 
L 73.1875 17.1875 
L 10.59375 17.1875 
z
" id="DejaVuSans-3d"/>
     <path d="M 31.78125 34.625 
Q 24.75 34.625 20.71875 30.859375 
Q 16.703125 27.09375 16.703125 20.515625 
Q 16.703125 13.921875 20.71875 10.15625 
Q 24.75 6.390625 31.78125 6.390625 
Q 38.8125 6.390625 42.859375 10.171875 
Q 46.921875 13.96875 46.921875 20.515625 
Q 46.921875 27.09375 42.890625 30.859375 
Q 38.875 34.625 31.78125 34.625 
z
M 21.921875 38.8125 
Q 15.578125 40.375 12.03125 44.71875 
Q 8.5 49.078125 8.5 55.328125 
Q 8.5 64.0625 14.71875 69.140625 
Q 20.953125 74.21875 31.78125 74.21875 
Q 42.671875 74.21875 48.875 69.140625 
Q 55.078125 64.0625 55.078125 55.328125 
Q 55.078125 49.078125 51.53125 44.71875 
Q 48 40.375 41.703125 38.8125 
Q 48.828125 37.15625 52.796875 32.3125 
Q 56.78125 27.484375 56.78125 20.515625 
Q 56.78125 9.90625 50.3125 4.234375 
Q 43.84375 -1.421875 31.78125 -1.421875 
Q 19.734375 -1.421875 13.25 4.234375 
Q 6.78125 9.90625 6.78125 20.515625 
Q 6.78125 27.484375 10.78125 32.3125 
Q 14.796875 37.15625 21.921875 38.8125 
z
M 18.3125 54.390625 
Q 18.3125 48.734375 21.84375 45.5625 
Q 25.390625 42.390625 31.78125 42.390625 
Q 38.140625 42.390625 41.71875 45.5625 
Q 45.3125 48.734375 45.3125 54.390625 
Q 45.3125 60.0625 41.71875 63.234375 
Q 38.140625 66.40625 31.78125 66.40625 
Q 25.390625 66.40625 21.84375 63.234375 
Q 18.3125 60.0625 18.3125 54.390625 
z
" id="DejaVuSans-38"/>
     <path d="M 10.796875 72.90625 
L 49.515625 72.90625 
L 49.515625 64.59375 
L 19.828125 64.59375 
L 19.828125 46.734375 
Q 21.96875 47.46875 24.109375 47.828125 
Q 26.265625 48.1875 28.421875 48.1875 
Q 40.625 48.1875 47.75 41.5 
Q 54.890625 34.8125 54.890625 23.390625 
Q 54.890625 11.625 47.5625 5.09375 
Q 40.234375 -1.421875 26.90625 -1.421875 
Q 22.3125 -1.421875 17.546875 -0.640625 
Q 12.796875 0.140625 7.71875 1.703125 
L 7.71875 11.625 
Q 12.109375 9.234375 16.796875 8.0625 
Q 21.484375 6.890625 26.703125 6.890625 
Q 35.15625 6.890625 40.078125 11.328125 
Q 45.015625 15.765625 45.015625 23.390625 
Q 45.015625 31 40.078125 35.4375 
Q 35.15625 39.890625 26.703125 39.890625 
Q 22.75 39.890625 18.8125 39.015625 
Q 14.890625 38.140625 10.796875 36.28125 
z
" id="DejaVuSans-35"/>
     <path d="M 10.6875 12.40625 
L 21 12.40625 
L 21 0 
L 10.6875 0 
z
" id="DejaVuSans-2e"/>
    </defs>
    <g transform="translate(93.312 54.7776)scale(0.1 -0.1)">
     <use transform="translate(0 0.51875)" xlink:href="#DejaVuSans-Oblique-76"/>
     <use transform="translate(63.645833 38.8)scale(0.7)" xlink:href="#DejaVuSans-Oblique-6d"/>
     <use transform="translate(131.83431 38.8)scale(0.7)" xlink:href="#DejaVuSans-Oblique-61"/>
     <use transform="translate(174.729818 38.8)scale(0.7)" xlink:href="#DejaVuSans-Oblique-78"/>
     <use transform="translate(59.179688 -26.825)scale(0.7)" xlink:href="#DejaVuSans-Oblique-3c4"/>
     <use transform="translate(218.889974 0.51875)" xlink:href="#DejaVuSans-2c"/>
     <use transform="translate(250.677083 0.51875)" xlink:href="#DejaVuSans-20"/>
     <use transform="translate(282.464193 0.51875)" xlink:href="#DejaVuSans-Oblique-7a"/>
     <use transform="translate(354.436849 0.51875)" xlink:href="#DejaVuSans-3d"/>
     <use transform="translate(457.708333 0.51875)" xlink:href="#DejaVuSans-31"/>
     <use transform="translate(521.33138 0.51875)" xlink:href="#DejaVuSans-30"/>
     <use transform="translate(584.954427 0.51875)" xlink:href="#DejaVuSans-38"/>
     <use transform="translate(648.577474 0.51875)" xlink:href="#DejaVuSans-35"/>
     <use transform="translate(712.200521 0.51875)" xlink:href="#DejaVuSans-2e"/>
     <use transform="translate(743.909505 0.51875)" xlink:href="#DejaVuSans-32"/>
     <use transform="translate(807.532552 0.51875)" xlink:href="#DejaVuSans-38"/>
    </g>
   </g>
   <g id="patch_8">
    <path d="M 195.370169 115.387417 
Q 203.282524 137.954702 211.194878 160.521987 
L 214.969591 159.198528 
Q 214.124348 165.854913 213.279105 172.511297 
Q 208.462279 167.840101 203.645452 163.168904 
L 207.420165 161.845446 
Q 199.507811 139.278161 191.595456 116.710876 
L 195.370169 115.387417 
z
" style="stroke:#000000;stroke-linecap:round;"/>
   </g>
   <g id="text_15">
    <!-- $v_\tau=10^{-2}v_\tau^{max}$, $z=733.61$ -->
    <defs>
     <path d="M 8.203125 72.90625 
L 55.078125 72.90625 
L 55.078125 68.703125 
L 28.609375 0 
L 18.3125 0 
L 43.21875 64.59375 
L 8.203125 64.59375 
z
" id="DejaVuSans-37"/>
     <path d="M 33.015625 40.375 
Q 26.375 40.375 22.484375 35.828125 
Q 18.609375 31.296875 18.609375 23.390625 
Q 18.609375 15.53125 22.484375 10.953125 
Q 26.375 6.390625 33.015625 6.390625 
Q 39.65625 6.390625 43.53125 10.953125 
Q 47.40625 15.53125 47.40625 23.390625 
Q 47.40625 31.296875 43.53125 35.828125 
Q 39.65625 40.375 33.015625 40.375 
z
M 52.59375 71.296875 
L 52.59375 62.3125 
Q 48.875 64.0625 45.09375 64.984375 
Q 41.3125 65.921875 37.59375 65.921875 
Q 27.828125 65.921875 22.671875 59.328125 
Q 17.53125 52.734375 16.796875 39.40625 
Q 19.671875 43.65625 24.015625 45.921875 
Q 28.375 48.1875 33.59375 48.1875 
Q 44.578125 48.1875 50.953125 41.515625 
Q 57.328125 34.859375 57.328125 23.390625 
Q 57.328125 12.15625 50.6875 5.359375 
Q 44.046875 -1.421875 33.015625 -1.421875 
Q 20.359375 -1.421875 13.671875 8.265625 
Q 6.984375 17.96875 6.984375 36.375 
Q 6.984375 53.65625 15.1875 63.9375 
Q 23.390625 74.21875 37.203125 74.21875 
Q 40.921875 74.21875 44.703125 73.484375 
Q 48.484375 72.75 52.59375 71.296875 
z
" id="DejaVuSans-36"/>
    </defs>
    <g transform="translate(64.7424 108)scale(0.1 -0.1)">
     <use transform="translate(0 0.765625)" xlink:href="#DejaVuSans-Oblique-76"/>
     <use transform="translate(59.179688 -15.640625)scale(0.7)" xlink:href="#DejaVuSans-Oblique-3c4"/>
     <use transform="translate(123.540039 0.765625)" xlink:href="#DejaVuSans-3d"/>
     <use transform="translate(226.811523 0.765625)" xlink:href="#DejaVuSans-31"/>
     <use transform="translate(290.43457 0.765625)" xlink:href="#DejaVuSans-30"/>
     <use transform="translate(355.014648 39.046875)scale(0.7)" xlink:href="#DejaVuSans-2212"/>
     <use transform="translate(413.666992 39.046875)scale(0.7)" xlink:href="#DejaVuSans-32"/>
     <use transform="translate(460.9375 0.765625)" xlink:href="#DejaVuSans-Oblique-76"/>
     <use transform="translate(524.583333 39.046875)scale(0.7)" xlink:href="#DejaVuSans-Oblique-6d"/>
     <use transform="translate(592.77181 39.046875)scale(0.7)" xlink:href="#DejaVuSans-Oblique-61"/>
     <use transform="translate(635.667318 39.046875)scale(0.7)" xlink:href="#DejaVuSans-Oblique-78"/>
     <use transform="translate(520.117188 -26.578125)scale(0.7)" xlink:href="#DejaVuSans-Oblique-3c4"/>
     <use transform="translate(679.827474 0.765625)" xlink:href="#DejaVuSans-2c"/>
     <use transform="translate(711.614583 0.765625)" xlink:href="#DejaVuSans-20"/>
     <use transform="translate(743.401693 0.765625)" xlink:href="#DejaVuSans-Oblique-7a"/>
     <use transform="translate(815.374349 0.765625)" xlink:href="#DejaVuSans-3d"/>
     <use transform="translate(918.645833 0.765625)" xlink:href="#DejaVuSans-37"/>
     <use transform="translate(982.26888 0.765625)" xlink:href="#DejaVuSans-33"/>
     <use transform="translate(1045.891927 0.765625)" xlink:href="#DejaVuSans-33"/>
     <use transform="translate(1109.514974 0.765625)" xlink:href="#DejaVuSans-2e"/>
     <use transform="translate(1141.302083 0.765625)" xlink:href="#DejaVuSans-36"/>
     <use transform="translate(1204.92513 0.765625)" xlink:href="#DejaVuSans-31"/>
    </g>
   </g>
   <g id="patch_9">
    <path d="M 268.405007 227.766913 
Q 262.355121 209.182392 256.305234 190.597872 
L 252.501695 191.836052 
Q 253.49667 185.20085 254.491645 178.565648 
Q 259.201979 183.34358 263.912313 188.121512 
L 260.108774 189.359692 
Q 266.15866 207.944213 272.208546 226.528733 
L 268.405007 227.766913 
z
" style="stroke:#000000;stroke-linecap:round;"/>
   </g>
   <g id="text_16">
    <!-- $v_\tau=10^{-2}v_\tau^{max}$, $z=1279.27$ -->
    <defs>
     <path d="M 10.984375 1.515625 
L 10.984375 10.5 
Q 14.703125 8.734375 18.5 7.8125 
Q 22.3125 6.890625 25.984375 6.890625 
Q 35.75 6.890625 40.890625 13.453125 
Q 46.046875 20.015625 46.78125 33.40625 
Q 43.953125 29.203125 39.59375 26.953125 
Q 35.25 24.703125 29.984375 24.703125 
Q 19.046875 24.703125 12.671875 31.3125 
Q 6.296875 37.9375 6.296875 49.421875 
Q 6.296875 60.640625 12.9375 67.421875 
Q 19.578125 74.21875 30.609375 74.21875 
Q 43.265625 74.21875 49.921875 64.515625 
Q 56.59375 54.828125 56.59375 36.375 
Q 56.59375 19.140625 48.40625 8.859375 
Q 40.234375 -1.421875 26.421875 -1.421875 
Q 22.703125 -1.421875 18.890625 -0.6875 
Q 15.09375 0.046875 10.984375 1.515625 
z
M 30.609375 32.421875 
Q 37.25 32.421875 41.125 36.953125 
Q 45.015625 41.5 45.015625 49.421875 
Q 45.015625 57.28125 41.125 61.84375 
Q 37.25 66.40625 30.609375 66.40625 
Q 23.96875 66.40625 20.09375 61.84375 
Q 16.21875 57.28125 16.21875 49.421875 
Q 16.21875 41.5 20.09375 36.953125 
Q 23.96875 32.421875 30.609375 32.421875 
z
" id="DejaVuSans-39"/>
    </defs>
    <g transform="translate(271.872 241.056)scale(0.1 -0.1)">
     <use transform="translate(0 0.765625)" xlink:href="#DejaVuSans-Oblique-76"/>
     <use transform="translate(59.179688 -15.640625)scale(0.7)" xlink:href="#DejaVuSans-Oblique-3c4"/>
     <use transform="translate(123.540039 0.765625)" xlink:href="#DejaVuSans-3d"/>
     <use transform="translate(226.811523 0.765625)" xlink:href="#DejaVuSans-31"/>
     <use transform="translate(290.43457 0.765625)" xlink:href="#DejaVuSans-30"/>
     <use transform="translate(355.014648 39.046875)scale(0.7)" xlink:href="#DejaVuSans-2212"/>
     <use transform="translate(413.666992 39.046875)scale(0.7)" xlink:href="#DejaVuSans-32"/>
     <use transform="translate(460.9375 0.765625)" xlink:href="#DejaVuSans-Oblique-76"/>
     <use transform="translate(524.583333 39.046875)scale(0.7)" xlink:href="#DejaVuSans-Oblique-6d"/>
     <use transform="translate(592.77181 39.046875)scale(0.7)" xlink:href="#DejaVuSans-Oblique-61"/>
     <use transform="translate(635.667318 39.046875)scale(0.7)" xlink:href="#DejaVuSans-Oblique-78"/>
     <use transform="translate(520.117188 -26.578125)scale(0.7)" xlink:href="#DejaVuSans-Oblique-3c4"/>
     <use transform="translate(679.827474 0.765625)" xlink:href="#DejaVuSans-2c"/>
     <use transform="translate(711.614583 0.765625)" xlink:href="#DejaVuSans-20"/>
     <use transform="translate(743.401693 0.765625)" xlink:href="#DejaVuSans-Oblique-7a"/>
     <use transform="translate(815.374349 0.765625)" xlink:href="#DejaVuSans-3d"/>
     <use transform="translate(918.645833 0.765625)" xlink:href="#DejaVuSans-31"/>
     <use transform="translate(982.26888 0.765625)" xlink:href="#DejaVuSans-32"/>
     <use transform="translate(1045.891927 0.765625)" xlink:href="#DejaVuSans-37"/>
     <use transform="translate(1109.514974 0.765625)" xlink:href="#DejaVuSans-39"/>
     <use transform="translate(1173.138021 0.765625)" xlink:href="#DejaVuSans-2e"/>
     <use transform="translate(1204.847005 0.765625)" xlink:href="#DejaVuSans-32"/>
     <use transform="translate(1268.470052 0.765625)" xlink:href="#DejaVuSans-37"/>
    </g>
   </g>
   <g id="text_17">
    <!-- $z^\star=1067.34$ -->
    <defs>
     <path d="M 12.15625 37.359375 
L 26.765625 37.359375 
L 31.296875 51.21875 
L 35.890625 37.359375 
L 50.4375 37.359375 
L 38.625 28.765625 
L 43.21875 14.890625 
L 31.296875 23.484375 
L 19.4375 14.890625 
L 23.96875 28.765625 
z
" id="DejaVuSans-22c6"/>
    </defs>
    <g transform="translate(289.728 54.7776)scale(0.1 -0.1)">
     <use transform="translate(0 0.78125)" xlink:href="#DejaVuSans-Oblique-7a"/>
     <use transform="translate(70.594076 39.0625)scale(0.7)" xlink:href="#DejaVuSans-22c6"/>
     <use transform="translate(150.266927 0.78125)" xlink:href="#DejaVuSans-3d"/>
     <use transform="translate(253.538411 0.78125)" xlink:href="#DejaVuSans-31"/>
     <use transform="translate(317.161458 0.78125)" xlink:href="#DejaVuSans-30"/>
     <use transform="translate(380.784505 0.78125)" xlink:href="#DejaVuSans-36"/>
     <use transform="translate(444.407552 0.78125)" xlink:href="#DejaVuSans-37"/>
     <use transform="translate(508.030599 0.78125)" xlink:href="#DejaVuSans-2e"/>
     <use transform="translate(539.817708 0.78125)" xlink:href="#DejaVuSans-33"/>
     <use transform="translate(603.440755 0.78125)" xlink:href="#DejaVuSans-34"/>
    </g>
   </g>
   <g id="text_18">
    <!-- Visibility Function and Derivatives -->
    <defs>
     <path d="M 28.609375 0 
L 0.78125 72.90625 
L 11.078125 72.90625 
L 34.1875 11.53125 
L 57.328125 72.90625 
L 67.578125 72.90625 
L 39.796875 0 
z
" id="DejaVuSans-56"/>
     <path d="M 9.421875 54.6875 
L 18.40625 54.6875 
L 18.40625 0 
L 9.421875 0 
z
M 9.421875 75.984375 
L 18.40625 75.984375 
L 18.40625 64.59375 
L 9.421875 64.59375 
z
" id="DejaVuSans-69"/>
     <path d="M 44.28125 53.078125 
L 44.28125 44.578125 
Q 40.484375 46.53125 36.375 47.5 
Q 32.28125 48.484375 27.875 48.484375 
Q 21.1875 48.484375 17.84375 46.4375 
Q 14.5 44.390625 14.5 40.28125 
Q 14.5 37.15625 16.890625 35.375 
Q 19.28125 33.59375 26.515625 31.984375 
L 29.59375 31.296875 
Q 39.15625 29.25 43.1875 25.515625 
Q 47.21875 21.78125 47.21875 15.09375 
Q 47.21875 7.46875 41.1875 3.015625 
Q 35.15625 -1.421875 24.609375 -1.421875 
Q 20.21875 -1.421875 15.453125 -0.5625 
Q 10.6875 0.296875 5.421875 2 
L 5.421875 11.28125 
Q 10.40625 8.6875 15.234375 7.390625 
Q 20.0625 6.109375 24.8125 6.109375 
Q 31.15625 6.109375 34.5625 8.28125 
Q 37.984375 10.453125 37.984375 14.40625 
Q 37.984375 18.0625 35.515625 20.015625 
Q 33.0625 21.96875 24.703125 23.78125 
L 21.578125 24.515625 
Q 13.234375 26.265625 9.515625 29.90625 
Q 5.8125 33.546875 5.8125 39.890625 
Q 5.8125 47.609375 11.28125 51.796875 
Q 16.75 56 26.8125 56 
Q 31.78125 56 36.171875 55.265625 
Q 40.578125 54.546875 44.28125 53.078125 
z
" id="DejaVuSans-73"/>
     <path d="M 48.6875 27.296875 
Q 48.6875 37.203125 44.609375 42.84375 
Q 40.53125 48.484375 33.40625 48.484375 
Q 26.265625 48.484375 22.1875 42.84375 
Q 18.109375 37.203125 18.109375 27.296875 
Q 18.109375 17.390625 22.1875 11.75 
Q 26.265625 6.109375 33.40625 6.109375 
Q 40.53125 6.109375 44.609375 11.75 
Q 48.6875 17.390625 48.6875 27.296875 
z
M 18.109375 46.390625 
Q 20.953125 51.265625 25.265625 53.625 
Q 29.59375 56 35.59375 56 
Q 45.5625 56 51.78125 48.09375 
Q 58.015625 40.1875 58.015625 27.296875 
Q 58.015625 14.40625 51.78125 6.484375 
Q 45.5625 -1.421875 35.59375 -1.421875 
Q 29.59375 -1.421875 25.265625 0.953125 
Q 20.953125 3.328125 18.109375 8.203125 
L 18.109375 0 
L 9.078125 0 
L 9.078125 75.984375 
L 18.109375 75.984375 
z
" id="DejaVuSans-62"/>
     <path d="M 9.421875 75.984375 
L 18.40625 75.984375 
L 18.40625 0 
L 9.421875 0 
z
" id="DejaVuSans-6c"/>
     <path d="M 18.3125 70.21875 
L 18.3125 54.6875 
L 36.8125 54.6875 
L 36.8125 47.703125 
L 18.3125 47.703125 
L 18.3125 18.015625 
Q 18.3125 11.328125 20.140625 9.421875 
Q 21.96875 7.515625 27.59375 7.515625 
L 36.8125 7.515625 
L 36.8125 0 
L 27.59375 0 
Q 17.1875 0 13.234375 3.875 
Q 9.28125 7.765625 9.28125 18.015625 
L 9.28125 47.703125 
L 2.6875 47.703125 
L 2.6875 54.6875 
L 9.28125 54.6875 
L 9.28125 70.21875 
z
" id="DejaVuSans-74"/>
     <path d="M 32.171875 -5.078125 
Q 28.375 -14.84375 24.75 -17.8125 
Q 21.140625 -20.796875 15.09375 -20.796875 
L 7.90625 -20.796875 
L 7.90625 -13.28125 
L 13.1875 -13.28125 
Q 16.890625 -13.28125 18.9375 -11.515625 
Q 21 -9.765625 23.484375 -3.21875 
L 25.09375 0.875 
L 2.984375 54.6875 
L 12.5 54.6875 
L 29.59375 11.921875 
L 46.6875 54.6875 
L 56.203125 54.6875 
z
" id="DejaVuSans-79"/>
     <path d="M 9.8125 72.90625 
L 51.703125 72.90625 
L 51.703125 64.59375 
L 19.671875 64.59375 
L 19.671875 43.109375 
L 48.578125 43.109375 
L 48.578125 34.8125 
L 19.671875 34.8125 
L 19.671875 0 
L 9.8125 0 
z
" id="DejaVuSans-46"/>
     <path d="M 8.5 21.578125 
L 8.5 54.6875 
L 17.484375 54.6875 
L 17.484375 21.921875 
Q 17.484375 14.15625 20.5 10.265625 
Q 23.53125 6.390625 29.59375 6.390625 
Q 36.859375 6.390625 41.078125 11.03125 
Q 45.3125 15.671875 45.3125 23.6875 
L 45.3125 54.6875 
L 54.296875 54.6875 
L 54.296875 0 
L 45.3125 0 
L 45.3125 8.40625 
Q 42.046875 3.421875 37.71875 1 
Q 33.40625 -1.421875 27.6875 -1.421875 
Q 18.265625 -1.421875 13.375 4.4375 
Q 8.5 10.296875 8.5 21.578125 
z
M 31.109375 56 
z
" id="DejaVuSans-75"/>
     <path d="M 54.890625 33.015625 
L 54.890625 0 
L 45.90625 0 
L 45.90625 32.71875 
Q 45.90625 40.484375 42.875 44.328125 
Q 39.84375 48.1875 33.796875 48.1875 
Q 26.515625 48.1875 22.3125 43.546875 
Q 18.109375 38.921875 18.109375 30.90625 
L 18.109375 0 
L 9.078125 0 
L 9.078125 54.6875 
L 18.109375 54.6875 
L 18.109375 46.1875 
Q 21.34375 51.125 25.703125 53.5625 
Q 30.078125 56 35.796875 56 
Q 45.21875 56 50.046875 50.171875 
Q 54.890625 44.34375 54.890625 33.015625 
z
" id="DejaVuSans-6e"/>
     <path d="M 48.78125 52.59375 
L 48.78125 44.1875 
Q 44.96875 46.296875 41.140625 47.34375 
Q 37.3125 48.390625 33.40625 48.390625 
Q 24.65625 48.390625 19.8125 42.84375 
Q 14.984375 37.3125 14.984375 27.296875 
Q 14.984375 17.28125 19.8125 11.734375 
Q 24.65625 6.203125 33.40625 6.203125 
Q 37.3125 6.203125 41.140625 7.25 
Q 44.96875 8.296875 48.78125 10.40625 
L 48.78125 2.09375 
Q 45.015625 0.34375 40.984375 -0.53125 
Q 36.96875 -1.421875 32.421875 -1.421875 
Q 20.0625 -1.421875 12.78125 6.34375 
Q 5.515625 14.109375 5.515625 27.296875 
Q 5.515625 40.671875 12.859375 48.328125 
Q 20.21875 56 33.015625 56 
Q 37.15625 56 41.109375 55.140625 
Q 45.0625 54.296875 48.78125 52.59375 
z
" id="DejaVuSans-63"/>
     <path d="M 30.609375 48.390625 
Q 23.390625 48.390625 19.1875 42.75 
Q 14.984375 37.109375 14.984375 27.296875 
Q 14.984375 17.484375 19.15625 11.84375 
Q 23.34375 6.203125 30.609375 6.203125 
Q 37.796875 6.203125 41.984375 11.859375 
Q 46.1875 17.53125 46.1875 27.296875 
Q 46.1875 37.015625 41.984375 42.703125 
Q 37.796875 48.390625 30.609375 48.390625 
z
M 30.609375 56 
Q 42.328125 56 49.015625 48.375 
Q 55.71875 40.765625 55.71875 27.296875 
Q 55.71875 13.875 49.015625 6.21875 
Q 42.328125 -1.421875 30.609375 -1.421875 
Q 18.84375 -1.421875 12.171875 6.21875 
Q 5.515625 13.875 5.515625 27.296875 
Q 5.515625 40.765625 12.171875 48.375 
Q 18.84375 56 30.609375 56 
z
" id="DejaVuSans-6f"/>
     <path d="M 34.28125 27.484375 
Q 23.390625 27.484375 19.1875 25 
Q 14.984375 22.515625 14.984375 16.5 
Q 14.984375 11.71875 18.140625 8.90625 
Q 21.296875 6.109375 26.703125 6.109375 
Q 34.1875 6.109375 38.703125 11.40625 
Q 43.21875 16.703125 43.21875 25.484375 
L 43.21875 27.484375 
z
M 52.203125 31.203125 
L 52.203125 0 
L 43.21875 0 
L 43.21875 8.296875 
Q 40.140625 3.328125 35.546875 0.953125 
Q 30.953125 -1.421875 24.3125 -1.421875 
Q 15.921875 -1.421875 10.953125 3.296875 
Q 6 8.015625 6 15.921875 
Q 6 25.140625 12.171875 29.828125 
Q 18.359375 34.515625 30.609375 34.515625 
L 43.21875 34.515625 
L 43.21875 35.40625 
Q 43.21875 41.609375 39.140625 45 
Q 35.0625 48.390625 27.6875 48.390625 
Q 23 48.390625 18.546875 47.265625 
Q 14.109375 46.140625 10.015625 43.890625 
L 10.015625 52.203125 
Q 14.9375 54.109375 19.578125 55.046875 
Q 24.21875 56 28.609375 56 
Q 40.484375 56 46.34375 49.84375 
Q 52.203125 43.703125 52.203125 31.203125 
z
" id="DejaVuSans-61"/>
     <path d="M 45.40625 46.390625 
L 45.40625 75.984375 
L 54.390625 75.984375 
L 54.390625 0 
L 45.40625 0 
L 45.40625 8.203125 
Q 42.578125 3.328125 38.25 0.953125 
Q 33.9375 -1.421875 27.875 -1.421875 
Q 17.96875 -1.421875 11.734375 6.484375 
Q 5.515625 14.40625 5.515625 27.296875 
Q 5.515625 40.1875 11.734375 48.09375 
Q 17.96875 56 27.875 56 
Q 33.9375 56 38.25 53.625 
Q 42.578125 51.265625 45.40625 46.390625 
z
M 14.796875 27.296875 
Q 14.796875 17.390625 18.875 11.75 
Q 22.953125 6.109375 30.078125 6.109375 
Q 37.203125 6.109375 41.296875 11.75 
Q 45.40625 17.390625 45.40625 27.296875 
Q 45.40625 37.203125 41.296875 42.84375 
Q 37.203125 48.484375 30.078125 48.484375 
Q 22.953125 48.484375 18.875 42.84375 
Q 14.796875 37.203125 14.796875 27.296875 
z
" id="DejaVuSans-64"/>
     <path d="M 19.671875 64.796875 
L 19.671875 8.109375 
L 31.59375 8.109375 
Q 46.6875 8.109375 53.6875 14.9375 
Q 60.6875 21.78125 60.6875 36.53125 
Q 60.6875 51.171875 53.6875 57.984375 
Q 46.6875 64.796875 31.59375 64.796875 
z
M 9.8125 72.90625 
L 30.078125 72.90625 
Q 51.265625 72.90625 61.171875 64.09375 
Q 71.09375 55.28125 71.09375 36.53125 
Q 71.09375 17.671875 61.125 8.828125 
Q 51.171875 0 30.078125 0 
L 9.8125 0 
z
" id="DejaVuSans-44"/>
     <path d="M 56.203125 29.59375 
L 56.203125 25.203125 
L 14.890625 25.203125 
Q 15.484375 15.921875 20.484375 11.0625 
Q 25.484375 6.203125 34.421875 6.203125 
Q 39.59375 6.203125 44.453125 7.46875 
Q 49.3125 8.734375 54.109375 11.28125 
L 54.109375 2.78125 
Q 49.265625 0.734375 44.1875 -0.34375 
Q 39.109375 -1.421875 33.890625 -1.421875 
Q 20.796875 -1.421875 13.15625 6.1875 
Q 5.515625 13.8125 5.515625 26.8125 
Q 5.515625 40.234375 12.765625 48.109375 
Q 20.015625 56 32.328125 56 
Q 43.359375 56 49.78125 48.890625 
Q 56.203125 41.796875 56.203125 29.59375 
z
M 47.21875 32.234375 
Q 47.125 39.59375 43.09375 43.984375 
Q 39.0625 48.390625 32.421875 48.390625 
Q 24.90625 48.390625 20.390625 44.140625 
Q 15.875 39.890625 15.1875 32.171875 
z
" id="DejaVuSans-65"/>
     <path d="M 41.109375 46.296875 
Q 39.59375 47.171875 37.8125 47.578125 
Q 36.03125 48 33.890625 48 
Q 26.265625 48 22.1875 43.046875 
Q 18.109375 38.09375 18.109375 28.8125 
L 18.109375 0 
L 9.078125 0 
L 9.078125 54.6875 
L 18.109375 54.6875 
L 18.109375 46.1875 
Q 20.953125 51.171875 25.484375 53.578125 
Q 30.03125 56 36.53125 56 
Q 37.453125 56 38.578125 55.875 
Q 39.703125 55.765625 41.0625 55.515625 
z
" id="DejaVuSans-72"/>
     <path d="M 2.984375 54.6875 
L 12.5 54.6875 
L 29.59375 8.796875 
L 46.6875 54.6875 
L 56.203125 54.6875 
L 35.6875 0 
L 23.484375 0 
z
" id="DejaVuSans-76"/>
    </defs>
    <g transform="translate(133.971563 35.472)scale(0.12 -0.12)">
     <use xlink:href="#DejaVuSans-56"/>
     <use x="68.376953" xlink:href="#DejaVuSans-69"/>
     <use x="96.160156" xlink:href="#DejaVuSans-73"/>
     <use x="148.259766" xlink:href="#DejaVuSans-69"/>
     <use x="176.042969" xlink:href="#DejaVuSans-62"/>
     <use x="239.519531" xlink:href="#DejaVuSans-69"/>
     <use x="267.302734" xlink:href="#DejaVuSans-6c"/>
     <use x="295.085938" xlink:href="#DejaVuSans-69"/>
     <use x="322.869141" xlink:href="#DejaVuSans-74"/>
     <use x="362.078125" xlink:href="#DejaVuSans-79"/>
     <use x="421.257812" xlink:href="#DejaVuSans-20"/>
     <use x="453.044922" xlink:href="#DejaVuSans-46"/>
     <use x="510.486328" xlink:href="#DejaVuSans-75"/>
     <use x="573.865234" xlink:href="#DejaVuSans-6e"/>
     <use x="637.244141" xlink:href="#DejaVuSans-63"/>
     <use x="692.224609" xlink:href="#DejaVuSans-74"/>
     <use x="731.433594" xlink:href="#DejaVuSans-69"/>
     <use x="759.216797" xlink:href="#DejaVuSans-6f"/>
     <use x="820.398438" xlink:href="#DejaVuSans-6e"/>
     <use x="883.777344" xlink:href="#DejaVuSans-20"/>
     <use x="915.564453" xlink:href="#DejaVuSans-61"/>
     <use x="976.84375" xlink:href="#DejaVuSans-6e"/>
     <use x="1040.222656" xlink:href="#DejaVuSans-64"/>
     <use x="1103.699219" xlink:href="#DejaVuSans-20"/>
     <use x="1135.486328" xlink:href="#DejaVuSans-44"/>
     <use x="1212.488281" xlink:href="#DejaVuSans-65"/>
     <use x="1274.011719" xlink:href="#DejaVuSans-72"/>
     <use x="1315.125" xlink:href="#DejaVuSans-69"/>
     <use x="1342.908203" xlink:href="#DejaVuSans-76"/>
     <use x="1402.087891" xlink:href="#DejaVuSans-61"/>
     <use x="1463.367188" xlink:href="#DejaVuSans-74"/>
     <use x="1502.576172" xlink:href="#DejaVuSans-69"/>
     <use x="1530.359375" xlink:href="#DejaVuSans-76"/>
     <use x="1589.539062" xlink:href="#DejaVuSans-65"/>
     <use x="1651.0625" xlink:href="#DejaVuSans-73"/>
    </g>
   </g>
   <g id="legend_1">
    <g id="patch_10">
     <path d="M 64.6 302.584 
L 128.1 302.584 
Q 130.1 302.584 130.1 300.584 
L 130.1 244.705875 
Q 130.1 242.705875 128.1 242.705875 
L 64.6 242.705875 
Q 62.6 242.705875 62.6 244.705875 
L 62.6 300.584 
Q 62.6 302.584 64.6 302.584 
z
" style="fill:#ffffff;opacity:0.8;stroke:#cccccc;stroke-linejoin:miter;"/>
    </g>
    <g id="line2d_34">
     <path d="M 66.6 250.804312 
L 86.6 250.804312 
" style="fill:none;stroke:#ff0000;stroke-linecap:square;stroke-width:1.5;"/>
    </g>
    <g id="line2d_35"/>
    <g id="text_19">
     <!-- $v_\tau$ -->
     <g transform="translate(94.6 254.304312)scale(0.1 -0.1)">
      <use transform="translate(0 0.3125)" xlink:href="#DejaVuSans-Oblique-76"/>
      <use transform="translate(59.179688 -16.09375)scale(0.7)" xlink:href="#DejaVuSans-Oblique-3c4"/>
     </g>
    </g>
    <g id="line2d_36">
     <path d="M 66.6 268.784 
L 86.6 268.784 
" style="fill:none;stroke:#0000ff;stroke-linecap:square;stroke-width:1.5;"/>
    </g>
    <g id="line2d_37"/>
    <g id="text_20">
     <!-- $\frac{1}{10}\frac{dv_\tau}{d\lambda}$ -->
     <defs>
      <path d="M 41.796875 8.203125 
Q 38.1875 3.46875 33.25 1.015625 
Q 28.328125 -1.421875 22.3125 -1.421875 
Q 14.109375 -1.421875 9.34375 4.171875 
Q 4.59375 9.765625 4.59375 19.484375 
Q 4.59375 27.59375 7.46875 34.9375 
Q 10.359375 42.28125 15.828125 48.09375 
Q 19.4375 51.953125 23.96875 53.96875 
Q 28.515625 56 33.5 56 
Q 38.765625 56 42.796875 53.453125 
Q 46.828125 50.921875 49.03125 46.1875 
L 54.890625 75.984375 
L 63.921875 75.984375 
L 49.125 0 
L 40.09375 0 
z
M 13.921875 21.09375 
Q 13.921875 14.015625 17.109375 10.0625 
Q 20.3125 6.109375 25.984375 6.109375 
Q 30.171875 6.109375 33.765625 8.125 
Q 37.359375 10.15625 40.09375 14.109375 
Q 42.96875 18.21875 44.625 23.578125 
Q 46.296875 28.953125 46.296875 34.1875 
Q 46.296875 40.96875 43.09375 44.765625 
Q 39.890625 48.578125 34.28125 48.578125 
Q 30.03125 48.578125 26.359375 46.578125 
Q 22.703125 44.578125 20.125 40.828125 
Q 17.28125 36.765625 15.59375 31.390625 
Q 13.921875 26.03125 13.921875 21.09375 
z
" id="DejaVuSans-Oblique-64"/>
      <path d="M 36.71875 67.4375 
L 48.828125 0 
L 39.3125 0 
L 31.84375 40.4375 
L 5.125 0 
L -4.390625 0 
L 29.734375 52.4375 
L 28.03125 62.109375 
Q 26.953125 68.265625 21.734375 68.265625 
L 17.046875 68.265625 
L 18.5 75.984375 
L 24.21875 75.875 
Q 35.203125 75.734375 36.71875 67.4375 
z
" id="DejaVuSans-Oblique-3bb"/>
     </defs>
     <g transform="translate(94.6 272.284)scale(0.1 -0.1)">
      <use transform="translate(22 44.326563)scale(0.7)" xlink:href="#DejaVuSans-31"/>
      <use transform="translate(0 -38.876562)scale(0.7)" xlink:href="#DejaVuSans-31"/>
      <use transform="translate(44.536133 -38.876562)scale(0.7)" xlink:href="#DejaVuSans-30"/>
      <use transform="translate(101.572266 55.810938)scale(0.7)" xlink:href="#DejaVuSans-Oblique-64"/>
      <use transform="translate(146.005859 55.810938)scale(0.7)" xlink:href="#DejaVuSans-Oblique-76"/>
      <use transform="translate(187.431641 44.326562)scale(0.49)" xlink:href="#DejaVuSans-Oblique-3c4"/>
      <use transform="translate(117.572266 -40.1125)scale(0.7)" xlink:href="#DejaVuSans-Oblique-64"/>
      <use transform="translate(162.005859 -40.1125)scale(0.7)" xlink:href="#DejaVuSans-Oblique-3bb"/>
      <path d="M 0 19.326563 
L 0 25.576563 
L 89.072266 25.576563 
L 89.072266 19.326563 
L 0 19.326563 
z
"/>
      <path d="M 101.572266 19.326562 
L 101.572266 25.576562 
L 218.846191 25.576562 
L 218.846191 19.326562 
L 101.572266 19.326562 
z
"/>
     </g>
    </g>
    <g id="line2d_38">
     <path d="M 66.6 289.884 
L 86.6 289.884 
" style="fill:none;stroke:#008000;stroke-dasharray:5.55,2.4;stroke-dashoffset:0;stroke-width:1.5;"/>
    </g>
    <g id="line2d_39"/>
    <g id="text_21">
     <!-- $\frac{1}{200}\frac{d^2v_\tau}{d\lambda^2}$ -->
     <g transform="translate(94.6 293.384)scale(0.1 -0.1)">
      <use transform="translate(45 44.351563)scale(0.7)" xlink:href="#DejaVuSans-31"/>
      <use transform="translate(0 -38.851562)scale(0.7)" xlink:href="#DejaVuSans-32"/>
      <use transform="translate(44.536133 -38.851562)scale(0.7)" xlink:href="#DejaVuSans-30"/>
      <use transform="translate(89.072266 -38.851562)scale(0.7)" xlink:href="#DejaVuSans-30"/>
      <use transform="translate(146.108398 55.835938)scale(0.7)" xlink:href="#DejaVuSans-Oblique-64"/>
      <use transform="translate(195.755388 82.632812)scale(0.49)" xlink:href="#DejaVuSans-32"/>
      <use transform="translate(228.844743 55.835938)scale(0.7)" xlink:href="#DejaVuSans-Oblique-76"/>
      <use transform="translate(270.270525 44.351562)scale(0.49)" xlink:href="#DejaVuSans-Oblique-3c4"/>
      <use transform="translate(162.108398 -50.0625)scale(0.7)" xlink:href="#DejaVuSans-Oblique-64"/>
      <use transform="translate(206.541992 -50.0625)scale(0.7)" xlink:href="#DejaVuSans-Oblique-3bb"/>
      <use transform="translate(253.181169 -23.265625)scale(0.49)" xlink:href="#DejaVuSans-32"/>
      <path d="M 0 19.351563 
L 0 25.601563 
L 133.608398 25.601563 
L 133.608398 19.351563 
L 0 19.351563 
z
"/>
      <path d="M 146.108398 19.351562 
L 146.108398 25.601562 
L 301.685076 25.601562 
L 301.685076 19.351562 
L 146.108398 19.351562 
z
"/>
     </g>
    </g>
   </g>
  </g>
 </g>
 <defs>
  <clipPath id="p5b0e2bc181">
   <rect height="266.112" width="357.12" x="57.6" y="41.472"/>
  </clipPath>
 </defs>
</svg>
